<svg width="23" height="15" viewBox="0 0 23 15" fill="none" xmlns="http://www.w3.org/2000/svg">
<g clip-path="url(#clip0_3592_385)">
<mask id="mask0_3592_385" style="mask-type:luminance" maskUnits="userSpaceOnUse" x="0" y="3" width="23" height="10">
<path d="M22.3166 3.49713H0.707153V12.1665H22.3166V3.49713Z" fill="white"/>
</mask>
<g mask="url(#mask0_3592_385)">
<path d="M22.3166 11.5255C22.3166 11.8797 22.0717 12.1665 21.7692 12.1665H1.24019C0.937656 12.1665 0.692749 11.8797 0.692749 11.5255V4.13806C0.692749 3.78386 0.937656 3.49713 1.24019 3.49713H21.7548C22.0573 3.49713 22.3022 3.78386 22.3022 4.13806V11.5255H22.3166Z" fill="#A0D8EF"/>
<path d="M7.21872 10.1088V10.581H6.75772V10.1088H6.55603V11.34H6.75772V10.8172H7.21872V11.34H7.42041V10.1088H7.36278H7.21872Z" fill="#26499D"/>
<path d="M8.19844 10.0919H8.06879L7.6366 11.2894L7.82388 11.3738C7.82388 11.3738 7.93913 11.0702 7.95354 11.0027H8.34251L8.48657 11.3738L8.67385 11.2894L8.22726 10.0919H8.19844ZM8.27047 10.7666H8.03997C8.06879 10.6822 8.112 10.5642 8.15522 10.4461C8.18404 10.5642 8.24166 10.6822 8.27047 10.7666Z" fill="#26499D"/>
<path d="M9.49497 10.1088L9.23566 10.5473L8.94753 10.0582L8.77466 10.1931L9.13482 10.7834V11.3231H9.3365V10.7834L9.69666 10.1931L9.52379 10.0582L9.49497 10.1088Z" fill="#26499D"/>
<path d="M10.3449 10.0919H10.2153L9.78308 11.2894L9.97036 11.3738L10.1 11.0027H10.489L10.6331 11.3738L10.8203 11.2894L10.3737 10.0919H10.3449ZM10.3017 10.463C10.3449 10.581 10.3881 10.6991 10.417 10.7834H10.1865L10.3017 10.463Z" fill="#26499D"/>
<path d="M11.7856 10.2606L11.6416 10.0919L11.6127 10.1257L11.2526 10.5473V10.1088H11.0509V11.34H11.2526V10.8846C11.267 10.8678 11.2958 10.834 11.3246 10.8003L11.7136 11.3569L11.8721 11.222L11.4687 10.6316C11.5119 10.581 11.7856 10.2606 11.7856 10.2606Z" fill="#26499D"/>
<path d="M12.5492 10.0919H12.4195L11.9873 11.2894L12.1746 11.3738L12.3042 11.0027H12.7076L12.8517 11.3738L13.039 11.2894L12.5924 10.0919H12.5492ZM12.6212 10.7666H12.3907C12.4195 10.6822 12.4627 10.5642 12.5059 10.4461C12.5492 10.5642 12.5924 10.6822 12.6212 10.7666Z" fill="#26499D"/>
<path d="M13.9897 10.2606L13.8457 10.0919L13.8169 10.1257L13.4423 10.5473V10.1088H13.2406V11.34H13.4423V10.8846L13.5143 10.8003L13.9033 11.3569L14.0618 11.222L13.6584 10.6316L13.9897 10.2606Z" fill="#26499D"/>
<path d="M14.4939 10.8172H14.9117V10.5979H14.4939V10.3449H14.9693V10.1088H14.9261H14.3066V11.34H14.9837V11.1039H14.4939V10.8172Z" fill="#26499D"/>
<path d="M16.0066 10.1088H15.8625V10.8846C15.7473 10.6485 15.4735 10.1256 15.4735 10.1256H15.2574V11.3569H15.4591V10.581C15.5744 10.8172 15.8481 11.3737 15.8481 11.3737H16.0498V10.1088H16.0066Z" fill="#26499D"/>
<path d="M4.13579 5.31868C4.19341 5.35241 4.17901 5.41988 4.13579 5.43674C4.06376 5.47047 3.99172 5.50421 3.90529 5.52107C3.90529 5.38614 3.90529 5.25121 3.90529 5.13315C3.91969 5.15001 3.94851 5.16688 3.96291 5.18375C4.03494 5.23434 4.09257 5.26808 4.13579 5.31868ZM4.76967 8.1691C4.6112 7.93297 4.30866 7.69684 3.96291 7.54504C3.9341 6.87039 3.91969 6.33066 3.91969 5.82467C4.17901 5.77407 4.51035 5.68974 4.58238 5.58854C4.72645 5.41988 4.66882 5.25121 4.48154 5.23434C4.32307 5.23434 4.15019 5.20061 4.00613 5.13315C3.97732 5.11628 3.94851 5.11628 3.91969 5.09941C3.91969 5.01508 3.91969 4.91388 3.91969 4.82955C3.91969 4.74522 3.99172 4.71149 3.99172 4.61029C3.99172 4.39102 3.60275 4.15489 3.34344 4.22236C3.22819 4.25609 3.22819 4.30669 3.34344 4.35729C3.4875 4.42476 3.57394 4.50909 3.60275 4.82955C3.61716 5.08255 3.63157 5.31868 3.64597 5.57167C3.22819 5.63914 2.66634 5.62227 2.52228 5.43674C2.45025 5.35241 2.43584 5.36928 2.46465 5.48734C2.5655 5.8078 3.05531 5.94273 3.66038 5.8584C3.67479 6.36439 3.67478 6.88725 3.68919 7.44384C3.08413 7.27518 2.62312 7.37638 2.50787 7.8655C2.29178 8.82689 4.02054 8.96182 3.99172 8.0173C3.99172 7.98357 3.99172 7.9161 3.99172 7.88237C4.19341 8.0173 4.36629 8.2197 4.49595 8.43896C4.6256 8.67509 4.97135 8.50643 4.76967 8.1691ZM2.06128 6.49933C2.09009 6.38126 2.04687 6.36439 2.00365 6.48246C1.84518 6.88725 1.70112 7.29205 1.58587 7.69684C1.55706 7.79804 1.51384 7.76431 1.48502 7.66311C1.38418 7.25831 1.38418 6.36439 1.80196 5.38614C1.874 5.25121 1.93162 5.11628 1.97484 4.96448C2.00365 4.74522 1.84518 4.45849 1.64349 4.34042C1.58587 4.30669 1.55706 4.30669 1.57146 4.37416C1.61468 4.66089 1.58587 4.79582 1.49943 5.15001C1.2113 6.44873 1.09605 7.30891 1.38418 8.2703C1.55706 8.81002 1.85959 8.72569 1.81637 8.2703C1.78756 7.9161 1.83078 7.42698 2.06128 6.49933ZM3.67479 7.8655C3.68919 8.64136 2.53669 8.3715 2.60872 7.88237C2.68075 7.49444 3.19938 7.46071 3.67479 7.71371V7.8655Z" fill="white"/>
<path d="M7.50693 5.31868C7.2188 5.43674 6.94508 5.57167 6.67136 5.74034C6.57052 5.53794 6.44086 5.26808 6.36883 5.09941C6.25358 4.84642 6.35442 4.71149 6.57052 4.72835C6.78661 4.74522 7.11796 4.74522 7.50693 5.31868ZM8.88993 7.05592C9.66788 6.71859 9.7255 5.30181 8.74587 5.09941C8.51537 5.06568 8.28487 5.08255 8.06877 5.13315C8.05437 4.76208 7.80946 4.45849 7.49252 4.42476C7.39168 4.40789 7.37727 4.45849 7.46371 4.50909C7.62218 4.61029 7.72302 4.79582 7.73743 4.99821C7.73743 5.08255 7.6798 5.15001 7.59337 5.06568C7.27643 4.77895 6.90186 4.61029 6.49849 4.57655C5.97986 4.52595 5.8502 4.98135 6.0663 5.23434C6.22477 5.41987 6.38324 5.62227 6.51289 5.84154C6.2968 5.97647 6.10952 6.09453 5.97986 6.17886C5.79258 6.29693 5.54767 6.36439 5.40361 6.2632C5.33157 6.19573 5.27395 6.17886 5.28836 6.28006C5.33157 6.61739 5.66292 6.83665 5.80698 6.78605C5.95105 6.73545 5.95105 6.61739 6.21036 6.39813C6.35442 6.28006 6.49849 6.162 6.61374 6.07766C6.95949 6.87039 7.14677 7.74744 7.14677 8.64136C7.14677 9.18108 7.59337 9.04615 7.56455 8.62449C7.52133 7.76431 7.11796 6.70172 6.7578 5.9596C7.01711 5.77407 7.29083 5.60541 7.57896 5.45361C7.6654 5.57167 7.83827 5.58854 7.93912 5.48734C7.99674 5.43674 8.02556 5.36928 8.02556 5.28494C8.24165 5.21748 8.47215 5.20061 8.70265 5.23434C9.32212 5.36928 9.33653 6.36439 8.73146 6.66799C8.24165 6.90412 7.6654 6.73545 7.33405 6.24633C7.24761 6.1114 7.2188 6.162 7.26202 6.31379C7.57896 7.03905 8.34249 7.29205 8.88993 7.05592Z" fill="white"/>
<path d="M13.788 7.00534C13.7016 6.92101 13.6583 6.92101 13.2838 6.88728C13.1397 6.87041 13.1397 6.81981 13.2694 6.80295C13.4134 6.76921 13.5575 6.73548 13.7016 6.66801C13.8024 6.63428 13.8312 6.54995 13.8168 6.41502C13.788 6.04396 13.6295 5.77409 13.2406 5.5211C13.1541 5.4705 13.1685 5.43677 13.2694 5.4705C14.0617 5.63916 14.3931 6.49935 14.1049 7.02221C13.9897 7.24147 13.8744 7.10654 13.788 7.00534ZM11.9872 8.40526C11.7279 8.72572 11.4542 8.59079 11.4398 8.43899C11.411 8.23659 11.3245 8.10166 11.0796 7.84866C10.9932 7.76433 11.022 7.74747 11.1084 7.7812C11.2669 7.86553 11.4254 7.933 11.5838 8.00046C11.6991 8.05106 11.7711 8.01733 11.8287 7.94986C12.0304 7.66313 12.1889 7.15714 12.2609 6.41502C12.3042 5.89216 12.0737 5.68976 11.6271 5.82469C11.5118 5.85843 11.411 5.89216 11.3389 5.92589C11.1661 6.66802 10.9644 7.3764 10.7195 8.08479C10.6042 8.35466 10.4746 8.59079 10.3449 8.45585C10.2441 8.33779 10.2441 8.13539 10.3737 7.91613C10.7051 7.34267 10.9356 6.71861 11.094 6.04396C11.0508 6.06082 11.022 6.07769 10.9788 6.09456C10.5466 6.29695 10.6186 6.36442 10.5034 6.41502C10.3881 6.46562 10.1864 6.17889 10.1432 5.89216C10.1288 5.82469 10.172 5.80783 10.2152 5.84156C10.3593 5.94276 10.4169 5.95963 10.6762 5.89216C10.8347 5.85843 10.9932 5.80783 11.1661 5.75723C11.2093 5.50423 11.2525 5.25124 11.2813 4.99824C11.2957 4.82958 11.3101 4.62718 11.094 4.49225C11.0076 4.44165 10.9932 4.40792 11.1084 4.39105C11.483 4.35732 11.7135 4.61031 11.7135 4.81271C11.7135 4.94764 11.6271 4.99824 11.5694 5.20064C11.5262 5.35243 11.4686 5.5211 11.4254 5.70663C11.4974 5.68976 11.5694 5.6729 11.6559 5.65603C12.2753 5.53797 12.5491 5.87529 12.5491 6.44875C12.5202 7.05594 12.3762 7.94986 11.9872 8.40526Z" fill="white"/>
<path d="M16.1362 8.18601C16.2083 8.48961 15.9922 8.62454 15.8481 8.33781C15.56 7.78122 15.6176 6.85356 15.8049 5.95965C15.8481 5.77411 15.8769 5.57172 15.8625 5.38619C15.8481 5.30186 15.8625 5.30186 15.9346 5.35245C16.0642 5.45365 16.2083 5.67292 16.1507 5.85845C16.1218 5.94278 16.0642 6.01024 16.0066 6.17891C15.6897 7.08969 15.7905 7.46076 15.8337 7.71375C15.8481 7.78122 15.8913 7.79808 15.9057 7.73062C15.9778 7.42702 16.0498 7.17403 16.1651 6.81983C16.1939 6.7355 16.2227 6.7355 16.2083 6.81983C16.093 7.57882 16.0786 7.96675 16.1362 8.18601ZM17.8074 6.38131C17.8074 6.90416 17.8362 7.37642 17.7209 7.76435C17.5769 8.23661 17.2743 8.54021 16.6693 8.7426C16.5973 8.75947 16.5684 8.7426 16.6405 8.692C17.1591 8.42214 17.3752 8.13541 17.4904 7.68002C17.5625 7.41016 17.5625 6.8873 17.5481 6.41504C17.1879 6.46564 16.5973 6.4825 16.482 6.17891C16.4532 6.09458 16.4676 6.11144 16.5252 6.14518C16.6981 6.26324 17.1447 6.22951 17.5337 6.17891C17.5337 6.02711 17.5193 5.89218 17.5193 5.79098C17.4904 5.55485 17.476 5.45365 17.3032 5.36932C17.2311 5.33559 17.2455 5.28499 17.3176 5.28499C17.5337 5.26812 17.8218 5.38619 17.8362 5.55485C17.8506 5.65605 17.7786 5.65605 17.7786 5.85845C17.7786 5.95964 17.7786 6.04398 17.7786 6.14518C17.9226 6.11144 18.0379 6.09458 18.1243 6.06084C18.3548 6.02711 18.4413 6.33071 18.1819 6.34757C18.1099 6.34757 17.9659 6.36444 17.8074 6.38131Z" fill="white"/>
<path d="M20.5158 8.54021C19.9107 8.30408 20.3717 7.30896 20.0548 7.12343C19.7667 6.95476 19.1328 7.37642 18.9743 8.21974C18.9599 8.32094 18.9311 8.60767 18.7582 8.60767C18.6142 8.60767 18.5854 8.43901 18.6142 8.23661C18.643 7.98361 18.9023 7.59569 19.7523 5.84158C19.8531 5.65605 19.8531 5.41992 19.7523 5.23439C19.709 5.15006 19.7379 5.13319 19.8243 5.16692C20.0116 5.23439 20.1556 5.41992 20.1989 5.65605C20.1989 5.80785 20.1124 5.89218 19.9828 6.04398C19.6658 6.41504 19.4065 6.85356 19.2192 7.34269C19.1904 7.42702 19.2192 7.44389 19.2624 7.37642C19.4353 7.14029 19.8387 6.81983 20.1556 6.9885C20.6887 7.25836 20.2277 8.15228 20.6022 8.30408C20.9192 8.42214 21.4522 8.16914 21.6971 7.30896C21.7259 7.20776 21.7691 7.22463 21.7547 7.34269C21.6539 8.18601 21.1065 8.75947 20.5158 8.54021Z" fill="white"/>
</g>
</g>
<defs>
<clipPath id="clip0_3592_385">
<rect width="22.0561" height="14.3364" fill="white" transform="translate(0.476685 0.663574)"/>
</clipPath>
</defs>
</svg>
