<svg width="23" height="15" viewBox="0 0 23 15" fill="none" xmlns="http://www.w3.org/2000/svg">
<mask id="mask0_3592_359" style="mask-type:luminance" maskUnits="userSpaceOnUse" x="1" y="1" width="20" height="14">
<path d="M20.4408 1.20331H1.63V14.4772H20.4408V1.20331Z" fill="white"/>
</mask>
<g mask="url(#mask0_3592_359)">
<path d="M19.78 1.20331H2.27616C1.92373 1.20331 1.63004 1.52377 1.61536 1.94543V13.7351C1.61536 14.1398 1.90905 14.4772 2.26147 14.4772H19.7507C20.1031 14.4772 20.3968 14.1567 20.4115 13.7351V1.94543C20.4262 1.52377 20.1325 1.20331 19.78 1.20331Z" fill="#DCDDDD"/>
<path d="M10.6756 6.70178C10.4407 6.70178 10.2204 6.83671 10.0736 7.03911C9.89736 7.25837 9.79456 7.56197 9.80925 7.86556C9.79456 8.16916 9.89736 8.47276 10.0736 8.69202C10.3526 9.07995 10.8518 9.13055 11.1896 8.81008C11.2336 8.77635 11.263 8.72575 11.2924 8.69202C11.4686 8.47276 11.5714 8.16916 11.5567 7.86556C11.5714 7.56197 11.4686 7.25837 11.2924 7.03911C11.1309 6.81985 10.9106 6.70178 10.6756 6.70178Z" fill="#A3D1D0"/>
<path d="M8.78138 8.69199C8.76669 8.69199 8.73732 8.69199 8.72264 8.70885C8.69327 8.74259 8.64922 8.75945 8.61985 8.79319C8.54643 8.87752 8.45832 8.96185 8.37021 8.99558C8.20868 9.06305 8.04715 9.07992 7.88563 9.07992C7.60662 9.09678 7.32762 8.99558 7.12203 8.79319C6.94582 8.60766 6.84303 8.33779 6.84303 8.06793V7.71374C6.82834 7.49447 6.88708 7.27521 6.98987 7.08968C7.07798 6.92101 7.19546 6.80295 7.3423 6.70175C7.47446 6.61742 7.63599 6.58369 7.78283 6.58369C7.91499 6.58369 8.03247 6.61742 8.16463 6.66802C8.28211 6.71862 8.3849 6.78608 8.473 6.88728C8.51706 6.95475 8.54643 7.02221 8.56111 7.10655C8.56111 7.17401 8.59048 7.24148 8.61985 7.29208C8.64922 7.30894 8.67859 7.32581 8.72264 7.32581C8.76669 7.32581 8.81075 7.30894 8.84012 7.27521C8.88417 7.20774 8.89885 7.12341 8.88417 7.05595V6.58369C8.88417 6.44876 8.8548 6.39816 8.84012 6.36442C8.81075 6.33069 8.76669 6.31382 8.72264 6.31382C8.69327 6.31382 8.6639 6.31382 8.64922 6.33069C8.61985 6.34756 8.59048 6.38129 8.5758 6.41502L8.53174 6.48249L8.45832 6.43189C8.35553 6.36442 8.25274 6.31382 8.13526 6.28009C8.01779 6.24636 7.88563 6.22949 7.75346 6.22949C7.5332 6.22949 7.31293 6.29696 7.12203 6.43189C6.93113 6.54995 6.76961 6.73548 6.66681 6.97161C6.54934 7.20774 6.4906 7.46074 6.4906 7.7306V8.10166C6.4906 8.35466 6.54934 8.59079 6.66681 8.81005C6.78429 9.01245 6.93113 9.18111 7.12203 9.28231C7.35698 9.41724 7.60662 9.48471 7.87094 9.48471C8.09121 9.48471 8.31147 9.43411 8.53174 9.34978C8.6639 9.29918 8.78138 9.19798 8.86949 9.07992C8.91354 9.02932 8.94291 8.96185 8.94291 8.89438C8.94291 8.84379 8.92822 8.79319 8.89885 8.75945C8.86948 8.70885 8.82543 8.69199 8.78138 8.69199Z" fill="#A3D1D0"/>
<path d="M5.81513 6.68487C5.94729 6.68487 5.99134 6.65114 6.02071 6.63427C6.05008 6.60054 6.07945 6.54994 6.06476 6.49934C6.06476 6.44874 6.05008 6.39814 6.02071 6.36441C5.99134 6.33068 5.94729 6.31381 5.81513 6.31381H4.34668C4.27326 6.29695 4.19984 6.33068 4.1411 6.36441C4.11173 6.39814 4.08236 6.44874 4.09705 6.49934C4.09705 6.54994 4.11173 6.60054 4.1411 6.63427C4.19984 6.68487 4.27326 6.70174 4.34668 6.68487H4.91938V9.01244H4.34668C4.27326 8.99557 4.19984 9.01244 4.1411 9.06304C4.11173 9.09677 4.09705 9.14737 4.09705 9.19797C4.09705 9.24857 4.11173 9.29917 4.1411 9.3329C4.17047 9.36663 4.21452 9.3835 4.34668 9.3835H5.81513C5.94729 9.3835 5.99134 9.36663 6.02071 9.3329C6.05008 9.29917 6.07945 9.24857 6.06476 9.19797C6.06476 9.14737 6.05008 9.09677 6.02071 9.06304C6.00603 9.0293 5.94729 9.01244 5.81513 9.01244H5.24243V6.68487H5.81513Z" fill="#A3D1D0"/>
<path d="M16.7697 7.02222C16.6816 7.02222 16.6081 7.12342 16.5641 7.27522C16.5935 7.25835 16.6228 7.24149 16.6522 7.24149C16.755 7.24149 16.8284 7.37642 16.8284 7.52821C16.8284 7.68001 16.755 7.81494 16.6522 7.81494C16.6228 7.81494 16.5935 7.79808 16.5641 7.78121C16.6081 7.93301 16.6816 8.03421 16.7697 8.03421C16.8871 8.03421 17.0046 7.79808 17.0046 7.52821C17.0046 7.25835 16.8871 7.00536 16.7697 7.02222Z" fill="#A3D1D0"/>
<path d="M17.6067 7.02221C17.5186 7.02221 17.4452 7.12341 17.4011 7.27521C17.4305 7.24148 17.4599 7.24148 17.4892 7.22461C17.5773 7.22461 17.6508 7.35954 17.6508 7.51134C17.6508 7.66314 17.5773 7.79807 17.4892 7.79807C17.4599 7.79807 17.4305 7.7812 17.4011 7.76434C17.4452 7.91613 17.5186 8.01733 17.6067 8.01733C17.7389 8.01733 17.8417 7.7812 17.8417 7.51134C17.8417 7.24148 17.7389 7.00535 17.6067 7.02221Z" fill="#A3D1D0"/>
<path d="M5.81504 8.84381C5.91783 8.82695 6.0353 8.86068 6.12341 8.94501C6.19683 9.01248 6.2262 9.11368 6.2262 9.19801C6.2262 9.29921 6.19683 9.4004 6.12341 9.451C6.0353 9.51847 5.91783 9.5522 5.81504 9.5522H4.34659C4.2438 9.56907 4.12632 9.53534 4.03822 9.451C3.97948 9.38354 3.93542 9.28234 3.93542 9.18114C3.93542 9.07994 3.96479 8.97874 4.03822 8.92814C4.12632 8.86068 4.2438 8.81008 4.34659 8.82695H4.75776V6.87044H4.34659C4.22911 6.88731 4.12632 6.85358 4.03822 6.76924C3.97948 6.70178 3.93542 6.60058 3.93542 6.51625C3.93542 6.41505 3.96479 6.31385 4.03822 6.26325C4.12632 6.17892 4.2438 6.14519 4.34659 6.16205H5.81504C5.91783 6.14519 6.0353 6.17892 6.12341 6.26325C6.19683 6.33072 6.2262 6.43192 6.2262 6.51625C6.2262 6.61745 6.19683 6.71865 6.12341 6.76924C6.0353 6.83671 5.91783 6.88731 5.81504 6.87044H5.40387V8.84381H5.81504Z" fill="#F8F5B0"/>
<path d="M8.98695 9.1811C8.86948 9.31603 8.73732 9.4341 8.57579 9.50156C8.35552 9.60276 8.10589 9.65336 7.87093 9.65336C7.59193 9.65336 7.31292 9.58589 7.06329 9.45096C6.85771 9.3329 6.68149 9.14737 6.54933 8.91124C6.41717 8.67511 6.34375 8.40524 6.34375 8.11852V7.74745C6.34375 7.46072 6.40249 7.15713 6.53465 6.90413C6.65212 6.65114 6.82834 6.43187 7.0486 6.29694C7.26887 6.16201 7.50382 6.07768 7.75346 6.09455C7.9003 6.09455 8.03246 6.11141 8.16462 6.14514C8.26742 6.17888 8.37021 6.22948 8.473 6.29694C8.48768 6.26321 8.51705 6.24634 8.54642 6.22948C8.59047 6.19574 8.63453 6.17888 8.69327 6.17888C8.78137 6.17888 8.86948 6.21261 8.92822 6.29694C8.98695 6.39814 9.03101 6.51621 9.01632 6.63427V7.0728C9.03101 7.19086 8.98695 7.30893 8.92822 7.41013C8.86948 7.47759 8.78137 7.52819 8.69327 7.52819C8.61984 7.52819 8.54642 7.51132 8.48768 7.44386C8.42894 7.35953 8.38489 7.27519 8.37021 7.15713C8.37021 7.10653 8.35552 7.05593 8.32615 7.0222C8.25273 6.93787 8.17931 6.88727 8.07652 6.85353C7.97373 6.80293 7.87093 6.78607 7.75346 6.78607C7.6213 6.78607 7.50382 6.8198 7.38635 6.88727C7.26887 6.9716 7.16608 7.0728 7.09266 7.20773C7.00455 7.35953 6.9605 7.54506 6.97518 7.73059V8.08478C6.97518 8.30405 7.0486 8.52331 7.19545 8.67511C7.38635 8.84377 7.6213 8.9281 7.85625 8.91124C8.0031 8.91124 8.14994 8.89437 8.2821 8.8269C8.35552 8.79317 8.42894 8.72571 8.48768 8.65824C8.53174 8.60764 8.57579 8.55704 8.61984 8.52331C8.6639 8.50644 8.70795 8.48958 8.752 8.48958C8.84011 8.48958 8.91353 8.52331 8.97227 8.59077C9.03101 8.65824 9.06038 8.75944 9.07506 8.84377C9.08975 8.99557 9.04569 9.09677 8.98695 9.1811Z" fill="#F8F5B0"/>
<path d="M11.6301 9.07994C11.1602 9.68713 10.3525 9.73773 9.82389 9.19801C9.8092 9.18114 9.8092 9.18114 9.79452 9.16428C9.47146 8.84381 9.29525 8.35469 9.30993 7.86556C9.29525 7.37644 9.47146 6.90418 9.79452 6.56685C10.3085 6.01026 11.1161 6.02712 11.6154 6.61745C11.6154 6.63431 11.6301 6.63431 11.6301 6.65118C11.9091 6.97164 12.0559 7.41017 12.0412 7.86556C12.0559 8.30409 11.9091 8.74262 11.6301 9.07994Z" fill="white"/>
<path d="M14.9341 9.13054C14.8313 9.26547 14.6992 9.36667 14.567 9.43413C14.3467 9.53533 14.1265 9.58593 13.8915 9.58593C13.6272 9.58593 13.3482 9.51846 13.1132 9.38353C12.9223 9.26547 12.7608 9.0968 12.6433 8.87754C12.5112 8.65828 12.4377 8.38841 12.4377 8.11855V7.73062C12.4377 7.46076 12.4965 7.1909 12.614 6.9379C12.7314 6.70177 12.893 6.49938 13.0985 6.36445C13.3041 6.22951 13.5244 6.16205 13.7593 6.16205C13.8915 6.16205 14.0237 6.17892 14.1558 6.21265C14.2733 6.24638 14.3908 6.31385 14.4936 6.38131C14.5229 6.34758 14.5523 6.29698 14.5964 6.28011C14.6992 6.21265 14.8166 6.24638 14.8901 6.33071C14.9341 6.41504 14.9635 6.49938 14.9488 6.60058V7.07283C14.9635 7.17403 14.9341 7.27523 14.8754 7.35956C14.8313 7.41016 14.7726 7.4439 14.6992 7.4439C14.6404 7.4439 14.5817 7.42703 14.5376 7.37643C14.4936 7.30896 14.4495 7.22463 14.4495 7.1403C14.4495 7.07283 14.4201 7.02224 14.3908 6.97164C14.3174 6.8873 14.2146 6.81984 14.1118 6.76924C13.9943 6.71864 13.8768 6.70177 13.7593 6.70177C13.2748 6.70177 12.893 7.15717 12.893 7.71376V7.73062V8.08482C12.893 8.33782 12.9811 8.57395 13.1426 8.74261C13.3482 8.92814 13.5978 9.02934 13.8475 9.01247C14.009 9.01247 14.1558 8.99561 14.3027 8.92814C14.3908 8.87754 14.4642 8.82694 14.5376 8.74261C14.567 8.70888 14.611 8.65828 14.6551 8.64141C14.6845 8.62454 14.7138 8.60768 14.7579 8.60768C14.8166 8.60768 14.8901 8.64141 14.9341 8.69201C14.9782 8.74261 15.0075 8.81007 15.0075 8.89441C15.0222 8.97874 14.9928 9.06307 14.9341 9.13054Z" fill="white"/>
<path d="M18.3849 9.4004C18.3115 9.46786 18.2234 9.48473 18.1206 9.48473H17.4892C17.4011 9.48473 17.313 9.46786 17.2249 9.4004C17.1808 9.3498 17.1514 9.28233 17.1514 9.198C17.1514 9.13053 17.1808 9.0462 17.2249 8.9956C17.2983 8.945 17.3864 8.91127 17.4892 8.92814H17.6067L17.4892 8.59081H16.3144L16.197 8.92814H16.3144C16.4025 8.91127 16.4906 8.945 16.5641 8.9956C16.6081 9.0462 16.6375 9.11367 16.6375 9.198C16.6375 9.26547 16.6081 9.3498 16.5641 9.4004C16.4906 9.451 16.4025 9.48473 16.3144 9.48473H15.6683C15.5802 9.5016 15.4921 9.46786 15.404 9.4004C15.3599 9.3498 15.3306 9.28233 15.3306 9.198C15.3306 9.13053 15.3599 9.0462 15.404 8.9956C15.4774 8.92814 15.5655 8.91127 15.6683 8.92814L16.4319 6.76924H16.1088C16.0207 6.7861 15.9326 6.75237 15.8445 6.70177C15.8005 6.65117 15.7711 6.58371 15.7711 6.49937C15.7711 6.43191 15.8005 6.34758 15.8445 6.29698C15.9179 6.22951 16.0061 6.21265 16.1088 6.21265H17.1514L17.4158 6.95477C17.4745 6.90417 17.5332 6.87044 17.6067 6.87044C17.8122 6.87044 17.9738 7.15716 17.9738 7.51136C17.9885 7.71376 17.9297 7.89929 17.8122 8.05108L18.1206 8.91127C18.194 8.89441 18.2821 8.91127 18.3556 8.96187C18.4143 9.01247 18.4584 9.0968 18.4584 9.18113C18.473 9.28233 18.4437 9.3498 18.3849 9.4004Z" fill="white"/>
<path d="M10.6756 6.70178C10.4407 6.70178 10.2204 6.83671 10.0736 7.03911C9.89736 7.25837 9.79456 7.56197 9.80925 7.86556C9.79456 8.16916 9.89736 8.47276 10.0736 8.69202C10.3526 9.07995 10.8518 9.13055 11.1896 8.81008C11.2336 8.77635 11.263 8.72575 11.2924 8.69202C11.4686 8.47276 11.5714 8.16916 11.5567 7.86556C11.5714 7.56197 11.4686 7.25837 11.2924 7.03911C11.1309 6.81985 10.9106 6.70178 10.6756 6.70178Z" fill="#31A7DA"/>
<path d="M8.78138 8.69199C8.76669 8.69199 8.73732 8.69199 8.72264 8.70885C8.69327 8.74259 8.64922 8.75945 8.61985 8.79319C8.54643 8.87752 8.45832 8.96185 8.37021 8.99558C8.20868 9.06305 8.04715 9.07992 7.88563 9.07992C7.60662 9.09678 7.32762 8.99558 7.12203 8.79319C6.94582 8.60766 6.84303 8.33779 6.84303 8.06793V7.71374C6.82834 7.49447 6.88708 7.27521 6.98987 7.08968C7.07798 6.92101 7.19546 6.80295 7.3423 6.70175C7.47446 6.61742 7.63599 6.58369 7.78283 6.58369C7.91499 6.58369 8.03247 6.61742 8.16463 6.66802C8.28211 6.71862 8.3849 6.78608 8.473 6.88728C8.51706 6.95475 8.54643 7.02221 8.56111 7.10655C8.56111 7.17401 8.59048 7.24148 8.61985 7.29208C8.64922 7.30894 8.67859 7.32581 8.72264 7.32581C8.76669 7.32581 8.81075 7.30894 8.84012 7.27521C8.88417 7.20774 8.89885 7.12341 8.88417 7.05595V6.58369C8.88417 6.44876 8.8548 6.39816 8.84012 6.36442C8.81075 6.33069 8.76669 6.31382 8.72264 6.31382C8.69327 6.31382 8.6639 6.31382 8.64922 6.33069C8.61985 6.34756 8.59048 6.38129 8.5758 6.41502L8.53174 6.48249L8.45832 6.43189C8.35553 6.36442 8.25274 6.31382 8.13526 6.28009C8.01779 6.24636 7.88563 6.22949 7.75346 6.22949C7.5332 6.22949 7.31293 6.29696 7.12203 6.43189C6.93113 6.54995 6.76961 6.73548 6.66681 6.97161C6.54934 7.20774 6.4906 7.46074 6.4906 7.7306V8.10166C6.4906 8.35466 6.54934 8.59079 6.66681 8.81005C6.78429 9.01245 6.93113 9.18111 7.12203 9.28231C7.35698 9.41724 7.60662 9.48471 7.87094 9.48471C8.09121 9.48471 8.31147 9.43411 8.53174 9.34978C8.6639 9.29918 8.78138 9.19798 8.86949 9.07992C8.91354 9.02932 8.94291 8.96185 8.94291 8.89438C8.94291 8.84379 8.92822 8.79319 8.89885 8.75945C8.86948 8.70885 8.82543 8.69199 8.78138 8.69199Z" fill="#31A7DA"/>
<path d="M5.81513 6.68487C5.94729 6.68487 5.99134 6.65114 6.02071 6.63427C6.05008 6.60054 6.07945 6.54994 6.06476 6.49934C6.06476 6.44874 6.05008 6.39814 6.02071 6.36441C5.99134 6.33068 5.94729 6.31381 5.81513 6.31381H4.34668C4.27326 6.29695 4.19984 6.33068 4.1411 6.36441C4.11173 6.39814 4.08236 6.44874 4.09705 6.49934C4.09705 6.54994 4.11173 6.60054 4.1411 6.63427C4.19984 6.68487 4.27326 6.70174 4.34668 6.68487H4.91938V9.01244H4.34668C4.27326 8.99557 4.19984 9.01244 4.1411 9.06304C4.11173 9.09677 4.09705 9.14737 4.09705 9.19797C4.09705 9.24857 4.11173 9.29917 4.1411 9.3329C4.17047 9.36663 4.21452 9.3835 4.34668 9.3835H5.81513C5.94729 9.3835 5.99134 9.36663 6.02071 9.3329C6.05008 9.29917 6.07945 9.24857 6.06476 9.19797C6.06476 9.14737 6.05008 9.09677 6.02071 9.06304C6.00603 9.0293 5.94729 9.01244 5.81513 9.01244H5.24243V6.68487H5.81513Z" fill="#31A7DA"/>
<path d="M16.7697 7.02222C16.6816 7.02222 16.6081 7.12342 16.5641 7.27522C16.5935 7.25835 16.6228 7.24149 16.6522 7.24149C16.755 7.24149 16.8284 7.37642 16.8284 7.52821C16.8284 7.68001 16.755 7.81494 16.6522 7.81494C16.6228 7.81494 16.5935 7.79808 16.5641 7.78121C16.6081 7.93301 16.6816 8.03421 16.7697 8.03421C16.8871 8.03421 17.0046 7.79808 17.0046 7.52821C17.0046 7.25835 16.8871 7.00536 16.7697 7.02222Z" fill="#31A7DA"/>
<path d="M17.6067 7.02221C17.5186 7.02221 17.4452 7.12341 17.4011 7.27521C17.4305 7.24148 17.4599 7.24148 17.4892 7.22461C17.5773 7.22461 17.6508 7.35954 17.6508 7.51134C17.6508 7.66314 17.5773 7.79807 17.4892 7.79807C17.4599 7.79807 17.4305 7.7812 17.4011 7.76434C17.4452 7.91613 17.5186 8.01733 17.6067 8.01733C17.7389 8.01733 17.8417 7.7812 17.8417 7.51134C17.8417 7.24148 17.7389 7.00535 17.6067 7.02221Z" fill="#31A7DA"/>
<path d="M5.81508 8.84376C5.93256 8.8269 6.03535 8.86063 6.12346 8.94496C6.19688 9.01243 6.22625 9.11363 6.21156 9.19796C6.21156 9.29916 6.18219 9.40035 6.12346 9.45095C6.03535 9.51842 5.91787 9.55215 5.81508 9.55215H4.34664C4.24384 9.56902 4.12637 9.53529 4.03826 9.45095C3.97952 9.38349 3.93547 9.28229 3.93547 9.18109C3.93547 9.07989 3.96484 8.97869 4.03826 8.9281C4.12637 8.84376 4.24384 8.81003 4.34664 8.8269H4.7578V6.87039H4.34664C4.22916 6.88726 4.12637 6.85353 4.03826 6.7692C3.9061 6.63426 3.9061 6.415 4.00889 6.28007C4.02358 6.2632 4.02358 6.2632 4.03826 6.24634C4.12637 6.162 4.24384 6.12827 4.34664 6.14514H5.81508C5.93256 6.12827 6.03535 6.162 6.12346 6.24634C6.19688 6.3138 6.22625 6.415 6.21156 6.49933C6.21156 6.60053 6.18219 6.70173 6.10877 6.75233C6.02066 6.81979 5.90319 6.87039 5.8004 6.85353H5.38923V8.8269H5.81508V8.84376ZM8.98693 9.18109C8.86945 9.31602 8.73729 9.43409 8.57576 9.50155C8.09118 9.72082 7.53316 9.70395 7.06326 9.45095C6.85768 9.33289 6.68147 9.14736 6.54931 8.91123C6.41715 8.6751 6.34372 8.40524 6.34372 8.11851V7.74745C6.34372 7.46072 6.40246 7.15712 6.53462 6.90413C6.6521 6.65113 6.843 6.43187 7.04858 6.29694C7.26884 6.162 7.5038 6.07767 7.75343 6.09454C7.90028 6.09454 8.03244 6.1114 8.1646 6.14514C8.26739 6.17887 8.37018 6.22947 8.47297 6.29694C8.48766 6.2632 8.51702 6.24634 8.54639 6.22947C8.59045 6.19574 8.6345 6.17887 8.69324 6.17887C8.78134 6.17887 8.86945 6.2126 8.92819 6.29694C8.98693 6.39813 9.0163 6.5162 9.0163 6.63426V7.07279C9.03098 7.19086 8.98693 7.30892 8.92819 7.41012C8.86945 7.47758 8.78134 7.52818 8.69324 7.52818C8.61982 7.52818 8.54639 7.51132 8.48766 7.44385C8.42892 7.35952 8.38486 7.25832 8.37018 7.15712C8.37018 7.10652 8.3555 7.05592 8.32613 7.02219C8.2527 6.93786 8.17928 6.88726 8.07649 6.85353C7.9737 6.80293 7.87091 6.78606 7.75343 6.78606C7.3129 6.78606 6.97516 7.19086 6.97516 7.69685C6.97516 7.71371 6.97516 7.71371 6.97516 7.73058V8.08477C6.96047 8.30404 7.04858 8.5233 7.19542 8.6751C7.38632 8.84376 7.62127 8.9281 7.85622 8.91123C8.00307 8.91123 8.14991 8.89436 8.28207 8.8269C8.3555 8.79316 8.42892 8.7257 8.48766 8.65823C8.53171 8.60763 8.57576 8.55703 8.61982 8.5233C8.66387 8.50643 8.70792 8.48957 8.75198 8.48957C8.84008 8.48957 8.91351 8.5233 8.97224 8.59077C9.03098 8.65823 9.07503 8.75943 9.07503 8.84376C9.08972 8.99556 9.04567 9.09676 8.98693 9.18109ZM11.6154 9.07989C11.1455 9.68708 10.3379 9.73768 9.80926 9.19796C9.79457 9.18109 9.77989 9.18109 9.77989 9.16423C9.45683 8.84376 9.28062 8.35464 9.2953 7.86551C9.28062 7.37639 9.45683 6.90413 9.77989 6.5668C10.0148 6.3138 10.3379 6.162 10.661 6.162C11.0281 6.162 11.3658 6.34753 11.6154 6.65113C11.8945 6.97159 12.0413 7.41012 12.0266 7.86551C12.0413 8.30404 11.8945 8.74257 11.6154 9.07989ZM14.9341 9.13049C14.8313 9.26542 14.6992 9.36662 14.567 9.41722C14.3468 9.51842 14.1265 9.56902 13.8915 9.56902C13.6272 9.56902 13.3482 9.50155 13.1133 9.36662C12.9224 9.24856 12.7608 9.07989 12.6434 8.86063C12.5112 8.64137 12.4378 8.3715 12.4378 8.10164V7.71371C12.4378 7.44385 12.4965 7.17399 12.614 6.92099C12.7315 6.68486 12.893 6.48247 13.0986 6.34754C13.3042 6.2126 13.5244 6.14514 13.7594 6.14514C13.8915 6.14514 14.0237 6.162 14.1559 6.19574C14.2733 6.22947 14.3908 6.29694 14.5083 6.3644C14.5377 6.3138 14.567 6.28007 14.6111 6.2632C14.6404 6.24634 14.6845 6.22947 14.7286 6.22947C14.7873 6.22947 14.8607 6.2632 14.9048 6.3138C14.9488 6.39813 14.9782 6.48247 14.9782 6.58366V7.07279C14.9929 7.17399 14.9635 7.27519 14.9048 7.35952C14.8607 7.41012 14.802 7.44385 14.7286 7.44385C14.6698 7.44385 14.6111 7.42698 14.567 7.37639C14.523 7.30892 14.4789 7.22459 14.4789 7.14026C14.4789 7.07279 14.4495 7.02219 14.4202 6.97159C14.3468 6.88726 14.2587 6.81979 14.1412 6.7692C14.0237 6.7186 13.9062 6.70173 13.7887 6.68486C13.3042 6.68486 12.9224 7.14026 12.9224 7.69685V7.71371V8.08477C12.9224 8.33777 13.0105 8.5739 13.172 8.74257C13.3776 8.9281 13.6272 9.02929 13.8769 9.01243C14.0384 9.01243 14.1852 8.99556 14.3321 8.9281C14.4202 8.8775 14.4936 8.8269 14.567 8.74257C14.5964 8.69197 14.6404 8.65823 14.6845 8.64137C14.7139 8.6245 14.7432 8.60763 14.7873 8.60763C14.846 8.60763 14.9195 8.64137 14.9635 8.69197C15.0076 8.74256 15.0369 8.81003 15.0369 8.89436C15.0222 8.97869 14.9929 9.06303 14.9341 9.13049ZM18.385 9.40035C18.3116 9.46782 18.2235 9.48469 18.1207 9.48469H17.4892C17.4011 9.48469 17.313 9.46782 17.2249 9.40035C17.1809 9.34976 17.1515 9.28229 17.1515 9.19796C17.1515 9.13049 17.1809 9.04616 17.2249 8.99556C17.2983 8.94496 17.3864 8.91123 17.4892 8.9281H17.6067L17.4892 8.59077H16.3145L16.197 8.9281H16.3145C16.4026 8.91123 16.4907 8.94496 16.5641 8.99556C16.6082 9.04616 16.6375 9.11363 16.6375 9.19796C16.6375 9.26542 16.6082 9.34976 16.5641 9.40035C16.4907 9.45095 16.4026 9.48469 16.3145 9.48469H15.6684C15.5803 9.50155 15.4921 9.46782 15.404 9.40035C15.36 9.34976 15.3306 9.28229 15.3306 9.19796C15.3306 9.13049 15.36 9.04616 15.404 8.99556C15.4775 8.9281 15.5656 8.91123 15.6684 8.9281L16.432 6.7692H16.1089C16.0208 6.78606 15.9327 6.75233 15.8446 6.70173C15.8005 6.65113 15.7712 6.58366 15.7712 6.49933C15.7712 6.43187 15.8005 6.34754 15.8446 6.29694C15.918 6.22947 16.0061 6.2126 16.1089 6.2126H17.1515L17.4158 6.95473C17.4745 6.90413 17.5333 6.87039 17.6067 6.87039C17.8123 6.87039 17.9738 7.15712 17.9738 7.52818C17.9885 7.73058 17.9298 7.91611 17.8123 8.06791L18.1207 8.9281C18.1941 8.91123 18.2822 8.92809 18.3556 8.97869C18.4144 9.02929 18.4584 9.11363 18.4584 9.19796C18.4731 9.28229 18.4437 9.34976 18.385 9.40035ZM19.6038 1.57434H7.21011C6.9311 1.59121 6.66678 1.70927 6.4612 1.92854L2.33486 6.7692C2.14396 7.00532 2.04117 7.30892 2.02649 7.62938V13.5832C2.02649 13.8531 2.23207 14.0892 2.46702 14.0724H16.4173C16.6963 14.0555 16.9606 13.9374 17.1662 13.7182L19.7506 10.6653C19.9269 10.4292 20.0296 10.1256 20.0443 9.80515V2.06347C20.0296 1.7936 19.8387 1.57434 19.6038 1.57434Z" fill="#31A7DA"/>
</g>
</svg>
