<svg width="29" height="20" viewBox="0 0 29 20" fill="none" xmlns="http://www.w3.org/2000/svg">
<mask id="mask0_3592_312" style="mask-type:luminance" maskUnits="userSpaceOnUse" x="7" y="1" width="16" height="18">
<path d="M22.1947 1.37195H7.11377V18.7962H22.1947V1.37195Z" fill="white"/>
</mask>
<g mask="url(#mask0_3592_312)">
<path d="M21.8893 9.22389C22.2902 9.70912 22.2902 10.459 21.8893 10.9443L15.3987 18.4433C14.9788 18.9065 14.3297 18.9065 13.9097 18.4433L7.41919 10.9443C7.01831 10.459 7.01831 9.70912 7.41919 9.22389L13.9097 1.72482C14.3297 1.26165 14.9788 1.26165 15.3987 1.72482L21.8893 9.22389Z" fill="#ABCD03"/>
<path d="M9.70996 10.04C9.70996 13.2161 11.9244 15.7746 14.6733 15.7746C17.4222 15.7746 19.6367 13.2161 19.6367 10.04C19.6367 6.86392 17.4222 4.30542 14.6733 4.30542C11.9244 4.30542 9.70996 6.86392 9.70996 10.04Z" fill="white"/>
<path d="M14.6733 15.8849C11.8862 15.8849 9.6145 13.2602 9.6145 10.04C9.6145 6.8198 11.8862 4.19513 14.6733 4.19513C17.4604 4.19513 19.7321 6.8198 19.7321 10.04C19.7321 13.2602 17.4604 15.8849 14.6733 15.8849ZM14.6733 4.41569C11.9816 4.41569 9.8054 6.93008 9.8054 10.04C9.8054 13.1499 11.9816 15.6643 14.6733 15.6643C17.365 15.6643 19.5412 13.1499 19.5412 10.04C19.5412 6.93008 17.365 4.41569 14.6733 4.41569Z" fill="#231815"/>
<path d="M10.2255 10.04C10.2255 7.19477 12.2108 4.90094 14.6734 4.90094C17.136 4.90094 19.1213 7.19477 19.1213 10.04C19.1213 12.8852 17.1169 15.1791 14.6734 15.1791C12.2108 15.1791 10.2255 12.8852 10.2255 10.04Z" fill="#ABCD03"/>
<path d="M14.6734 15.2893C12.1726 15.2893 10.13 12.9293 10.13 10.04C10.13 7.15065 12.1726 4.79065 14.6734 4.79065C17.1741 4.79065 19.2168 7.15065 19.2168 10.04C19.2168 12.9293 17.1741 15.2893 14.6734 15.2893ZM14.6734 5.01121C12.2681 5.01121 10.3209 7.26093 10.3209 10.04C10.3209 12.8191 12.2681 15.0688 14.6734 15.0688C17.0787 15.0688 19.0259 12.8191 19.0259 10.04C19.0259 7.26093 17.0787 5.01121 14.6734 5.01121Z" fill="#231815"/>
<path d="M19.1213 9.97383V10.04C19.1213 10.2826 19.1022 10.5032 19.0831 10.7458L19.5986 10.834C19.6367 10.5693 19.6367 10.3047 19.6367 10.0621V9.97383H19.1213ZM18.9495 8.60635C19.0068 8.82692 19.045 9.06953 19.0831 9.29009L19.5986 9.20187C19.5604 8.9372 19.5222 8.69458 19.4649 8.42991L18.9495 8.60635ZM18.4532 7.3271C18.5677 7.52561 18.6632 7.72411 18.7395 7.94467L19.2168 7.70206C19.1213 7.45944 19.0259 7.23888 18.8922 7.01832L18.4532 7.3271ZM17.6705 6.24635C17.8232 6.40075 17.9568 6.5772 18.0905 6.75364L18.4913 6.37869C18.3386 6.18019 18.1859 5.98168 18.0332 5.80523L17.6705 6.24635ZM16.6778 5.45234C16.8687 5.56262 17.0405 5.6729 17.2123 5.80523L17.4987 5.32C17.3078 5.16561 17.1169 5.03327 16.926 4.92299L16.6778 5.45234ZM15.5324 4.98916C15.7233 5.03327 15.9333 5.09944 16.1242 5.16561L16.296 4.59215C16.086 4.50392 15.857 4.43776 15.647 4.39364L15.5324 4.98916ZM14.3298 4.92299C14.4443 4.92299 14.5588 4.90093 14.6734 4.90093C14.7688 4.90093 14.8452 4.90093 14.9406 4.90093L14.9788 4.30542C14.8834 4.30542 14.7879 4.30542 14.6734 4.30542C14.5398 4.30542 14.4252 4.30542 14.2916 4.32748L14.3298 4.92299ZM13.1462 5.20972C13.3371 5.12149 13.528 5.05533 13.738 5.01121L13.6234 4.43776C13.3944 4.50392 13.1844 4.57009 12.9744 4.65832L13.1462 5.20972ZM12.0772 5.8714C12.249 5.73906 12.4208 5.60673 12.5926 5.49645L12.3444 4.9671C12.1535 5.09944 11.9435 5.23178 11.7717 5.38617L12.0772 5.8714ZM11.2181 6.81981C11.3518 6.64336 11.4854 6.46692 11.6381 6.31252L11.2754 5.8714C11.1036 6.04785 10.9509 6.24635 10.8172 6.44486L11.2181 6.81981ZM10.5882 8.0329C10.6645 7.81234 10.76 7.61383 10.8554 7.41533L10.4164 7.10654C10.3018 7.3271 10.2064 7.56972 10.1109 7.81234L10.5882 8.0329ZM10.2636 9.37832C10.2827 9.1357 10.34 8.91514 10.3973 8.69458L9.90093 8.54019C9.84367 8.7828 9.7864 9.04748 9.74822 9.31215L10.2636 9.37832ZM10.2827 10.7678C10.2636 10.5252 10.2446 10.3047 10.2446 10.0621H9.72913C9.72913 10.3267 9.74822 10.5914 9.7864 10.834L10.2827 10.7678ZM10.6073 12.1133C10.5309 11.8927 10.4545 11.6721 10.3973 11.4516L9.90093 11.606C9.9582 11.8486 10.0346 12.1133 10.13 12.3338L10.6073 12.1133ZM11.2372 13.3043C11.1036 13.1279 10.9891 12.9293 10.8936 12.7308L10.4354 13.0396C10.55 13.2602 10.6836 13.4807 10.8363 13.6793L11.2372 13.3043ZM12.1154 14.2527C11.9435 14.1204 11.7908 13.988 11.6381 13.8116L11.2945 14.2527C11.4663 14.4292 11.6381 14.5836 11.829 14.7379L12.1154 14.2527ZM13.1844 14.8923C12.9935 14.8262 12.8026 14.7159 12.6308 14.6277L12.4017 15.157C12.6117 15.2673 12.8026 15.3776 13.0317 15.4658L13.1844 14.8923ZM14.387 15.1791C14.1771 15.157 13.9862 15.135 13.7953 15.0908L13.6807 15.6643C13.9098 15.7084 14.1198 15.7525 14.3489 15.7746L14.387 15.1791ZM15.5897 15.0688C15.3988 15.1129 15.1888 15.157 14.9979 15.157L15.0361 15.7525C15.2652 15.7305 15.4752 15.7084 15.7042 15.6422L15.5897 15.0688ZM16.7351 14.6056C16.5633 14.7159 16.3724 14.8041 16.1815 14.8923L16.3533 15.4437C16.5633 15.3555 16.7733 15.2452 16.9833 15.135L16.7351 14.6056ZM17.7087 13.7895C17.5559 13.9439 17.4032 14.0983 17.2314 14.2307L17.5369 14.7159C17.7278 14.5615 17.8996 14.4071 18.0523 14.2307L17.7087 13.7895ZM18.4723 12.7088C18.3768 12.9073 18.2432 13.1058 18.1286 13.2822L18.5295 13.6572C18.6632 13.4587 18.7968 13.2381 18.9113 13.0176L18.4723 12.7088ZM18.9686 11.4295C18.9113 11.6501 18.8541 11.8707 18.7586 12.0912L19.2359 12.3338C19.3313 12.0912 19.3886 11.8486 19.4649 11.606L18.9686 11.4295Z" fill="#231815"/>
<path d="M9.50005 7.41528L11.0272 8.12108L11.0845 11.65L9.23279 12.4441L9.50005 7.41528Z" fill="#ABCD03"/>
<path d="M19.9612 7.26093L18.4149 7.98878L18.3195 11.628L20.2284 12.4662L19.9612 7.26093Z" fill="#ABCD03"/>
<path d="M11.7908 9.64299C11.7908 9.66505 11.7717 9.6871 11.7526 9.6871H11.4663C11.4472 9.6871 11.4281 9.66505 11.4281 9.64299V9.40037C11.4281 9.37832 11.4472 9.35626 11.4663 9.35626H11.7717C11.7908 9.35626 11.8099 9.37832 11.8099 9.40037L11.7908 9.64299ZM11.7908 11.1207C11.7908 11.1428 11.7717 11.1649 11.7526 11.1649H11.4663C11.4472 11.1649 11.4281 11.1428 11.4281 11.1207V9.8415C11.4281 9.81944 11.4472 9.79738 11.4663 9.79738H11.7717C11.7908 9.79738 11.8099 9.81944 11.8099 9.8415V11.1207H11.7908Z" fill="#231815"/>
<path d="M18.3385 11.1207C18.3385 11.1428 18.3194 11.1648 18.3003 11.1648H17.4986C17.4795 11.1648 17.4604 11.1648 17.4413 11.1648C17.3077 11.1428 17.174 11.0987 17.0595 11.0325C16.9641 10.9663 16.8877 10.856 16.8877 10.7016V10.2385C16.8877 10.2164 16.8877 10.1944 16.8877 10.1723C16.9068 10.062 16.9641 9.95174 17.0404 9.88557C17.155 9.79735 17.3077 9.75323 17.4413 9.75323H18.3194C18.3385 9.75323 18.3576 9.77529 18.3576 9.79735V9.9738C18.3576 9.99585 18.3385 10.0179 18.3194 10.0179H17.5558C17.5367 10.0179 17.5177 10.0179 17.4986 10.0179C17.4413 10.0179 17.384 10.04 17.3268 10.0841C17.2695 10.1282 17.2504 10.1723 17.2504 10.2385V10.6134C17.2504 10.6355 17.2504 10.6575 17.2504 10.6796C17.2695 10.7237 17.2886 10.7678 17.3268 10.8119C17.384 10.856 17.4604 10.8781 17.5367 10.8781H18.3385C18.3576 10.8781 18.3767 10.9002 18.3767 10.9222V11.1207" fill="#231815"/>
<path d="M13.8334 10.0179C13.8334 10.04 13.8143 10.062 13.7952 10.062H13.4134C13.3943 10.062 13.3752 10.0841 13.3752 10.1061V11.1428C13.3752 11.1648 13.3561 11.1869 13.337 11.1869H13.0507C13.0316 11.1869 13.0125 11.1648 13.0125 11.1428V10.1061C13.0125 10.0841 12.9934 10.062 12.9743 10.062H12.5735C12.5544 10.062 12.5353 10.04 12.5353 10.0179V9.81941C12.5353 9.79735 12.5544 9.77529 12.5735 9.77529H12.9743C12.9934 9.77529 13.0125 9.75324 13.0125 9.73118V9.31212C13.0125 9.29006 13.0316 9.26801 13.0507 9.26801H13.337C13.3561 9.26801 13.3752 9.29006 13.3752 9.31212V9.73118C13.3752 9.75324 13.3943 9.77529 13.4134 9.77529H13.7952C13.8143 9.77529 13.8334 9.79735 13.8334 9.81941V10.0179Z" fill="white"/>
<path d="M16.1241 10.7678C16.1241 10.7899 16.1241 10.8119 16.105 10.834C16.0859 10.9222 16.0478 11.0104 15.9714 11.0545C15.876 11.1207 15.7423 11.1648 15.6278 11.1648H15.0169C14.9978 11.1648 14.9787 11.1648 14.9596 11.1648C14.8642 11.1428 14.7497 11.1207 14.6733 11.0766C14.5969 11.0104 14.5397 10.9222 14.5397 10.8119V10.7237C14.5397 10.7016 14.5397 10.6796 14.5397 10.6575C14.5588 10.5693 14.5969 10.4811 14.6542 10.437C14.7497 10.3708 14.8642 10.3267 14.9787 10.3487H15.7423C15.7614 10.3487 15.7805 10.3267 15.7805 10.3046V10.1944C15.7805 10.1723 15.7805 10.1502 15.7805 10.1282C15.7805 10.1061 15.7614 10.0841 15.7423 10.062C15.7042 10.04 15.666 10.0179 15.6087 10.0179H14.6351C14.616 10.0179 14.5969 9.99585 14.5969 9.9738V9.79735C14.5969 9.77529 14.616 9.75323 14.6351 9.75323H15.6469C15.666 9.75323 15.6851 9.75323 15.7042 9.75323C15.7996 9.77529 15.9141 9.79735 15.9905 9.84146C16.0669 9.90763 16.1241 9.99585 16.1241 10.1061V10.7678ZM15.7805 10.7678V10.5914C15.7805 10.5693 15.7614 10.5473 15.7423 10.5473H15.0933C15.0742 10.5473 15.0551 10.5473 15.036 10.5473C14.9978 10.5473 14.9596 10.5693 14.9406 10.5914C14.9024 10.6134 14.8833 10.6575 14.8833 10.7016V10.7458C14.8833 10.7678 14.8833 10.7899 14.8833 10.8119C14.8833 10.834 14.9024 10.856 14.9215 10.8781C14.9596 10.9002 15.0169 10.9222 15.0551 10.9222H15.5705H15.6278C15.666 10.9222 15.6851 10.9002 15.7232 10.8781C15.7614 10.856 15.7805 10.8119 15.7805 10.7678Z" fill="white"/>
<path d="M20.6675 10.7678C20.6675 10.7899 20.6675 10.8119 20.6675 10.834C20.6484 10.9222 20.6102 11.0104 20.5339 11.0545C20.4384 11.1207 20.3048 11.1648 20.1903 11.1648H19.5412C19.5221 11.1648 19.503 11.1648 19.4839 11.1648C19.3885 11.1428 19.274 11.1207 19.1976 11.0766C19.1212 11.0104 19.064 10.9222 19.064 10.8119V10.7237C19.064 10.7016 19.064 10.6796 19.064 10.6575C19.0831 10.5693 19.1212 10.4811 19.1785 10.437C19.274 10.3708 19.3885 10.3267 19.503 10.3487H20.2666C20.2857 10.3487 20.3048 10.3267 20.3048 10.3046V10.1944C20.3048 10.1723 20.3048 10.1502 20.3048 10.1282C20.3048 10.1061 20.2857 10.0841 20.2666 10.062C20.2284 10.04 20.1903 10.0179 20.133 10.0179H19.1594C19.1403 10.0179 19.1212 9.99585 19.1212 9.9738V9.79735C19.1212 9.77529 19.1403 9.75323 19.1594 9.75323H20.1712C20.1903 9.75323 20.2094 9.75323 20.2284 9.75323C20.3239 9.77529 20.4384 9.79735 20.5148 9.84146C20.5912 9.90763 20.6484 9.99585 20.6484 10.1061L20.6675 10.7678ZM20.3239 10.7678V10.5914C20.3239 10.5693 20.3048 10.5473 20.2857 10.5473H19.6176C19.5985 10.5473 19.5794 10.5473 19.5603 10.5473C19.5221 10.5473 19.4839 10.5693 19.4649 10.5914C19.4267 10.6134 19.4076 10.6575 19.4076 10.7016V10.7458C19.4076 10.7678 19.4076 10.7899 19.4076 10.8119C19.4076 10.834 19.4267 10.856 19.4458 10.8781C19.4839 10.9002 19.5412 10.9222 19.5794 10.9222H20.0948H20.1521C20.1903 10.9222 20.2094 10.9002 20.2475 10.8781C20.2857 10.856 20.3048 10.8119 20.3239 10.7678Z" fill="white"/>
<path d="M9.21371 11.1207C9.21371 11.1428 9.19462 11.1648 9.17553 11.1648H8.87009C8.851 11.1648 8.83191 11.1428 8.83191 11.1207V8.87102C8.83191 8.84896 8.851 8.8269 8.87009 8.8269H9.17553C9.19462 8.8269 9.21371 8.84896 9.21371 8.87102V11.1207Z" fill="white"/>
<path d="M9.51904 9.81939L9.48086 9.8635L9.38541 9.97378C9.36632 9.99584 9.36632 10.0179 9.38541 10.0179L10.4163 11.2089C10.4354 11.231 10.4544 11.231 10.4544 11.2089L10.6644 10.9663C10.6835 10.9443 10.6835 10.9222 10.6644 10.9222L9.88175 10.0179C9.86266 9.99584 9.86266 9.97378 9.88175 9.97378L10.6453 9.09154C10.6644 9.06948 10.6644 9.04743 10.6453 9.04743L10.4354 8.80481C10.4163 8.78276 10.3972 8.78276 10.3972 8.80481L9.51904 9.81939Z" fill="white"/>
</g>
</svg>
