<svg width="23" height="16" viewBox="0 0 23 16" fill="none" xmlns="http://www.w3.org/2000/svg">
<mask id="mask0_3592_346" style="mask-type:luminance" maskUnits="userSpaceOnUse" x="1" y="6" width="22" height="4">
<path d="M22.7944 6.27942H1.14954V9.9057H22.7944V6.27942Z" fill="white"/>
</mask>
<g mask="url(#mask0_3592_346)">
<path d="M21.5756 8.08412C21.5756 8.30338 21.4141 8.48891 21.2232 8.48891C21.0323 8.48891 20.8707 8.30338 20.8707 8.08412C20.8707 7.86485 21.0323 7.67932 21.2232 7.67932C21.4141 7.69619 21.5756 7.86485 21.5756 8.08412Z" fill="#969797"/>
<path d="M14.5124 8.08412C14.5124 8.30338 14.3508 8.48891 14.1599 8.48891C13.969 8.48891 13.8075 8.30338 13.8075 8.08412C13.8075 7.86485 13.969 7.67932 14.1599 7.67932C14.3508 7.69619 14.5124 7.86485 14.5124 8.08412Z" fill="#969797"/>
<path d="M7.33169 8.08412C7.33169 8.30338 7.17016 8.48891 6.97926 8.48891C6.78836 8.48891 6.62683 8.30338 6.62683 8.08412C6.62683 7.86485 6.78836 7.67932 6.97926 7.67932C7.17016 7.69619 7.33169 7.86485 7.33169 8.08412Z" fill="#969797"/>
<path d="M4.99687 8.08412V9.87196H4.3067V8.08412C4.3067 7.52753 3.91022 7.07214 3.42563 7.07214V9.8551H2.73546V7.07214C2.25087 7.07214 1.85439 7.52753 1.85439 8.08412V9.87196H1.14954V8.08412C1.14954 7.08901 1.85439 6.27942 2.72077 6.27942H3.41094C4.29201 6.27942 4.99687 7.08901 4.99687 8.08412ZM18.5359 8.48892C18.3451 9.01178 17.8311 9.24791 17.3759 9.02864C16.9207 8.80938 16.7151 8.21906 16.906 7.6962C17.0969 7.17334 17.6108 6.93721 18.066 7.15647C18.2716 7.25767 18.4478 7.4432 18.5359 7.6962H19.2555C19.0646 6.71795 18.2129 6.11075 17.3759 6.33002C16.5242 6.54928 15.9955 7.52753 16.1864 8.48892C16.3773 9.46717 17.229 10.0744 18.066 9.8551C18.6534 9.7033 19.1233 9.16358 19.2555 8.48892H18.5359ZM12.1776 8.08412C12.1482 7.08901 11.4287 6.29629 10.5623 6.33002C9.72527 6.36375 9.04978 7.12274 9.0351 8.08412V9.87196H9.72527V8.08412C9.73995 7.52753 10.1511 7.08901 10.6357 7.10587C11.0909 7.12274 11.4727 7.5444 11.4874 8.08412V9.87196H12.1776V8.08412ZM22.1043 8.08412C22.1043 7.52753 21.7078 7.07214 21.2232 7.07214C20.7386 7.07214 20.3421 7.52753 20.3421 8.08412C20.3421 8.64072 20.7386 9.09611 21.2232 9.09611C21.7078 9.09611 22.1043 8.64072 22.1043 8.08412ZM22.7944 9.8551H22.1043V9.5515C22.0455 9.61897 21.9721 9.68643 21.884 9.73703C21.0911 10.1418 20.1659 9.73703 19.7988 8.84311C19.4464 7.93233 19.7988 6.86974 20.5771 6.44808C21.3701 6.04329 22.2952 6.44808 22.6623 7.342C22.7504 7.57813 22.8091 7.83113 22.8091 8.08412L22.7944 9.8551ZM15.041 8.08412C15.041 7.52753 14.6446 7.07214 14.16 7.07214C13.6754 7.07214 13.2789 7.52753 13.2789 8.08412C13.2789 8.64072 13.6754 9.09611 14.16 9.09611C14.6446 9.09611 15.041 8.64072 15.041 8.08412ZM15.7312 9.8551H15.041V9.5515C14.9823 9.61897 14.9089 9.68643 14.8208 9.73703C14.0278 10.1418 13.088 9.7539 12.7356 8.84311C12.3832 7.93233 12.7209 6.85288 13.5139 6.44808C14.3068 6.04329 15.2466 6.43122 15.5991 7.342C15.6872 7.57813 15.7459 7.83113 15.7459 8.08412L15.7312 9.8551ZM7.86034 8.08412C7.86034 7.52753 7.46386 7.07214 6.97927 7.07214C6.49468 7.07214 6.0982 7.52753 6.0982 8.08412C6.0982 8.64072 6.49468 9.09611 6.97927 9.09611C7.46386 9.09611 7.86034 8.64072 7.86034 8.08412ZM8.55051 9.87196H7.86034V9.5515H7.84565C7.78692 9.61897 7.71349 9.68643 7.62539 9.73703C6.83243 10.1418 5.89262 9.7539 5.54019 8.84311C5.18777 7.93233 5.52551 6.85288 6.31847 6.44808C7.11143 6.04329 8.05124 6.43122 8.40366 7.342C8.49177 7.57813 8.55051 7.83113 8.55051 8.08412V9.87196Z" fill="#231815"/>
</g>
</svg>
