<svg width="23" height="15" viewBox="0 0 23 15" fill="none" xmlns="http://www.w3.org/2000/svg">
<g clip-path="url(#clip0_3592_409)">
<mask id="mask0_3592_409" style="mask-type:luminance" maskUnits="userSpaceOnUse" x="0" y="4" width="22" height="7">
<path d="M21.8159 4.6778H0.890503V10.9858H21.8159V4.6778Z" fill="white"/>
</mask>
<g mask="url(#mask0_3592_409)">
<path d="M0.890503 6.78612C0.890503 6.66805 0.919872 6.60059 0.963925 6.58372C1.00798 6.56686 1.05203 6.54999 1.11077 6.54999H1.77157C1.84499 6.54999 1.91842 6.61746 1.91842 6.71865V6.73552C1.91842 6.76925 1.9331 6.78612 1.96247 6.80299H1.97715C1.99184 6.80299 2.00652 6.80299 2.02121 6.78612L2.05058 6.76925C2.124 6.70179 2.19742 6.65119 2.27084 6.60059C2.41769 6.53312 2.5939 6.49939 2.75543 6.49939C2.87291 6.49939 2.99038 6.51626 3.09317 6.56686C3.21065 6.60059 3.31344 6.68492 3.40155 6.76925C3.48965 6.88732 3.57776 7.02225 3.62181 7.15718C3.68055 7.34271 3.70992 7.54511 3.70992 7.7475V10.6654C3.70992 10.7835 3.68055 10.8509 3.6365 10.8678C3.59245 10.8847 3.54839 10.9015 3.48965 10.9015H2.90228C2.79948 10.9015 2.74075 10.8678 2.72606 10.8172C2.66732 10.7835 2.66732 10.7329 2.66732 10.6654V8.0005C2.66732 7.8993 2.63795 7.7981 2.57922 7.71377C2.50579 7.62944 2.403 7.59571 2.30021 7.59571C2.21211 7.59571 2.124 7.61257 2.05058 7.66317C2.00652 7.71377 1.96247 7.76437 1.94778 7.83184C1.91842 7.8993 1.91842 7.96677 1.90373 8.03423C1.90373 8.1017 1.90373 8.16916 1.90373 8.21976V10.6654C1.90373 10.7835 1.87436 10.8509 1.83031 10.8678C1.78626 10.8847 1.7422 10.9015 1.68346 10.9015H1.09609C0.993294 10.9015 0.934556 10.8678 0.919872 10.8172C0.905187 10.7666 0.890503 10.716 0.890503 10.6485V6.78612Z" fill="#00B9EF"/>
<path d="M5.83916 10.6823C5.83916 10.8003 5.80979 10.8678 5.76573 10.8847C5.72168 10.9015 5.67763 10.9184 5.61889 10.9184H5.03151C4.92872 10.9184 4.86998 10.8847 4.8553 10.8341C4.84061 10.7835 4.82593 10.7329 4.82593 10.6654V6.78612C4.82593 6.66805 4.8553 6.60059 4.89935 6.58372C4.9434 6.56685 4.98746 6.54999 5.04619 6.54999H5.63357C5.67763 6.54999 5.73636 6.56685 5.78042 6.58372C5.82447 6.60059 5.85384 6.66805 5.85384 6.78612L5.83916 10.6823Z" fill="#00B9EF"/>
<path d="M7.01399 6.78612C7.01399 6.66806 7.04336 6.60059 7.08741 6.58373C7.13146 6.56686 7.17552 6.54999 7.23425 6.54999H7.89506C7.96848 6.54999 8.0419 6.61746 8.0419 6.71866V6.73552C8.0419 6.76926 8.05659 6.80299 8.08595 6.80299C8.10064 6.80299 8.11532 6.80299 8.13001 6.78612L8.15938 6.76926C8.21811 6.71866 8.29154 6.66806 8.39433 6.60059C8.52649 6.51626 8.67333 6.48253 8.82018 6.49939C8.95234 6.49939 9.0845 6.53313 9.20197 6.60059C9.30477 6.66806 9.39287 6.73552 9.48098 6.81986C9.51035 6.85359 9.5544 6.88732 9.58377 6.90419C9.61314 6.92106 9.65719 6.88732 9.73061 6.81986C9.83341 6.73552 9.92151 6.66806 10.039 6.60059C10.2005 6.51626 10.362 6.48253 10.5383 6.49939C10.6557 6.49939 10.7732 6.51626 10.876 6.56686C10.9935 6.61746 11.0963 6.68493 11.1844 6.78612C11.2872 6.90419 11.3606 7.03912 11.4046 7.17405C11.4634 7.35958 11.4928 7.56198 11.4928 7.76438V10.6823C11.4928 10.8003 11.4634 10.8678 11.4193 10.8847C11.3753 10.9015 11.3312 10.9184 11.2725 10.9184H10.6704C10.6264 10.9184 10.5676 10.9015 10.5236 10.8847C10.4795 10.8509 10.4502 10.7835 10.4502 10.6654V8.00051C10.4502 7.89931 10.4208 7.79811 10.362 7.71378C10.2886 7.62944 10.2005 7.59571 10.0977 7.59571C10.0243 7.59571 9.95088 7.61258 9.87746 7.66318C9.83341 7.71378 9.78935 7.76438 9.77467 7.83184C9.75998 7.89931 9.7453 7.96677 9.7453 8.03424C9.7453 8.1017 9.7453 8.16917 9.7453 8.21977V10.6654C9.7453 10.7835 9.71593 10.8509 9.67188 10.8678C9.62782 10.8847 9.58377 10.9015 9.52503 10.9015H8.92297C8.82018 10.9015 8.76144 10.8678 8.74676 10.8172C8.73207 10.7666 8.71739 10.716 8.71739 10.6485V8.00051C8.71739 7.89931 8.68802 7.79811 8.62928 7.71378C8.55586 7.62944 8.46775 7.59571 8.36496 7.59571C8.29154 7.59571 8.21811 7.61258 8.14469 7.66318C8.10064 7.71378 8.05658 7.76438 8.0419 7.83184C8.01253 7.89931 8.01253 7.96677 7.99785 8.03424C7.99785 8.1017 7.99785 8.16917 7.99785 8.21977V10.6654C7.99785 10.7835 7.96848 10.8509 7.92442 10.8678C7.88037 10.8847 7.83632 10.9015 7.77758 10.9015H7.1902C7.08741 10.9015 7.02867 10.8678 7.01399 10.8172C6.9993 10.7666 6.98462 10.716 6.98462 10.6485L7.01399 6.78612Z" fill="#00B9EF"/>
<path d="M12.4619 8.20292C12.4619 8.01738 12.4766 7.84872 12.506 7.66319C12.5353 7.46079 12.5941 7.27526 12.6969 7.1066C12.7997 6.92107 12.9465 6.76927 13.1227 6.66807C13.3577 6.53314 13.622 6.48254 13.8716 6.49941C14.1359 6.48254 14.3856 6.55001 14.6205 6.66807C14.7967 6.76927 14.9436 6.92107 15.0464 7.1066C15.1345 7.27526 15.2079 7.47766 15.2373 7.66319C15.2666 7.84872 15.2813 8.01738 15.2813 8.20292V9.28237C15.2813 9.4679 15.2666 9.63656 15.2373 9.82209C15.2079 10.0245 15.1492 10.21 15.0464 10.3787C14.9436 10.5642 14.7967 10.716 14.6205 10.8172C14.3856 10.9521 14.1213 11.0027 13.8716 10.9859C13.6073 11.0027 13.3577 10.9353 13.1227 10.8172C12.9465 10.716 12.7997 10.5642 12.6969 10.3787C12.6088 10.21 12.5353 10.0245 12.506 9.82209C12.4766 9.63656 12.4619 9.4679 12.4619 9.28237V8.20292ZM13.4751 9.4679C13.4751 9.56909 13.4898 9.65343 13.5045 9.73776C13.5192 9.80522 13.5632 9.85582 13.5926 9.90642C13.622 9.94016 13.666 9.97389 13.7248 9.99075C13.8129 10.0245 13.9157 10.0245 14.0038 9.99075C14.0478 9.97389 14.0919 9.94016 14.1359 9.90642C14.18 9.85582 14.2094 9.80522 14.2241 9.73776C14.2534 9.65343 14.2681 9.55223 14.2681 9.45103V7.98365C14.2681 7.88245 14.2534 7.79812 14.2241 7.71379C14.2094 7.64632 14.1653 7.59572 14.1359 7.54512C14.1066 7.51139 14.0625 7.47766 14.0038 7.46079C13.9157 7.42706 13.8129 7.42706 13.7248 7.46079C13.6807 7.47766 13.6367 7.51139 13.5926 7.54512C13.5486 7.59572 13.5192 7.64632 13.5045 7.71379C13.4751 7.79812 13.4605 7.89932 13.4751 7.98365V9.4679Z" fill="#00B9EF"/>
<path d="M17.0874 9.18114C17.0874 9.2486 17.0874 9.33294 17.1021 9.4004C17.1168 9.48473 17.1315 9.56907 17.1756 9.63653C17.2196 9.72086 17.2783 9.78833 17.3371 9.82206C17.4399 9.87266 17.5427 9.90639 17.6601 9.90639C17.6895 9.90639 17.7336 9.90639 17.7776 9.90639C17.8217 9.90639 17.8951 9.88953 17.9979 9.87266C18.0419 9.87266 18.1007 9.85579 18.1447 9.83893C18.1741 9.82206 18.2182 9.82206 18.2475 9.82206C18.3063 9.82206 18.3503 9.83893 18.365 9.88953C18.3797 9.92326 18.3797 9.95699 18.3797 9.99073V10.6822C18.3797 10.716 18.3797 10.7497 18.365 10.7834C18.3503 10.834 18.3209 10.8678 18.2769 10.8846C18.2035 10.9352 18.1154 10.9521 18.0419 10.969C17.8804 10.9858 17.7336 11.0027 17.572 11.0027C17.2637 11.0196 16.97 10.9521 16.691 10.8172C16.3385 10.6148 16.1183 10.2269 16.0889 9.78833C16.0742 9.58593 16.0742 9.41727 16.0742 9.26547V8.16915C16.0742 7.96676 16.0889 7.78123 16.1183 7.57883C16.1476 7.37643 16.2211 7.20777 16.3092 7.0391C16.4266 6.87044 16.5882 6.73551 16.7644 6.65118C17.0287 6.53311 17.293 6.48251 17.572 6.49938C17.7336 6.49938 17.8804 6.49938 18.0419 6.53311C18.13 6.54998 18.2035 6.56684 18.2769 6.61744C18.3209 6.63431 18.3503 6.68491 18.365 6.71864C18.3797 6.75237 18.3797 6.78611 18.3797 6.81984V7.51136C18.3797 7.5451 18.365 7.57883 18.365 7.61256C18.3503 7.64629 18.3209 7.68003 18.2475 7.68003C18.2035 7.68003 18.1447 7.68003 18.1007 7.66316C18.0566 7.64629 18.0126 7.64629 17.9685 7.62943C17.9245 7.61256 17.8804 7.5957 17.8364 7.5957C17.7776 7.57883 17.7189 7.57883 17.6601 7.57883C17.5573 7.57883 17.4546 7.5957 17.3518 7.64629C17.2783 7.68003 17.2196 7.74749 17.1756 7.81496C17.1315 7.88242 17.1168 7.96676 17.1021 8.05109C17.0874 8.13542 17.0874 8.21975 17.0874 8.28722V9.18114Z" fill="#00B9EF"/>
<path d="M21.8159 10.6148V10.716C21.8159 10.7497 21.8159 10.7834 21.7865 10.8172C21.7718 10.8509 21.7424 10.8678 21.7131 10.8846C21.669 10.9015 21.625 10.9184 21.5809 10.9184H20.9642C20.9054 10.9184 20.8614 10.9015 20.8467 10.8846C20.832 10.8678 20.832 10.8509 20.8173 10.8172C20.8173 10.8003 20.8173 10.7666 20.8173 10.7497C20.8173 10.7328 20.8026 10.716 20.7586 10.716C20.7292 10.716 20.7145 10.7328 20.6852 10.7666C20.597 10.8509 20.5089 10.9015 20.4061 10.9352C20.3034 10.969 20.1859 11.0027 20.0684 11.0027C19.9362 11.0027 19.8041 10.969 19.6866 10.9184C19.5691 10.8509 19.4517 10.7666 19.3635 10.6485C19.2608 10.5136 19.1873 10.3449 19.1433 10.1762C19.0845 10.0076 19.0552 9.82205 19.0552 9.63652C19.0699 9.18113 19.2461 8.75947 19.5544 8.47274C19.8481 8.21974 20.1712 8.03421 20.5236 7.89928L20.7145 7.81495C20.7586 7.79808 20.7879 7.73062 20.7879 7.68002C20.7879 7.56195 20.7292 7.46075 20.6264 7.42702C20.5236 7.39329 20.4208 7.35956 20.3034 7.35956C20.2153 7.35956 20.1271 7.35955 20.039 7.37642C19.9509 7.39329 19.8775 7.41015 19.7894 7.44389C19.716 7.46075 19.6426 7.49449 19.5691 7.52822C19.5251 7.54509 19.481 7.56195 19.437 7.56195C19.3929 7.56195 19.3635 7.54509 19.3342 7.51135C19.3048 7.47762 19.2901 7.44389 19.3048 7.41015V6.87043C19.3048 6.81983 19.3195 6.7861 19.3342 6.7355C19.3635 6.66803 19.4076 6.61743 19.4663 6.5837C19.5691 6.51623 19.6866 6.4825 19.8041 6.46564C19.995 6.4319 20.2006 6.41504 20.4061 6.41504C20.6558 6.39817 20.9201 6.44877 21.1551 6.5331C21.3166 6.60057 21.4634 6.70177 21.5809 6.85356C21.669 6.97163 21.7424 7.12343 21.7571 7.29209C21.7865 7.44389 21.8012 7.59568 21.8012 7.76435L21.8159 10.6148ZM20.8026 8.86067C20.8026 8.82693 20.7879 8.81007 20.7733 8.81007C20.7439 8.81007 20.7292 8.81007 20.6998 8.82693L20.5677 8.92813C20.4649 8.9956 20.3621 9.09679 20.274 9.19799C20.1712 9.31606 20.1125 9.48472 20.1271 9.63652C20.1565 9.82205 20.2887 9.95698 20.4502 9.95698C20.5383 9.95698 20.6264 9.92325 20.6998 9.85578C20.7586 9.78832 20.8026 9.85578 20.8026 9.77145V8.86067Z" fill="#00B9EF"/>
<path d="M5.8098 5.23443C5.8098 5.53803 5.58953 5.77416 5.3399 5.77416C5.07558 5.77416 4.87 5.52116 4.87 5.23443C4.87 4.93084 5.09026 4.69471 5.3399 4.69471C5.60422 4.67784 5.8098 4.93084 5.8098 5.23443Z" fill="#00B9EF"/>
</g>
</g>
<defs>
<clipPath id="clip0_3592_409">
<rect width="22.0561" height="14.3364" fill="white" transform="translate(0.317749 0.663574)"/>
</clipPath>
</defs>
</svg>
