<svg width="23" height="16" viewBox="0 0 23 16" fill="none" xmlns="http://www.w3.org/2000/svg">
<g clip-path="url(#clip0_3592_240)">
<mask id="mask0_3592_240" style="mask-type:luminance" maskUnits="userSpaceOnUse" x="0" y="0" width="22" height="16">
<path d="M21.3358 0.865295H0.720337V15.3198H21.3358V0.865295Z" fill="white"/>
</mask>
<g mask="url(#mask0_3592_240)">
<path d="M1.85844 0.865295H20.1833C20.8172 0.865295 21.3214 1.47249 21.3214 2.19774V13.9874C21.3214 14.7295 20.8027 15.3198 20.1833 15.3198H1.85844C1.22456 15.3198 0.720337 14.7126 0.720337 13.9874V2.19774C0.720337 1.45562 1.22456 0.865295 1.85844 0.865295Z" fill="#EB6EA5"/>
<path d="M4.5812 7.51065C4.5812 7.86485 4.3363 8.16844 4.03376 8.16844C3.73123 8.16844 3.47192 7.88171 3.47192 7.52752C3.47192 7.17332 3.71682 6.86973 4.01936 6.86973C4.01936 6.86973 4.01936 6.86973 4.03376 6.86973C4.3363 6.85286 4.5812 7.13959 4.59561 7.49379C4.5812 7.49379 4.5812 7.51065 4.5812 7.51065ZM3.4431 9.75388V9.01176C3.4431 8.92743 3.47192 8.91056 3.52954 8.92743C3.68801 8.9949 3.84648 9.01176 4.01936 9.01176C4.84052 9.01176 5.38796 8.32024 5.38796 7.52752C5.38796 6.7348 4.84052 6.04327 4.01936 6.04327C3.1982 6.04327 2.65076 6.7348 2.65076 7.52752V9.75388H3.4431Z" fill="white"/>
<path d="M7.85146 7.62874C7.85146 7.67934 7.82264 7.71307 7.77943 7.72994H7.76502H6.84302C6.7998 7.72994 6.77098 7.6962 6.75658 7.6456V7.62874V7.47694C6.75658 7.12275 7.00148 6.83602 7.30402 6.83602C7.60655 6.83602 7.85146 7.12275 7.85146 7.47694V7.62874ZM6.77098 9.75391V8.60699C6.77098 8.55639 6.7998 8.52266 6.84302 8.50579H6.85742H7.77943C7.82264 8.50579 7.85146 8.53952 7.86586 8.57326V8.59012V9.73704H8.6438V7.46007C8.6438 6.70108 8.11077 6.02643 7.31842 6.02643C6.52608 6.02643 5.99304 6.70108 5.99304 7.46007V9.75391H6.77098Z" fill="white"/>
<path d="M11.7988 6.68422C11.77 6.63362 11.7412 6.58302 11.698 6.54929C11.4243 6.21196 11.0353 6.02643 10.6319 6.02643C9.79634 6.02643 9.37855 6.59989 9.37855 7.10588C9.37855 7.72994 9.82515 8.1516 10.6175 8.2022C10.6175 8.2022 11.1649 8.18533 11.1649 8.59012C11.1649 8.80939 11.0065 9.06238 10.6175 9.06238C10.3582 9.04552 10.0989 8.91058 9.91159 8.69132C9.88278 8.64072 9.85396 8.60699 9.82515 8.55639L9.27771 8.96118C9.29212 9.01178 9.32093 9.06238 9.34974 9.09612C9.65227 9.55151 10.1277 9.82137 10.6175 9.82137C11.4675 9.82137 11.9429 9.28165 11.9429 8.60699C11.9429 7.848 11.3234 7.51067 10.6175 7.47694C10.6175 7.47694 10.1277 7.47694 10.1277 7.12274C10.1277 6.98781 10.2429 6.76855 10.6031 6.76855C10.7904 6.76855 10.9632 6.85288 11.0929 7.00468C11.1361 7.03841 11.1649 7.07215 11.1937 7.12274L11.7988 6.68422Z" fill="white"/>
<path d="M18.6417 8.37082C18.6417 8.72501 18.3968 9.01174 18.0943 9.01174C17.7918 9.01174 17.5469 8.72501 17.5469 8.37082V7.46003C17.5469 7.10584 17.7918 6.81911 18.0943 6.81911C18.3968 6.81911 18.6417 7.10584 18.6417 7.46003V8.37082ZM19.4341 8.37082V7.46003C19.4341 6.68418 18.9011 6.00952 18.1087 6.00952C17.3164 6.00952 16.7833 6.68418 16.7833 7.46003V8.37082C16.7833 9.14667 17.3164 9.82133 18.1087 9.82133C18.9011 9.82133 19.4341 9.14667 19.4341 8.37082Z" fill="white"/>
<path d="M15.0835 6.02643C14.7954 6.02643 14.5072 6.14449 14.3776 6.34689C14.2479 6.14449 13.9598 6.02643 13.6717 6.02643C13.009 6.02643 12.5912 6.53242 12.5912 7.13961V9.73704H13.3835V7.13961C13.3979 6.93721 13.5564 6.80228 13.7149 6.83602C13.8589 6.85288 13.9598 6.98781 13.9742 7.13961V8.77565H14.7665V7.13961C14.7809 6.93721 14.9394 6.80228 15.0979 6.83602C15.2419 6.85288 15.3428 6.98781 15.3572 7.13961V9.73704H16.1495V7.13961C16.164 6.53242 15.7318 6.02643 15.0835 6.02643Z" fill="white"/>
</g>
</g>
<defs>
<clipPath id="clip0_3592_240">
<rect width="22.0561" height="14.3364" fill="white" transform="translate(0 0.915894)"/>
</clipPath>
</defs>
</svg>
