<svg width="23" height="15" viewBox="0 0 23 15" fill="none" xmlns="http://www.w3.org/2000/svg">
<mask id="mask0_3592_425" style="mask-type:luminance" maskUnits="userSpaceOnUse" x="1" y="2" width="21" height="12">
<path d="M21.2752 2.46826H1.1134V13.1784H21.2752V2.46826Z" fill="white"/>
</mask>
<g mask="url(#mask0_3592_425)">
<path fill-rule="evenodd" clip-rule="evenodd" d="M11.0401 2.46825C11.6715 2.45138 12.3176 2.56945 12.905 2.85618C13.0519 2.92364 13.1987 2.99111 13.3309 3.07544C13.4924 3.17664 13.6539 3.27784 13.8008 3.3959C13.8742 3.48023 13.9476 3.53083 14.0504 3.58143C14.1385 3.5983 14.256 3.48023 14.3 3.4465C14.5056 3.2947 14.7112 3.17664 14.9315 3.05857C15.2398 2.90677 15.5629 2.80558 15.9006 2.72124C16.0475 2.68751 16.1796 2.68751 16.3265 2.65378C16.5468 2.62005 16.7817 2.60318 17.002 2.63691C17.1488 2.67064 17.2957 2.65378 17.4278 2.68751C17.6921 2.73811 17.9565 2.80558 18.2061 2.90677C19.5277 3.4971 20.4088 4.44162 20.9521 5.92586C21.0549 6.22946 21.1283 6.54992 21.187 6.87038C21.2017 7.00531 21.2164 7.12338 21.2311 7.24144C21.2605 7.44384 21.2752 7.64624 21.2605 7.84863V8.03416C21.2458 8.1691 21.2458 8.30403 21.2311 8.43896C21.1871 8.75942 21.1283 9.07988 21.0549 9.40034C20.8787 10.0244 20.5997 10.6147 20.2326 11.1376C20.1151 11.3231 19.9829 11.4749 19.8361 11.6267C19.6892 11.7616 19.5571 11.9134 19.4102 12.0484C18.8963 12.47 18.3089 12.7736 17.6921 12.9423C17.0607 13.0941 16.3999 13.0941 15.7685 12.9423C15.3279 12.8242 14.9021 12.6387 14.5056 12.3857L14.1972 12.1664C14.1532 12.1158 14.1091 12.099 14.0504 12.099C13.977 12.1327 13.9036 12.2002 13.8448 12.2676L13.4337 12.5544C13.0372 12.8074 12.626 12.976 12.1855 13.0941C12.0386 13.1278 11.9065 13.1447 11.7449 13.1784C11.5834 13.2122 11.4659 13.1784 11.3191 13.1953H10.9667C10.7611 13.1616 10.5555 13.1616 10.3646 13.111C9.88001 13.0098 9.42479 12.8242 8.98425 12.5712C8.80804 12.4532 8.64651 12.3351 8.4703 12.217C8.42624 12.1833 8.35282 12.0652 8.26472 12.099C8.19129 12.1327 8.11787 12.1833 8.05913 12.2508L7.76544 12.4532C7.39833 12.6724 7.00185 12.8411 6.59069 12.9423C5.88583 13.111 5.15161 13.0941 4.44675 12.8748C3.09578 12.3857 2.28814 11.5592 1.62733 10.2774C1.43644 9.85574 1.28959 9.41721 1.20149 8.96182C0.981218 7.94983 1.14275 6.70172 1.42175 5.92586C1.90634 4.47535 2.94894 3.36217 4.22649 2.88991C4.53486 2.78871 4.84323 2.72124 5.15161 2.67064C5.26908 2.65378 5.40124 2.67064 5.5334 2.65378H5.73899L5.97394 2.67064C6.13547 2.70438 6.297 2.70438 6.44384 2.73811C6.84032 2.83931 7.2368 2.99111 7.6186 3.17664C7.76544 3.26097 7.91229 3.3453 8.04445 3.4465C8.11787 3.51397 8.19129 3.58143 8.2794 3.61516C8.36751 3.63203 8.44093 3.5477 8.48498 3.4971C8.63183 3.37903 8.79336 3.26097 8.95489 3.15977C9.39542 2.88991 9.86532 2.68751 10.3499 2.58631L10.8198 2.51885L11.0401 2.46825Z" fill="#EB6D9A"/>
<path fill-rule="evenodd" clip-rule="evenodd" d="M5.06341 8.62448V7.61249C5.06341 7.57876 5.06341 7.5619 5.04873 7.54503C5.03404 7.54503 5.01936 7.54503 5.01936 7.54503H3.59496C3.56559 7.54503 3.52154 7.54503 3.47749 7.54503C3.4628 7.52816 3.43343 7.5113 3.41875 7.49443L3.36001 7.42696L3.33064 7.4101C3.31596 7.37636 3.31596 7.34263 3.31596 7.32577V7.2077C3.31596 7.19083 3.31596 7.17397 3.31596 7.14024C3.31596 7.12337 3.34533 7.1065 3.34533 7.08964L3.41875 7.0053C3.43343 6.98844 3.44812 6.97157 3.4628 6.97157C3.47749 6.97157 3.50686 6.97157 3.53623 6.97157H4.40261C4.43198 6.97157 4.47603 6.98844 4.49072 6.9547C4.49072 6.93784 4.49072 6.92097 4.49072 6.90411V6.39811C4.49072 6.38125 4.49072 6.36438 4.47603 6.36438C4.46135 6.36438 4.44666 6.36438 4.44666 6.36438H2.81669C2.81669 6.36438 2.802 6.36438 2.802 6.38125C2.802 6.41498 2.802 6.44871 2.802 6.48244V8.06789C2.802 8.10162 2.802 8.16909 2.81669 8.16909C2.83137 8.18595 2.83137 8.16909 2.84606 8.16909H4.29982C4.32919 8.16909 4.34387 8.16909 4.37324 8.16909H4.38792C4.40261 8.16909 4.43198 8.18595 4.43198 8.21969L4.49072 8.28715C4.5054 8.30402 4.52008 8.32088 4.53477 8.35462V8.40522C4.53477 8.42208 4.53477 8.60761 4.53477 8.60761C4.52008 8.64135 4.5054 8.65821 4.47603 8.69194L4.41729 8.72568C4.40261 8.74254 4.38792 8.74254 4.38792 8.75941C4.37324 8.75941 4.35856 8.75941 4.34387 8.75941H2.90479C2.87542 8.75941 2.84606 8.75941 2.81669 8.75941C2.802 8.75941 2.802 8.77628 2.802 8.79314V9.33287C2.802 9.34974 2.802 9.34973 2.81669 9.34973C2.81669 9.34973 2.83137 9.34973 2.84606 9.34973H5.00467C5.01936 9.34973 5.03404 9.34973 5.04873 9.34973C5.06341 9.34973 5.04873 9.316 5.04873 9.29914L5.06341 8.62448Z" fill="#231815"/>
<path fill-rule="evenodd" clip-rule="evenodd" d="M7.95637 8.77629V6.39812C7.95637 6.38126 7.95637 6.36439 7.95637 6.34752C7.95637 6.33066 7.94168 6.34752 7.94168 6.34752H7.47178C7.4571 6.34752 7.44241 6.34752 7.44241 6.34752C7.44241 6.36439 7.44241 6.38126 7.44241 6.39812V8.50642C7.44241 8.52329 7.44241 8.54016 7.44241 8.55702C7.44241 8.57389 7.44241 8.57389 7.44241 8.59076C7.42773 8.60762 7.42773 8.62449 7.41304 8.64135L7.33962 8.72569C7.32494 8.74255 7.31025 8.75942 7.29557 8.75942C7.28088 8.75942 7.2662 8.75942 7.23683 8.75942H6.42918C6.4145 8.75942 6.39982 8.75942 6.38513 8.75942C6.37045 8.74255 6.35576 8.72569 6.34108 8.70882L6.28234 8.64135C6.26765 8.62449 6.25297 8.60762 6.25297 8.59076C6.25297 8.57389 6.25297 8.57389 6.25297 8.55702C6.25297 8.54016 6.25297 8.54016 6.25297 8.52329V6.39812C6.25297 6.38126 6.25297 6.36439 6.25297 6.34752C6.25297 6.33066 6.2236 6.34752 6.2236 6.34752H5.7537C5.7537 6.34752 5.73901 6.34752 5.73901 6.36439C5.73901 6.38126 5.73901 6.43186 5.73901 6.46559V9.33288C5.73901 9.34974 5.73901 9.36661 5.73901 9.36661C5.73901 9.38348 5.7537 9.38348 5.78307 9.38348H7.95637C7.97105 9.38348 7.98574 9.38348 8.00042 9.38348C8.01511 9.38348 8.00042 9.34974 8.00042 9.34974L7.95637 8.77629Z" fill="#231815"/>
<path fill-rule="evenodd" clip-rule="evenodd" d="M10.8638 8.06791V7.79805C10.8638 7.76431 10.8638 7.71371 10.8491 7.71371H10.0415C10.0121 7.71371 9.99744 7.71371 9.98276 7.73058C9.98276 7.74745 9.98276 7.76431 9.98276 7.78118V8.28717C9.98276 8.30404 9.98276 8.3209 9.99744 8.3209C10.0121 8.3209 10.0268 8.3209 10.0562 8.3209H10.1883C10.2177 8.3209 10.2324 8.33777 10.2471 8.35464L10.2911 8.4221C10.3058 8.43897 10.3205 8.4727 10.3352 8.48957V8.5233C10.3352 8.54017 10.3352 8.55703 10.3352 8.5739C10.3205 8.60763 10.3058 8.64137 10.2764 8.65823L10.2324 8.70883C10.2177 8.7257 10.203 8.74256 10.1883 8.74256C10.1737 8.74256 10.1443 8.74256 10.1296 8.74256H9.36601C9.33664 8.74256 9.30727 8.74256 9.26322 8.7257C9.24853 8.70883 9.23385 8.70883 9.23385 8.69196L9.17511 8.6245C9.16043 8.60763 9.14574 8.59077 9.13106 8.5739C9.13106 8.54017 9.13106 8.50643 9.13106 8.4727V7.24145C9.13106 7.22459 9.13106 7.19085 9.13106 7.15712C9.13106 7.14026 9.13106 7.14026 9.13106 7.12339C9.13106 7.10652 9.14574 7.07279 9.17511 7.05592L9.24853 6.97159C9.26322 6.95473 9.2779 6.93786 9.29259 6.93786C9.32196 6.93786 9.35133 6.93786 9.36601 6.93786H10.2324C10.2618 6.93786 10.2911 6.93786 10.2911 6.92099C10.2911 6.90413 10.2911 6.88726 10.2911 6.88726V6.38127C10.2911 6.3644 10.2911 6.34753 10.2911 6.34753C10.2764 6.34753 10.2618 6.34753 10.2471 6.34753H8.6171C8.6171 6.34753 8.60242 6.34753 8.60242 6.3644C8.60242 6.38127 8.60242 6.43187 8.60242 6.4656V9.33289C8.60242 9.34976 8.60242 9.36662 8.60242 9.36662C8.60242 9.38349 8.6171 9.38349 8.63179 9.38349H10.8051C10.8198 9.38349 10.8345 9.38349 10.8491 9.38349C10.8638 9.38349 10.8491 9.33289 10.8491 9.29916L10.8638 8.06791Z" fill="#231815"/>
<path fill-rule="evenodd" clip-rule="evenodd" d="M14.9315 8.32086V7.19081C14.9315 7.17395 14.9315 7.15708 14.9315 7.12335C14.9315 7.08962 14.9462 7.07275 14.9755 7.05588L15.0343 6.98842C15.0489 6.97155 15.0636 6.95469 15.093 6.93782H15.1077C15.1371 6.93782 15.1517 6.93782 15.1811 6.93782H16.6202C16.6349 6.93782 16.6349 6.93782 16.6496 6.93782L16.6642 6.92095C16.6642 6.90409 16.6642 6.88722 16.6642 6.87035V6.39809C16.6642 6.38123 16.6642 6.36436 16.6642 6.34749C16.6642 6.33063 16.6349 6.33063 16.6202 6.33063H14.4175C14.4028 6.33063 14.4028 6.33063 14.4028 6.34749C14.4028 6.36436 14.4028 6.41496 14.4028 6.44869V9.31598C14.4028 9.33285 14.4028 9.33285 14.4028 9.34972C14.4028 9.36658 14.4175 9.36658 14.4322 9.36658H16.6055C16.6202 9.36658 16.6349 9.36658 16.6496 9.36658C16.6496 9.36658 16.6496 9.34972 16.6642 9.34972C16.6642 9.33285 16.6642 9.33285 16.6642 9.31598V8.80999C16.6642 8.79312 16.6642 8.77626 16.6496 8.75939C16.6349 8.75939 16.6202 8.75939 16.6202 8.75939H15.1958C15.1517 8.75939 15.1224 8.75939 15.0783 8.74252C15.0636 8.72566 15.0489 8.72566 15.0489 8.70879L14.9902 8.64133C14.9755 8.62446 14.9608 8.60759 14.9462 8.59073C14.9462 8.55699 14.9462 8.54013 14.9462 8.50639L14.9315 8.32086Z" fill="#231815"/>
<path fill-rule="evenodd" clip-rule="evenodd" d="M19.5717 9.31602V6.38127C19.5717 6.3644 19.5717 6.34753 19.5717 6.34753C19.557 6.34753 19.5423 6.34753 19.5277 6.34753H17.3397H17.325C17.325 6.34753 17.3103 6.38127 17.3103 6.39813V9.28229C17.3103 9.29916 17.3103 9.31602 17.3103 9.34976C17.3103 9.36662 17.325 9.36662 17.3544 9.36662H17.7949C17.8096 9.36662 17.8243 9.36662 17.8243 9.36662C17.8243 9.36662 17.8389 9.34976 17.8389 9.33289V8.99556C17.8389 8.96183 17.8389 8.92809 17.8389 8.8775C17.8536 8.86063 17.8536 8.84376 17.8683 8.84376C17.883 8.8269 17.9124 8.81003 17.9271 8.7763C17.9417 8.75943 17.9564 8.74256 17.9711 8.7257C18.0005 8.7257 18.0298 8.7257 18.0592 8.7257H18.8522C18.8669 8.7257 18.8815 8.7257 18.8815 8.7257C18.8962 8.74256 18.9109 8.74256 18.9256 8.75943L18.9843 8.8269C18.999 8.84376 19.0137 8.86063 19.0137 8.8775C19.0137 8.91123 19.0137 8.92809 19.0137 8.96183V9.28229C19.0137 9.29916 19.0137 9.33289 19.0137 9.34976C19.0137 9.36662 19.0284 9.34976 19.0431 9.34976H19.4836C19.4983 9.34976 19.513 9.34976 19.513 9.34976C19.513 9.34976 19.5277 9.31602 19.5277 9.29916M19.0137 7.22459V7.81491C19.0137 7.86551 19.0137 7.89924 18.999 7.94984C18.9696 7.98358 18.9403 8.01731 18.9256 8.03418C18.9109 8.05104 18.8962 8.06791 18.8669 8.08477C18.8375 8.08477 18.8081 8.08477 18.7641 8.08477H18.0152C18.0005 8.08477 17.9711 8.08477 17.9564 8.08477C17.9417 8.06791 17.9124 8.05104 17.9124 8.03418L17.8536 7.96671C17.8389 7.94984 17.8243 7.94984 17.8243 7.93298C17.8096 7.89924 17.8096 7.86551 17.8096 7.83178V7.19085C17.8096 7.17399 17.8096 7.15712 17.8096 7.15712C17.8096 7.14026 17.8096 7.12339 17.8096 7.12339C17.8243 7.10652 17.8389 7.07279 17.8536 7.05592L17.9124 6.98846C17.9271 6.97159 17.9417 6.95472 17.9417 6.95472H17.9564H17.9711H18.7641C18.7934 6.95472 18.8228 6.95472 18.8522 6.95472C18.8669 6.97159 18.8962 6.98846 18.8962 7.00532C18.9109 7.02219 18.9403 7.05592 18.955 7.07279C18.9696 7.08966 18.9843 7.10652 18.9843 7.10652C19.0284 7.14026 19.0137 7.20772 19.0137 7.22459Z" fill="#231815"/>
<path fill-rule="evenodd" clip-rule="evenodd" d="M16.532 6.48242H14.5203V9.21478H16.532V8.89432H15.1517C15.093 8.89432 15.0342 8.89432 14.9902 8.86059L14.9461 8.80999C14.8727 8.72565 14.8727 8.72565 14.8727 8.72565C14.8433 8.69192 14.8286 8.65819 14.814 8.64132C14.814 8.62446 14.7993 8.52326 14.7993 8.52326V7.14021V7.12335C14.814 7.07275 14.8286 7.02215 14.8727 6.98841L15.0049 6.83662C15.0195 6.83662 15.0195 6.81975 15.0342 6.81975H16.532V6.48242Z" fill="#EF858C"/>
<path d="M13.7567 6.34753C13.742 6.34753 13.7274 6.34753 13.7127 6.34753H11.5247C11.5247 6.34753 11.51 6.34753 11.51 6.3644C11.51 6.39813 11.51 6.43187 11.51 6.4656V9.33289C11.51 9.34976 11.51 9.36662 11.51 9.36662C11.51 9.36662 11.5394 9.38349 11.5541 9.38349H13.7274C13.742 9.38349 13.7567 9.38349 13.7714 9.38349C13.7861 9.38349 13.7861 9.34976 13.7861 9.33289V6.39813C13.7567 6.38127 13.7567 6.34753 13.7567 6.34753ZM13.2281 8.59077C13.2134 8.60763 13.1987 8.6245 13.184 8.64137L13.1253 8.70883C13.1106 8.7257 13.1106 8.74256 13.0959 8.74256C13.0519 8.74256 13.0225 8.74256 12.9785 8.74256H12.2442C12.2295 8.74256 12.2149 8.74256 12.1855 8.74256C12.1708 8.7257 12.1414 8.70883 12.1414 8.69196L12.0827 8.6245C12.068 8.6245 12.0533 8.60763 12.0533 8.59077C12.0387 8.54017 12.0387 8.50643 12.0387 8.45584V7.22459C12.0387 7.19085 12.0387 7.15712 12.0387 7.12339C12.0533 7.10652 12.068 7.08966 12.0827 7.07279C12.0974 7.03906 12.1268 7.02219 12.1414 7.00532C12.1561 6.98846 12.1561 6.98846 12.1708 6.97159L12.1855 6.95472H12.2002H12.9931C13.0225 6.95472 13.0519 6.95472 13.0812 6.95472H13.0959C13.1106 6.97159 13.1253 6.97159 13.14 6.98846L13.2281 7.08966C13.2428 7.12339 13.2428 7.17399 13.2428 7.22459V8.4727C13.2428 8.50643 13.2428 8.55703 13.2281 8.59077Z" fill="#231815"/>
<path fill-rule="evenodd" clip-rule="evenodd" d="M13.228 6.48242V6.87035V6.90408L13.3308 7.03901L13.3455 7.08961V8.60759L13.3308 8.65819L13.228 8.79312V8.82685V9.23165H13.6392V6.48242H13.228Z" fill="white"/>
<path fill-rule="evenodd" clip-rule="evenodd" d="M16.532 6.48242H14.5203V9.21478H16.532V8.89432H15.1517C15.093 8.89432 15.0342 8.89432 14.9902 8.86059L14.9461 8.80999C14.8727 8.72565 14.8727 8.72565 14.8727 8.72565C14.8433 8.69192 14.8286 8.65819 14.814 8.64132C14.814 8.62446 14.7993 8.52326 14.7993 8.52326V7.14021V7.12335C14.814 7.07275 14.8286 7.02215 14.8727 6.98841L15.0049 6.83662C15.0195 6.83662 15.0195 6.81975 15.0342 6.81975H16.532V6.48242Z" fill="white"/>
</g>
</svg>
