<svg width="23" height="16" viewBox="0 0 23 16" fill="none" xmlns="http://www.w3.org/2000/svg">
<mask id="mask0_3592_255" style="mask-type:luminance" maskUnits="userSpaceOnUse" x="1" y="1" width="20" height="14">
<path d="M20.7025 1.28693H1.68616V14.8981H20.7025V1.28693Z" fill="white"/>
</mask>
<g mask="url(#mask0_3592_255)">
<path d="M2.94897 12.0983C3.9622 13.7006 5.65092 14.8981 7.54521 14.8981H14.8581H14.8875C18.0887 14.915 20.7025 11.9296 20.7025 8.25274C20.7025 6.70103 20.2326 5.18305 19.3662 3.98553" fill="#231815"/>
<path d="M14.77 1.70856C14.6525 1.70856 14.5497 1.70856 14.4322 1.72542H7.48649C4.49086 1.77602 2.09729 4.60958 2.14135 8.06719C2.1854 11.4405 4.56428 14.1728 7.50118 14.2234C7.63334 14.2234 7.7655 14.2066 7.89766 14.2066H14.7406H14.77C17.7656 14.2066 20.2032 11.4067 20.2032 7.96599C20.2032 4.52525 17.7656 1.70856 14.77 1.70856Z" fill="#319041"/>
<path d="M2.42038 7.96602C2.42038 4.76141 4.69647 2.14711 7.48652 2.14711H14.4323L14.7553 2.13025C17.5454 2.13025 19.8215 4.72767 19.8215 7.94916C19.8215 11.1706 17.5601 13.7681 14.7553 13.7681H14.726H7.89769L7.50121 13.7849C4.69647 13.7849 2.43507 11.1875 2.42038 7.96602ZM7.61868 14.6283C9.18992 14.6283 14.7407 14.6283 14.7407 14.6283H14.77C17.9712 14.7632 20.6732 11.879 20.7907 8.20216C20.9081 4.52528 18.3971 1.42186 15.1959 1.28693C15.049 1.28693 14.9169 1.28693 14.77 1.28693H14.4323H7.48652C4.28531 1.30379 1.68616 4.28915 1.68616 7.96602C1.68616 11.6429 4.37342 14.6283 7.57463 14.6283H7.61868Z" fill="#CBAB80"/>
<path d="M14.77 14.2066H7.51587V1.72542L14.77 1.70856" fill="#319041"/>
<path d="M9.35144 7.94915C9.35144 4.49154 11.7744 1.69171 14.7847 1.69171C17.795 1.69171 20.2326 4.47467 20.2326 7.93228C20.2326 11.3899 17.8097 14.1897 14.7994 14.1897H14.7847C11.7891 14.1897 9.35144 11.4068 9.35144 7.94915Z" fill="#319041"/>
<path d="M2.08264 7.9829C2.08264 4.52529 4.50558 1.72546 7.5159 1.72546C10.5262 1.72546 12.9638 4.50842 12.9638 7.96604C12.9638 11.4236 10.5409 14.2235 7.53058 14.2235H7.5159C4.52026 14.2235 2.08264 11.4405 2.08264 7.9829Z" fill="#319041"/>
<path d="M7.51593 1.72546C4.50562 1.72546 2.06799 4.52529 2.06799 7.96604C2.06799 11.4236 4.50562 14.2235 7.50125 14.2235C10.4969 14.2235 12.9492 11.4236 12.9492 7.9829C12.9639 4.52529 10.5262 1.72546 7.51593 1.72546Z" fill="#319041"/>
<path d="M10.8346 11.7778C10.4088 12.267 9.9095 12.6549 9.36618 12.9248C10.7465 11.2381 10.6731 7.96604 10.6731 7.96604C10.6731 7.96604 10.7318 4.71082 9.36618 3.00731C11.7451 4.18796 12.8464 7.34198 11.8332 10.0743C11.5982 10.7321 11.2605 11.2887 10.8346 11.7778ZM7.89773 13.3464V2.60252C8.16205 2.73745 8.397 2.93985 8.5879 3.17597C8.9697 3.6145 9.30744 4.28916 9.54239 5.09875C9.79203 6.0264 9.92419 6.98778 9.92419 7.96604C9.92419 8.94429 9.80671 9.90567 9.54239 10.8333C9.30744 11.6429 8.9697 12.3176 8.5879 12.7561C8.397 13.0091 8.16205 13.1946 7.89773 13.3464ZM7.13414 13.3296C6.86982 13.1946 6.63486 12.9922 6.44397 12.7561C6.06217 12.3176 5.72443 11.6429 5.48948 10.8333C5.22515 9.90567 5.10768 8.94429 5.10768 7.96604C5.10768 6.98778 5.22515 6.0264 5.48948 5.09875C5.72443 4.28916 6.04748 3.6145 6.44397 3.17597C6.63486 2.93985 6.86982 2.73745 7.13414 2.60252V13.3296ZM4.21193 11.7778C2.37637 9.66954 2.39105 6.26253 4.21193 4.15423C4.63778 3.6651 5.12236 3.29404 5.66569 3.02418C4.28535 4.71082 4.34409 7.9829 4.34409 7.9829C4.34409 7.9829 4.28535 11.2381 5.66569 12.9416C5.12236 12.6549 4.62309 12.267 4.21193 11.7778ZM7.51593 1.72546C4.50562 1.72546 2.06799 4.52529 2.06799 7.96604C2.06799 11.4236 4.50562 14.2235 7.50125 14.2235C10.4969 14.2235 12.9492 11.4236 12.9492 7.9829C12.9639 4.52529 10.5262 1.72546 7.51593 1.72546Z" fill="#231815"/>
<path d="M7.72147 6.04327H7.3103V7.37572H7.72147V6.04327Z" fill="white"/>
<path d="M10.35 5.99268C10.4234 6.4312 10.4674 6.8866 10.4968 7.32512L10.0857 7.34199C10.071 6.92033 10.0122 6.49867 9.95349 6.07701L10.35 5.99268Z" fill="white"/>
<path d="M7.72147 8.57324H7.3103V9.90569H7.72147V8.57324Z" fill="white"/>
<path d="M10.35 9.95625C10.4234 9.51772 10.4674 9.06233 10.4968 8.6238L10.0857 8.60693C10.071 9.02859 10.0122 9.45025 9.95349 9.87191L10.35 9.95625Z" fill="white"/>
<path d="M5.56286 3.4964L5.87123 3.71566C5.68033 4.06986 5.5188 4.45778 5.40133 4.86258L5.01953 4.69391C5.13701 4.27225 5.32791 3.86746 5.56286 3.4964Z" fill="#CBAB80"/>
<path d="M5.76846 2.2652C5.40135 2.417 5.04892 2.61939 4.71118 2.85552L4.93145 3.26032C5.23982 3.04105 5.56288 2.85552 5.90062 2.72059L5.76846 2.2652Z" fill="#CBAB80"/>
<path d="M4.69653 5.99268C4.6231 6.4312 4.57905 6.8866 4.54968 7.32512L4.96085 7.34199C4.97553 6.92033 5.03427 6.49867 5.09301 6.07701L4.69653 5.99268Z" fill="#CBAB80"/>
<path d="M3.80075 3.69885C3.52175 4.01931 3.27211 4.37351 3.06653 4.76144L3.41896 5.01443C3.60985 4.66024 3.84481 4.33978 4.09444 4.03618L3.80075 3.69885Z" fill="#CBAB80"/>
<path d="M2.53784 5.99268C2.40568 6.41434 2.33226 6.85286 2.28821 7.29139L2.69937 7.35886C2.74343 6.95406 2.81685 6.5324 2.93432 6.14447L2.53784 5.99268Z" fill="#CBAB80"/>
<path d="M6.97261 2.43385C7.33972 2.38325 7.70683 2.38325 8.07394 2.43385L8.13268 1.96159C7.7362 1.911 7.33972 1.911 6.94324 1.96159L6.97261 2.43385Z" fill="#CBAB80"/>
<path d="M7.72147 3.51331H7.3103V4.86262H7.72147V3.51331Z" fill="#CBAB80"/>
<path d="M9.48367 3.4964L9.17529 3.71566C9.36619 4.06986 9.52772 4.45778 9.6452 4.86258L10.0417 4.69391C9.90952 4.27225 9.71862 3.86746 9.48367 3.4964Z" fill="#CBAB80"/>
<path d="M9.27803 2.2652C9.64515 2.417 9.99757 2.61939 10.3353 2.85552L10.115 3.26032C9.80668 3.04105 9.48362 2.85552 9.14587 2.72059L9.27803 2.2652Z" fill="#CBAB80"/>
<path d="M11.2457 3.69885C11.5247 4.01931 11.7744 4.37351 11.9799 4.76144L11.6275 5.01443C11.4366 4.66024 11.2017 4.33978 10.952 4.03618L11.2457 3.69885Z" fill="#CBAB80"/>
<path d="M5.56286 12.4525L5.87123 12.2332C5.68033 11.879 5.5188 11.4911 5.40133 11.0863L5.01953 11.255C5.13701 11.6766 5.32791 12.0814 5.56286 12.4525Z" fill="#CBAB80"/>
<path d="M5.76846 13.6838C5.40135 13.532 5.04892 13.3464 4.71118 13.1103L4.93145 12.7055C5.23982 12.9248 5.56288 13.1103 5.90062 13.2452L5.76846 13.6838Z" fill="#CBAB80"/>
<path d="M4.69653 9.95625C4.6231 9.51772 4.57905 9.06233 4.54968 8.6238L4.97553 8.60693C4.99022 9.02859 5.04895 9.45025 5.10769 9.87191L4.69653 9.95625Z" fill="#CBAB80"/>
<path d="M3.80075 12.2501C3.52175 11.9296 3.27211 11.5754 3.06653 11.1875L3.41896 10.9345C3.60985 11.2887 3.84481 11.6092 4.09444 11.9128L3.80075 12.2501Z" fill="#CBAB80"/>
<path d="M2.53784 9.95625C2.40568 9.53459 2.33226 9.09606 2.28821 8.65753L2.69937 8.60693C2.74343 9.01173 2.81685 9.41652 2.93432 9.82132L2.53784 9.95625Z" fill="#CBAB80"/>
<path d="M6.92847 13.9873C7.32495 14.0379 7.72143 14.0379 8.11791 13.9873L8.07386 13.5151C7.70674 13.5657 7.33963 13.5657 6.97252 13.5151L6.92847 13.9873Z" fill="#CBAB80"/>
<path d="M7.72147 11.0863H7.3103V12.4356H7.72147V11.0863Z" fill="#CBAB80"/>
<path d="M9.48367 12.4525L9.17529 12.2332C9.36619 11.879 9.52772 11.4911 9.6452 11.0863L10.0417 11.255C9.90952 11.6766 9.71862 12.0814 9.48367 12.4525Z" fill="#CBAB80"/>
<path d="M9.27803 13.6838C9.64515 13.532 9.99757 13.3464 10.3353 13.1103L10.115 12.7055C9.80668 12.9248 9.48362 13.1103 9.14587 13.2452L9.27803 13.6838Z" fill="#CBAB80"/>
<path d="M11.2457 12.2501C11.5247 11.9296 11.7744 11.5754 11.9799 11.1875L11.6275 10.9345C11.4366 11.2887 11.2017 11.6092 10.952 11.9128L11.2457 12.2501Z" fill="#CBAB80"/>
<path d="M12.9198 5.68909H7.0166V10.0406H12.9198V5.68909Z" fill="#319041"/>
<path d="M12.215 7.94914C12.215 6.3131 13.375 4.98065 14.7994 4.98065C16.2238 4.98065 17.3839 6.3131 17.3839 7.94914C17.3839 9.58518 16.2238 10.9176 14.7994 10.9176C13.375 10.9176 12.215 9.60205 12.215 7.94914Z" fill="white"/>
<path d="M14.7994 10.9514C13.3603 10.9514 12.1855 9.60209 12.1855 7.94918C12.1855 6.29627 13.3603 4.94696 14.7994 4.94696C16.2385 4.94696 17.4132 6.29627 17.4132 7.94918C17.4132 9.61896 16.2385 10.9514 14.7994 10.9514ZM14.7994 5.03129C13.3897 5.03129 12.2443 6.33001 12.2443 7.94918C12.2443 9.56836 13.375 10.8839 14.7847 10.8839C16.1944 10.8839 17.3398 9.58522 17.3398 7.96605C17.3398 6.34687 16.2091 5.03129 14.7994 5.03129Z" fill="#231815"/>
<path d="M8.6466 6.54922C8.6466 6.70102 8.66129 6.85282 8.67597 7.00462C8.38228 6.85282 8.07391 6.76849 7.75085 6.75162C7.47184 6.75162 7.33968 6.85282 7.33968 7.03835C7.33968 7.22388 7.5159 7.27448 7.89769 7.35881C8.48507 7.47688 8.77876 7.71301 8.77876 8.3202C8.77876 8.92739 8.44102 9.24785 7.78022 9.24785C7.44248 9.24785 7.10473 9.19725 6.76699 9.09605C6.76699 8.84305 6.75231 8.60692 6.72294 8.35393C7.01663 8.53946 7.35437 8.62379 7.69211 8.64066C7.9858 8.64066 8.13265 8.55633 8.13265 8.35393C8.13265 8.1178 7.97112 8.10093 7.66274 8.0166C7.38374 7.94913 7.16347 7.89854 6.98726 7.7636C6.81104 7.61181 6.70825 7.35881 6.70825 7.10581C6.70825 6.54922 7.07536 6.17816 7.76553 6.17816C8.05922 6.17816 8.35291 6.22876 8.6466 6.32996C8.6466 6.43116 8.6466 6.49862 8.6466 6.54922Z" fill="#231815"/>
<path d="M10.5115 7.08899V8.30337C10.5115 8.60697 10.5409 8.77563 10.7905 8.77563C10.952 8.77563 11.0989 8.6913 11.2163 8.57323V7.08899H11.8184V9.18042H11.3338L11.2751 8.96116C11.0842 9.14669 10.8492 9.26476 10.5996 9.26476C10.394 9.28162 10.1884 9.18042 10.0563 8.99489C9.92411 8.80936 9.90942 8.60697 9.90942 8.3371V7.08899H10.5115Z" fill="#231815"/>
<path d="M19.4103 7.88169C19.4103 7.29137 19.2047 7.00464 18.5292 7.00464C18.2649 7.00464 18.0153 7.0721 17.7803 7.19017L17.8831 7.61183C18.0447 7.49376 18.2356 7.4263 18.4411 7.4263C18.7201 7.4263 18.8376 7.5275 18.8376 7.76363V7.91543H18.7348C18.0006 7.91543 17.6041 8.15155 17.6041 8.64068C17.6041 9.04547 17.8244 9.2816 18.1915 9.2816C18.4558 9.2816 18.7201 9.18041 18.9551 9.01174C18.9992 9.12981 19.0873 9.231 19.19 9.26474L19.5718 8.87681C19.4544 8.84308 19.3809 8.69128 19.4103 8.55635V7.88169ZM18.8523 8.26962V8.67441C18.7201 8.74188 18.5733 8.79248 18.4265 8.79248C18.2943 8.79248 18.2209 8.72501 18.2209 8.57322C18.2209 8.35395 18.4118 8.25275 18.7789 8.25275L18.8523 8.26962Z" fill="#231815"/>
<path d="M13.3897 7.27452H13.8302V9.06236H13.3897V7.27452ZM13.2281 9.26476H13.9917V7.08899H13.2281V9.26476Z" fill="#231815"/>
<path d="M13.3897 6.46489H13.8302V6.73475H13.3897V6.46489ZM13.2281 6.92028H13.9917V6.27936H13.2281V6.92028Z" fill="#231815"/>
<path d="M16.5174 9.07923C16.3559 9.12983 16.2091 9.1467 16.0475 9.1467C15.7832 9.16356 15.5336 9.06236 15.328 8.85997C15.1665 8.65757 15.0784 8.38771 15.093 8.11785C15.0784 7.86485 15.1665 7.61185 15.328 7.42632C15.5336 7.20706 15.7979 7.10586 16.0769 7.12273C16.2384 7.12273 16.3853 7.15646 16.5468 7.19019L16.5615 7.54439C16.4147 7.47692 16.2531 7.44319 16.0916 7.44319C15.7392 7.44319 15.5336 7.67932 15.5336 8.11785C15.5189 8.30338 15.5776 8.50577 15.6951 8.6407C15.8126 8.75877 15.9594 8.82623 16.1063 8.80937C16.2531 8.80937 16.4147 8.77564 16.5468 8.70817L16.5174 9.07923ZM16.6202 8.50577C16.4587 8.5901 16.2972 8.6407 16.121 8.65757C16.0182 8.67444 15.9007 8.62384 15.8273 8.53951C15.7539 8.43831 15.7098 8.28651 15.7245 8.15158C15.7098 8.01665 15.7539 7.88172 15.8273 7.78052C15.9007 7.69618 16.0035 7.66245 16.1063 7.67932C16.2825 7.67932 16.4734 7.72992 16.6349 7.83112L16.7671 7.89858L16.723 7.10586L16.6643 7.08899C16.4734 7.02153 16.2825 6.9878 16.0916 6.9878C15.7832 6.97093 15.4895 7.08899 15.2546 7.30826C15.049 7.52752 14.9315 7.84798 14.9462 8.18531C14.9315 8.50577 15.0343 8.82623 15.2399 9.06236C15.4602 9.29849 15.7685 9.43343 16.0769 9.41656C16.2678 9.41656 16.4587 9.38283 16.6496 9.31536L16.7083 9.29849L16.7818 8.48891L16.6202 8.50577Z" fill="#231815"/>
<path d="M8.54382 6.41429C8.54382 6.56609 8.5585 6.71789 8.57319 6.86969C8.2795 6.71789 7.97112 6.63356 7.66275 6.61669C7.38375 6.61669 7.25159 6.71789 7.25159 6.90342C7.25159 7.08895 7.4278 7.13955 7.80959 7.22388C8.39697 7.34195 8.69066 7.57808 8.69066 8.18527C8.69066 8.79246 8.33824 9.11292 7.69212 9.11292C7.35438 9.11292 7.01663 9.06232 6.67889 8.96112C6.67889 8.70813 6.66421 8.472 6.63484 8.219C6.92853 8.40453 7.26627 8.48886 7.60401 8.50573C7.8977 8.50573 8.04455 8.4214 8.04455 8.219C8.04455 7.98287 7.88302 7.966 7.57464 7.88167C7.29564 7.81421 7.07537 7.76361 6.89916 7.62868C6.70826 7.47688 6.60547 7.22388 6.60547 6.95402C6.60547 6.39743 6.97258 6.02637 7.66275 6.02637C7.95644 6.02637 8.25013 6.07697 8.54382 6.17817C8.54382 6.27936 8.54382 6.34683 8.54382 6.41429Z" fill="white"/>
<path d="M10.4234 6.93719V8.15158C10.4234 8.45517 10.4528 8.62384 10.7171 8.62384C10.8787 8.62384 11.0255 8.5395 11.143 8.42144V6.93719H11.745V9.02863H11.2605L11.2017 8.80937C11.0108 8.9949 10.7759 9.0961 10.5262 9.11296C10.3206 9.12983 10.1151 9.02863 9.9829 8.8431C9.85074 8.65757 9.83606 8.45517 9.83606 8.18531V6.93719H10.4234Z" fill="white"/>
<path d="M19.3223 7.7299C19.3223 7.13957 19.1167 6.85284 18.4412 6.85284C18.1769 6.85284 17.9272 6.92031 17.707 7.03837L17.8098 7.46003C17.9713 7.34197 18.1622 7.2745 18.3678 7.2745C18.6468 7.2745 18.7643 7.3757 18.7643 7.61183V7.76363H18.6615C17.9419 7.76363 17.5308 7.99976 17.5308 8.48889C17.5308 8.89368 17.751 9.12981 18.1181 9.12981C18.3825 9.12981 18.6468 9.02861 18.8817 8.85995C18.9258 8.97801 19.0139 9.07921 19.1314 9.11294L19.5132 8.72502C19.3516 8.64068 19.3516 8.57322 19.3516 8.40455L19.3223 7.7299ZM18.7643 8.11783V8.52262C18.6321 8.59008 18.4853 8.64068 18.3384 8.64068C18.2062 8.64068 18.1328 8.57322 18.1328 8.42142C18.1328 8.20216 18.3237 8.10096 18.6908 8.10096L18.7643 8.11783Z" fill="white"/>
<path d="M13.3015 7.13959H13.7421V8.92743H13.3015V7.13959ZM13.14 9.11296H13.9036V6.93719H13.14V9.11296Z" fill="#319041"/>
<path d="M13.3015 6.31311H13.7421V6.58298H13.3015V6.31311ZM13.14 6.76851H13.9036V6.11072H13.14V6.76851Z" fill="#319041"/>
<path d="M16.4293 8.92744C16.2678 8.97804 16.121 8.9949 15.9594 8.9949C15.6951 9.01177 15.4455 8.91057 15.2399 8.70817C15.0784 8.50578 14.9903 8.25278 15.005 7.96605C14.9903 7.71305 15.0784 7.46006 15.2399 7.27453C15.4455 7.07213 15.7098 6.95407 15.9888 6.97093C16.1503 6.97093 16.3119 7.00467 16.4587 7.0384L16.4734 7.39259C16.3266 7.32513 16.165 7.29139 16.0035 7.29139C15.6511 7.29139 15.4455 7.52752 15.4455 7.96605C15.4308 8.15158 15.4895 8.35398 15.607 8.48891C15.7245 8.60697 15.8713 8.67444 16.0182 8.65757C16.165 8.65757 16.3266 8.62384 16.4587 8.55638L16.4293 8.92744ZM16.5175 8.35398C16.3559 8.43831 16.1944 8.48891 16.0182 8.50578C15.9154 8.52264 15.7979 8.47204 15.7245 8.38771C15.6511 8.28651 15.607 8.13471 15.6217 7.99978C15.607 7.86485 15.6511 7.72992 15.7245 7.62872C15.7979 7.54439 15.9007 7.51066 16.0035 7.52752C16.1797 7.52752 16.3706 7.57812 16.5321 7.67932L16.6643 7.74679L16.6202 6.95407L16.5615 6.9372C16.3706 6.86973 16.1797 6.836 15.9888 6.836C15.6804 6.81913 15.3867 6.9372 15.1518 7.15646C14.9462 7.37573 14.8287 7.69619 14.8434 8.03352C14.8287 8.35398 14.9315 8.67444 15.1371 8.91057C15.3721 9.1467 15.6658 9.26476 15.9741 9.23103C16.165 9.23103 16.3559 9.1973 16.5468 9.12983L16.6056 9.11297L16.679 8.30338L16.5175 8.35398Z" fill="#319041"/>
<path d="M13.5218 10.496C12.3617 9.55148 12.0827 7.69617 12.9051 6.36373C13.3897 5.571 14.1679 5.11561 15.0049 5.11561C15.328 5.11561 15.6364 5.18308 15.9448 5.30114H15.9594C14.6819 4.55902 13.14 5.14934 12.4939 6.61672C11.8772 8.01663 12.3177 9.73701 13.5218 10.496Z" fill="#231815"/>
</g>
</svg>
