<svg width="23" height="13" viewBox="0 0 23 13" fill="none" xmlns="http://www.w3.org/2000/svg">
<mask id="mask0_3596_585" style="mask-type:luminance" maskUnits="userSpaceOnUse" x="1" y="1" width="21" height="10">
<path d="M21.9441 1.90253H1.271V10.2799H21.9441V1.90253Z" fill="white"/>
</mask>
<g mask="url(#mask0_3596_585)">
<path fill-rule="evenodd" clip-rule="evenodd" d="M21.1805 7.61116C21.1805 6.14119 19.9704 4.94237 18.4865 4.95664C17.3484 4.95664 16.34 5.65595 15.9654 6.71205L15.9366 6.74059C15.7638 6.91185 15.5332 7.01175 15.2883 7.01175C14.7697 7.02602 14.3519 6.64069 14.3231 6.12691C14.3087 5.61314 14.6977 5.19926 15.2163 5.17072C15.2451 5.17072 15.2595 5.17072 15.2883 5.17072C15.5332 5.17072 15.7638 5.27062 15.9366 5.44188L16.0951 5.59887L18.0399 3.6722L17.8815 3.51522C17.19 2.83018 16.2536 2.44485 15.2739 2.44485C13.7036 2.44485 12.3206 3.42959 11.7876 4.88529V2.43058H9.036V5.48469C8.575 5.1279 7.99875 4.94237 7.42249 4.94237C6.25558 4.94237 5.21833 5.69877 4.85817 6.79768C4.55564 6.68351 4.35395 6.39807 4.35395 6.0841V4.94237H5.50645V3.04425H4.35395V1.90253H2.4235V3.04425H1.271V4.94237H2.4235V6.0841C2.4235 7.51126 3.54719 8.68153 4.98783 8.75288C5.6217 10.0801 7.2064 10.651 8.56059 10.0231C8.73347 9.93742 8.89194 9.8518 9.05041 9.73762H11.802V7.28291C12.4791 9.18103 14.5824 10.1943 16.4985 9.52355C16.5273 9.50928 16.5561 9.49501 16.5993 9.49501C17.5789 10.4655 19.1636 10.5368 20.2297 9.65199C20.7195 10.0516 21.3246 10.2799 21.9585 10.2799V8.36755C21.5119 8.36755 21.1805 8.02503 21.1805 7.61116ZM7.42249 8.36755C7.00471 8.36755 6.65896 8.02503 6.64455 7.61116C6.64455 7.19728 6.9903 6.85476 7.40809 6.84049C7.82587 6.84049 8.17162 7.18301 8.18603 7.59689C8.18603 8.02503 7.84028 8.36755 7.42249 8.36755ZM11.341 9.28093H9.4826V2.88727H11.341V9.28093ZM12.0325 6.0841C12.0325 4.31442 13.4731 2.88727 15.2595 2.88727C16.0375 2.88727 16.801 3.1727 17.3917 3.6722L16.0807 4.97092C15.8502 4.79966 15.5621 4.71403 15.2739 4.71403C14.5104 4.71403 13.8909 5.32771 13.8909 6.0841C13.8909 6.84049 14.5104 7.45417 15.2739 7.45417C15.5621 7.45417 15.8502 7.36854 16.0807 7.19728L17.3917 8.51027C16.0519 9.66627 14.0062 9.53782 12.8393 8.19629C12.3206 7.61116 12.0325 6.85476 12.0325 6.0841ZM18.4865 8.36755C18.0688 8.36755 17.723 8.02503 17.723 7.61116C17.723 7.19728 18.0688 6.85476 18.4865 6.85476C18.9043 6.85476 19.2501 7.19728 19.2501 7.61116C19.2501 8.02503 18.9043 8.36755 18.4865 8.36755Z" fill="#00A0C6"/>
</g>
</svg>
