<svg width="30" height="30" viewBox="0 0 30 30" fill="none" xmlns="http://www.w3.org/2000/svg">
<g clip-path="url(#clip0_3596_534)">
<path d="M30 5.38464H0V24.6154H30V5.38464Z" fill="#2557D6"/>
<path d="M0.00971379 14.4496H1.44975L1.77444 13.6992H2.50137L2.82521 14.4496H5.6586V13.876L5.91152 14.4521H7.38241L7.63533 13.8674V14.4497H14.6769L14.6736 13.2179H14.8098C14.9052 13.2211 14.9331 13.2295 14.9331 13.3804V14.4497H18.5749V14.1629C18.8688 14.3137 19.3256 14.4497 19.9268 14.4497H21.4589L21.7868 13.6993H22.5138L22.8344 14.4497H25.7869V13.7369L26.2341 14.4497H28.6V9.73773H26.2585V10.2942L25.9307 9.73773H23.528V10.2942L23.2269 9.73773H19.9815C19.4383 9.73773 18.9608 9.81039 18.575 10.0128V9.73773H16.3354V10.0128C16.0899 9.80416 15.7555 9.73773 15.3835 9.73773H7.20121L6.65221 10.9547L6.08841 9.73773H3.51129V10.2942L3.22814 9.73773H1.03025L0.00952148 11.978V14.4495H0.00963687L0.00971379 14.4496ZM9.09972 13.77H8.23571L8.23252 11.1241L7.01041 13.77H6.27041L5.0451 11.1217V13.77H3.33087L3.00702 13.0164H1.25214L0.925022 13.77H0.00959841L1.51887 10.3916H2.77114L4.20456 13.5902V10.3916H5.58018L6.68318 12.6834L7.69641 10.3916H9.09968L9.09972 13.77ZM2.71895 12.3153L2.1421 10.9685L1.56844 12.3153H2.71895ZM12.5382 13.7699H9.72268V10.3916H12.5382V11.0951H10.5655V11.704H12.4909V12.3965H10.5655V13.0712H12.5381L12.5382 13.7699ZM16.5059 11.3015C16.5059 11.8401 16.1307 12.1184 15.9121 12.2019C16.0964 12.2692 16.254 12.388 16.329 12.4864C16.448 12.6545 16.4685 12.8045 16.4685 13.1063V13.7699H15.6184L15.6152 13.3439C15.6152 13.1406 15.6355 12.8483 15.4822 12.6857C15.359 12.5669 15.1713 12.5411 14.8678 12.5411H13.9631V13.77H13.1203V10.3916H15.0588C15.4895 10.3916 15.8069 10.4025 16.0793 10.5534C16.346 10.7043 16.5059 10.9246 16.5059 11.3015ZM15.4405 11.8031C15.3246 11.8705 15.1877 11.8727 15.0236 11.8727H13.9997V11.1223H15.0375C15.1843 11.1223 15.3376 11.1286 15.4372 11.1832C15.5465 11.2325 15.6142 11.3372 15.6142 11.4819C15.6142 11.6296 15.5498 11.7484 15.4405 11.8031ZM17.8576 13.7699H16.9977V10.3916H17.8576V13.7699ZM27.8407 13.7699H26.6463L25.0488 11.2343V13.7699H23.3324L23.0044 13.0164H21.2536L20.9355 13.7699H19.949C19.5394 13.7699 19.0206 13.6831 18.727 13.3963C18.4308 13.1094 18.2767 12.7209 18.2767 12.1065C18.2767 11.6055 18.3688 11.1475 18.731 10.7855C19.0035 10.5159 19.4302 10.3916 20.011 10.3916H20.8269V11.1155H20.0281C19.7205 11.1155 19.5468 11.1593 19.3795 11.3156C19.2359 11.4578 19.1373 11.7267 19.1373 12.0808C19.1373 12.4428 19.2123 12.7038 19.3689 12.8742C19.4987 13.0079 19.7346 13.0485 19.9563 13.0485H20.3349L21.5227 10.3917H22.7856L24.2126 13.5871V10.3917H25.4959L26.9774 12.7446V10.3917H27.8407V13.7699ZM22.7176 12.3153L22.1343 10.9685L21.5543 12.3153H22.7176ZM29.9884 19.1645C29.7837 19.4513 29.3848 19.5968 28.8447 19.5968H27.217V18.8722H28.8381C28.9989 18.8722 29.1114 18.8519 29.1791 18.7885C29.2432 18.7318 29.2793 18.6518 29.2788 18.5682C29.2788 18.4697 29.2379 18.3915 29.1758 18.3447C29.1147 18.293 29.0257 18.2697 28.8788 18.2697C28.0875 18.2439 27.1002 18.293 27.1002 17.2237C27.1002 16.7337 27.4249 16.2177 28.3094 16.2177H29.9882V15.5455H28.4283C27.9577 15.5455 27.6157 15.6535 27.3735 15.8214V15.5454H25.0664C24.6974 15.5454 24.2643 15.6331 24.0595 15.8214V15.5454H19.9395V15.8214C19.6117 15.5948 19.0584 15.5454 18.803 15.5454H16.0855V15.8214C15.8261 15.5807 15.2493 15.5454 14.8976 15.5454H11.8561L11.1602 16.2671L10.5083 15.5454H5.96487V20.2604H10.4226L11.1397 19.5273L11.8153 20.2604L14.5631 20.2628V19.1536H14.8331C15.1977 19.159 15.6277 19.1448 16.0071 18.9878V20.2603H18.2735V19.0313H18.3828C18.5224 19.0313 18.5361 19.0369 18.5361 19.1704V20.2601H25.4211C25.8582 20.2601 26.3151 20.153 26.5682 19.9584V20.2601H28.752C29.2064 20.2601 29.6503 20.1991 29.9879 20.0428L29.988 19.1644L29.9884 19.1645ZM16.3368 17.3509C16.3368 18.2896 15.6059 18.4834 14.8692 18.4834H13.8175V19.6168H12.1794L11.1416 18.4981L10.063 19.6168H6.72448V16.2376H10.1143L11.1513 17.3453L12.2234 16.2376H14.9165C15.5853 16.2376 16.3368 16.415 16.3368 17.3509ZM9.63606 18.906H7.56383V18.2337H9.41422V17.5443H7.56383V16.9299H9.67687L10.5988 17.9147L9.63606 18.906ZM12.9749 19.293L11.6809 17.9165L12.9749 16.5838V19.293ZM14.8886 17.7904H13.7995V16.9299H14.8984C15.2027 16.9299 15.4139 17.0487 15.4139 17.3442C15.4139 17.6365 15.2125 17.7904 14.8886 17.7904ZM20.5948 16.2376H23.4078V16.9365H21.4341V17.5508H23.3596V18.2403H21.4341V18.9126L23.4078 18.9157V19.6168H20.5947L20.5948 16.2376ZM19.5133 18.0464C19.7009 18.1128 19.8543 18.2317 19.9261 18.3301C20.0452 18.4951 20.0624 18.6491 20.0658 18.9469V19.6168H19.2196V19.194C19.2196 18.9907 19.24 18.6897 19.0833 18.5326C18.9602 18.4115 18.7724 18.3826 18.465 18.3826H17.5643V19.6168H16.7173V16.2377H18.6633C19.0899 16.2377 19.4007 16.2557 19.6773 16.3971C19.9433 16.5511 20.1106 16.762 20.1106 17.1475C20.1106 17.6868 19.7351 17.9621 19.5133 18.0464ZM19.0369 17.6192C18.9242 17.6833 18.7848 17.6889 18.6209 17.6889H17.5969V16.93H18.6347C18.7848 16.93 18.935 16.933 19.0369 16.991C19.1462 17.0457 19.2115 17.1505 19.2115 17.295C19.2115 17.4395 19.1461 17.556 19.0369 17.6192ZM26.6454 17.8345C26.8096 17.9972 26.8975 18.2026 26.8975 18.5504C26.8975 19.2773 26.4236 19.6167 25.5734 19.6167H23.9319V18.892H25.5669C25.7268 18.892 25.8401 18.8718 25.9111 18.8084C25.9691 18.7562 26.0107 18.6802 26.0107 18.588C26.0107 18.4895 25.9657 18.4114 25.9078 18.3645C25.8434 18.313 25.7545 18.2896 25.6077 18.2896C24.8195 18.2638 23.8324 18.313 23.8324 17.2437C23.8324 16.7536 24.1538 16.2377 25.0374 16.2377H26.7271V16.9569H25.1811C25.0278 16.9569 24.9282 16.9625 24.8434 17.0179C24.7511 17.0726 24.7169 17.1538 24.7169 17.261C24.7169 17.3884 24.7952 17.4752 24.9013 17.5127C24.9902 17.5423 25.0857 17.551 25.2292 17.551L25.6829 17.5628C26.1404 17.5734 26.4545 17.6492 26.6454 17.8345ZM29.9898 16.9299H28.4538C28.3004 16.9299 28.1985 16.9354 28.1127 16.9909C28.0238 17.0457 27.9896 17.1268 27.9896 17.2341C27.9896 17.3615 28.0646 17.4482 28.1738 17.4858C28.2628 17.5154 28.3583 17.5241 28.4986 17.5241L28.9554 17.5358C29.4163 17.5467 29.724 17.6226 29.9116 17.8078C29.9459 17.8335 29.9663 17.8625 29.9898 17.8914V16.9299H29.9898Z" fill="white"/>
</g>
<defs>
<clipPath id="clip0_3596_534">
<rect width="30" height="30" fill="white"/>
</clipPath>
</defs>
</svg>
