<svg width="24" height="24" viewBox="0 0 24 24" fill="none" xmlns="http://www.w3.org/2000/svg">
<path d="M12.4137 3.20283C12.1424 2.93149 11.7043 2.93329 11.4348 3.20283C11.1643 3.47326 11.1643 3.91136 11.4348 4.18179C13.5261 6.27224 14.6781 9.04868 14.6781 12C14.6781 14.9513 13.5261 17.7278 11.4348 19.8182C11.1643 20.0886 11.1643 20.5267 11.4348 20.7972C11.57 20.9324 11.7467 21 11.9242 21C12.1009 21 12.2785 20.9324 12.4137 20.7972C14.7665 18.4453 16.0628 15.3218 16.0628 12C16.0628 8.67819 14.7665 5.55469 12.4137 3.20283Z" fill="#1D1D1B"/>
<path d="M7.27814 5.27979C7.00771 5.55022 7.00771 5.98832 7.27814 6.25876C8.8142 7.79391 9.65975 9.83207 9.65975 12C9.65975 14.1671 8.8142 16.2062 7.27814 17.7413C7.00771 18.0118 7.00771 18.4499 7.27814 18.7203C7.41336 18.8555 7.59004 18.9231 7.76763 18.9231C7.94431 18.9231 8.12189 18.8555 8.25711 18.7203C10.0546 16.9237 11.0444 14.5367 11.0444 12C11.0444 9.46248 10.0546 7.07546 8.25711 5.27979C7.98577 5.00846 7.54767 5.01026 7.27814 5.27979Z" fill="#1D1D1B"/>
<path d="M3.12165 7.35669C2.85122 7.62713 2.85122 8.06523 3.12165 8.33566C4.10242 9.31553 4.64238 10.6172 4.64238 12C4.64238 13.3828 4.10242 14.6845 3.12165 15.6644C2.85122 15.9348 2.85122 16.3729 3.12165 16.6434C3.25686 16.7786 3.43355 16.8462 3.61113 16.8462C3.78781 16.8462 3.9654 16.7786 4.10061 16.6434C5.3428 15.4021 6.027 13.7533 6.027 12C6.027 10.2467 5.3428 8.59798 4.10061 7.35669C3.82928 7.08536 3.39118 7.08716 3.12165 7.35669Z" fill="#1D1D1B"/>
<path d="M16.5702 1.12592C16.2989 0.854587 15.8608 0.85639 15.5913 1.12592C15.3208 1.39635 15.3208 1.83445 15.5913 2.10489C18.2379 4.75062 19.6955 8.26444 19.6955 12C19.6955 15.7356 18.2379 19.2494 15.5913 21.8952C15.3208 22.1656 15.3208 22.6037 15.5913 22.8741C15.7265 23.0093 15.9032 23.0769 16.0807 23.0769C16.2574 23.0769 16.435 23.0093 16.5702 22.8741C19.4783 19.967 21.0801 16.1052 21.0801 12C21.0801 7.89395 19.4783 4.03217 16.5702 1.12592Z" fill="#1D1D1B"/>
</svg>
