<svg width="27" height="27" viewBox="0 0 27 27" fill="none" xmlns="http://www.w3.org/2000/svg">
<g clip-path="url(#clip0_3596_537)">
<path d="M25.138 4.42242H1.8621C0.962255 4.42242 0.232788 5.15189 0.232788 6.05173V20.9483C0.232788 21.8481 0.962255 22.5776 1.8621 22.5776H25.138C26.0378 22.5776 26.7673 21.8481 26.7673 20.9483V6.05173C26.7673 5.15189 26.0378 4.42242 25.138 4.42242Z" fill="white" stroke="#F3F3F3" stroke-width="13.7931"/>
<path fill-rule="evenodd" clip-rule="evenodd" d="M4.11156 15.4573C4.11156 15.0922 3.92078 15.1162 3.73828 15.1124V15.0068C3.89652 15.0145 4.05879 15.0145 4.21745 15.0145C4.3879 15.0145 4.61932 15.0068 4.91998 15.0068C5.97149 15.0068 6.54427 15.7089 6.54427 16.428C6.54427 16.8303 6.30871 17.8412 4.87115 17.8412C4.66423 17.8412 4.47313 17.8332 4.28235 17.8332C4.09976 17.8332 3.92078 17.8369 3.73828 17.8412V17.7355C3.98167 17.711 4.09976 17.703 4.11156 17.427V15.4573ZM4.50951 17.3618C4.50951 17.6746 4.73308 17.711 4.93195 17.711C5.80931 17.711 6.09723 17.0492 6.09723 16.4442C6.09723 15.6849 5.61002 15.1368 4.82641 15.1368C4.65957 15.1368 4.58278 15.1487 4.50951 15.1531V17.3618Z" fill="#1A1919"/>
<path fill-rule="evenodd" clip-rule="evenodd" d="M6.68652 17.7356H6.76347C6.87715 17.7356 6.95843 17.7356 6.95843 17.6013V16.5009C6.95843 16.3226 6.89764 16.2979 6.74718 16.2169V16.1521C6.93804 16.0947 7.16563 16.0181 7.18169 16.0059C7.21028 15.9896 7.2343 15.9852 7.25497 15.9852C7.27484 15.9852 7.28322 16.0096 7.28322 16.0425V17.6013C7.28322 17.7356 7.3727 17.7356 7.48656 17.7356H7.55527V17.8412C7.4172 17.8412 7.27484 17.8332 7.12914 17.8332C6.98296 17.8332 6.83665 17.837 6.68652 17.8412V17.7356ZM7.12094 15.3601C7.01518 15.3601 6.92198 15.2627 6.92198 15.1571C6.92198 15.0554 7.0196 14.9619 7.12094 14.9619C7.22634 14.9619 7.32 15.0474 7.32 15.1571C7.32 15.267 7.23043 15.3601 7.12094 15.3601Z" fill="#1A1919"/>
<path fill-rule="evenodd" clip-rule="evenodd" d="M7.94117 16.5254C7.94117 16.3754 7.89634 16.3348 7.7058 16.2576V16.1805C7.88009 16.1237 8.04647 16.0707 8.24161 15.9852C8.2539 15.9852 8.26568 15.9934 8.26568 16.0258V16.2899C8.49751 16.1237 8.69652 15.9852 8.96899 15.9852C9.31365 15.9852 9.43543 16.2371 9.43543 16.5538V17.6013C9.43543 17.7356 9.52504 17.7356 9.63858 17.7356H9.71186V17.8412C9.56927 17.8412 9.42733 17.8332 9.2813 17.8332C9.13503 17.8332 8.98872 17.837 8.84255 17.8412V17.7356H8.91582C9.02955 17.7356 9.11041 17.7356 9.11041 17.6013V16.55C9.11041 16.3183 8.96898 16.2047 8.73725 16.2047C8.60718 16.2047 8.40008 16.3101 8.26568 16.3998V17.6013C8.26568 17.7356 8.35543 17.7356 8.46916 17.7356H8.54211V17.8412C8.40008 17.8412 8.25791 17.8332 8.11146 17.8332C7.96561 17.8332 7.81925 17.837 7.67322 17.8412V17.7356H7.74644C7.86003 17.7356 7.94117 17.7356 7.94117 17.6013V16.5254Z" fill="#1A1919"/>
<path fill-rule="evenodd" clip-rule="evenodd" d="M10.0205 16.7206C10.0122 16.7572 10.0122 16.8179 10.0205 16.9561C10.0444 17.3417 10.2927 17.6583 10.6172 17.6583C10.8408 17.6583 11.0155 17.5365 11.1655 17.3865L11.2222 17.4434C11.0354 17.691 10.804 17.9023 10.4713 17.9023C9.82544 17.9023 9.69556 17.2766 9.69556 17.0169C9.69556 16.2209 10.2314 15.9852 10.5154 15.9852C10.8447 15.9852 11.1982 16.1923 11.202 16.6229C11.202 16.6476 11.202 16.6716 11.1982 16.6961L11.1615 16.7206H10.0205ZM10.7395 16.5905C10.8408 16.5905 10.8527 16.5377 10.8527 16.4887C10.8527 16.282 10.7269 16.1155 10.4994 16.1155C10.2519 16.1155 10.0813 16.2979 10.0326 16.5905H10.7395Z" fill="#1A1919"/>
<path fill-rule="evenodd" clip-rule="evenodd" d="M11.2955 17.7356H11.4053C11.5185 17.7356 11.5998 17.7356 11.5998 17.6013V16.4605C11.5998 16.3348 11.4497 16.3101 11.3887 16.2776V16.2169C11.6851 16.0909 11.8476 15.9852 11.8848 15.9852C11.9085 15.9852 11.9207 15.9975 11.9207 16.0383V16.4038H11.9293C12.0305 16.2455 12.2013 15.9852 12.4489 15.9852C12.5504 15.9852 12.6802 16.0542 12.6802 16.2005C12.6802 16.3101 12.6034 16.408 12.4897 16.408C12.3634 16.408 12.3634 16.3101 12.2212 16.3101C12.1523 16.3101 11.9248 16.4038 11.9248 16.6476V17.6013C11.9248 17.7356 12.006 17.7356 12.1197 17.7356H12.3469V17.8412C12.1235 17.837 11.9536 17.8332 11.7788 17.8332C11.6123 17.8332 11.4417 17.837 11.2955 17.8412V17.7356Z" fill="#1A1919"/>
<path fill-rule="evenodd" clip-rule="evenodd" d="M12.8587 17.2765C12.9117 17.5445 13.0738 17.7723 13.3708 17.7723C13.6099 17.7723 13.6992 17.6259 13.6992 17.4839C13.6992 17.0045 12.8142 17.1589 12.8142 16.5052C12.8142 16.2776 12.9971 15.9852 13.4438 15.9852C13.5735 15.9852 13.7481 16.0221 13.9063 16.1033L13.9348 16.5172H13.8415C13.8009 16.2615 13.659 16.1154 13.3988 16.1154C13.2364 16.1154 13.0822 16.2086 13.0822 16.3833C13.0822 16.8587 14.0241 16.7122 14.0241 17.3498C14.0241 17.6176 13.8091 17.9022 13.3257 17.9022C13.1634 17.9022 12.9722 17.8453 12.8305 17.7641L12.7856 17.297L12.8587 17.2765Z" fill="#1A1919"/>
<path fill-rule="evenodd" clip-rule="evenodd" d="M17.6909 15.7415H17.5896C17.5123 15.2669 17.1752 15.0758 16.7208 15.0758C16.2532 15.0758 15.5754 15.3883 15.5754 16.3628C15.5754 17.1834 16.1603 17.7723 16.7855 17.7723C17.1871 17.7723 17.5208 17.496 17.6019 17.0694L17.6953 17.0936L17.6019 17.6867C17.4313 17.7924 16.9723 17.9022 16.7041 17.9022C15.7543 17.9022 15.1533 17.289 15.1533 16.3753C15.1533 15.5427 15.8964 14.9456 16.6923 14.9456C17.0211 14.9456 17.3378 15.0515 17.6505 15.1612L17.6909 15.7415Z" fill="#1A1919"/>
<path fill-rule="evenodd" clip-rule="evenodd" d="M17.8374 17.7356H17.9143C18.0284 17.7356 18.1094 17.7356 18.1094 17.6013V15.3401C18.1094 15.0758 18.0486 15.0678 17.8941 15.023V14.958C18.0565 14.9053 18.2272 14.8324 18.3126 14.7833C18.3567 14.7593 18.3895 14.7385 18.4015 14.7385C18.4263 14.7385 18.4343 14.7632 18.4343 14.7958V17.6013C18.4343 17.7356 18.5238 17.7356 18.6373 17.7356H18.7061V17.8412C18.5684 17.8412 18.4263 17.8332 18.28 17.8332C18.1339 17.8332 17.9879 17.837 17.8374 17.8412V17.7356Z" fill="#1A1919"/>
<path fill-rule="evenodd" clip-rule="evenodd" d="M20.4448 17.6177C20.4448 17.691 20.4892 17.6948 20.558 17.6948C20.607 17.6948 20.6677 17.691 20.7209 17.691V17.7765C20.5461 17.7926 20.213 17.8779 20.1357 17.9023L20.1155 17.8899V17.561C19.8721 17.7598 19.6851 17.9023 19.3964 17.9023C19.1772 17.9023 18.9499 17.7598 18.9499 17.4192V16.3793C18.9499 16.2736 18.9337 16.1721 18.7067 16.1521V16.0747C18.853 16.0707 19.1772 16.0464 19.2301 16.0464C19.2752 16.0464 19.2752 16.0747 19.2752 16.1642V17.2118C19.2752 17.3337 19.2752 17.6826 19.6284 17.6826C19.7662 17.6826 19.9489 17.5773 20.1194 17.4353V16.3427C20.1194 16.2616 19.9246 16.2169 19.7787 16.1765V16.1035C20.1438 16.0787 20.3714 16.0464 20.412 16.0464C20.4448 16.0464 20.4448 16.0747 20.4448 16.1195V17.6177Z" fill="#1A1919"/>
<path fill-rule="evenodd" clip-rule="evenodd" d="M21.2525 16.2777C21.4149 16.1399 21.6343 15.9852 21.8576 15.9852C22.3287 15.9852 22.613 16.3958 22.613 16.8383C22.613 17.3701 22.223 17.9023 21.642 17.9023C21.3419 17.9023 21.1835 17.8045 21.0777 17.7599L20.9562 17.8533L20.8711 17.8088C20.9074 17.5692 20.9279 17.3337 20.9279 17.0859V15.3401C20.9279 15.0758 20.8667 15.0678 20.7124 15.023V14.958C20.875 14.9053 21.0454 14.8324 21.1306 14.7833C21.1755 14.7593 21.2078 14.7385 21.2202 14.7385C21.2443 14.7385 21.2525 14.7633 21.2525 14.7958V16.2777ZM21.2525 17.3822C21.2525 17.5365 21.3989 17.7966 21.6708 17.7966C22.1052 17.7966 22.2879 17.3701 22.2879 17.0086C22.2879 16.5701 21.9553 16.2047 21.6386 16.2047C21.4878 16.2047 21.3621 16.3023 21.2525 16.3958V17.3822Z" fill="#1A1919"/>
<path fill-rule="evenodd" clip-rule="evenodd" d="M5.92569 19.8332L5.93011 19.8289V19.0005C5.93011 18.8192 5.804 18.7927 5.73776 18.7927H5.68907V18.7264C5.79311 18.7264 5.89473 18.7351 5.99845 18.7351C6.08904 18.7351 6.18 18.7264 6.27027 18.7264V18.7927H6.2374C6.1443 18.7927 6.04044 18.8103 6.04044 19.0733V20.0786C6.04044 20.1561 6.04263 20.2334 6.05348 20.3019H5.9695L4.83177 19.0334V19.9439C4.83177 20.1363 4.86915 20.2023 5.0393 20.2023H5.07691V20.2687C4.9819 20.2687 4.88698 20.2601 4.79197 20.2601C4.69277 20.2601 4.59099 20.2687 4.49146 20.2687V20.2023H4.52249C4.67489 20.2023 4.7213 20.0984 4.7213 19.9222V18.9913C4.7213 18.8676 4.61934 18.7927 4.52031 18.7927H4.49146V18.7264C4.57526 18.7264 4.66158 18.7351 4.74537 18.7351C4.81189 18.7351 4.87595 18.7264 4.94219 18.7264L5.92569 19.8332Z" fill="#1A1919"/>
<path fill-rule="evenodd" clip-rule="evenodd" d="M6.05348 20.3112L5.96252 20.3081L4.84118 19.0583V19.9439C4.84383 20.1361 4.87302 20.1907 5.0394 20.1928H5.08674V20.2782H5.07692C4.98135 20.2782 4.88624 20.2693 4.79198 20.2693C4.69305 20.2693 4.5915 20.2782 4.49139 20.2782H4.48169V20.1928H4.52251C4.66852 20.192 4.71028 20.0981 4.71186 19.9221V18.9916C4.71144 18.8739 4.61492 18.8023 4.52041 18.8023H4.48169V18.7167H4.49139C4.57586 18.7167 4.66233 18.7253 4.74524 18.7253C4.81115 18.7253 4.87498 18.7167 4.94946 18.7202L5.92053 19.8132V19.0005C5.91941 18.8251 5.80215 18.8037 5.73786 18.8023H5.67939V18.7167H5.68917C5.79354 18.7167 5.89525 18.7253 5.99846 18.7253C6.08839 18.7253 6.17894 18.7167 6.27027 18.7167H6.28V18.8023H6.23741C6.14616 18.8046 6.0526 18.8127 6.0499 19.0733V20.0786C6.0499 20.156 6.05232 20.2331 6.06293 20.3001L6.06498 20.3112H6.05348ZM5.96959 20.292H6.04273C6.03286 20.2255 6.03109 20.1521 6.03109 20.0786V19.0733C6.03109 18.8081 6.14225 18.7831 6.23741 18.7829H6.26068V18.7359C6.17358 18.7366 6.08635 18.7446 5.99846 18.7446C5.89725 18.7446 5.79889 18.7366 5.69904 18.7359L5.6988 18.7829H5.73786C5.80578 18.7831 5.93966 18.8132 5.93966 19.0005L5.93673 19.8358L5.9324 19.8401L5.92486 19.8472L4.9422 18.7359C4.87656 18.7359 4.81264 18.7446 4.74524 18.7446C4.66428 18.7446 4.5813 18.7366 4.50118 18.7359L4.50076 18.7829H4.52041C4.62404 18.7831 4.73067 18.8622 4.73067 18.9916V19.9221C4.73067 20.0989 4.68141 20.2118 4.52251 20.2124L4.50118 20.2118V20.2593C4.59686 20.2585 4.69547 20.2504 4.79198 20.2504C4.88415 20.2504 4.97613 20.2585 5.06733 20.2593V20.2124H5.0394C4.86548 20.2118 4.82242 20.1361 4.82228 19.9439V19.0086L5.96959 20.292ZM5.92053 19.8289V19.828L5.91876 19.8266L5.92053 19.8289Z" fill="#1A1919"/>
<path fill-rule="evenodd" clip-rule="evenodd" d="M6.60141 18.8368C6.4355 18.8368 6.42902 18.8768 6.39593 19.0379H6.32959C6.3383 18.976 6.34923 18.9142 6.35612 18.8501C6.36497 18.788 6.36939 18.7264 6.36939 18.6624H6.42237C6.44015 18.7288 6.49536 18.7264 6.55532 18.7264H7.695C7.75496 18.7264 7.81007 18.7242 7.81459 18.6578L7.86738 18.6669C7.85881 18.7264 7.84978 18.7861 7.84336 18.8459C7.83898 18.9055 7.83898 18.965 7.83898 19.0246L7.7726 19.0492C7.76808 18.9675 7.75715 18.8368 7.60906 18.8368H7.24666V20.0124C7.24666 20.1828 7.32412 20.2023 7.43003 20.2023H7.47216V20.2687C7.38594 20.2687 7.2312 20.2602 7.11212 20.2602C6.97936 20.2602 6.82457 20.2687 6.73831 20.2687V20.2023H6.78049C6.90227 20.2023 6.96381 20.1914 6.96381 20.017V18.8368H6.60141Z" fill="#1A1919"/>
<path fill-rule="evenodd" clip-rule="evenodd" d="M7.47227 20.2782C7.38517 20.2782 7.23062 20.2694 7.112 20.2694C6.97947 20.2694 6.82487 20.2782 6.73824 20.2782H6.72879V20.1928H6.78041C6.90219 20.19 6.95112 20.1884 6.95387 20.017V18.8463H6.60133V18.827H6.973V20.017C6.973 20.1944 6.9015 20.2123 6.78041 20.2124H6.74769V20.2591C6.83483 20.2585 6.98371 20.2504 7.112 20.2504C7.22703 20.2504 7.37465 20.2585 7.46221 20.2591V20.2124H7.42995C7.32302 20.2123 7.23704 20.186 7.23704 20.0124V18.827H7.60899C7.75721 18.8276 7.77685 18.9535 7.78146 19.0357L7.82932 19.0181C7.82932 18.9604 7.82955 18.9026 7.83346 18.8446C7.84002 18.7874 7.84803 18.7313 7.85632 18.6747L7.82275 18.6691C7.81247 18.7334 7.75018 18.7368 7.69483 18.736H6.5437C6.49165 18.736 6.43505 18.7336 6.41517 18.6719H6.37867C6.37835 18.733 6.37416 18.7923 6.36582 18.8512C6.35921 18.9119 6.34907 18.9702 6.34106 19.0287H6.38822C6.41722 18.8746 6.43616 18.8248 6.60133 18.827V18.8463C6.43765 18.8496 6.44124 18.8769 6.40521 19.0402L6.40362 19.0477H6.31848L6.31965 19.0363C6.32868 18.9746 6.3399 18.9125 6.34632 18.8484C6.35554 18.7871 6.35968 18.7258 6.35968 18.6624V18.6527H6.42988L6.43156 18.6596C6.44641 18.7153 6.48732 18.7158 6.5437 18.7167H7.69483C7.75637 18.7158 7.8012 18.7149 7.80497 18.6571L7.80572 18.6467L7.81577 18.6487L7.87824 18.6585L7.87666 18.6683C7.86786 18.7276 7.85925 18.7871 7.85255 18.8463C7.84845 18.9055 7.84845 18.9649 7.84845 19.0246V19.0313L7.84203 19.0339L7.76382 19.0625L7.76331 19.0497C7.75721 18.9666 7.74869 18.8463 7.60899 18.8463H7.25631V20.0124C7.25845 20.179 7.32456 20.1907 7.42995 20.1928H7.48162V20.2782H7.47227Z" fill="#1A1919"/>
<path fill-rule="evenodd" clip-rule="evenodd" d="M7.93787 20.2023H7.96901C8.04829 20.2023 8.1325 20.1915 8.1325 20.0764V18.9189C8.1325 18.8037 8.04829 18.7928 7.96901 18.7928H7.93787V18.7264C8.07221 18.7264 8.30255 18.7351 8.48778 18.7351C8.67371 18.7351 8.90321 18.7264 9.05343 18.7264C9.04957 18.8214 9.05166 18.9676 9.05823 19.0646L8.99161 19.0822C8.981 18.9385 8.95451 18.8239 8.7224 18.8239H8.41563V19.4024H8.67808C8.81062 19.4024 8.83948 19.3275 8.85261 19.2081H8.91885C8.91443 19.2944 8.9121 19.3806 8.9121 19.4666C8.9121 19.5508 8.91443 19.6346 8.91885 19.7185L8.85261 19.7317C8.83948 19.5993 8.83287 19.5131 8.68023 19.5131H8.41563V20.0277C8.41563 20.1715 8.54323 20.1715 8.68474 20.1715C8.94999 20.1715 9.06698 20.1537 9.13331 19.9021L9.19495 19.9174C9.16627 20.0347 9.13993 20.1515 9.12009 20.2687C8.97848 20.2687 8.7244 20.2602 8.52595 20.2602C8.32662 20.2602 8.06393 20.2687 7.93787 20.2687V20.2023Z" fill="#1A1919"/>
<path fill-rule="evenodd" clip-rule="evenodd" d="M9.11999 20.2782C8.97824 20.2782 8.72397 20.269 8.52575 20.269C8.3267 20.269 8.06405 20.2782 7.93785 20.2782H7.92859V20.1928H7.969C8.04892 20.1914 8.12169 20.1844 8.12271 20.0764V18.9189C8.12169 18.8109 8.04892 18.8037 7.969 18.8023H7.92859V18.7167H7.93785C8.07285 18.7167 8.30268 18.7253 8.48786 18.7253C8.6736 18.7253 8.90306 18.7167 9.05351 18.7167H9.06329L9.06296 18.7269C9.06152 18.76 9.06063 18.7993 9.06063 18.8408C9.06063 18.9172 9.06296 19.0009 9.06729 19.0638L9.06771 19.0717L9.06026 19.074L8.98257 19.0943L8.98224 19.0829C8.96921 18.9395 8.94998 18.8353 8.72248 18.8331H8.42464L8.42446 19.3927H8.67807C8.80544 19.3914 8.8282 19.3263 8.84324 19.2071L8.84375 19.1982H8.92871L8.92857 19.2084C8.92428 19.2947 8.92168 19.3806 8.92168 19.4666C8.92168 19.5502 8.92428 19.6341 8.92857 19.7181L8.92871 19.7261L8.9207 19.7279L8.84375 19.7432L8.84324 19.7329C8.82792 19.598 8.82694 19.524 8.68031 19.5224H8.42464V20.0277C8.42497 20.162 8.54074 20.1612 8.68473 20.162C8.95082 20.1604 9.05738 20.1474 9.12394 19.8995L9.12618 19.8906L9.13549 19.8921L9.20629 19.9105L9.20429 19.9196C9.17562 20.0365 9.14927 20.1534 9.1293 20.2703L9.12762 20.2782H9.11999ZM9.11179 20.2591C9.13111 20.1474 9.1563 20.0358 9.18339 19.9246L9.13991 19.9136C9.07376 20.1607 8.94551 20.1828 8.68473 20.1812C8.54549 20.1812 8.4063 20.1812 8.40556 20.0277V19.5035H8.68031C8.83462 19.5019 8.85017 19.5949 8.86121 19.7206L8.90892 19.7108C8.90464 19.6294 8.90245 19.5476 8.90245 19.4666C8.90245 19.3837 8.90464 19.3009 8.90892 19.2175H8.86121C8.84878 19.3329 8.8127 19.4134 8.67807 19.412H8.40556V18.8139H8.72248C8.95221 18.8121 8.99029 18.931 9.0003 19.07L9.04792 19.0571C9.04406 18.9947 9.04145 18.9146 9.04145 18.8408C9.04145 18.803 9.04248 18.7672 9.04374 18.7359C8.89361 18.7366 8.66951 18.7446 8.48786 18.7446C8.30631 18.7446 8.08281 18.7366 7.94758 18.7359V18.7829H7.969C8.04757 18.7831 8.14161 18.7967 8.14212 18.9189V20.0764C8.14161 20.1984 8.04757 20.2118 7.969 20.2124H7.94758V20.2591C8.0762 20.2587 8.33163 20.2504 8.52575 20.2504C8.72081 20.2504 8.96939 20.2587 9.11179 20.2591Z" fill="#1A1919"/>
<path fill-rule="evenodd" clip-rule="evenodd" d="M9.49335 18.9604C9.49335 18.7993 9.40485 18.7927 9.33628 18.7927H9.29639V18.7264C9.36715 18.7264 9.50415 18.7351 9.63905 18.7351C9.77135 18.7351 9.87758 18.7264 9.99466 18.7264C10.2727 18.7264 10.5207 18.8014 10.5207 19.1154C10.5207 19.3141 10.388 19.4355 10.2135 19.5044L10.5912 20.0697C10.6532 20.1632 10.6971 20.1894 10.8056 20.2023V20.2687C10.7326 20.2687 10.6618 20.2602 10.5892 20.2602C10.5207 20.2602 10.4497 20.2687 10.3815 20.2687C10.2112 20.0457 10.0653 19.8071 9.92176 19.5526H9.77615V20.0258C9.77615 20.1959 9.85552 20.2023 9.95677 20.2023H9.99685V20.2687C9.87065 20.2687 9.743 20.2602 9.6168 20.2602C9.51076 20.2602 9.40685 20.2687 9.29639 20.2687V20.2023H9.33628C9.41831 20.2023 9.49335 20.1649 9.49335 20.0833V18.9604ZM9.77615 19.4729H9.8841C10.1053 19.4729 10.2244 19.3892 10.2244 19.1283C10.2244 18.9319 10.0985 18.8059 9.90161 18.8059C9.83527 18.8059 9.80701 18.8127 9.77615 18.8148V19.4729Z" fill="#1A1919"/>
<path fill-rule="evenodd" clip-rule="evenodd" d="M10.8057 20.2782C10.7316 20.2782 10.6614 20.2693 10.5887 20.2693C10.5213 20.2693 10.4507 20.2782 10.3737 20.2745C10.2042 20.052 10.0589 19.8148 9.91625 19.5626H9.78567V20.0254C9.78809 20.1917 9.85475 20.1904 9.95688 20.1928H10.0065V20.2782H9.99669C9.87039 20.2782 9.742 20.2693 9.61678 20.2693C9.51124 20.2693 9.40743 20.2782 9.29646 20.2782H9.28687V20.1928H9.33635C9.41581 20.1922 9.48299 20.1576 9.48331 20.0833V18.9604C9.48164 18.8037 9.40497 18.8045 9.33635 18.8023H9.28687V18.7167H9.29646C9.36796 18.7167 9.5044 18.7253 9.63912 18.7253C9.77105 18.7253 9.877 18.7167 9.99478 18.7167C10.2733 18.7173 10.5297 18.794 10.5304 19.115C10.5304 19.3144 10.3986 19.439 10.2282 19.5085L10.5992 20.0644C10.661 20.1561 10.6995 20.179 10.807 20.1928L10.815 20.1941V20.2782H10.8057ZM9.77612 19.5431H9.92709L9.92984 19.548C10.0737 19.8019 10.2189 20.0405 10.3816 20.2593C10.4488 20.2593 10.5198 20.2504 10.5887 20.2504C10.6592 20.2504 10.7274 20.2581 10.796 20.2591V20.2106C10.6924 20.198 10.6438 20.1667 10.5835 20.0751L10.1988 19.4999L10.2097 19.4955C10.3827 19.4273 10.511 19.3093 10.511 19.115C10.511 18.8085 10.2725 18.7374 9.99478 18.7359C9.8784 18.7359 9.77221 18.7449 9.63912 18.7449C9.50934 18.7449 9.3782 18.7366 9.30591 18.7359V18.7829H9.33635C9.40497 18.7831 9.50254 18.7944 9.50254 18.9604V20.0833C9.50254 20.1719 9.41949 20.2123 9.33635 20.2124H9.30591V20.2591C9.41214 20.2587 9.51301 20.2504 9.61678 20.2504C9.74019 20.2504 9.86495 20.2587 9.98714 20.2591V20.2124H9.95688C9.85624 20.2123 9.76635 20.1998 9.76635 20.0254V19.5431H9.77612ZM9.77612 19.4824H9.76635V18.8059L9.77477 18.8052C9.80508 18.8028 9.83483 18.7967 9.90167 18.7967C10.1029 18.7967 10.234 18.9274 10.2341 19.1289C10.2335 19.3927 10.1071 19.4824 9.88417 19.4824H9.77612ZM9.88417 19.4636C10.1029 19.4615 10.2132 19.3856 10.2153 19.1289C10.214 18.9359 10.0941 18.8161 9.90167 18.8152C9.84204 18.8152 9.81383 18.8208 9.78567 18.8235V19.4636H9.88417Z" fill="#1A1919"/>
<path fill-rule="evenodd" clip-rule="evenodd" d="M12.3058 19.8332L12.3096 19.8289V19.0005C12.3096 18.8192 12.1841 18.7927 12.1178 18.7927H12.0693V18.7264C12.1732 18.7264 12.2745 18.7351 12.3786 18.7351C12.4695 18.7351 12.5593 18.7264 12.6506 18.7264V18.7927H12.6173C12.5245 18.7927 12.4207 18.8103 12.4207 19.0733V20.0786C12.4207 20.1561 12.4229 20.2334 12.4337 20.3019H12.3501L11.2123 19.0334V19.9439C11.2123 20.1363 11.2496 20.2023 11.4197 20.2023H11.4574V20.2687C11.3624 20.2687 11.2673 20.2601 11.1723 20.2601C11.0725 20.2601 10.9711 20.2687 10.8717 20.2687V20.2023H10.9024C11.055 20.2023 11.1016 20.0984 11.1016 19.9222V18.9913C11.1016 18.8676 10.9999 18.7927 10.9005 18.7927H10.8717V18.7264C10.9554 18.7264 11.0422 18.7351 11.126 18.7351C11.1917 18.7351 11.256 18.7264 11.3225 18.7264L12.3058 19.8332Z" fill="#1A1919"/>
<path fill-rule="evenodd" clip-rule="evenodd" d="M12.4337 20.3112L12.343 20.3081L11.2214 19.0585V19.9439C11.224 20.1363 11.2531 20.1907 11.4197 20.1928H11.4666V20.2782H11.457C11.3615 20.2782 11.2666 20.269 11.1719 20.269C11.0733 20.269 10.9712 20.2782 10.8717 20.2782H10.8618V20.1928H10.9025C11.0484 20.1922 11.0902 20.0981 11.0916 19.9216V18.9913C11.0914 18.8735 10.995 18.8023 10.9005 18.8023H10.8618V18.7167H10.8717C10.956 18.7167 11.0425 18.7253 11.126 18.7253C11.1908 18.7253 11.2548 18.7167 11.3289 18.7196L12.3003 19.8132V19.0005C12.2997 18.8251 12.182 18.8033 12.1178 18.8023H12.0595V18.7167H12.0691C12.1735 18.7167 12.2754 18.7253 12.3787 18.7253C12.4686 18.7253 12.5591 18.7167 12.6502 18.7167H12.66V18.8023H12.6174C12.5262 18.8045 12.4323 18.8127 12.4301 19.0733V20.0786C12.4301 20.156 12.432 20.2326 12.4433 20.3003L12.4444 20.3112H12.4337ZM12.3501 20.292H12.4225C12.4128 20.2259 12.4109 20.1521 12.4109 20.0786V19.0733C12.411 18.8081 12.5228 18.7835 12.6174 18.7829H12.6406V18.7359C12.5536 18.7366 12.4663 18.7446 12.3787 18.7446C12.2771 18.7446 12.1787 18.7366 12.0787 18.7359V18.7829H12.1178C12.1859 18.7835 12.3197 18.8132 12.3197 19.0005L12.3165 19.8358L12.3125 19.8401L12.3056 19.8473L11.3225 18.7359C11.2568 18.7359 11.1927 18.7446 11.126 18.7446C11.044 18.7446 10.9614 18.7366 10.8811 18.7359V18.7829H10.9005C11.0045 18.7835 11.1108 18.8618 11.1108 18.9913V19.9216C11.1108 20.0989 11.0609 20.2118 10.9025 20.2124L10.8811 20.2123V20.2592C10.9766 20.2585 11.075 20.2504 11.1719 20.2504C11.2646 20.2504 11.3564 20.2585 11.4478 20.2592V20.2124H11.4197C11.2459 20.2123 11.2025 20.1363 11.202 19.9439V19.009L12.3501 20.292ZM12.3003 19.8289V19.8283L12.2987 19.8266L12.3003 19.8289Z" fill="#1A1919"/>
<path fill-rule="evenodd" clip-rule="evenodd" d="M13.0058 19.9528C12.9836 20.0277 12.9569 20.0857 12.9569 20.125C12.9569 20.1914 13.05 20.2024 13.1227 20.2024H13.1474V20.2687C13.0586 20.264 12.9685 20.2602 12.8796 20.2602C12.8 20.2602 12.7209 20.264 12.6411 20.2687V20.2024H12.6546C12.7405 20.2024 12.8137 20.1514 12.8465 20.0586L13.2001 19.0448C13.2289 18.9628 13.2687 18.8524 13.2822 18.7704C13.3524 18.7462 13.4412 18.7023 13.483 18.6755C13.4898 18.6732 13.4939 18.671 13.5006 18.671C13.5073 18.671 13.5114 18.671 13.5163 18.6779C13.5228 18.6954 13.5292 18.7153 13.5361 18.733L13.9428 19.8888C13.9694 19.9658 13.9956 20.0476 14.0239 20.1142C14.0508 20.1762 14.0973 20.2024 14.1704 20.2024H14.1837V20.2687C14.0841 20.264 13.9844 20.2602 13.8789 20.2602C13.7706 20.2602 13.6597 20.264 13.5471 20.2687V20.2024H13.5714C13.6219 20.2024 13.7086 20.1936 13.7086 20.1383C13.7086 20.1098 13.6887 20.0501 13.664 19.9791L13.5779 19.7229H13.0764L13.0058 19.9528ZM13.3284 18.9739H13.3238L13.1185 19.5993H13.5313L13.3284 18.9739Z" fill="#1A1919"/>
<path fill-rule="evenodd" clip-rule="evenodd" d="M14.183 20.2782C14.0837 20.274 13.9841 20.269 13.8789 20.269C13.7706 20.269 13.6603 20.274 13.5476 20.2782L13.5374 20.2787V20.1924H13.5714C13.6226 20.1924 13.6986 20.1809 13.6987 20.1383C13.6993 20.1132 13.6794 20.0526 13.6551 19.9824L13.571 19.7324H13.0836L13.0149 19.9557C12.9926 20.0308 12.9657 20.0892 12.9662 20.1251C12.9669 20.1791 13.0494 20.1924 13.1227 20.1924H13.1567V20.2787L13.1466 20.2782C13.0583 20.274 12.9682 20.269 12.8798 20.269C12.8009 20.269 12.721 20.274 12.6419 20.2782L12.6316 20.2787V20.1924H12.6545C12.7367 20.1922 12.8052 20.1453 12.8372 20.0555L13.1911 19.0414C13.2196 18.9596 13.2597 18.8497 13.2788 18.7613C13.3481 18.7378 13.437 18.6932 13.4794 18.6666C13.4856 18.6644 13.4917 18.6615 13.5006 18.6615C13.506 18.6612 13.5179 18.6627 13.5251 18.6742C13.5314 18.6924 13.5384 18.7121 13.5451 18.73L13.9519 19.8856C13.9779 19.963 14.0044 20.0446 14.0333 20.1101C14.0589 20.169 14.0995 20.1922 14.1705 20.1924H14.1928V20.2787L14.183 20.2782ZM13.5567 20.2585C13.666 20.2547 13.7734 20.2504 13.8789 20.2504C13.9814 20.2504 14.0777 20.2547 14.1737 20.2585V20.2123H14.1705C14.0947 20.2128 14.0426 20.183 14.0155 20.1179C13.9867 20.0511 13.9599 19.9691 13.9338 19.8917L13.527 18.736C13.5203 18.7183 13.514 18.6986 13.5082 18.6829C13.506 18.6807 13.5065 18.6807 13.5048 18.6807H13.5006C13.4962 18.6807 13.4935 18.6821 13.4878 18.6835C13.4453 18.7111 13.3567 18.7546 13.291 18.7719C13.2775 18.8556 13.2377 18.966 13.209 19.0479L12.8555 20.0618C12.8219 20.1579 12.7442 20.2125 12.6545 20.2123H12.6508V20.2585C12.7266 20.2547 12.803 20.2504 12.8798 20.2504C12.9652 20.2504 13.0524 20.2547 13.137 20.2585V20.2123H13.1227C13.0506 20.2113 12.95 20.2034 12.9475 20.1251C12.9477 20.0813 12.9748 20.0248 12.9964 19.9501L13.0692 19.7137H13.5844L13.6729 19.9761C13.6977 20.0472 13.7178 20.1061 13.7178 20.1383C13.7145 20.206 13.6216 20.211 13.5714 20.2123H13.5567V20.2585ZM13.1051 19.6088L13.3166 18.9642H13.3285H13.3351L13.5451 19.6088H13.1051ZM13.1315 19.5895H13.5183L13.3261 18.9975L13.1315 19.5895Z" fill="#1A1919"/>
<path fill-rule="evenodd" clip-rule="evenodd" d="M14.2808 18.8368C14.115 18.8368 14.1084 18.8768 14.0751 19.0379H14.0087C14.0174 18.976 14.0287 18.9142 14.0355 18.8501C14.0441 18.788 14.0484 18.7264 14.0484 18.6624H14.1019C14.1192 18.7288 14.1745 18.7264 14.2342 18.7264H15.3745C15.4338 18.7264 15.4891 18.7242 15.4934 18.6578L15.5463 18.6669C15.5381 18.7264 15.5293 18.7861 15.5223 18.8459C15.5175 18.9055 15.5175 18.965 15.5175 19.0246L15.4515 19.0492C15.4476 18.9675 15.4365 18.8368 15.2881 18.8368H14.9258V20.0124C14.9258 20.1828 15.0032 20.2023 15.1091 20.2023H15.1513V20.2687C15.065 20.2687 14.9106 20.2602 14.791 20.2602C14.6587 20.2602 14.5037 20.2687 14.4175 20.2687V20.2023H14.4596C14.5813 20.2023 14.643 20.1914 14.643 20.017V18.8368H14.2808Z" fill="#1A1919"/>
<path fill-rule="evenodd" clip-rule="evenodd" d="M15.1514 20.2782C15.0646 20.2782 14.9096 20.2694 14.7909 20.2694C14.6589 20.2694 14.5042 20.2782 14.4176 20.2782H14.4078V20.1928H14.4596C14.5815 20.19 14.6303 20.1884 14.6332 20.017L14.6331 18.8463H14.2808V18.827H14.6525V20.017C14.6525 20.1944 14.5809 20.2119 14.4596 20.2123H14.427V20.2593C14.5144 20.2585 14.6628 20.2504 14.7909 20.2504C14.9064 20.2504 15.0543 20.2585 15.1415 20.2593V20.2123H15.109C15.0026 20.2119 14.9165 20.1863 14.9163 20.0124V18.827H15.2881C15.4366 18.8276 15.4559 18.9535 15.4602 19.0357L15.5082 19.0181C15.5082 18.9604 15.5085 18.9026 15.513 18.8448C15.519 18.7879 15.5273 18.7313 15.5353 18.6749L15.502 18.6691C15.4919 18.7334 15.4294 18.737 15.3745 18.736H14.2229C14.1708 18.7366 14.1144 18.7336 14.0943 18.6718H14.0582C14.0577 18.7329 14.0534 18.7923 14.0447 18.8512C14.0387 18.9121 14.028 18.9706 14.0196 19.0287H14.0671C14.0961 18.8746 14.1152 18.8245 14.2808 18.827V18.8463C14.1169 18.8492 14.1205 18.8769 14.0845 19.0402L14.0829 19.0477H13.9976L13.9989 19.0368C14.0082 18.9746 14.0191 18.9125 14.0255 18.8489C14.0346 18.7871 14.0387 18.7258 14.0387 18.6624V18.6527H14.1088L14.1107 18.6596C14.1261 18.7153 14.1664 18.7158 14.2229 18.7167H15.3745C15.4356 18.7158 15.4802 18.7149 15.4841 18.6573L15.4845 18.6467L15.4948 18.6487L15.5575 18.6585L15.556 18.6683C15.5469 18.7276 15.5385 18.7871 15.5319 18.8463C15.5273 18.9055 15.5273 18.965 15.5273 19.0246V19.0313L15.5209 19.0339L15.4427 19.0625L15.4423 19.0497C15.4366 18.9666 15.4278 18.8463 15.2881 18.8463H14.9353V20.0124C14.9376 20.179 15.0037 20.1907 15.109 20.1928H15.1606V20.2782H15.1514Z" fill="#1A1919"/>
<path fill-rule="evenodd" clip-rule="evenodd" d="M15.6281 20.2023H15.659C15.7386 20.2023 15.8223 20.1915 15.8223 20.0764V18.9189C15.8223 18.8037 15.7386 18.7928 15.659 18.7928H15.6281V18.7264C15.7143 18.7264 15.8466 18.7351 15.9548 18.7351C16.0655 18.7351 16.1981 18.7264 16.3022 18.7264V18.7928H16.2712C16.1913 18.7928 16.1073 18.8037 16.1073 18.9189V20.0764C16.1073 20.1915 16.1913 20.2023 16.2712 20.2023H16.3022V20.2687C16.196 20.2687 16.0633 20.2602 15.953 20.2602C15.8445 20.2602 15.7143 20.2687 15.6281 20.2687V20.2023Z" fill="#1A1919"/>
<path fill-rule="evenodd" clip-rule="evenodd" d="M16.3023 20.2782C16.1954 20.2782 16.0633 20.269 15.9531 20.269C15.8449 20.269 15.7145 20.2782 15.6281 20.2782H15.6187V20.1928H15.6592C15.7388 20.1914 15.8122 20.1844 15.8127 20.0764V18.9189C15.8122 18.8109 15.7388 18.8037 15.6592 18.8023H15.6187V18.7167H15.6281C15.7145 18.7167 15.8474 18.7253 15.9548 18.7253C16.0649 18.7253 16.1975 18.7167 16.3023 18.7167H16.3114V18.8023H16.2713C16.1904 18.8037 16.1177 18.8109 16.117 18.9189V20.0764C16.1177 20.1844 16.1904 20.1914 16.2713 20.1928H16.3114V20.2782H16.3023ZM16.2922 20.2591V20.2123H16.2713C16.192 20.2123 16.0983 20.1984 16.0983 20.0764V18.9189C16.0983 18.7967 16.192 18.7831 16.2713 18.7829H16.2922V18.7359C16.1904 18.7366 16.0624 18.7446 15.9548 18.7446C15.8499 18.7446 15.7235 18.7366 15.6377 18.7359V18.7829H15.6592C15.7376 18.7831 15.8318 18.7967 15.832 18.9189V20.0764C15.8318 20.1984 15.7376 20.2123 15.6592 20.2123H15.6377V20.2591C15.7229 20.2581 15.8478 20.2504 15.9531 20.2504C16.0602 20.2504 16.188 20.2585 16.2922 20.2591Z" fill="#1A1919"/>
<path fill-rule="evenodd" clip-rule="evenodd" d="M17.1832 18.6932C17.6543 18.6932 18.0297 18.9852 18.0297 19.4558C18.0297 19.9641 17.665 20.3019 17.1946 20.3019C16.726 20.3019 16.3682 19.9837 16.3682 19.5085C16.3682 19.0492 16.7238 18.6932 17.1832 18.6932ZM17.2166 20.2046C17.6454 20.2046 17.7202 19.8265 17.7202 19.5044C17.7202 19.1814 17.5461 18.7905 17.179 18.7905C16.7925 18.7905 16.6775 19.1352 16.6775 19.4311C16.6775 19.8265 16.8588 20.2046 17.2166 20.2046Z" fill="#1A1919"/>
<path fill-rule="evenodd" clip-rule="evenodd" d="M16.3583 19.5086C16.3592 19.0439 16.7189 18.6844 17.1831 18.6837V18.703C16.7289 18.703 16.3775 19.0541 16.377 19.5086C16.3779 19.9784 16.7306 20.2918 17.1946 20.292C17.6603 20.2918 18.0198 19.9588 18.0203 19.4555C18.0199 18.9908 17.6504 18.7034 17.1831 18.703V18.6837C17.6575 18.6841 18.0383 18.979 18.0391 19.4555C18.0387 19.9691 17.6696 20.3104 17.1946 20.3112C16.722 20.3104 16.3592 19.989 16.3583 19.5086ZM16.6677 19.4311C16.6684 19.1338 16.7844 18.7807 17.1789 18.7807C17.5541 18.7815 17.7291 19.1797 17.7298 19.5044C17.7291 19.8265 17.6533 20.2137 17.2166 20.2137V20.195C17.6368 20.1946 17.7098 19.8265 17.7104 19.5044C17.7104 19.1843 17.5381 18.8007 17.1789 18.8001C16.7999 18.8005 16.6879 19.1368 16.6869 19.4311C16.687 19.8247 16.8667 20.1944 17.2166 20.195V20.2137C16.8499 20.2134 16.6684 19.8289 16.6677 19.4311Z" fill="#1A1919"/>
<path fill-rule="evenodd" clip-rule="evenodd" d="M19.5187 19.8332L19.5233 19.8289V19.0005C19.5233 18.8192 19.3969 18.7927 19.3306 18.7927H19.2826V18.7264C19.3861 18.7264 19.488 18.7351 19.5915 18.7351C19.6823 18.7351 19.7729 18.7264 19.8636 18.7264V18.7927H19.8304C19.7378 18.7927 19.6335 18.8103 19.6335 19.0733V20.0786C19.6335 20.1561 19.6358 20.2334 19.6471 20.3019H19.563L18.4248 19.0334V19.9439C18.4248 20.1363 18.4626 20.2023 18.6324 20.2023H18.6703V20.2687C18.5752 20.2687 18.4803 20.2601 18.3853 20.2601C18.2857 20.2601 18.1841 20.2687 18.0846 20.2687V20.2023H18.1156C18.2684 20.2023 18.3145 20.0984 18.3145 19.9222V18.9913C18.3145 18.8676 18.2132 18.7927 18.1132 18.7927H18.0846V18.7264C18.1686 18.7264 18.2546 18.7351 18.3388 18.7351C18.405 18.7351 18.4687 18.7264 18.5353 18.7264L19.5187 19.8332Z" fill="#1A1919"/>
<path fill-rule="evenodd" clip-rule="evenodd" d="M19.6471 20.3112L19.5557 20.3081L18.4344 19.0585V19.9439C18.437 20.1363 18.4662 20.1904 18.6321 20.1924H18.6797V20.2782H18.6703C18.5746 20.2782 18.4798 20.2693 18.3853 20.2693C18.2862 20.2693 18.1845 20.2782 18.0843 20.2782H18.0753V20.1924H18.1155C18.2612 20.192 18.3031 20.0981 18.3049 19.9221V18.9913C18.3048 18.8735 18.2082 18.8023 18.1133 18.8023H18.0753V18.7167H18.0843C18.1691 18.7167 18.2552 18.7253 18.3387 18.7253C18.4043 18.7253 18.4677 18.7167 18.5427 18.7202L19.5135 19.8132V19.0005C19.5128 18.8251 19.3951 18.8037 19.3306 18.8023H19.2724V18.7167H19.2825C19.3864 18.7167 19.4883 18.7253 19.5913 18.7253C19.6817 18.7253 19.7718 18.7167 19.8636 18.7167H19.873V18.8023H19.8303C19.7392 18.8046 19.6452 18.813 19.6434 19.0733V20.0786C19.6434 20.156 19.6451 20.2331 19.6558 20.3003L19.6578 20.3112H19.6471ZM19.563 20.292H19.6354C19.626 20.2255 19.6239 20.1521 19.6239 20.0786V19.0733C19.6239 18.8077 19.7354 18.7835 19.8303 18.7829H19.8542V18.7359C19.7665 18.7366 19.6796 18.7446 19.5913 18.7446C19.4906 18.7446 19.3918 18.7366 19.2918 18.7359V18.7829H19.3306C19.3989 18.7835 19.5323 18.8137 19.5323 19.0005L19.53 19.8358L19.5257 19.8401L19.5187 19.8473L18.5353 18.7359C18.4699 18.7359 18.4056 18.7446 18.3387 18.7446C18.2572 18.7446 18.1742 18.7366 18.0939 18.7359V18.7829H18.1133C18.2172 18.7835 18.3239 18.8618 18.3239 18.9913V19.9221C18.3239 20.0989 18.2746 20.2118 18.1155 20.2124L18.0939 20.2123V20.2592C18.1898 20.2585 18.2882 20.2504 18.3853 20.2504C18.4774 20.2504 18.569 20.2585 18.6606 20.2592V20.2124H18.6321C18.4587 20.2123 18.4152 20.1363 18.4152 19.9439V19.0086L19.563 20.292ZM19.5135 19.8289V19.8283L19.5118 19.8266L19.5135 19.8289Z" fill="#1A1919"/>
<path fill-rule="evenodd" clip-rule="evenodd" d="M20.2185 19.9528C20.1968 20.0277 20.1702 20.0857 20.1702 20.125C20.1702 20.1914 20.2632 20.2024 20.3357 20.2024H20.3603V20.2687C20.2718 20.264 20.1812 20.2602 20.0927 20.2602C20.0131 20.2602 19.9337 20.264 19.8545 20.2687V20.2024H19.8671C19.9537 20.2024 20.0269 20.1514 20.0592 20.0586L20.4134 19.0448C20.442 18.9628 20.482 18.8524 20.4947 18.7704C20.5657 18.7462 20.6538 18.7023 20.6964 18.6755C20.7026 18.6732 20.707 18.671 20.7139 18.671C20.7203 18.671 20.7245 18.671 20.729 18.6779C20.7357 18.6954 20.7423 18.7153 20.749 18.733L21.1556 19.8888C21.1819 19.9658 21.2086 20.0476 21.2375 20.1142C21.264 20.1762 21.3103 20.2024 21.3832 20.2024H21.3968V20.2687C21.2972 20.264 21.1976 20.2602 21.0915 20.2602C20.9835 20.2602 20.8728 20.264 20.76 20.2687V20.2024H20.7845C20.835 20.2024 20.9216 20.1936 20.9216 20.1383C20.9216 20.1098 20.9018 20.0501 20.8771 19.9791L20.791 19.7229H20.2895L20.2185 19.9528ZM20.5416 18.9739H20.5372L20.3311 19.5993H20.745L20.5416 18.9739Z" fill="#1A1919"/>
<path fill-rule="evenodd" clip-rule="evenodd" d="M21.3958 20.2782C21.2963 20.2742 21.1971 20.2693 21.0917 20.2693C20.9839 20.2693 20.8731 20.2742 20.7605 20.2782L20.7508 20.2787V20.1928H20.7844C20.8357 20.1928 20.9118 20.1809 20.9119 20.1383C20.9125 20.1131 20.8925 20.0529 20.8677 19.9823L20.7839 19.7324H20.2961L20.2279 19.9557C20.2056 20.0314 20.1795 20.0891 20.1798 20.1249C20.1798 20.1791 20.2626 20.1928 20.3357 20.1928H20.3695V20.2787L20.3595 20.2782C20.2712 20.2742 20.1807 20.2693 20.0928 20.2693C20.0136 20.2693 19.9343 20.2742 19.8546 20.2782L19.845 20.2787V20.1928H19.8671C19.9495 20.1924 20.0184 20.1452 20.0508 20.0555L20.4041 19.0413C20.4325 18.9595 20.4724 18.8496 20.4918 18.7617C20.5612 18.7375 20.65 18.6932 20.693 18.6666C20.6986 18.6644 20.7048 18.6617 20.7139 18.6617C20.7196 18.6612 20.7312 18.6626 20.738 18.6747C20.7447 18.6921 20.7512 18.7121 20.7584 18.73L21.1647 19.8856C21.1913 19.9629 21.2176 20.0446 21.2463 20.1105C21.2723 20.1689 21.3123 20.1922 21.383 20.1928H21.4058V20.2787L21.3958 20.2782ZM20.7695 20.2587C20.8788 20.2547 20.9863 20.2504 21.0917 20.2504C21.1944 20.2504 21.2905 20.2547 21.3869 20.2585L21.3867 20.2123H21.383C21.3081 20.2124 21.256 20.183 21.2284 20.1178C21.1993 20.0511 21.173 19.969 21.1466 19.8919L20.74 18.736C20.7335 18.7183 20.7264 18.6986 20.7213 18.6833C20.7194 18.6807 20.7196 18.6807 20.7182 18.6807H20.7139C20.7091 18.6807 20.7067 18.6822 20.7014 18.6837C20.6582 18.7107 20.5698 18.755 20.5045 18.7719C20.4908 18.8556 20.4507 18.9658 20.4222 19.0479L20.0684 20.0618C20.0347 20.1578 19.9575 20.2124 19.8671 20.2123H19.8639V20.2585C19.94 20.2547 20.0159 20.2504 20.0928 20.2504C20.1783 20.2504 20.2658 20.2547 20.3506 20.2585V20.2123H20.3357C20.2638 20.2113 20.1631 20.2036 20.1603 20.1249C20.1609 20.0813 20.1881 20.0249 20.2097 19.9501L20.2824 19.7137H20.7974L20.8862 19.9761C20.9105 20.0472 20.9306 20.106 20.9306 20.1383C20.9275 20.206 20.8346 20.211 20.7844 20.2123H20.7695V20.2587ZM20.318 19.6087L20.5302 18.9641H20.5417H20.5484L20.7573 19.6087H20.318ZM20.3447 19.5895H20.7313L20.5391 18.9978L20.3447 19.5895Z" fill="#1A1919"/>
<path fill-rule="evenodd" clip-rule="evenodd" d="M21.9534 20.052C21.9534 20.1409 22.0148 20.167 22.0857 20.1762C22.1762 20.1828 22.2757 20.1828 22.3776 20.1715C22.4703 20.1604 22.5498 20.1077 22.5895 20.052C22.6246 20.0035 22.6445 19.9416 22.6581 19.8931H22.722C22.6976 20.0191 22.6668 20.1429 22.6402 20.2687C22.4462 20.2687 22.2512 20.2602 22.057 20.2602C21.8624 20.2602 21.6682 20.2687 21.4738 20.2687V20.2023H21.5044C21.5841 20.2023 21.6706 20.1915 21.6706 20.0545V18.9189C21.6706 18.8037 21.5841 18.7927 21.5044 18.7927H21.4738V18.7264C21.5907 18.7264 21.7058 18.7351 21.8227 18.7351C21.9356 18.7351 22.0458 18.7264 22.1589 18.7264V18.7927H22.1033C22.0193 18.7927 21.9534 18.795 21.9534 18.9121V20.052Z" fill="#1A1919"/>
<path fill-rule="evenodd" clip-rule="evenodd" d="M22.6403 20.2782C22.4454 20.2782 22.2508 20.2693 22.057 20.2693C21.8626 20.2693 21.6682 20.2782 21.4733 20.2782H21.464V20.1928H21.5043C21.5842 20.1908 21.6601 20.1853 21.661 20.0544V18.9185C21.6601 18.8109 21.5845 18.8037 21.5043 18.8023H21.464V18.7167H21.4733C21.591 18.7167 21.706 18.7253 21.8225 18.7253C21.935 18.7253 22.045 18.7167 22.1588 18.7167H22.1677V18.8023H22.1032C22.0175 18.8045 21.9643 18.8006 21.9624 18.9121V20.052C21.963 20.1347 22.0171 20.1567 22.0862 20.1666C22.1251 20.1693 22.1662 20.1707 22.2087 20.1707C22.2628 20.1707 22.3189 20.1682 22.376 20.1622C22.466 20.1515 22.5434 20.0994 22.5817 20.0468C22.6158 19.9995 22.635 19.939 22.6484 19.8909L22.6503 19.8836H22.7335L22.7316 19.8952C22.7066 20.0215 22.6762 20.1448 22.6494 20.2707L22.6477 20.2782H22.6403ZM22.6322 20.2591C22.6578 20.1391 22.6866 20.0217 22.7106 19.9025H22.665C22.6514 19.9506 22.6317 20.0099 22.5971 20.058C22.5557 20.1152 22.4739 20.1693 22.3781 20.1812C22.3203 20.187 22.2628 20.19 22.2087 20.19C22.1659 20.19 22.1246 20.1881 22.0843 20.1853C22.0125 20.1774 21.943 20.1465 21.9431 20.052V18.9121C21.9431 18.7893 22.0208 18.7829 22.1032 18.7829H22.1488V18.7359C22.0399 18.7366 21.9325 18.7449 21.8225 18.7449C21.7083 18.7449 21.5963 18.7366 21.4833 18.7359V18.7829H21.5043C21.5831 18.7829 21.6796 18.7967 21.6796 18.9185V20.0544C21.6796 20.1975 21.5835 20.2123 21.5043 20.2123H21.4833V20.2591C21.6741 20.2587 21.8651 20.2504 22.057 20.2504C22.2491 20.2504 22.4409 20.2587 22.6322 20.2591Z" fill="#1A1919"/>
<path fill-rule="evenodd" clip-rule="evenodd" d="M8.89417 10.9257C8.89417 8.85889 10.5696 7.18347 12.6363 7.18347C14.7031 7.18347 16.3785 8.85889 16.3785 10.9257C16.3785 12.9925 14.7031 14.668 12.6363 14.668C10.5696 14.668 8.89417 12.9925 8.89417 10.9257Z" fill="#FFFFFE"/>
<path fill-rule="evenodd" clip-rule="evenodd" d="M14.8996 10.852C14.898 9.89371 14.2991 9.07641 13.455 8.75274V12.9512C14.2991 12.6271 14.898 11.8105 14.8996 10.852ZM11.8448 12.9503V8.75315C11.0014 9.07785 10.4033 9.89399 10.4011 10.852C10.4033 11.8099 11.0014 12.6259 11.8448 12.9503ZM12.6503 7.30337C10.6905 7.30413 9.10267 8.89225 9.10235 10.852C9.10267 12.8116 10.6905 14.3995 12.6503 14.3998C14.6101 14.3995 16.1982 12.8116 16.1987 10.852C16.1982 8.89225 14.6101 7.30413 12.6503 7.30337ZM12.6416 14.7347C10.497 14.7449 8.73193 13.0075 8.73193 10.8925C8.73193 8.58111 10.497 6.98237 12.6416 6.98279H13.6466C15.7658 6.98237 17.6999 8.58036 17.6999 10.8925C17.6999 13.0067 15.7658 14.7347 13.6466 14.7347H12.6416Z" fill="#0069AA"/>
<path fill-rule="evenodd" clip-rule="evenodd" d="M3.73376 20.2023H3.7648C3.84425 20.2023 3.92823 20.1915 3.92823 20.0764V18.9189C3.92823 18.8037 3.84425 18.7928 3.7648 18.7928H3.73376V18.7264C3.81991 18.7264 3.95248 18.7351 4.06104 18.7351C4.17144 18.7351 4.30384 18.7264 4.40772 18.7264V18.7928H4.37652C4.2974 18.7928 4.21326 18.8037 4.21326 18.9189V20.0764C4.21326 20.1915 4.2974 20.2023 4.37652 20.2023H4.40772V20.2687C4.30175 20.2687 4.16885 20.2602 4.05878 20.2602C3.9503 20.2602 3.81991 20.2687 3.73376 20.2687V20.2023Z" fill="#1A1919"/>
<path fill-rule="evenodd" clip-rule="evenodd" d="M4.4077 20.2782C4.3008 20.2782 4.16857 20.2693 4.05859 20.2693C3.95045 20.2693 3.82047 20.2782 3.73374 20.2782H3.72412V20.1928H3.7646C3.84481 20.1908 3.91774 20.1844 3.91841 20.0764V18.9189C3.91774 18.8107 3.84481 18.8037 3.7646 18.8023H3.72412V18.7167H3.73374C3.82047 18.7167 3.95296 18.7253 4.06102 18.7253C4.17092 18.7253 4.30323 18.7167 4.4077 18.7167H4.41756V18.8023H4.37692C4.29662 18.8037 4.22327 18.8107 4.22285 18.9189V20.0764C4.22327 20.1844 4.29662 20.1908 4.37692 20.1928H4.41756V20.2782H4.4077ZM4.39816 20.2593L4.39824 20.2123H4.37692C4.29788 20.2123 4.20395 20.1984 4.20345 20.0764V18.9189C4.20395 18.7967 4.29788 18.7831 4.37692 18.7831H4.39816V18.7359C4.2962 18.736 4.16815 18.7449 4.06102 18.7449C3.95605 18.7449 3.829 18.7366 3.74344 18.7359V18.7831H3.7646C3.84339 18.7831 3.93748 18.7967 3.93748 18.9189V20.0764C3.93748 20.1984 3.84339 20.2123 3.7646 20.2123H3.74344V20.2593C3.829 20.2585 3.95379 20.2504 4.05859 20.2504C4.16623 20.2504 4.29395 20.2587 4.39816 20.2593Z" fill="#1A1919"/>
<path fill-rule="evenodd" clip-rule="evenodd" d="M22.695 18.6637C22.8283 18.6637 22.9277 18.7661 22.9277 18.8969C22.9277 19.0276 22.8283 19.1289 22.695 19.1289C22.562 19.1289 22.4624 19.0276 22.4624 18.8969C22.4624 18.7661 22.562 18.6637 22.695 18.6637ZM22.695 19.0856C22.7993 19.0856 22.8791 18.9969 22.8791 18.8969C22.8791 18.7967 22.8003 18.7073 22.695 18.7073C22.5903 18.7073 22.5106 18.7967 22.5106 18.8969C22.5106 18.9969 22.5903 19.0856 22.695 19.0856ZM22.5793 19.0196V19.0083C22.6077 19.0042 22.6131 19.0049 22.6131 18.9876V18.8151C22.6131 18.7908 22.6107 18.7825 22.5802 18.7838V18.7719H22.6994C22.7402 18.7719 22.7779 18.7915 22.7779 18.8338C22.7779 18.8684 22.7552 18.894 22.7229 18.904L22.7612 18.9573C22.779 18.9815 22.7993 19.0042 22.8124 19.0122V19.0196H22.7672C22.7454 19.0196 22.7262 18.9739 22.6835 18.9126H22.6578V18.9897C22.6578 19.0049 22.6631 19.0042 22.6917 19.0083V19.0196H22.5793ZM22.6578 18.8969H22.6852C22.7152 18.8969 22.7291 18.8742 22.7291 18.8375C22.7291 18.8005 22.7077 18.7874 22.6837 18.7874H22.6578V18.8969Z" fill="#1A1919"/>
</g>
<defs>
<clipPath id="clip0_3596_537">
<rect width="27" height="27" fill="white"/>
</clipPath>
</defs>
</svg>
