<svg width="27" height="27" viewBox="0 0 27 27" fill="none" xmlns="http://www.w3.org/2000/svg">
<g clip-path="url(#clip0_3596_578)">
<path fill-rule="evenodd" clip-rule="evenodd" d="M1.90357 4.84613C0 4.84613 0 4.84613 0 4.84613C0 4.84613 0 4.84613 0 22.1884H23.1929C26.1475 22.1884 27 21.3359 27 20.2845V4.84613C0 4.84613 26.1478 4.84613 25.0964 4.84613H1.90357Z" fill="#4D4D4D"/>
<path fill-rule="evenodd" clip-rule="evenodd" d="M11.3245 10.4501C11.6304 10.4501 11.887 10.5119 12.1992 10.6609V11.4485C11.9035 11.1763 11.6469 11.0624 11.3077 11.0624C10.6408 11.0624 10.1164 11.5821 10.1164 12.241C10.1164 12.9359 10.6246 13.4247 11.3407 13.4247C11.6631 13.4247 11.9149 13.3167 12.1992 13.0489V13.8369C11.8759 13.9802 11.6138 14.0368 11.3077 14.0368C10.225 14.0368 9.38366 13.2546 9.38366 12.2459C9.38366 11.2481 10.2474 10.4501 11.3245 10.4501ZM7.96294 10.4718C8.36261 10.4718 8.72829 10.6006 9.03405 10.8524L8.662 11.311C8.47681 11.1155 8.30166 11.0331 8.08863 11.0331C7.78218 11.0331 7.55902 11.1973 7.55902 11.4135C7.55902 11.5988 7.68429 11.6969 8.11093 11.8455C8.91971 12.124 9.15943 12.3709 9.15943 12.9161C9.15943 13.5804 8.64103 14.0429 7.90219 14.0429C7.36116 14.0429 6.96779 13.8423 6.64019 13.3896L7.09946 12.9732C7.26319 13.2713 7.53638 13.4309 7.87554 13.4309C8.19272 13.4309 8.42755 13.2249 8.42755 12.9468C8.42755 12.8027 8.35642 12.6791 8.21439 12.5918C8.14288 12.5504 8.00123 12.4887 7.72285 12.3963C7.05509 12.17 6.82597 11.928 6.82597 11.4553C6.82597 10.8936 7.31799 10.4718 7.96294 10.4718ZM16.088 10.5317H16.8646L17.8368 12.8368L18.8214 10.5317H19.5922L18.0174 14.0516H17.6348L16.088 10.5317ZM2.33362 10.5369H3.37727C4.53038 10.5369 5.33422 11.2424 5.33422 12.2553C5.33422 12.7603 5.08831 13.2486 4.67244 13.5726C4.32255 13.8461 3.92385 13.9688 3.3718 13.9688H2.33362V10.5369ZM5.66137 10.5369H6.37237V13.9688H5.66137V10.5369ZM19.9137 10.5369H21.9301V11.1185H20.6242V11.8802H21.882V12.4614H20.6242V13.3878H21.9301V13.9688H19.9137L19.9137 10.5369ZM22.4011 10.5369H23.4553C24.2753 10.5369 24.7452 10.9076 24.7452 11.5502C24.7452 12.0756 24.4505 12.4204 23.915 12.523L25.0624 13.9688H24.188L23.2039 12.5901H23.1112V13.9688H22.4011V10.5369ZM23.1112 11.0775V12.1168H23.319C23.773 12.1168 24.0137 11.9312 24.0137 11.5862C24.0137 11.2522 23.773 11.0775 23.3302 11.0775H23.1112ZM3.04413 11.1184V13.3878H3.23493C3.69438 13.3878 3.98456 13.3049 4.20797 13.115C4.45384 12.9089 4.60176 12.5797 4.60176 12.2503C4.60176 11.9215 4.45384 11.6021 4.20797 11.396C3.97311 11.1959 3.69438 11.1184 3.23493 11.1184H3.04413Z" fill="white"/>
<path fill-rule="evenodd" clip-rule="evenodd" d="M14.3699 10.4266C15.441 10.4266 16.3091 11.2428 16.3091 12.2511V12.2523C16.3091 13.2606 15.441 14.0779 14.37 14.0779C13.299 14.0779 12.4307 13.2606 12.4307 12.2523V12.2511C12.4307 11.2428 13.299 10.4265 14.37 10.4265L14.3699 10.4266ZM26.9994 14.8278C26.0977 15.4623 19.3468 19.9973 7.65796 22.1879H25.0958C26.1469 22.1879 26.9994 22.1879 26.9994 22.1879V4.84613L26.9994 14.8278Z" fill="#F47216"/>
</g>
<defs>
<clipPath id="clip0_3596_578">
<rect width="27" height="27" fill="white"/>
</clipPath>
</defs>
</svg>
