<svg width="32" height="31" viewBox="0 0 32 31" fill="none" xmlns="http://www.w3.org/2000/svg">
<g clip-path="url(#clip0_3596_528)">
<path d="M1.64103 5.56409H30.359C31.2653 5.56409 32 6.27585 32 7.15383V23.8461C32 24.7242 31.2653 25.4359 30.359 25.4359H1.64103C0.734728 25.4359 0 24.7242 0 23.8461V7.15383C0 6.27585 0.734728 5.56409 1.64103 5.56409Z" fill="#0E4C96"/>
<path d="M25.938 19.9223C25.938 21.5762 24.5543 22.9173 22.8463 22.9173H6.06152V11.0785C6.06152 9.42416 7.44544 8.08305 9.15342 8.08305L25.9378 8.08301L25.9379 19.9222L25.938 19.9223Z" fill="white"/>
<path d="M20.4661 15.7599C20.9454 15.77 21.4276 15.7394 21.9051 15.7758C22.3887 15.8632 22.5052 16.5724 22.0756 16.8047C21.7826 16.9577 21.4342 16.8616 21.1164 16.8887H20.4661L20.4661 15.7599ZM22.1823 14.4823C22.2888 14.8466 21.9264 15.1736 21.5642 15.1234H20.4661C20.4737 14.7799 20.451 14.4072 20.4772 14.0818C20.9172 14.0938 21.3612 14.0573 21.7986 14.1009C21.9866 14.1466 22.1438 14.2963 22.1823 14.4823ZM24.8255 9.0812C24.8459 9.77675 24.8284 10.5091 24.8343 11.2187C24.8328 14.104 24.8372 16.9891 24.832 19.8745C24.8127 20.9558 23.8235 21.8952 22.7151 21.9168C21.6055 21.9212 20.4958 21.9174 19.3861 21.9187V17.5568C20.5952 17.5507 21.805 17.569 23.0135 17.5476C23.5742 17.5134 24.1882 17.1551 24.2143 16.5574C24.2804 15.9572 23.6961 15.5419 23.1414 15.4763C22.9282 15.471 22.9345 15.4161 23.1414 15.3922C23.6703 15.2814 24.0858 14.751 23.9302 14.2198C23.7974 13.6611 23.1601 13.4448 22.6298 13.4459C21.5487 13.4388 20.4674 13.4449 19.3862 13.4429C19.3933 12.6285 19.3717 11.8134 19.398 10.9997C19.4836 9.93787 20.4977 9.06228 21.5907 9.08123L24.8255 9.0812Z" fill="url(#paint0_linear_3596_528)"/>
<path d="M7.16885 11.1099C7.1965 10.0304 8.18994 9.09845 9.29706 9.08271C10.4025 9.07941 11.508 9.08223 12.6134 9.08128C12.6104 12.6934 12.6195 16.3059 12.6089 19.9178C12.5663 20.9843 11.5836 21.8984 10.4887 21.9172C9.38116 21.9211 8.27351 21.9177 7.16594 21.9189V17.4099C8.24175 17.6561 9.36992 17.761 10.4674 17.5976C11.1235 17.4953 11.8413 17.1833 12.0634 16.5239C12.2269 15.9599 12.1348 15.3664 12.1591 14.7875V13.4432H10.2598C10.2512 14.3322 10.2772 15.2229 10.246 16.111C10.1948 16.6568 9.63695 17.0036 9.10551 16.9851C8.44639 16.9919 7.14046 16.5226 7.14046 16.5226C7.13718 14.8566 7.15958 12.7704 7.16885 11.1103V11.1099Z" fill="url(#paint1_linear_3596_528)"/>
<path d="M13.3219 13.9854C13.222 14.0059 13.3018 13.6555 13.2762 13.5225C13.283 12.6819 13.262 11.8404 13.2878 11.0005C13.3733 9.93419 14.3952 9.05637 15.4925 9.08133H18.7239C18.7209 12.6934 18.73 16.3059 18.7194 19.9178C18.6768 20.9843 17.6941 21.8984 16.5991 21.9172C15.4916 21.9212 14.3839 21.9178 13.2762 21.9189V16.9788C14.0327 17.5801 15.0608 17.6737 16.0033 17.6753C16.7137 17.675 17.4201 17.569 18.11 17.4102V16.5052C17.3324 16.8806 16.4184 17.119 15.5564 16.9033C14.9552 16.7583 14.5187 16.1954 14.5285 15.5943C14.4588 14.9692 14.8371 14.3092 15.4713 14.1234C16.2585 13.8846 17.1167 14.0672 17.8547 14.3776C18.0128 14.4578 18.1733 14.5573 18.11 14.3013V13.5898C16.8757 13.3054 15.5622 13.2007 14.3221 13.5102C13.9632 13.6083 13.6135 13.7571 13.3219 13.9855V13.9854Z" fill="url(#paint2_linear_3596_528)"/>
</g>
<defs>
<linearGradient id="paint0_linear_3596_528" x1="19.3651" y1="15.5234" x2="24.8162" y2="15.5234" gradientUnits="userSpaceOnUse">
<stop stop-color="#007B40"/>
<stop offset="1" stop-color="#55B330"/>
</linearGradient>
<linearGradient id="paint1_linear_3596_528" x1="7.17891" y1="15.5234" x2="12.6256" y2="15.5234" gradientUnits="userSpaceOnUse">
<stop stop-color="#1D2970"/>
<stop offset="1" stop-color="#006DBA"/>
</linearGradient>
<linearGradient id="paint2_linear_3596_528" x1="13.2807" y1="15.6643" x2="18.73" y2="15.6643" gradientUnits="userSpaceOnUse">
<stop stop-color="#6E2B2F"/>
<stop offset="1" stop-color="#E30138"/>
</linearGradient>
<clipPath id="clip0_3596_528">
<rect width="32" height="31" fill="white"/>
</clipPath>
</defs>
</svg>
