<svg width="25" height="26" viewBox="0 0 25 26" fill="none" xmlns="http://www.w3.org/2000/svg">
<g clip-path="url(#clip0_3596_514)">
<path d="M25 4.66669H0V21.3334H25V4.66669Z" fill="#16366F"/>
<path d="M14.3914 13C14.3914 16.3048 11.8154 18.9833 8.63785 18.9833C5.46028 18.9833 2.88464 16.3046 2.88464 13C2.88464 9.69556 5.46035 7.01666 8.63785 7.01666C11.8153 7.01666 14.3914 9.69566 14.3914 13Z" fill="#D9222A"/>
<path d="M16.3619 7.01654C14.8753 7.01654 13.5207 7.60307 12.4997 8.56541C12.2917 8.76171 12.0975 8.97331 11.9187 9.19861H13.0811C13.2403 9.39984 13.3868 9.61154 13.5197 9.83237H11.4802C11.3575 10.0364 11.2468 10.248 11.1487 10.466H13.851C13.9437 10.6721 14.0251 10.8836 14.0946 11.0994H10.9051C10.8381 11.3073 10.7823 11.5188 10.7379 11.7331H14.2616C14.3478 12.1494 14.3912 12.5741 14.3912 13C14.3912 13.6645 14.2869 14.3038 14.0945 14.9007H10.9051C10.9744 15.1166 11.0557 15.3282 11.1485 15.5343H13.851C13.7528 15.7523 13.642 15.964 13.5193 16.1681H11.4801C11.6132 16.3891 11.7599 16.6007 11.9187 16.8013H13.0808C12.9023 17.027 12.708 17.2388 12.4997 17.435C13.5209 18.3973 14.8753 18.9835 16.3619 18.9835C19.5394 18.9835 22.1154 16.3048 22.1154 13.0002C22.1154 9.69584 19.5395 7.01684 16.3619 7.01684" fill="#EE9F2D"/>
<path d="M21.3487 16.3353C21.3487 16.2286 21.4318 16.142 21.5345 16.142C21.6372 16.142 21.7203 16.2286 21.7203 16.3353C21.7203 16.442 21.6372 16.5286 21.5345 16.5286C21.4319 16.5286 21.3487 16.442 21.3487 16.3353ZM21.5345 16.4823C21.6126 16.4822 21.6758 16.4164 21.6758 16.3353C21.6758 16.2542 21.6126 16.1885 21.5346 16.1885H21.5345C21.4567 16.1884 21.3935 16.254 21.3934 16.3349V16.3354C21.3933 16.4164 21.4564 16.4822 21.5344 16.4823C21.5344 16.4823 21.5345 16.4823 21.5345 16.4823ZM21.5094 16.4203H21.4713V16.2505H21.5402C21.5546 16.2505 21.5693 16.2505 21.582 16.2589C21.5953 16.2682 21.6028 16.2846 21.6028 16.3015C21.6028 16.3205 21.592 16.3383 21.5745 16.3453L21.6045 16.4203H21.5623L21.5373 16.3531H21.5095L21.5094 16.4203ZM21.5094 16.3239H21.5305C21.5384 16.3239 21.5467 16.3246 21.5537 16.3206C21.56 16.3164 21.5632 16.3086 21.5632 16.3011C21.5632 16.2946 21.5594 16.2871 21.554 16.2839C21.5474 16.2796 21.5368 16.2806 21.5297 16.2806H21.5094V16.3239ZM7.29468 13.6552C7.22913 13.6473 7.20029 13.6451 7.15525 13.6451C6.80125 13.6451 6.62202 13.7714 6.62202 14.0207C6.62202 14.1744 6.70952 14.2723 6.84596 14.2723C7.10038 14.2723 7.28375 14.0203 7.29468 13.6552ZM7.74888 14.755H7.23138L7.24327 14.4992C7.08541 14.7014 6.87481 14.7975 6.58862 14.7975C6.25009 14.7975 6.01798 14.5225 6.01798 14.1232C6.01798 13.5224 6.4217 13.1719 7.11468 13.1719C7.18545 13.1719 7.27625 13.1785 7.3692 13.1908C7.38859 13.1095 7.39365 13.0746 7.39365 13.0308C7.39365 12.8672 7.28481 12.8062 6.99301 12.8062C6.68747 12.8026 6.43545 12.8819 6.33195 12.9174C6.33849 12.8764 6.41849 12.3621 6.41849 12.3621C6.72977 12.2672 6.93506 12.2315 7.16609 12.2315C7.7024 12.2315 7.98647 12.4819 7.98596 12.9553C7.98698 13.0821 7.96682 13.2386 7.93532 13.4443C7.88109 13.802 7.76481 14.5682 7.74888 14.755ZM5.75663 14.755H5.13202L5.48981 12.4218L4.69093 14.755H4.26529L4.21272 12.4351L3.83663 14.755H3.25195L3.74035 11.7199H4.63843L4.69291 13.4188L5.24073 11.7199H6.23968L5.75663 14.755ZM17.1342 13.6552C17.0689 13.6473 17.0399 13.6451 16.995 13.6451C16.6412 13.6451 16.4619 13.7714 16.4619 14.0207C16.4619 14.1744 16.5493 14.2723 16.6857 14.2723C16.9402 14.2723 17.1237 14.0203 17.1342 13.6552ZM17.5888 14.755H17.0713L17.083 14.4992C16.9252 14.7014 16.7144 14.7975 16.4285 14.7975C16.0899 14.7975 15.858 14.5225 15.858 14.1232C15.858 13.5224 16.2614 13.1719 16.9545 13.1719C17.0253 13.1719 17.116 13.1785 17.2088 13.1908C17.2282 13.1095 17.2333 13.0746 17.2333 13.0308C17.2333 12.8672 17.1246 12.8062 16.8328 12.8062C16.5272 12.8026 16.2755 12.8819 16.1716 12.9174C16.1781 12.8764 16.2584 12.3621 16.2584 12.3621C16.5697 12.2672 16.7748 12.2315 17.0056 12.2315C17.5421 12.2315 17.8262 12.4819 17.8257 12.9553C17.8267 13.0821 17.8066 13.2386 17.7751 13.4443C17.7212 13.802 17.6045 14.5682 17.5888 14.755ZM10.525 14.7175C10.354 14.7735 10.2208 14.7975 10.0763 14.7975C9.75695 14.7975 9.58269 14.6067 9.58269 14.2553C9.57814 14.1463 9.62862 13.8593 9.66827 13.5974C9.70432 13.3668 9.9391 11.913 9.9391 11.913H10.56L10.4875 12.2867H10.8625L10.7778 12.8799H10.4014C10.3293 13.3493 10.2266 13.934 10.2254 14.0115C10.2254 14.1388 10.2907 14.1943 10.4392 14.1943C10.5104 14.1943 10.5655 14.1868 10.6076 14.171L10.525 14.7175ZM12.4286 14.6975C12.2153 14.7653 12.0095 14.7981 11.7914 14.7975C11.0964 14.7968 10.7341 14.4193 10.7341 13.6965C10.7341 12.8527 11.195 12.2316 11.8207 12.2316C12.3325 12.2316 12.6595 12.5793 12.6595 13.1248C12.6595 13.3057 12.637 13.4824 12.5829 13.7318H11.3466C11.3048 14.0899 11.5251 14.2391 11.8862 14.2391C12.1085 14.2391 12.3089 14.1914 12.5318 14.0836L12.4286 14.6975ZM12.0796 13.2342C12.083 13.1828 12.1454 12.7936 11.7907 12.7936C11.5929 12.7936 11.4515 12.9504 11.3939 13.2342H12.0796ZM8.12384 13.067C8.12384 13.3792 8.26939 13.5945 8.59952 13.7562C8.85247 13.8798 8.8916 13.9165 8.8916 14.0285C8.8916 14.1824 8.78006 14.2518 8.53288 14.2518C8.3466 14.2518 8.17327 14.2216 7.97333 14.1545C7.97333 14.1545 7.89118 14.6985 7.88743 14.7245C8.02942 14.7567 8.15602 14.7866 8.53743 14.7975C9.19647 14.7975 9.50083 14.5366 9.50083 13.9725C9.50083 13.6334 9.37343 13.4343 9.06054 13.2848C8.79865 13.1598 8.76859 13.1318 8.76859 13.0166C8.76859 12.8831 8.87237 12.815 9.07429 12.815C9.19689 12.815 9.36436 12.8286 9.52301 12.8521L9.61195 12.2796C9.45022 12.253 9.20503 12.2316 9.06227 12.2316C8.36356 12.2316 8.1217 12.6111 8.12384 13.067ZM15.4665 12.2964C15.64 12.2964 15.8017 12.3438 16.0246 12.4604L16.1267 11.8017C16.0353 11.7644 15.7131 11.545 15.4403 11.545C15.0223 11.545 14.669 11.7607 14.4204 12.1167C14.0579 11.9918 13.9089 12.2442 13.7262 12.4956L13.564 12.5349C13.5763 12.4521 13.5874 12.3699 13.5837 12.2867H13.0101C12.9317 13.0506 12.7928 13.8244 12.6841 14.5892L12.6557 14.7551H13.2806C13.3849 14.0503 13.4421 13.599 13.4768 13.2937L13.7121 13.1575C13.7472 13.0215 13.8573 12.9756 14.078 12.9811C14.0483 13.1481 14.0335 13.3175 14.0337 13.4873C14.0337 14.2948 14.4526 14.7975 15.125 14.7975C15.2982 14.7975 15.4469 14.7738 15.677 14.709L15.787 14.017C15.5799 14.123 15.41 14.1728 15.2562 14.1728C14.8931 14.1728 14.6734 13.8941 14.6734 13.4334C14.6733 12.765 15.0001 12.2964 15.4665 12.2964Z" fill="black"/>
<path d="M5.9362 14.5747H5.31149L5.6695 12.2417L4.87062 14.5747H4.44492L4.39229 12.2551L4.01623 14.5747H3.43152L3.91992 11.5399H4.81799L4.84325 13.4187L5.44915 11.5399H6.41924L5.9362 14.5747Z" fill="white"/>
<path d="M20.7539 11.72L20.6154 12.5969C20.4446 12.3632 20.2611 12.194 20.0189 12.194C19.7037 12.194 19.4168 12.4425 19.2291 12.8082C18.9676 12.7518 18.6971 12.6561 18.6971 12.6561L18.697 12.6583C18.7181 12.4539 18.7265 12.3291 18.7246 12.2868H18.1509C18.0728 13.0507 17.9339 13.8244 17.8254 14.5893L17.7968 14.7551H18.4215C18.5059 14.1852 18.5705 13.712 18.6181 13.3368C18.8315 13.1362 18.9383 12.9612 19.154 12.9729C19.0585 13.2131 19.0026 13.4897 19.0026 13.7734C19.0026 14.3905 19.3028 14.7976 19.7569 14.7976C19.9857 14.7976 20.1613 14.7155 20.3327 14.5253L20.3035 14.7547H20.8943L21.37 11.72H20.7539ZM19.9728 14.1847C19.7602 14.1847 19.6528 14.0211 19.6528 13.6981C19.6528 13.213 19.8538 12.869 20.1372 12.869C20.3518 12.869 20.4679 13.0391 20.4679 13.3526C20.468 13.8419 20.2638 14.1847 19.9728 14.1847Z" fill="black"/>
<path d="M7.47407 13.4753C7.40863 13.4675 7.37965 13.4653 7.33478 13.4653C6.98074 13.4653 6.80164 13.5916 6.80164 13.8409C6.80164 13.9944 6.88914 14.0925 7.02536 14.0925C7.28 14.0924 7.46337 13.8405 7.47407 13.4753ZM7.92853 14.5748H7.41103L7.42279 14.3194C7.26507 14.5212 7.0542 14.6177 6.76827 14.6177C6.42959 14.6177 6.19763 14.3427 6.19763 13.9434C6.19763 13.3423 6.60119 12.992 7.2943 12.992C7.3651 12.992 7.4559 12.9987 7.54872 13.011C7.56808 12.9296 7.57314 12.8948 7.57314 12.8508C7.57314 12.6872 7.46446 12.6264 7.17263 12.6264C6.86696 12.6228 6.6151 12.7022 6.51145 12.7372C6.51798 12.6963 6.59798 12.1826 6.59798 12.1826C6.90917 12.0873 7.11468 12.0516 7.34545 12.0516C7.88193 12.0516 8.16609 12.3022 8.16558 12.7751C8.16651 12.9024 8.14619 13.0588 8.11481 13.2642C8.06074 13.6217 7.9443 14.3884 7.92853 14.5748ZM16.3061 11.6217L16.2038 12.2806C15.981 12.1641 15.8192 12.1166 15.6459 12.1166C15.1795 12.1166 14.8526 12.5852 14.8526 13.2535C14.8526 13.7142 15.0724 13.9929 15.4354 13.9929C15.5892 13.9929 15.759 13.9431 15.966 13.837L15.8563 14.5286C15.6261 14.5939 15.4776 14.6177 15.3042 14.6177C14.6319 14.6177 14.2129 14.1149 14.2129 13.3074C14.2129 12.2224 14.7917 11.4641 15.6196 11.4641C15.8922 11.4641 16.2145 11.5844 16.3061 11.6217ZM17.3139 13.4753C17.2484 13.4675 17.2196 13.4653 17.1746 13.4653C16.8206 13.4653 16.6414 13.5916 16.6414 13.8409C16.6414 13.9944 16.7289 14.0925 16.8653 14.0925C17.1197 14.0924 17.3031 13.8405 17.3139 13.4753ZM17.7683 14.5748H17.2507L17.2625 14.3194C17.1047 14.5212 16.8939 14.6177 16.608 14.6177C16.2695 14.6177 16.0374 14.3427 16.0374 13.9434C16.0374 13.3423 16.4411 12.992 17.1339 12.992C17.2049 12.992 17.2955 12.9987 17.3885 13.011C17.4077 12.9296 17.4129 12.8948 17.4129 12.8508C17.4129 12.6872 17.3042 12.6264 17.0124 12.6264C16.7069 12.6228 16.4548 12.7022 16.3512 12.7372C16.3578 12.6963 16.4379 12.1826 16.4379 12.1826C16.7491 12.0873 16.9544 12.0516 17.1852 12.0516C17.7218 12.0516 18.0058 12.3022 18.0052 12.7751C18.0063 12.9024 17.9861 13.0588 17.9546 13.2642C17.9006 13.6217 17.7839 14.3884 17.7683 14.5748ZM10.7045 14.5374C10.5334 14.5934 10.4002 14.6177 10.2558 14.6177C9.93648 14.6177 9.76221 14.4268 9.76221 14.0755C9.75779 13.9661 9.80827 13.6795 9.84795 13.4176C9.88385 13.1867 10.1187 11.7331 10.1187 11.7331H10.7394L10.667 12.1069H10.9856L10.9008 12.6998H10.5811C10.509 13.1695 10.406 13.7538 10.405 13.8314C10.405 13.9591 10.4704 14.0142 10.6188 14.0142C10.6899 14.0142 10.745 14.007 10.7872 13.9911L10.7045 14.5374ZM12.6081 14.5177C12.395 14.5855 12.1889 14.6181 11.9709 14.6177C11.2759 14.617 10.9137 14.2395 10.9137 13.5166C10.9137 12.6726 11.3746 12.0516 12.0002 12.0516C12.5121 12.0516 12.839 12.3992 12.839 12.9449C12.839 13.126 12.8165 13.3027 12.7626 13.552H11.5263C11.4844 13.91 11.7047 14.0594 12.0659 14.0594C12.288 14.0594 12.4886 14.0116 12.7113 13.9035L12.6081 14.5177ZM12.259 13.054C12.2628 13.0027 12.325 12.6134 11.9701 12.6134C11.7725 12.6134 11.6311 12.7706 11.5735 13.054H12.259ZM8.30324 12.8872C8.30324 13.1993 8.44882 13.4144 8.77895 13.5763C9.03186 13.6999 9.071 13.7367 9.071 13.8487C9.071 14.0026 8.95936 14.072 8.71244 14.072C8.526 14.072 8.35266 14.0417 8.1526 13.9747C8.1526 13.9747 8.07074 14.5187 8.06702 14.5447C8.20869 14.5769 8.33542 14.6063 8.71683 14.6177C9.37603 14.6177 9.68026 14.3567 9.68026 13.7928C9.68026 13.4535 9.55298 13.2545 9.23994 13.1049C8.97818 12.9797 8.94789 12.9522 8.94789 12.8367C8.94789 12.7034 9.05189 12.6348 9.25369 12.6348C9.37616 12.6348 9.54363 12.6488 9.70254 12.6723L9.79135 12.0996C9.62978 12.073 9.38459 12.0516 9.2418 12.0516C8.54295 12.0516 8.30125 12.4309 8.30324 12.8872ZM21.0741 14.5748H20.4831L20.5125 14.345C20.3412 14.5356 20.1656 14.6177 19.9367 14.6177C19.4826 14.6177 19.1825 14.2106 19.1825 13.5935C19.1825 12.7725 19.6479 12.0804 20.1988 12.0804C20.4411 12.0804 20.6245 12.1834 20.7951 12.417L20.9337 11.54H21.5498L21.0741 14.5748ZM20.1528 14.0045C20.4436 14.0045 20.648 13.6617 20.648 13.1727C20.648 12.8592 20.5316 12.6891 20.317 12.6891C20.0338 12.6891 19.8325 13.033 19.8325 13.5183C19.8325 13.8411 19.9401 14.0045 20.1528 14.0045ZM18.3309 12.1069C18.2527 12.8708 18.1138 13.6445 18.0052 14.409L17.9766 14.5748H18.6013C18.8247 13.0656 18.8788 12.7709 19.2291 12.8078C19.285 12.499 19.3888 12.2284 19.4663 12.0919C19.2047 12.0352 19.0586 12.189 18.8673 12.481C18.8824 12.3548 18.9101 12.2322 18.9046 12.1069H18.3309ZM13.1892 12.1069C13.1108 12.8708 12.9719 13.6445 12.8633 14.409L12.8349 14.5748H13.4599C13.683 13.0656 13.737 12.7709 14.0871 12.8078C14.1432 12.499 14.2471 12.2284 14.3243 12.0919C14.063 12.0352 13.9167 12.189 13.7256 12.481C13.7407 12.3548 13.7681 12.2322 13.7629 12.1069H13.1892ZM21.3485 14.3816C21.3485 14.2745 21.4317 14.1883 21.5343 14.1883C21.6367 14.1882 21.7199 14.2745 21.72 14.3811V14.3816C21.72 14.4883 21.6368 14.5747 21.5343 14.5748C21.4317 14.5747 21.3486 14.4883 21.3485 14.3816ZM21.5343 14.5284C21.6122 14.5284 21.6754 14.4627 21.6754 14.3817V14.3816C21.6755 14.3005 21.6123 14.2348 21.5344 14.2347H21.5343C21.4562 14.2347 21.393 14.3005 21.393 14.3816C21.393 14.4627 21.4563 14.5284 21.5343 14.5284ZM21.5091 14.4661H21.4711V14.2966H21.5401C21.5544 14.2966 21.5692 14.2969 21.5816 14.3051C21.595 14.3145 21.6026 14.3306 21.6026 14.3475C21.6026 14.3667 21.5918 14.3846 21.5741 14.3914L21.6043 14.466H21.562L21.537 14.399H21.5091V14.466V14.4661ZM21.5091 14.3701H21.5301C21.538 14.3701 21.5465 14.3707 21.5535 14.3667C21.5597 14.3626 21.5629 14.3547 21.5629 14.3472C21.5626 14.3402 21.5592 14.3337 21.5537 14.3297C21.5472 14.3258 21.5364 14.3269 21.5293 14.3269H21.5091L21.5091 14.3701Z" fill="white"/>
</g>
<defs>
<clipPath id="clip0_3596_514">
<rect width="25" height="26" fill="white"/>
</clipPath>
</defs>
</svg>
