<svg width="80" height="14" viewBox="0 0 80 14" fill="none" xmlns="http://www.w3.org/2000/svg">
<g clip-path="url(#clip0_3596_501)">
<path d="M39.9917 2.62164C41.6939 2.62164 43.2337 3.4212 43.2337 5.20483C43.2337 6.98848 41.6939 8.04557 39.9917 8.04557C39.3533 8.04557 38.8426 8.04557 38.8426 8.04557V10.8402H37.0862V3.03296C37.0862 2.80616 37.2719 2.62549 37.4963 2.62549H39.9917M38.8426 7.21145C38.8426 7.21145 39.156 7.21145 39.9917 7.21145C40.8273 7.21145 41.8061 6.34653 41.8061 5.23176C41.8061 4.11698 40.8544 3.46734 39.9917 3.46734C39.3843 3.46734 38.8426 3.46734 38.8426 3.46734V7.21145ZM46.2243 4.6936C47.5553 4.6936 48.9247 5.15485 48.9247 6.51952V10.844H47.1685V10.5211C46.82 10.7364 46.3868 10.9555 45.6788 10.9555C44.8199 10.9555 43.6128 10.4404 43.6128 8.85668C43.6128 7.19605 44.9862 6.68482 45.8181 6.68482C46.379 6.68482 46.9245 6.7732 47.1567 6.84241L47.1722 6.52335C47.1722 5.8045 46.9516 5.27786 45.8606 5.27786C44.8779 5.27786 44.3789 5.50854 44.3789 5.50854L44.2164 5.02031C44.2164 5.02031 44.8973 4.69742 46.2281 4.69742M46.3016 10.1867C46.704 10.1867 46.9555 9.99068 47.1722 9.80616V7.6881C47.0483 7.58432 46.7272 7.49206 46.3906 7.49206C45.7213 7.49206 44.9901 7.98024 44.9901 8.80288C44.9901 9.62547 45.5356 10.1867 46.3016 10.1867ZM53.0296 11.5975C53.5633 10.4251 56.0743 4.69742 56.0743 4.69742H54.8786L53.2075 8.48764L51.3157 4.69742H49.4739L52.3562 10.3981L52.0428 11.1862C51.5826 12.0972 51.1572 12.0357 50.3717 12.0357V12.9929C50.3717 12.9929 50.8127 13.0121 51.2268 12.966C51.6174 12.9198 52.4955 12.7699 53.0296 11.5975ZM19.905 2.63317C21.6072 2.63317 23.147 3.43273 23.147 5.21636C23.147 7 21.6072 8.0571 19.905 8.0571C19.2666 8.0571 18.7559 8.0571 18.7559 8.0571V10.8517H16.9995V3.04449C16.9995 2.81769 17.1852 2.63702 17.4135 2.63702H19.9088M18.7598 7.22298C18.7598 7.22298 19.0732 7.22298 19.9088 7.22298C20.7445 7.22298 21.7233 6.35806 21.7233 5.24328C21.7233 4.12851 20.7716 3.47887 19.9088 3.47887C19.3014 3.47887 18.7598 3.47887 18.7598 3.47887V7.22298ZM26.1414 4.70512C27.4723 4.70512 28.8419 5.16638 28.8419 6.53105V10.8556H27.0854V10.5327C26.7373 10.7479 26.3039 10.967 25.5959 10.967C24.7371 10.967 23.53 10.4519 23.53 8.86821C23.53 7.20758 24.9034 6.69634 25.7352 6.69634C26.2962 6.69634 26.8417 6.78473 27.0738 6.85394L27.0893 6.53488C27.0893 5.81602 26.8688 5.28939 25.7778 5.28939C24.7951 5.28939 24.296 5.52006 24.296 5.52006L24.1335 5.03184C24.1335 5.03184 24.8144 4.70895 26.1453 4.70895M26.2188 10.1983C26.6212 10.1983 26.8726 10.0022 27.0893 9.81769V7.69963C26.9655 7.59584 26.6444 7.50358 26.3078 7.50358C25.6385 7.50358 24.9073 7.99176 24.9073 8.8144C24.9073 9.637 25.4567 10.1983 26.2188 10.1983ZM32.9466 11.609C33.4805 10.4366 35.9913 4.70895 35.9913 4.70895H34.7959L33.1246 8.49917L31.2327 4.70895H29.3912L32.2734 10.4097L31.9601 11.1977C31.4997 12.1087 31.0741 12.0472 30.2888 12.0472V13.0044C30.2888 13.0044 30.7298 13.0236 31.1437 12.9775C31.5345 12.9314 32.4166 12.7814 32.9466 11.609Z" fill="#3F3A39"/>
<path d="M11.9971 0.00756836C13.1422 0.00756836 14.0785 0.937823 14.0785 2.07566V11.9279C14.0785 13.0658 13.1422 13.996 11.9971 13.996H2.0814C0.936245 13.996 0 13.0658 0 11.9279V1.96419C0.0657694 0.876321 0.974932 0.00756836 2.0814 0.00756836H11.9971Z" fill="white"/>
<path d="M2.74296 13.9962H2.0814C0.936245 13.9962 0 13.0659 0 11.928V4.38606C1.86862 4.19769 3.60957 4.20154 5.13774 4.35145L2.73909 14L2.74296 13.9962ZM11.2117 7.47665C11.5406 6.13895 9.37402 4.90499 5.89991 4.43602L4.63866 9.64469C7.548 9.78311 10.8558 8.91049 11.2079 7.47283M11.9971 0.00384193H2.0814C0.974932 0.00384193 0.0657694 0.876437 0.00386878 1.96046C8.30626 1.72597 12.3453 4.59747 11.7108 7.45743C11.1382 10.033 8.50743 11.0208 4.2247 11.3438L3.58636 13.9885H11.9971C13.1422 13.9885 14.0785 13.0582 14.0785 11.9204V2.06809C14.0785 0.930253 13.1422 0 11.9971 0" fill="#FF0033"/>
<path d="M64.7868 5.41625H62.527C62.5581 5.02799 62.5774 4.61284 62.5774 4.15155H61.2545C61.2545 4.60515 61.239 5.02416 61.2117 5.41625H59.119V6.38109H61.1152C60.7745 8.79515 59.8654 9.74846 58.9562 10.1752L58.9369 10.1828V10.8979L58.9449 10.9286H58.9679C58.9679 10.9286 58.9755 10.9363 58.9797 10.9363C59.088 10.9363 60.3218 10.4558 61.1807 9.43327C61.5407 9.00655 62.1327 8.16086 62.4188 6.38109H63.9585C63.951 9.41017 63.719 10.2021 62.5581 10.2021C62.4574 10.2021 62.3185 10.1867 62.2291 10.1713C62.1943 10.1636 62.032 10.1329 61.9548 10.1252H61.9157V10.7018L61.943 10.7095C61.9703 10.7172 61.9934 10.721 62.0202 10.7287C62.2837 10.7787 62.7284 10.8402 63.1232 10.8402C64.8291 10.8402 65.2122 9.4371 65.2315 6.38491V5.85828C65.2315 5.61613 65.0343 5.42008 64.7905 5.42008L64.7868 5.41625Z" fill="#3F3A39"/>
<path d="M78.2654 5.22015L78.7374 4.75503L77.7934 3.81706L77.7703 3.79016L77.2983 4.25913L78.2423 5.1971L78.2654 5.22015Z" fill="#3F3A39"/>
<path d="M75.6889 6.46562V4.22455H74.3232V10.8401H75.6889V7.37669C76.6094 7.43815 77.7044 7.8687 78.8338 8.67211L78.8687 8.69516L79.4414 7.4766L79.4103 7.46125C79.4103 7.46125 77.5807 6.50407 75.6927 6.46562H75.6889Z" fill="#3F3A39"/>
<path d="M72.0287 7.02301H67.104V8.06858H72.0287V7.02301Z" fill="#3F3A39"/>
<path d="M78.6292 3.33276L78.1572 3.80174L79.1012 4.73967L79.1243 4.76277L79.5963 4.29377L78.6523 3.35967L78.6292 3.33276Z" fill="#3F3A39"/>
</g>
<defs>
<clipPath id="clip0_3596_501">
<rect width="80" height="14" fill="white"/>
</clipPath>
</defs>
</svg>
