<svg width="30" height="19" viewBox="0 0 30 19" fill="none" xmlns="http://www.w3.org/2000/svg">
<g clip-path="url(#clip0_3596_522)">
<path d="M5.86423 0H13.3383C14.3816 0 15.0305 0.861727 14.7871 1.92246L11.3074 17.0614C11.0618 18.1184 10.0172 18.9809 8.97321 18.9809H1.49989C0.458032 18.9809 -0.192329 18.1184 0.0510555 17.0614L3.53222 1.92246C3.7756 0.861727 4.81964 0 5.86423 0Z" fill="#E21836"/>
<path d="M12.7164 6.10352e-05H21.3114C22.3545 6.10352e-05 21.8841 0.861788 21.6388 1.92252L18.1596 17.0614C17.9155 18.1185 17.9916 18.9809 16.9463 18.9809H8.35135C7.30603 18.9809 6.65913 18.1185 6.90471 17.0614L10.3837 1.92252C10.6307 0.861788 11.6726 6.10352e-05 12.7164 6.10352e-05Z" fill="#00447C"/>
<path d="M20.9705 6.10352e-05H28.4445C29.4893 6.10352e-05 30.1382 0.861788 29.8928 1.92252L26.4136 17.0614C26.1681 18.1185 25.1228 18.9809 24.0782 18.9809H16.6076C15.5623 18.9809 14.9139 18.1185 15.1587 17.0614L18.6385 1.92252C18.8818 0.861788 19.9251 6.10352e-05 20.9705 6.10352e-05Z" fill="#007B84"/>
<path d="M7.81617 4.85168C7.04757 4.85962 6.82058 4.85168 6.74808 4.83433C6.72021 4.96853 6.20156 7.39293 6.2001 7.39496C6.08843 7.88545 6.00718 8.23508 5.73118 8.46085C5.57451 8.59211 5.39161 8.65543 5.17956 8.65543C4.83871 8.65543 4.64014 8.48393 4.60681 8.15866L4.60043 8.04697C4.60043 8.04697 4.70427 7.38997 4.70427 7.38628C4.70427 7.38628 5.24861 5.17695 5.34607 4.88491C5.35117 4.8683 5.35263 4.85962 5.3539 4.85168C4.29438 4.8611 4.10656 4.85168 4.09362 4.83433C4.08652 4.85814 4.06028 4.99512 4.06028 4.99512L3.50447 7.48523L3.45674 7.69641L3.36438 8.3872C3.36438 8.59211 3.40409 8.75936 3.48316 8.90076C3.73638 9.34916 4.4587 9.41636 4.86731 9.41636C5.3938 9.41636 5.88767 9.30301 6.22141 9.09607C6.80073 8.7492 6.9523 8.20703 7.08747 7.72521L7.15014 7.47803C7.15014 7.47803 7.71087 5.18341 7.80615 4.88491C7.80979 4.8683 7.81125 4.85962 7.81617 4.85168ZM9.72402 6.70277C9.58885 6.70277 9.34182 6.736 9.11993 6.84621C9.03941 6.88811 8.96326 6.93648 8.88292 6.98466L8.95543 6.71938L8.91571 6.67471C8.44516 6.77126 8.33986 6.78418 7.90519 6.84621L7.86876 6.87076C7.8183 7.29479 7.77348 7.6136 7.58639 8.44708C7.51516 8.75426 7.4412 9.0644 7.36705 9.37084L7.38709 9.40979C7.83251 9.38597 7.96768 9.38597 8.3548 9.39243L8.38613 9.35791C8.43532 9.10261 8.4417 9.0428 8.55064 8.52572C8.60183 8.28057 8.70858 7.7419 8.76123 7.5501C8.85796 7.50468 8.95342 7.46001 9.04451 7.46001C9.26148 7.46001 9.23506 7.65181 9.22668 7.72824C9.21739 7.85654 9.13833 8.27559 9.05726 8.63538L9.00316 8.86761C8.96545 9.0391 8.92409 9.2058 8.88638 9.37582L8.90278 9.40979C9.34182 9.38597 9.47572 9.38597 9.85063 9.39243L9.89472 9.35791C9.96248 8.95917 9.98234 8.85247 10.1026 8.27189L10.1631 8.00514C10.2806 7.48309 10.3396 7.21837 10.2507 7.00275C10.1567 6.7611 9.93115 6.70277 9.72402 6.70277ZM11.8553 7.24936C11.6219 7.29477 11.4731 7.32505 11.3252 7.34462C11.1785 7.36843 11.0355 7.39003 10.81 7.42178L10.7921 7.43821L10.7757 7.45132C10.7522 7.62152 10.7358 7.76865 10.7047 7.94162C10.6783 8.1205 10.6377 8.32375 10.5715 8.61579C10.5203 8.83935 10.4939 8.91725 10.4648 8.99589C10.4364 9.07453 10.405 9.15096 10.3475 9.37082L10.3609 9.39112L10.3722 9.40977C10.583 9.39962 10.7209 9.39242 10.8626 9.39112C11.0042 9.38596 11.1508 9.39112 11.3778 9.39242L11.3977 9.37599L11.419 9.3579C11.4518 9.15963 11.4567 9.10628 11.4768 9.00955C11.4966 8.9058 11.5309 8.76218 11.6148 8.37858C11.6546 8.1984 11.6988 8.01879 11.74 7.83492C11.7828 7.65179 11.8276 7.47144 11.8702 7.29127L11.8639 7.26948L11.8553 7.24936ZM11.8603 6.51239C11.6482 6.38557 11.276 6.42581 11.0256 6.601C10.7758 6.77268 10.7474 7.01635 10.9587 7.14484C11.1671 7.26815 11.5407 7.23142 11.7891 7.05475C12.0383 6.87938 12.0694 6.63792 11.8603 6.51239ZM13.1427 9.44951C13.5717 9.44951 14.0115 9.32971 14.3425 8.97416C14.5972 8.68581 14.7139 8.25679 14.7544 8.08013C14.8861 7.49457 14.7835 7.22117 14.6547 7.05466C14.4591 6.80083 14.1133 6.71942 13.7546 6.71942C13.5389 6.71942 13.0252 6.74102 12.6239 7.11595C12.3357 7.38639 12.2025 7.75338 12.1222 8.10523C12.0411 8.46373 11.9478 9.10911 12.5335 9.34927C12.7142 9.42792 12.9747 9.44951 13.1427 9.44951ZM13.1092 8.132C13.2081 7.68859 13.3249 7.31643 13.6229 7.31643C13.8565 7.31643 13.8734 7.59333 13.7696 8.03822C13.751 8.13699 13.6657 8.50416 13.5504 8.66052C13.4699 8.7759 13.3746 8.84586 13.2693 8.84586C13.238 8.84586 13.0516 8.84586 13.0487 8.56545C13.0472 8.427 13.0751 8.28559 13.1092 8.132ZM15.8268 9.39249L15.8604 9.35797C15.9079 9.10266 15.9157 9.04267 16.021 8.52578C16.0737 8.28063 16.1826 7.74195 16.2338 7.55015C16.3307 7.50456 16.4246 7.45988 16.5186 7.45988C16.7341 7.45988 16.7078 7.65168 16.6993 7.72811C16.6914 7.85659 16.6124 8.27546 16.5299 8.63525L16.4787 8.86748C16.4395 9.03916 16.3969 9.20567 16.3592 9.37588L16.3756 9.40984C16.8161 9.38603 16.9448 9.38603 17.3219 9.39249L17.3675 9.35797C17.4336 8.95904 17.4515 8.85234 17.5754 8.27195L17.6344 8.00501C17.7524 7.48296 17.8122 7.21842 17.7247 7.0028C17.628 6.76116 17.401 6.70282 17.1968 6.70282C17.0614 6.70282 16.8131 6.73587 16.5925 6.84626C16.5136 6.88817 16.4346 6.93635 16.357 6.98471L16.4246 6.71944L16.3883 6.67458C15.9179 6.77131 15.8105 6.78423 15.3763 6.84626L15.343 6.87081C15.2903 7.29485 15.2475 7.61347 15.0604 8.44714C14.9892 8.75432 14.9152 9.06445 14.8413 9.37089L14.8611 9.40984C15.3073 9.38603 15.4405 9.38603 15.8268 9.39249ZM19.0633 9.40975C19.0909 9.27278 19.2555 8.46089 19.2569 8.46089C19.2569 8.46089 19.397 7.86518 19.4056 7.84358C19.4056 7.84358 19.4497 7.78155 19.4937 7.757H19.5586C20.1705 7.757 20.8615 7.757 21.4031 7.35327C21.7716 7.07637 22.0236 6.66747 22.136 6.17052C22.1651 6.04868 22.1866 5.90377 22.1866 5.75886C22.1866 5.56853 22.1489 5.38024 22.04 5.23311C21.7638 4.84157 21.2138 4.83437 20.5789 4.83141C20.5769 4.83141 20.266 4.83437 20.266 4.83437C19.4533 4.84452 19.1274 4.84157 18.9935 4.82495C18.9822 4.88495 18.9609 4.99165 18.9609 4.99165C18.9609 4.99165 18.6698 6.35882 18.6698 6.36103C18.6698 6.36103 17.9731 9.26779 17.9403 9.40477C18.6499 9.39609 18.9408 9.39609 19.0633 9.40975ZM19.6027 6.98111C19.6027 6.98111 19.9122 5.61671 19.9107 5.62188L19.9208 5.55192L19.9251 5.49857L20.0488 5.51149C20.0488 5.51149 20.6872 5.56705 20.7021 5.56853C20.954 5.66729 21.0579 5.92186 20.9854 6.25415C20.9192 6.55782 20.7249 6.81313 20.4751 6.93644C20.2694 7.04093 20.0175 7.0496 19.7579 7.0496H19.5899L19.6027 6.98111ZM21.5298 8.15727C21.448 8.5106 21.354 9.15598 21.9368 9.38599C22.1226 9.46611 22.2891 9.48992 22.4583 9.48125C22.637 9.47146 22.8026 9.38064 22.956 9.24994C22.9422 9.30366 22.9283 9.35738 22.9145 9.41128L22.9409 9.4458C23.3601 9.4279 23.4902 9.4279 23.9443 9.4314L23.9855 9.39965C24.0518 9.0046 24.1143 8.621 24.2866 7.86523C24.3706 7.50323 24.4544 7.14473 24.5406 6.7842L24.5271 6.74451C24.0582 6.83256 23.9328 6.85139 23.4818 6.91619L23.4475 6.94443C23.443 6.98117 23.4382 7.01643 23.4339 7.05169C23.3637 6.93686 23.2621 6.83884 23.1052 6.77774C22.9047 6.6978 22.4336 6.80081 22.0286 7.17445C21.744 7.4412 21.6074 7.80671 21.5298 8.15727ZM22.5146 8.17887C22.615 7.7434 22.7303 7.37493 23.0291 7.37493C23.218 7.37493 23.3175 7.55159 23.2972 7.85286C23.2812 7.928 23.2639 8.00719 23.2433 8.09672C23.2134 8.22613 23.181 8.35443 23.1495 8.48291C23.1174 8.57079 23.0801 8.65367 23.0391 8.70887C22.9622 8.81926 22.7793 8.88775 22.674 8.88775C22.6441 8.88775 22.4598 8.88775 22.4534 8.61232C22.452 8.47516 22.4798 8.33394 22.5146 8.17887ZM27.6575 6.74098L27.6212 6.69908C27.1572 6.79433 27.0732 6.80947 26.647 6.8678L26.6156 6.89956C26.6142 6.90472 26.6129 6.91266 26.6107 6.91986L26.6093 6.91266C26.2919 7.65458 26.3012 7.49453 26.0429 8.07862C26.0414 8.05203 26.0414 8.03542 26.04 8.00717L25.9753 6.74098L25.9347 6.69908C25.4486 6.79433 25.4371 6.80947 24.9883 6.8678L24.9533 6.89956C24.9484 6.91469 24.9484 6.93131 24.9455 6.9494L24.9484 6.95586C25.0045 7.24643 24.991 7.18163 25.0473 7.64018C25.0735 7.86521 25.1085 8.09154 25.1347 8.3138C25.179 8.68577 25.2038 8.8689 25.2579 9.43656C24.9547 9.94347 24.883 10.1353 24.5911 10.5802L24.5931 10.5846L24.3876 10.9139C24.3641 10.9486 24.3428 10.9725 24.313 10.9826C24.2802 10.999 24.2375 11.002 24.1783 11.002H24.0645L23.8952 11.5724L24.4758 11.5826C24.8167 11.5811 25.0309 11.4196 25.1462 11.2025L25.5113 10.5685H25.5055L25.5439 10.5239C25.7895 9.98815 27.6575 6.74098 27.6575 6.74098ZM21.5298 14.2326H21.2835L22.1951 11.1773H22.4975L22.5935 10.8625L22.6028 11.2125C22.5915 11.4289 22.7594 11.6207 23.2007 11.5889H23.7109L23.8866 11.0006H23.6945C23.5841 11.0006 23.533 10.9724 23.5393 10.9118L23.53 10.5557H22.5851V10.5576C22.2796 10.564 21.3673 10.5873 21.1825 10.6371C20.959 10.6955 20.7235 10.8671 20.7235 10.8671L20.816 10.552H19.9321L19.7479 11.1773L18.8241 14.2793H18.6449L18.4691 14.8634H20.2296L20.1706 15.0582H21.0381L21.0956 14.8634H21.339L21.5298 14.2326ZM20.8074 11.7981C20.6659 11.8378 20.4025 11.9581 20.4025 11.9581L20.6367 11.1773H21.339L21.1696 11.7462C21.1696 11.7462 20.9526 11.7591 20.8074 11.7981ZM20.8209 12.9136C20.8209 12.9136 20.6003 12.9417 20.4551 12.9749C20.3121 13.0189 20.044 13.1573 20.044 13.1573L20.2859 12.3447H20.9918L20.8209 12.9136ZM20.4274 14.2398H19.723L19.9272 13.554H20.6295L20.4274 14.2398ZM22.1239 12.3447H23.1394L22.9935 12.8236H21.9645L21.8101 13.3471H22.7104L22.0287 14.3198C21.9809 14.3912 21.9381 14.4165 21.8906 14.4366C21.8429 14.4612 21.7802 14.49 21.7077 14.49H21.4579L21.2863 15.0633H21.9396C22.2792 15.0633 22.4797 14.9068 22.6278 14.7013L23.0953 14.053L23.1957 14.7113C23.217 14.8346 23.3044 14.9068 23.3636 14.9349C23.429 14.9681 23.4966 15.0251 23.5921 15.0336C23.6945 15.0381 23.7684 15.0416 23.8176 15.0416H24.1386L24.3313 14.3999H24.2047C24.132 14.3999 24.0069 14.3875 23.9856 14.3644C23.9643 14.3364 23.9643 14.2932 23.9528 14.2275L23.851 13.5677H23.434L23.6169 13.3471H24.6438L24.8017 12.8236H23.851L23.9991 12.3447H24.9469L25.1227 11.7542H22.2968L22.1239 12.3447ZM13.5475 14.3732L13.7845 13.5742H14.7586L14.9366 12.98H13.9616L14.1104 12.4882H15.0632L15.2397 11.9128H12.8558L12.6829 12.4882H13.2245L13.0801 12.98H12.537L12.357 13.5844H12.8984L12.5825 14.6414C12.5399 14.7813 12.6026 14.8347 12.6423 14.8997C12.6829 14.963 12.7241 15.0049 12.8166 15.0287C12.9121 15.0503 12.9775 15.0632 13.0664 15.0632H14.1645L14.3602 14.4049L13.8734 14.4727C13.7794 14.4727 13.5191 14.4612 13.5475 14.3732ZM13.6593 10.5484L13.4124 11.0005C13.3596 11.0993 13.312 11.1606 13.2692 11.1888C13.2315 11.2126 13.1568 11.2226 13.0486 11.2226H12.9198L12.7477 11.8009H13.1754C13.3811 11.8009 13.539 11.7245 13.6144 11.6863C13.6955 11.6424 13.7168 11.6675 13.7795 11.6062L13.9239 11.4794H15.2596L15.4369 10.8772H14.4592L14.6299 10.5484H13.6593ZM15.6312 14.3848C15.6084 14.3516 15.6248 14.293 15.6596 14.1712L16.0247 12.9467H17.3234C17.5127 12.944 17.6493 12.9417 17.7382 12.9353C17.8337 12.9251 17.9375 12.8906 18.0506 12.8286C18.1674 12.7636 18.2272 12.6951 18.2776 12.6165C18.3339 12.538 18.4243 12.3663 18.5019 12.1016L18.9608 10.5521L17.613 10.56C17.613 10.56 17.1981 10.622 17.0153 10.6905C16.831 10.7669 16.5675 10.9803 16.5675 10.9803L16.6892 10.5556H15.8567L14.6912 14.4727C14.6498 14.6248 14.6221 14.7352 14.6157 14.8014C14.6136 14.8729 14.7046 14.9436 14.7637 14.9969C14.8334 15.0503 14.9365 15.0416 15.0355 15.0503C15.1395 15.0582 15.2874 15.0632 15.4916 15.0632H16.1314L16.3278 14.3912L15.7551 14.4461C15.6938 14.4461 15.6496 14.4128 15.6312 14.3848ZM16.2602 12.1197H17.6243L17.5376 12.3951C17.5254 12.4016 17.4963 12.3815 17.3575 12.3981H16.1762L16.2602 12.1197ZM16.5335 11.196H17.9091L17.8102 11.5277C17.8102 11.5277 17.1618 11.5212 17.058 11.5406C16.6011 11.6207 16.3342 11.8681 16.3342 11.8681L16.5335 11.196ZM17.5682 13.3175C17.5569 13.3586 17.539 13.3837 17.5141 13.4026C17.4864 13.4207 17.4415 13.4271 17.3747 13.4271H17.1803L17.1918 13.0917H16.3833L16.3505 14.7315C16.3492 14.8499 16.3605 14.9183 16.446 14.9732C16.5314 15.0417 16.7946 15.0503 17.149 15.0503H17.6556L17.8385 14.4365L17.3975 14.4611L17.2508 14.4698C17.2308 14.4611 17.2116 14.4531 17.1903 14.4315C17.1717 14.4129 17.1404 14.4243 17.1455 14.306L17.149 13.8857L17.6115 13.8663C17.8613 13.8663 17.968 13.784 18.0591 13.7055C18.146 13.6304 18.1744 13.544 18.2072 13.4271L18.2848 13.055H17.6492L17.5682 13.3175Z" fill="#FEFEFE"/>
</g>
<defs>
<clipPath id="clip0_3596_522">
<rect width="30" height="19" fill="white"/>
</clipPath>
</defs>
</svg>
