<svg width="25" height="26" viewBox="0 0 25 26" fill="none" xmlns="http://www.w3.org/2000/svg">
<g clip-path="url(#clip0_3596_510)">
<path d="M1.28205 4.66669H23.718C24.426 4.66669 25 5.26365 25 6.00002V20C25 20.7364 24.426 21.3334 23.718 21.3334H1.28205C0.574006 21.3334 0 20.7364 0 20V6.00002C0 5.26365 0.574006 4.66669 1.28205 4.66669Z" fill="#0E4595"/>
<path d="M9.39742 16.291L10.4667 9.76566H12.1769L11.1069 16.291H9.39742ZM17.2856 9.90633C16.9468 9.77413 16.4158 9.63226 15.7528 9.63226C14.0629 9.63226 12.8725 10.5173 12.8624 11.7857C12.8528 12.7234 13.7122 13.2464 14.3609 13.5586C15.0266 13.8784 15.2504 14.0824 15.2472 14.368C15.243 14.8054 14.7156 15.0052 14.2241 15.0052C13.5396 15.0052 13.1759 14.9063 12.6142 14.6627L12.3939 14.559L12.1538 16.0198C12.5533 16.2019 13.292 16.3597 14.0589 16.3679C15.8566 16.3679 17.0236 15.493 17.037 14.1385C17.0433 13.3962 16.5877 12.8313 15.601 12.3655C15.0033 12.0637 14.6372 11.8622 14.6411 11.5566C14.6411 11.2854 14.9509 10.9953 15.6205 10.9953C16.1797 10.9863 16.5849 11.1131 16.9005 11.2453L17.0538 11.3206L17.2856 9.90633ZM21.6865 9.76556H20.365C19.9556 9.76556 19.6492 9.8818 19.4694 10.3067L16.9296 16.2867H18.7254C18.7254 16.2867 19.019 15.4826 19.0854 15.3061C19.2817 15.3061 21.0263 15.3089 21.2758 15.3089C21.3269 15.5373 21.4838 16.2867 21.4838 16.2867H23.0707L21.6865 9.76536V9.76556ZM19.5898 13.9792C19.7312 13.6033 20.2712 12.1551 20.2712 12.1551C20.2611 12.1725 20.4116 11.7773 20.4979 11.5323L20.6135 12.095C20.6135 12.095 20.941 13.6526 21.0094 13.9792H19.5898ZM7.94556 9.76556L6.2712 14.2156L6.09277 13.3112C5.78107 12.2688 4.80992 11.1394 3.72424 10.574L5.2552 16.2806L7.06469 16.2785L9.75713 9.7655H7.94556" fill="white"/>
<path d="M4.70899 9.76533H1.95127L1.92944 9.9011C4.07489 10.4412 5.49451 11.7465 6.08393 13.3148L5.48425 10.3161C5.38073 9.90293 5.0805 9.77963 4.70906 9.7652" fill="#F2AE14"/>
</g>
<defs>
<clipPath id="clip0_3596_510">
<rect width="25" height="26" fill="white"/>
</clipPath>
</defs>
</svg>
