<svg width="51" height="10" viewBox="0 0 51 10" fill="none" xmlns="http://www.w3.org/2000/svg">
<g clip-path="url(#clip0_3603_628)">
<rect width="50.5144" height="9.06668" rx="1" fill="#1677FF"/>
<mask id="mask0_3603_628" style="mask-type:luminance" maskUnits="userSpaceOnUse" x="0" y="0" width="51" height="10">
<path d="M50.5144 0H0V9.06668H50.5144V0Z" fill="white"/>
</mask>
<g mask="url(#mask0_3603_628)">
<mask id="mask1_3603_628" style="mask-type:luminance" maskUnits="userSpaceOnUse" x="0" y="0" width="51" height="10">
<path d="M50.5047 0H0V9.06668H50.5047V0Z" fill="white"/>
</mask>
<g mask="url(#mask1_3603_628)">
<path d="M11.3011 7.33123H11.7192V0.771518C11.7192 0.460513 11.4682 0.208618 11.1582 0.208618H10.7539V6.78223C10.7539 7.08551 10.9988 7.33123 11.3011 7.33123Z" fill="white"/>
<path d="M0.532472 5.77929C0.530162 7.08435 3.21248 7.61094 4.46046 6.80155C4.70805 6.63542 4.93793 6.44612 5.14856 6.23788C5.1062 6.20968 4.89327 6.05398 4.64875 5.89442C4.4697 5.77774 4.26869 5.66184 4.12931 5.57916C2.63528 7.30882 0.532472 6.85062 0.532472 5.77929Z" fill="url(#paint0_linear_3603_628)"/>
<path d="M7.30526 1.19495H4.90557V0.0656782C4.90557 0.029362 4.87592 0 4.83934 0C3.86515 0 3.65182 0.241078 3.65182 0.55556V1.19495H1.3742C1.23828 1.19495 1.17859 1.51098 1.17859 1.7339C1.17859 1.77099 1.20709 1.80151 1.24405 1.80151H3.65182V2.60086H2.05653C1.92022 2.60086 1.86053 2.92693 1.86091 3.14212C1.86091 3.17805 1.89018 3.20741 1.92637 3.20741H5.13083C5.06576 3.78113 4.90942 4.28995 4.69148 4.72999C5.08501 4.91621 5.47892 5.11595 5.89325 5.30023C6.37726 4.51943 6.673 3.62505 6.67877 2.73337C6.67916 2.66035 6.62063 2.60086 6.54824 2.60086H6.54168H4.90596V1.80151H7.17549C7.31142 1.80151 7.37111 1.49823 7.37111 1.26256C7.37111 1.22548 7.34261 1.19495 7.30564 1.19495H7.30526Z" fill="url(#paint1_linear_3603_628)"/>
<path d="M8.03576 7.53985C8.63722 7.53985 8.7951 6.78609 8.82283 6.19345C8.82821 6.07754 8.73811 5.9798 8.62221 5.97632C6.9757 5.92455 5.83284 5.2697 4.69153 4.72998C5.95105 5.81407 6.49129 7.53985 8.03576 7.53985Z" fill="url(#paint2_linear_3603_628)"/>
<path d="M0.532536 5.77931C0.532536 5.22066 1.14478 4.81771 1.88756 4.81771C2.63033 4.81771 3.40661 5.14841 4.12898 5.57919C4.47322 5.78433 4.81246 6.01228 5.14862 6.2379C6.10548 6.88116 7.03386 7.50627 7.96109 7.53833C6.47322 7.48385 5.93067 5.7967 4.69116 4.73C3.86714 4.34019 3.0435 4.01025 2.03157 4.01025C0.838657 4.01025 0 4.7895 0 5.77931C0 5.9269 0.119368 6.04666 0.266461 6.04666C0.413553 6.04666 0.532921 5.9269 0.532921 5.77931H0.532536Z" fill="white"/>
<path d="M1.88477e-05 5.7793C1.88477e-05 6.75674 0.85793 7.53986 2.03197 7.53986C2.95419 7.53986 3.77475 7.26053 4.459 6.80272C3.20833 7.60901 0.532555 7.08358 0.532555 5.77968C0.532555 5.6321 0.413187 5.51233 0.266094 5.51233C0.119002 5.51233 -0.000366211 5.6321 -0.000366211 5.77968L1.88477e-05 5.7793Z" fill="url(#paint3_linear_3603_628)"/>
<path d="M41.1908 9.0655H40.3856C40.207 9.0655 40.0864 8.88199 40.1569 8.71702L40.8076 7.19947C40.8216 7.16663 40.8219 7.12992 40.8085 7.09708L38.8516 2.37328C38.7815 2.20869 38.9017 2.02557 39.0803 2.02557H39.8804C40.0818 2.02557 40.2632 2.14727 40.3402 2.33387L41.5223 5.3288C41.5392 5.37207 41.6002 5.37246 41.6179 5.32957L42.857 2.32653C42.9358 2.14379 43.1153 2.02557 43.3137 2.02557H44.118C44.297 2.02557 44.4176 2.20947 44.3464 2.37444L41.6475 8.76454C41.5466 8.99905 41.4773 9.0779 41.1908 9.0655Z" fill="white"/>
<path d="M26.7096 8.81675V2.2752C26.7096 2.13766 26.8205 2.02639 26.9576 2.02639H27.8097C27.9468 2.02639 28.0577 2.13766 28.0577 2.2752V2.75774C28.0577 2.81106 28.1277 2.82844 28.1539 2.78208C28.4747 2.21415 29.1278 2.00592 29.7557 2.00592C31.063 2.00592 32.2776 3.1209 32.2776 4.74238C32.2776 6.36348 31.0734 7.45798 29.7662 7.45798C29.3072 7.45798 28.5321 7.3274 28.1486 6.80699C28.1197 6.76798 28.0577 6.78884 28.0577 6.83752V8.81675C28.0577 8.95429 27.9468 9.06555 27.8097 9.06555H26.9576C26.8205 9.06555 26.7096 8.95429 26.7096 8.81675ZM29.5193 6.28041C30.3426 6.28041 30.9602 5.69201 30.9602 4.74199C30.9602 3.79197 30.343 3.19315 29.5193 3.19315C28.7885 3.19315 28.0577 3.79197 28.0577 4.74199C28.0577 5.69201 28.7885 6.28041 29.5193 6.28041Z" fill="white"/>
<path d="M38.1062 7.33121H37.2479C37.1101 7.33121 36.9984 7.21917 36.9984 7.08086V6.6443C36.9984 6.59176 36.9302 6.57399 36.9032 6.6188C36.569 7.17359 35.9771 7.47068 35.2891 7.47068C33.9733 7.47068 32.7507 6.37463 32.7507 4.74272C32.7507 3.11082 33.9733 1.9881 35.2891 1.9881C35.9218 1.9881 36.579 2.19788 36.9021 2.77005C36.9282 2.81642 36.9987 2.79865 36.9987 2.74495V2.27631C36.9987 2.138 37.1104 2.02596 37.2482 2.02596H38.1065C38.2444 2.02596 38.3561 2.138 38.3561 2.27631V7.08086C38.3561 7.21917 38.2444 7.33121 38.1065 7.33121H38.1062ZM36.9987 4.74272C36.9987 3.78653 36.2632 3.18344 35.5274 3.18344C34.6984 3.18344 34.0769 3.78653 34.0769 4.74272C34.0769 5.69892 34.6984 6.29157 35.5274 6.29157C36.2629 6.29157 36.9987 5.69931 36.9987 4.74272Z" fill="white"/>
<path d="M22.9517 0.208618H22.0537C21.916 0.208618 21.8042 0.320703 21.8042 0.458967V7.0801C21.8042 7.21836 21.916 7.33045 22.0537 7.33045H22.9517C23.0895 7.33045 23.2013 7.21836 23.2013 7.0801V0.458967C23.2013 0.320703 23.0895 0.208618 22.9517 0.208618Z" fill="white"/>
<path d="M25.4047 2.02673H24.5067C24.3689 2.02673 24.2572 2.13882 24.2572 2.27708V7.08163C24.2572 7.2199 24.3689 7.33198 24.5067 7.33198H25.4047C25.5425 7.33198 25.6542 7.2199 25.6542 7.08163V2.27708C25.6542 2.13882 25.5425 2.02673 25.4047 2.02673Z" fill="white"/>
<path d="M25.4047 0.208618H24.5067C24.3689 0.208618 24.2572 0.320703 24.2572 0.458967V1.3603C24.2572 1.49857 24.3689 1.61065 24.5067 1.61065H25.4047C25.5425 1.61065 25.6542 1.49857 25.6542 1.3603V0.458967C25.6542 0.320703 25.5425 0.208618 25.4047 0.208618Z" fill="white"/>
<path opacity="0.7" d="M50.3102 2.02557H50.0064C49.9175 2.036 49.9017 2.03948 49.7846 2.06382C49.2302 2.17895 48.7862 2.47604 48.4812 3.326H49.9005C49.9937 3.326 50.0776 3.26998 50.1142 3.18421L50.4893 2.2964C50.5435 2.16813 50.4496 2.02557 50.3106 2.02557H50.3102Z" fill="white"/>
<path d="M49.7646 2.02714C48.3888 2.06886 47.1124 3.1004 46.8817 4.51904L46.8205 4.87023C46.7954 5.01279 46.9048 5.14298 47.0487 5.14298H47.8801C47.991 5.14298 48.0865 5.06418 48.1077 4.95484L48.2382 4.28299C48.3053 3.90361 48.3865 3.58835 48.4809 3.32563C48.7862 2.47569 49.2297 2.17859 49.7842 2.06345C49.9013 2.03912 49.9171 2.03525 50.006 2.02521C50.006 2.02521 49.7896 2.02637 49.7642 2.02714H49.7646Z" fill="white"/>
<path opacity="0.7" d="M45.2136 3.32563H45.5174C45.6063 3.31521 45.6221 3.31172 45.7391 3.28739C46.2936 3.17226 46.7376 2.87516 47.0426 2.02521H45.6233C45.5301 2.02521 45.4462 2.08123 45.4096 2.16699L45.0346 3.05481C44.9802 3.18308 45.0741 3.32563 45.2132 3.32563H45.2136Z" fill="white"/>
<path d="M45.7592 3.32367C47.135 3.28195 48.4115 2.25041 48.6421 0.831767L48.7034 0.480582C48.7283 0.338022 48.619 0.207825 48.475 0.207825H47.6436C47.5328 0.207825 47.4372 0.286639 47.4161 0.395974L47.2855 1.06782C47.2186 1.44721 47.1373 1.76246 47.043 2.02518C46.7376 2.87513 46.294 3.17223 45.7395 3.28736C45.6224 3.3117 45.6067 3.31556 45.5177 3.3256C45.5177 3.3256 45.7341 3.32444 45.7595 3.32367H45.7592Z" fill="white"/>
<path d="M17.0769 2.26085C17.1212 2.14958 17.2783 2.15035 17.3226 2.26162C17.6688 3.13205 19.244 7.07119 19.244 7.07119C19.296 7.2153 19.4284 7.33081 19.604 7.33081H20.5682C20.6937 7.33081 20.7828 7.20217 20.7353 7.08433C20.3002 6.00218 18.472 1.6512 17.9598 0.428427C17.904 0.294752 17.7731 0.208984 17.6287 0.208984H16.7693C16.6249 0.208984 16.4939 0.294752 16.4381 0.428427C15.9549 1.58088 14.0977 6.0045 13.6629 7.08588C13.6156 7.20332 13.7046 7.33081 13.8293 7.33081H14.7569C14.9291 7.33081 15.0896 7.24002 15.1543 7.07119L17.0765 2.26124L17.0769 2.26085Z" fill="white"/>
<path d="M21.5213 3.10311C21.4165 2.85933 21.2571 2.52978 21.1135 2.33931C21.0338 2.23384 20.9194 2.20602 20.7731 2.23616C18.9198 2.62018 17.5406 3.48481 16.9857 4.04695C16.1297 4.9139 16.1363 5.74801 16.6726 6.22785C16.4905 5.8697 16.7554 5.36978 17.5336 4.84126C18.9826 3.85726 21.36 3.39866 21.3649 3.39789C21.4982 3.37085 21.5752 3.22867 21.5217 3.10311H21.5213Z" fill="white"/>
<path opacity="0.7" d="M16.7058 5.66608C16.5995 5.87508 16.5902 6.06594 16.6726 6.22743C16.8956 6.43334 17.4978 6.74088 19.0951 6.69838L18.787 5.9284C18.0719 6.00528 17.0866 6.03155 16.7058 5.66608Z" fill="white"/>
</g>
</g>
</g>
<defs>
<linearGradient id="paint0_linear_3603_628" x1="2.10466" y1="7.28718" x2="3.35424" y2="5.13035" gradientUnits="userSpaceOnUse">
<stop offset="0.28" stop-color="white"/>
<stop offset="0.43" stop-color="white" stop-opacity="0.98"/>
<stop offset="0.61" stop-color="white" stop-opacity="0.91"/>
<stop offset="0.82" stop-color="white" stop-opacity="0.81"/>
<stop offset="1" stop-color="white" stop-opacity="0.7"/>
</linearGradient>
<linearGradient id="paint1_linear_3603_628" x1="3.67608" y1="4.9077" x2="4.5535" y2="-0.0515439" gradientUnits="userSpaceOnUse">
<stop stop-color="white" stop-opacity="0.7"/>
<stop offset="0.08" stop-color="white" stop-opacity="0.78"/>
<stop offset="0.19" stop-color="white" stop-opacity="0.88"/>
<stop offset="0.32" stop-color="white" stop-opacity="0.95"/>
<stop offset="0.45" stop-color="white" stop-opacity="0.99"/>
<stop offset="0.6" stop-color="white"/>
</linearGradient>
<linearGradient id="paint2_linear_3603_628" x1="4.69153" y1="6.13511" x2="8.82283" y2="6.13511" gradientUnits="userSpaceOnUse">
<stop offset="0.16" stop-color="white"/>
<stop offset="1" stop-color="white" stop-opacity="0.5"/>
</linearGradient>
<linearGradient id="paint3_linear_3603_628" x1="1.88478e-05" y1="6.52609" x2="4.45938" y2="6.52609" gradientUnits="userSpaceOnUse">
<stop offset="0.31" stop-color="white"/>
<stop offset="0.48" stop-color="white" stop-opacity="0.77"/>
<stop offset="0.98" stop-color="white" stop-opacity="0.65"/>
</linearGradient>
<clipPath id="clip0_3603_628">
<rect width="50.5144" height="9.06668" rx="1" fill="white"/>
</clipPath>
</defs>
</svg>
