<svg width="47" height="8" viewBox="0 0 47 8" fill="none" xmlns="http://www.w3.org/2000/svg">
<g clip-path="url(#clip0_3603_738)">
<path fill-rule="evenodd" clip-rule="evenodd" d="M27.4802 7.93333H25.9566V0H29.3962C30.4189 0 32.2822 0.848783 32.2822 2.77425C32.2822 4.69962 30.4299 5.5702 29.3962 5.5702H27.4802V7.93333ZM39.6901 7.93333H38.048L37.5413 6.40245H34.4287L33.8321 7.93333H32.1897L35.3228 0H36.553L39.6901 7.93333ZM43.264 7.93333H41.83V5.62131L38.616 0H40.4577L42.547 3.9979L44.6363 0H46.4779L43.264 5.62131V7.93333ZM37.0388 5.13921L35.9565 2.30309L34.8937 5.13921H37.0388ZM29.1856 4.2845C29.4752 4.2845 30.6898 3.99356 30.6898 2.76464C30.6898 1.53564 29.4577 1.3171 29.1856 1.3171H27.4606V4.2845H29.1856ZM9.78957 0.0292281C8.66137 4.60551 7.45634 6.69031 8.21088 6.8078C8.96543 6.92513 9.86468 6.01514 10.2957 5.34089C10.813 4.53211 11.0268 2.54059 11.6628 1.35251C12.1949 0.35842 13.537 -0.0729867 14.4437 0.0292281C13.3639 4.43231 12.1582 6.72789 13.0444 6.86334C14.157 7.03344 15.2977 6.24771 15.8147 5.44035C16.6808 4.08801 16.2678 3.62411 17.3023 1.37898C17.7556 0.549237 18.9634 -0.0903565 20.0703 0.0105221C19.9636 0.603435 18.3781 5.97071 18.3781 5.97071C18.3781 5.97071 18.1623 6.68379 18.5664 6.82359C19.3777 7.10418 21.9316 4.05193 22.7699 2.64589C23.3581 2.64756 23.8725 2.6514 24.0621 2.6514C21.9404 5.61087 20.0467 8.07555 17.7661 7.83187C16.0777 7.65149 16.1679 6.48087 16.1679 6.48087C16.1679 6.48087 14.9857 7.99321 12.7984 7.90636C10.6983 7.82285 10.5544 6.4984 10.5544 6.4984C10.5544 6.4984 9.18778 7.99071 7.57854 7.83187C5.79658 7.67062 5.93966 6.42784 5.93966 6.42784C5.93966 6.42784 4.6399 8.16883 2.25163 7.90636C1.65056 7.84039 -0.370932 7.49608 0.355593 5.01721C1.69331 0.454121 5.53364 -0.137873 9.78957 0.0292281ZM7.02899 0.945654C6.56143 2.93408 6.10597 4.50747 5.47652 5.474C4.64804 6.74626 3.47844 7.02559 2.8837 6.86334C2.06037 6.63895 2.69262 4.87583 3.11843 4.07932C3.63372 3.19062 4.44114 1.39535 7.02899 0.945654Z" fill="#EB560C"/>
</g>
<defs>
<clipPath id="clip0_3603_738">
<rect width="46.2778" height="7.93334" fill="white" transform="translate(0.200073)"/>
</clipPath>
</defs>
</svg>
