<svg width="22" height="24" viewBox="0 0 22 24" fill="none" xmlns="http://www.w3.org/2000/svg">
<g clip-path="url(#clip0_3603_732)">
<path fill-rule="evenodd" clip-rule="evenodd" d="M21.9692 5.11328C21.9692 3.75716 21.472 2.45657 20.5868 1.49765C19.7016 0.538719 18.5011 0 17.2493 0L4.71995 0C3.46814 0 2.26761 0.538719 1.38244 1.49765C0.497279 2.45657 0 3.75716 0 5.11328L0 18.6867C0 20.0429 0.497279 21.3434 1.38244 22.3024C2.26761 23.2613 3.46814 23.8 4.71995 23.8H17.2493C18.5011 23.8 19.7016 23.2613 20.5868 22.3024C21.472 21.3434 21.9692 20.0429 21.9692 18.6867V5.11328Z" fill="#CC0333"/>
<path d="M15.9621 19.0354C16.8152 19.0354 17.5068 18.2966 17.5068 17.3852C17.5068 16.4738 16.8152 15.735 15.9621 15.735C15.1089 15.735 14.4174 16.4738 14.4174 17.3852C14.4174 18.2966 15.1089 19.0354 15.9621 19.0354Z" fill="#EFE563"/>
<path d="M10.9846 19.0354C11.8378 19.0354 12.5294 18.2966 12.5294 17.3852C12.5294 16.4738 11.8378 15.735 10.9846 15.735C10.1315 15.735 9.43994 16.4738 9.43994 17.3852C9.43994 18.2966 10.1315 19.0354 10.9846 19.0354Z" fill="#EFE563"/>
<path d="M6.00723 19.0354C6.86035 19.0354 7.55193 18.2966 7.55193 17.3852C7.55193 16.4738 6.86035 15.735 6.00723 15.735C5.15411 15.735 4.46252 16.4738 4.46252 17.3852C4.46252 18.2966 5.15411 19.0354 6.00723 19.0354Z" fill="#EFE563"/>
<path fill-rule="evenodd" clip-rule="evenodd" d="M14.7605 7.39103C14.886 7.39103 15.3954 7.39312 15.5627 7.39312C15.4994 7.71219 15.0517 10.5178 15.5894 11.3678C16.0831 12.1482 17.2063 10.9448 17.2063 10.9448V11.9391C17.2063 11.9391 16.4228 12.7556 15.5015 12.4068C14.0029 11.8259 14.6694 8.06013 14.7605 7.39103ZM19.4805 11.9H18.6732C18.6732 10.0736 18.5794 9.15744 17.64 7.52105C18.0425 7.52105 18.3282 7.52848 18.5442 7.52848C19.3805 8.8491 19.5347 10.8576 19.4805 11.9ZM11.6736 6.91573C11.8769 6.96258 12.3276 7.05146 12.4582 7.08446C12.4197 7.57855 11.9585 9.8402 11.435 11.5861C12.048 11.5362 12.7584 11.2588 12.8077 11.2404C12.7383 10.9412 12.3186 9.87678 12.3186 9.87678C12.3186 9.87678 12.7164 9.65798 12.9327 9.54419C13.1809 9.88348 13.8821 12.0884 13.9339 12.3407C13.837 12.4018 13.2253 12.7498 13.2253 12.7498C13.2253 12.7498 13.1126 12.1014 13.0337 11.9813C12.8782 12.0481 11.6332 12.5035 10.3374 12.593C10.306 12.4762 10.2162 11.9368 10.1934 11.7576C10.2927 11.7629 10.4893 11.7507 10.5802 11.7365C10.9723 10.5812 11.5162 7.99695 11.6736 6.91573ZM10.1264 7.90236H10.77V8.64611H10.1264V9.5434C10.3487 9.50565 10.77 9.27081 10.77 9.27081V10.0406C10.77 10.0406 10.3408 10.2986 10.1264 10.3428V12.0395C10.1264 12.5022 9.7551 12.6093 9.60179 12.6581C9.44848 12.7068 9.01077 12.6902 9.01077 12.6902L8.75332 11.9C8.75332 11.9 9.10568 11.8914 9.1921 11.8914C9.29821 11.8914 9.39695 11.8268 9.39695 11.6211V10.6449C9.39695 10.6449 8.93521 10.8108 8.64377 10.8464C8.61408 10.6828 8.5123 10.1597 8.49149 10.0417C8.75332 10.0406 9.39695 9.82858 9.39695 9.82858V8.64611H8.62408V7.90236H9.39695V6.8797H10.1264V7.90236ZM5.83553 5.48517H7.12279V11.9C7.12279 11.9 5.96074 12.6042 5.7068 12.7478C5.36315 12.9421 5.02172 12.9513 4.63409 12.9513C3.9832 12.9513 2.2312 12.5497 2.2312 10.3195C2.2312 8.50665 3.6901 7.71642 4.54827 7.71642C5.36353 7.71642 5.83553 8.08829 5.83553 8.08829V5.48517ZM4.67699 9.06447C5.31136 9.06447 5.83553 9.57673 5.83553 10.3195C5.83553 11.0624 5.36851 11.6211 4.67699 11.6211C3.98548 11.6211 3.56137 11.0225 3.56137 10.3195C3.56137 9.61661 4.04263 9.06447 4.67699 9.06447Z" fill="white"/>
</g>
<defs>
<clipPath id="clip0_3603_732">
<rect width="21.9692" height="23.8" fill="white"/>
</clipPath>
</defs>
</svg>
