<svg width="40" height="40" viewBox="0 0 40 40" fill="none" xmlns="http://www.w3.org/2000/svg">
<g clip-path="url(#clip0_3603_719)">
<path fill-rule="evenodd" clip-rule="evenodd" d="M35.3916 22.9441C35.3916 22.9441 35.3906 20.7539 35.3945 20.3802C35.4054 19.3468 36.0488 18.2281 37.5301 18.2281C38.8378 18.2281 39.6668 19.0942 39.6668 20.5914C39.6668 21.1282 39.6588 22.9441 39.6588 22.9441H38.0079L37.9976 20.5914C37.9976 20.5914 38.0205 19.8935 37.5637 19.8877C37.1068 19.8817 37.0432 20.3657 37.0538 20.5914C37.0647 20.817 37.0628 22.9441 37.0628 22.9441H35.3916Z" fill="#FF678D"/>
<path fill-rule="evenodd" clip-rule="evenodd" d="M34.1242 18.2282H32.4779V22.9274H34.1242V18.2282ZM33.301 16.0059C33.8031 16.0059 34.2106 16.4136 34.2106 16.9154C34.2106 17.4175 33.8031 17.825 33.301 17.825C32.7992 17.825 32.3915 17.4175 32.3915 16.9154C32.3915 16.4136 32.7992 16.0059 33.301 16.0059Z" fill="#FF678D"/>
<path fill-rule="evenodd" clip-rule="evenodd" d="M28.9474 18.2282C30.2439 18.2282 31.2965 19.281 31.2965 20.5779C31.2965 21.8746 30.2439 22.9274 28.9474 22.9274C27.6509 22.9274 26.5983 21.8746 26.5983 20.5779C26.5983 19.281 27.6509 18.2282 28.9474 18.2282ZM28.9474 19.798C29.3778 19.798 29.7273 20.1475 29.7273 20.5779C29.7273 21.0083 29.3778 21.3578 28.9474 21.3578C28.517 21.3578 28.1675 21.0083 28.1675 20.5779C28.1675 20.1475 28.517 19.798 28.9474 19.798Z" fill="#FF678D"/>
<path fill-rule="evenodd" clip-rule="evenodd" d="M23.7294 19.8023C24.1622 19.8035 24.3464 20.0427 24.4538 20.1877C24.7145 20.0621 25.4787 19.6398 25.838 19.4253C25.5684 18.8382 24.733 18.2276 23.783 18.2282C22.5114 18.229 21.503 19.2838 21.489 20.5472C21.4751 21.8107 22.4 22.8987 23.7749 22.9299C25.0356 22.9587 25.8334 21.7628 25.8334 21.7628L24.4874 20.952C24.4874 20.952 24.1808 21.3605 23.7718 21.3578C23.3629 21.3549 23.0121 21.0173 23.0272 20.5779C23.0451 20.0613 23.4293 19.8015 23.7294 19.8023Z" fill="#FF678D"/>
<path fill-rule="evenodd" clip-rule="evenodd" d="M18.5702 16.0977L20.2274 16.0928C20.2274 16.0928 20.2187 19.3152 20.2187 19.8324C20.2187 20.5136 20.1748 21.4861 19.1668 22.5665C18.2815 23.5151 17.4032 23.61 17.4032 23.61L16.8103 22.087C18.0251 21.8524 18.5807 20.7686 18.5751 19.8419L18.5702 16.0977Z" fill="#FF678D"/>
<path fill-rule="evenodd" clip-rule="evenodd" d="M6.44785 13.3855C10.0065 13.3855 12.8957 16.2747 12.8957 19.8333C12.8957 23.392 10.0065 26.2812 6.44785 26.2812C2.88922 26.2812 0 23.392 0 19.8333C0 16.2747 2.88922 13.3855 6.44785 13.3855ZM6.2774 16.0796L7.93459 16.0748C7.93459 16.0748 7.92586 19.2971 7.92586 19.8143C7.92586 20.4956 7.88179 21.4682 6.8738 22.5484C5.9887 23.4972 5.11041 23.5919 5.11041 23.5919L4.5175 22.0689C5.73224 21.8344 6.28788 20.7505 6.28206 19.824L6.2774 16.0796Z" fill="#FF678D"/>
</g>
<defs>
<clipPath id="clip0_3603_719">
<rect width="39.6667" height="39.6667" fill="white"/>
</clipPath>
</defs>
</svg>
