<svg width="35" height="19" viewBox="0 0 35 19" fill="none" xmlns="http://www.w3.org/2000/svg">
<g clip-path="url(#clip0_3603_606)">
<path d="M34.756 0.666687H0.000366211V18.8H34.756V0.666687Z" fill="#D61D18"/>
<path d="M6.64978 5.97824C6.7415 6.09516 6.7415 6.18845 6.67286 6.32902C6.51211 6.66098 6.28657 6.95564 6.01018 7.1948C5.74727 7.43481 5.45535 7.63924 5.14157 7.80308C5.00491 7.87336 4.91318 7.84972 4.79899 7.73279L4.6848 7.59222C4.59307 7.47529 4.57061 7.31172 4.66171 7.24144C4.66171 7.24144 5.23329 6.86701 5.48477 6.63316C5.73624 6.3993 6.19301 5.76738 6.19301 5.76738C6.28411 5.6971 6.42139 5.72074 6.53558 5.83767L6.64978 5.97824Z" fill="white"/>
<path d="M6.64975 7.6159L6.53556 7.47533C6.49716 7.42218 6.44082 7.38555 6.37751 7.37256C6.31419 7.35957 6.24843 7.37115 6.19299 7.40505C6.19299 7.40505 5.73559 8.06061 5.46166 8.29447C5.21018 8.52576 4.61801 8.92639 4.61801 8.92639C4.5269 8.99603 4.54937 9.16024 4.6411 9.27717L4.75529 9.41774C4.84639 9.53466 4.93812 9.55767 5.09786 9.48738C5.23165 9.42578 5.36149 9.35557 5.48662 9.27717V11.6636C5.48639 11.7278 5.50976 11.7897 5.55207 11.8371C5.59438 11.8844 5.65255 11.9138 5.715 11.9192H5.9203C5.95191 11.9184 5.98304 11.9111 6.01182 11.8977C6.04061 11.8843 6.06647 11.8651 6.08784 11.8413C6.10922 11.8174 6.12568 11.7894 6.13624 11.7589C6.1468 11.7283 6.15124 11.696 6.14931 11.6636V8.69189C6.35539 8.47536 6.53211 8.23144 6.67471 7.96669C6.71839 7.82676 6.73961 7.73283 6.64975 7.6159Z" fill="white"/>
<path d="M11.2199 8.08362H8.43245C8.4113 8.08414 8.39027 8.08027 8.37063 8.07225C8.35098 8.06422 8.33312 8.0522 8.31814 8.03691C8.30315 8.02163 8.29135 8.00339 8.28343 7.98331C8.27551 7.96322 8.27165 7.9417 8.27208 7.92005V7.59227C8.27165 7.57061 8.27551 7.54909 8.28343 7.52901C8.29135 7.50892 8.30315 7.49069 8.31814 7.4754C8.33312 7.46012 8.35098 7.4481 8.37063 7.44007C8.39027 7.43204 8.4113 7.42818 8.43245 7.4287H8.88922C8.95511 7.42771 9.01804 7.40046 9.06464 7.35275C9.11124 7.30503 9.13785 7.24059 9.13882 7.17312V7.00763C9.13785 6.94016 9.11124 6.87572 9.06464 6.828C9.01804 6.78029 8.95511 6.75304 8.88922 6.75205H8.43245C8.4113 6.75257 8.39027 6.7487 8.37063 6.74068C8.35098 6.73265 8.33312 6.72063 8.31814 6.70535C8.30315 6.69006 8.29135 6.67182 8.28343 6.65174C8.27551 6.63165 8.27165 6.61014 8.27208 6.58848V6.02493C8.27111 5.95745 8.24451 5.89302 8.1979 5.8453C8.1513 5.79758 8.08838 5.77034 8.02248 5.76935H7.86274C7.79684 5.77034 7.73391 5.79758 7.68731 5.8453C7.64071 5.89302 7.6141 5.95745 7.61314 6.02493V6.58656C7.61365 6.60819 7.60987 6.62969 7.60202 6.64978C7.59417 6.66986 7.58243 6.6881 7.56749 6.7034C7.55255 6.71869 7.53474 6.73072 7.51512 6.73875C7.49551 6.74679 7.47451 6.75066 7.45339 6.75013H6.97353C6.90764 6.75112 6.84471 6.77837 6.79811 6.82609C6.75151 6.8738 6.7249 6.93824 6.72393 7.00571V7.16928C6.7249 7.23676 6.75151 7.30119 6.79811 7.34891C6.84471 7.39663 6.90764 7.42387 6.97353 7.42486H7.45339C7.47451 7.42434 7.49551 7.42821 7.51512 7.43624C7.53474 7.44428 7.55255 7.45631 7.56749 7.4716C7.58243 7.4869 7.59417 7.50514 7.60202 7.52522C7.60987 7.54531 7.61365 7.56681 7.61314 7.58844V7.91622C7.61365 7.93784 7.60987 7.95935 7.60202 7.97943C7.59417 7.99951 7.58243 8.01775 7.56749 8.03305C7.55255 8.04834 7.53474 8.06037 7.51512 8.06841C7.49551 8.07644 7.47451 8.08031 7.45339 8.07979H6.97353C6.90764 8.08078 6.84471 8.10802 6.79811 8.15574C6.75151 8.20346 6.7249 8.26789 6.72393 8.33537V8.49894C6.7249 8.56641 6.75151 8.63085 6.79811 8.67856C6.84471 8.72628 6.90764 8.75353 6.97353 8.75452H7.45339C7.47454 8.75408 7.49555 8.75803 7.51517 8.76614C7.53479 8.77424 7.55259 8.78633 7.56752 8.80168C7.58245 8.81702 7.59419 8.83531 7.60203 8.85542C7.60987 8.87554 7.61364 8.89707 7.61314 8.91873V9.22862C7.61365 9.25024 7.60987 9.27175 7.60202 9.29183C7.59417 9.31191 7.58243 9.33015 7.56749 9.34545C7.55255 9.36074 7.53474 9.37277 7.51512 9.38081C7.49551 9.38884 7.47451 9.39271 7.45339 9.39219H6.97353C6.90764 9.39318 6.84471 9.42042 6.79811 9.46814C6.75151 9.51586 6.7249 9.58029 6.72393 9.64777V9.81134C6.7249 9.87881 6.75151 9.94325 6.79811 9.99096C6.84471 10.0387 6.90764 10.0659 6.97353 10.0669H7.45339C7.47451 10.0664 7.49551 10.0703 7.51512 10.0783C7.53474 10.0863 7.55255 10.0984 7.56749 10.1137C7.58243 10.129 7.59417 10.1472 7.60202 10.1673C7.60987 10.1874 7.61365 10.2089 7.61314 10.2305V10.7921C7.61277 10.8282 7.60163 10.8632 7.58121 10.8926C7.5608 10.9219 7.53208 10.9442 7.49894 10.9563C7.08773 11.0496 6.65342 11.1429 6.65342 11.1429C6.58675 11.1616 6.53005 11.2066 6.49577 11.2681C6.46148 11.3295 6.45243 11.4024 6.47059 11.4707L6.51677 11.6579C6.56232 11.7985 6.63096 11.8688 6.83625 11.8688C7.04155 11.8688 7.31611 11.8451 7.93325 11.6815C8.3489 11.5712 8.74311 11.3891 9.09888 11.1429C9.25863 11.0496 9.32727 10.9563 9.28109 10.8158L9.23554 10.6286C9.21486 10.5606 9.17154 10.5023 9.11315 10.4638C9.05475 10.4252 8.98499 10.4089 8.91605 10.4177L8.50421 10.6286C8.48169 10.639 8.45694 10.6434 8.43231 10.6413C8.40767 10.6392 8.38395 10.6308 8.36341 10.6167C8.34286 10.6026 8.32615 10.5834 8.31486 10.5609C8.30358 10.5384 8.29809 10.5133 8.29891 10.488V10.2541C8.2984 10.2325 8.30218 10.211 8.31003 10.1909C8.31787 10.1708 8.32962 10.1526 8.34456 10.1373C8.35949 10.122 8.37731 10.11 8.39692 10.1019C8.41654 10.0939 8.43754 10.09 8.45866 10.0906H8.91605C8.98195 10.0896 9.04487 10.0623 9.09147 10.0146C9.13807 9.96689 9.16468 9.90245 9.16565 9.83498V9.62413C9.16468 9.55665 9.13807 9.49222 9.09147 9.4445C9.04487 9.39678 8.98195 9.36954 8.91605 9.36855H8.45866C8.43754 9.36907 8.41654 9.3652 8.39692 9.35717C8.37731 9.34913 8.35949 9.3371 8.34456 9.32181C8.32962 9.30651 8.31787 9.28827 8.31003 9.26819C8.30218 9.24811 8.2984 9.2266 8.29891 9.20498V8.92448C8.2984 8.90282 8.30218 8.88129 8.31002 8.86117C8.31786 8.84106 8.3296 8.82277 8.34453 8.80743C8.35945 8.79208 8.37726 8.77999 8.39688 8.77189C8.41649 8.76378 8.43751 8.75983 8.45866 8.76027H9.52882C9.55002 8.75974 9.5711 8.76363 9.59079 8.7717C9.61048 8.77976 9.62836 8.79184 9.64336 8.80719C9.65835 8.82255 9.67015 8.84086 9.67802 8.86102C9.6859 8.88118 9.6897 8.90277 9.68919 8.92448V11.6617C9.68896 11.7259 9.71232 11.7878 9.75464 11.8352C9.79695 11.8825 9.85512 11.9119 9.91757 11.9173H10.1229C10.1545 11.9165 10.1856 11.9092 10.2144 11.8958C10.2432 11.8824 10.269 11.8632 10.2904 11.8394C10.3118 11.8155 10.3282 11.7875 10.3388 11.757C10.3494 11.7264 10.3538 11.694 10.3519 11.6617V8.92639C10.3513 8.90472 10.355 8.88314 10.3628 8.86298C10.3706 8.84283 10.3823 8.82451 10.3973 8.80914C10.4122 8.79378 10.4301 8.78169 10.4497 8.77362C10.4694 8.76555 10.4904 8.76165 10.5116 8.76218H11.2429C11.3088 8.76103 11.3716 8.73374 11.4182 8.68605C11.4648 8.63837 11.4914 8.57403 11.4925 8.5066V8.34303C11.4875 8.27252 11.4566 8.20657 11.406 8.15845C11.3554 8.11033 11.2889 8.08359 11.2199 8.08362Z" fill="white"/>
<path d="M10.0318 5.72076H9.94011C9.55198 5.74377 9.3236 6.09519 9.36915 6.51626C9.43779 6.91368 9.89456 7.73026 9.89456 7.73026C9.91765 7.7769 9.94011 7.7769 9.98629 7.7769C10.0206 7.77123 10.0524 7.75496 10.0774 7.73026C10.0774 7.73026 10.5348 6.91113 10.6028 6.51626C10.6708 6.12139 10.4212 5.74377 10.0318 5.72076ZM10.0088 6.67919C9.95001 6.67919 9.89258 6.66135 9.84373 6.62793C9.79489 6.59451 9.75682 6.54701 9.73434 6.49144C9.71186 6.43586 9.70598 6.37471 9.71744 6.31571C9.7289 6.25672 9.75719 6.20252 9.79872 6.15999C9.84026 6.11745 9.89319 6.08849 9.95081 6.07675C10.0084 6.06502 10.0681 6.07104 10.1224 6.09406C10.1767 6.11708 10.2231 6.15606 10.2557 6.20608C10.2884 6.25609 10.3058 6.31489 10.3058 6.37505C10.2833 6.53926 10.1716 6.67983 10.0088 6.67983V6.67919Z" fill="white"/>
<path d="M10.3975 4.26971H5.62139C5.07605 4.2714 4.55356 4.49419 4.16824 4.88935C3.78292 5.2845 3.56613 5.81984 3.56531 6.37824V11.2687C3.56531 11.8274 3.78183 12.3632 4.16733 12.7586C4.55283 13.1539 5.0758 13.3764 5.62139 13.3773H10.3975C10.9434 13.3764 11.4667 13.154 11.8527 12.7588C12.2387 12.3635 12.4559 11.8277 12.4567 11.2687V6.37569C12.4767 5.20322 11.54 4.26971 10.3975 4.26971ZM11.9282 11.2662C11.9282 11.6819 11.7669 12.0805 11.4798 12.3745C11.1928 12.6684 10.8035 12.8335 10.3975 12.8335H5.62139C5.21543 12.8335 4.8261 12.6684 4.53904 12.3745C4.25198 12.0805 4.09072 11.6819 4.09072 11.2662V6.37569C4.09072 5.96 4.25198 5.56134 4.53904 5.26741C4.8261 4.97348 5.21543 4.80835 5.62139 4.80835H10.3975C10.8035 4.80835 11.1928 4.97348 11.4798 5.26741C11.7669 5.56134 11.9282 5.96 11.9282 6.37569V11.2662Z" fill="white"/>
<path d="M18.1207 6.28241H14.1652C13.6853 6.28241 13.4569 6.51626 13.4569 7.00762V11.033C13.4569 11.5243 13.6853 11.7588 14.1652 11.7588H18.1182C18.5981 11.7588 18.8264 11.5243 18.8264 11.033V7.00762C18.8289 6.53927 18.5781 6.28241 18.1207 6.28241ZM18.0751 10.7749C18.0767 10.844 18.0521 10.9111 18.0065 10.9621C17.9567 11.0087 17.8911 11.0337 17.8237 11.0317H14.4191C14.3855 11.0351 14.3516 11.0308 14.3198 11.0191C14.2881 11.0075 14.2592 10.9888 14.2353 10.9643C14.2114 10.9399 14.1932 10.9103 14.1818 10.8778C14.1704 10.8453 14.1662 10.8105 14.1695 10.7761V7.26511C14.1677 7.19594 14.1924 7.12878 14.2382 7.0779C14.2614 7.05274 14.29 7.03333 14.3217 7.02115C14.3533 7.00897 14.3873 7.00434 14.421 7.00762H17.8255C17.8591 7.00424 17.893 7.00853 17.9248 7.02018C17.9566 7.03183 17.9855 7.05055 18.0093 7.07499C18.0332 7.09943 18.0515 7.12899 18.0629 7.16153C18.0742 7.19408 18.0784 7.2288 18.0751 7.2632V10.7749Z" fill="white"/>
<path d="M14.3049 15.852C14.2132 15.9452 14.0553 15.9925 13.8681 15.9925C13.6397 15.9925 13.4569 15.8986 13.2965 15.6884C13.2767 15.6707 13.2605 15.6492 13.2488 15.6251C13.2371 15.6009 13.2302 15.5747 13.2285 15.5478C13.2285 15.5012 13.2285 15.4775 13.2741 15.4539C13.2849 15.4397 13.2987 15.4281 13.3145 15.42C13.3302 15.412 13.3476 15.4076 13.3652 15.4072C13.4113 15.4072 13.4338 15.4309 13.4794 15.4539C13.5711 15.5478 13.6166 15.6181 13.6622 15.6411C13.7237 15.7016 13.8059 15.7353 13.8912 15.735C13.9796 15.7399 14.0672 15.7152 14.1408 15.6647C14.187 15.6181 14.2094 15.5242 14.2094 15.4092V14.5887C14.2098 14.5706 14.214 14.5528 14.2219 14.5366C14.2298 14.5203 14.2411 14.5061 14.255 14.4948C14.2802 14.4701 14.3122 14.4538 14.3467 14.4482C14.3644 14.4484 14.3817 14.4527 14.3975 14.4608C14.4133 14.4689 14.4271 14.4805 14.4378 14.4948C14.4621 14.5206 14.4782 14.5534 14.484 14.5887V15.4072C14.4712 15.571 14.4085 15.7265 14.3049 15.852Z" fill="white"/>
<path d="M16.5439 15.9452C16.519 15.9702 16.4872 15.9867 16.4528 15.9925C16.4293 15.993 16.406 15.9867 16.3858 15.9742C16.3656 15.9618 16.3492 15.9438 16.3386 15.9222L15.8357 15.197L15.5861 15.3842V15.8283C15.5859 15.8464 15.5817 15.8643 15.5738 15.8806C15.5659 15.8968 15.5545 15.9111 15.5405 15.9222C15.5154 15.9467 15.4836 15.9629 15.4494 15.9688C15.4033 15.9688 15.3808 15.9452 15.3352 15.9222C15.3212 15.9111 15.3097 15.8969 15.3017 15.8806C15.2937 15.8644 15.2894 15.8465 15.2891 15.8283V14.5651C15.2891 14.5184 15.2891 14.4948 15.3352 14.4711C15.3461 14.4569 15.3599 14.4454 15.3757 14.4373C15.3914 14.4292 15.4087 14.4249 15.4263 14.4245C15.4719 14.4245 15.495 14.4481 15.5405 14.4711C15.5647 14.497 15.5806 14.5298 15.5861 14.5651V15.0328L16.3174 14.4711C16.3405 14.4481 16.363 14.4481 16.4091 14.4481C16.4268 14.4484 16.4442 14.4527 16.4599 14.4607C16.4757 14.4688 16.4895 14.4805 16.5002 14.4948C16.5244 14.5206 16.5403 14.5534 16.5458 14.5887C16.5458 14.6354 16.5233 14.6584 16.5002 14.7056L16.0634 15.0328L16.5664 15.758C16.5751 15.7672 16.5817 15.7783 16.5857 15.7905C16.5897 15.8026 16.591 15.8155 16.5895 15.8283C16.5901 15.8736 16.567 15.8986 16.5439 15.9452Z" fill="white"/>
<path d="M18.2835 15.758C18.1694 15.8986 17.9865 15.9689 17.7581 15.9689C17.661 15.9739 17.5639 15.9576 17.4733 15.9213C17.3827 15.8849 17.3007 15.8293 17.2327 15.758C17.1083 15.5994 17.0434 15.4004 17.0499 15.197C17.0433 15.0004 17.1085 14.8084 17.2327 14.6584C17.3009 14.5874 17.383 14.532 17.4735 14.4958C17.564 14.4596 17.661 14.4434 17.7581 14.4482C17.8519 14.4433 17.9456 14.4596 18.0325 14.4959C18.1194 14.5322 18.1975 14.5877 18.2611 14.6584C18.3818 14.8104 18.4465 15.0011 18.4439 15.197C18.4562 15.2968 18.4483 15.3981 18.4207 15.4946C18.3931 15.5911 18.3464 15.6808 18.2835 15.758ZM18.0963 14.8456C18.059 14.7948 18.0107 14.7536 17.9551 14.7252C17.8996 14.6968 17.8383 14.682 17.7762 14.682C17.7141 14.682 17.6529 14.6968 17.5974 14.7252C17.5418 14.7536 17.4935 14.7948 17.4561 14.8456C17.3779 14.9537 17.3377 15.0856 17.3419 15.22C17.3411 15.3469 17.3813 15.4704 17.4561 15.5715C17.4975 15.6157 17.5472 15.6509 17.6022 15.675C17.6572 15.6991 17.7164 15.7115 17.7762 15.7115C17.8361 15.7115 17.8953 15.6991 17.9503 15.675C18.0053 15.6509 18.055 15.6157 18.0963 15.5715C18.1634 15.4677 18.1954 15.3442 18.1875 15.22C18.1873 15.0895 18.156 14.961 18.0963 14.8456Z" fill="white"/>
<path d="M20.246 15.2903C20.2059 15.3361 20.1564 15.3724 20.1011 15.3967C20.0458 15.421 19.9861 15.4326 19.9259 15.4309H19.3319V15.8519C19.3319 15.9452 19.2863 15.9689 19.1946 15.9689C19.1029 15.9689 19.0579 15.9222 19.0579 15.8519V14.7056C19.0571 14.6749 19.0627 14.6443 19.0745 14.6159C19.0862 14.5876 19.1038 14.5622 19.126 14.5414C19.1477 14.522 19.1733 14.5077 19.201 14.4997C19.2288 14.4916 19.2579 14.4899 19.2863 14.4948H19.9259C19.9857 14.4953 20.0448 14.508 20.0998 14.5322C20.1547 14.5563 20.2044 14.5914 20.246 14.6354C20.3199 14.7277 20.3603 14.8434 20.3603 14.9628C20.3603 15.0822 20.3199 15.1979 20.246 15.2903ZM20.0401 14.7989C20.023 14.7784 20.002 14.7616 19.9784 14.7496C19.9549 14.7375 19.9292 14.7304 19.9028 14.7287H19.4005C19.355 14.7287 19.3319 14.7523 19.3319 14.8226V15.1708H19.906C19.9327 15.1715 19.9593 15.1655 19.9832 15.1533C20.0071 15.141 20.0278 15.1229 20.0432 15.1005C20.0623 15.0785 20.0762 15.0523 20.0841 15.024C20.092 14.9957 20.0936 14.966 20.0888 14.9369C20.0911 14.9117 20.0879 14.8862 20.0795 14.8624C20.0711 14.8385 20.0576 14.8169 20.0401 14.7989Z" fill="white"/>
<path d="M22.1879 15.9222C22.1424 15.9452 22.1199 15.9688 22.0737 15.9688C22.0472 15.9688 22.0215 15.9596 22.0007 15.9426C21.98 15.9257 21.9655 15.902 21.9596 15.8755L21.8454 15.6411H21.0916L20.9774 15.8736C20.9675 15.8978 20.9517 15.919 20.9317 15.9354C20.9116 15.9517 20.8878 15.9625 20.8626 15.9669C20.817 15.9669 20.7945 15.9433 20.7484 15.9203C20.7022 15.8973 20.7028 15.85 20.7028 15.8033C20.7012 15.7906 20.7025 15.7777 20.7065 15.7655C20.7105 15.7533 20.7171 15.7422 20.7259 15.7331L21.3412 14.4948C21.3532 14.4676 21.3724 14.4444 21.3967 14.4279C21.421 14.4114 21.4493 14.4022 21.4785 14.4015C21.5111 14.4 21.5434 14.4079 21.5718 14.4244C21.6002 14.4409 21.6234 14.4653 21.6388 14.4948L22.2553 15.735C22.2641 15.7441 22.2708 15.7552 22.2748 15.7674C22.2788 15.7796 22.28 15.7925 22.2784 15.8053C22.2529 15.8478 22.2226 15.8871 22.1879 15.9222ZM21.4572 14.8226L21.1827 15.4072H21.7312L21.4572 14.8226Z" fill="white"/>
<path d="M23.8996 14.6597L23.3511 15.3855V15.8296C23.3464 15.8652 23.3304 15.8982 23.3056 15.9236C23.2808 15.9489 23.2486 15.9653 23.2138 15.9701C23.1962 15.9698 23.1789 15.9654 23.1631 15.9574C23.1474 15.9493 23.1336 15.9377 23.1227 15.9235C23.0986 15.8977 23.0827 15.8649 23.0772 15.8296V15.3855L22.5312 14.6597C22.5224 14.6506 22.5158 14.6396 22.5118 14.6276C22.5078 14.6155 22.5065 14.6027 22.5081 14.59C22.5084 14.5719 22.5127 14.5541 22.5206 14.5378C22.5284 14.5216 22.5397 14.5073 22.5536 14.4961C22.5849 14.4668 22.6255 14.4503 22.6678 14.4495C22.6856 14.4497 22.703 14.454 22.7189 14.462C22.7348 14.4701 22.7487 14.4818 22.7596 14.4961L23.2163 15.151L23.6737 14.4961C23.6826 14.4799 23.6961 14.4668 23.7123 14.4585C23.7285 14.4502 23.7468 14.4471 23.7648 14.4495C23.8104 14.4495 23.8335 14.4725 23.879 14.4961C23.893 14.5072 23.9044 14.5215 23.9123 14.5377C23.9201 14.554 23.9244 14.5719 23.9246 14.59C23.9246 14.6117 23.8996 14.6354 23.8996 14.6597Z" fill="white"/>
<path d="M31.6485 6.84402C31.603 6.79674 31.5112 6.77374 31.3989 6.77374H30.8735V5.86068C30.8735 5.65046 30.7362 5.53354 30.5078 5.53354C30.2582 5.55654 30.1422 5.65046 30.1422 5.86068V6.77374H27.9925C27.8783 6.77374 27.7866 6.79674 27.7429 6.84402C27.6742 6.89066 27.6512 7.00759 27.6512 7.14816C27.6512 7.28873 27.6742 7.38202 27.7429 7.42866C27.8139 7.48676 27.9016 7.51952 27.9925 7.52194H30.1397V10.8681C30.1397 10.9384 30.1166 10.962 30.0479 10.962C29.9337 10.962 28.6545 11.0553 27.1688 11.0087V7.23889C27.318 6.88249 27.4403 6.51486 27.5345 6.13926C27.5576 6.04533 27.5576 5.95205 27.5806 5.85812C27.5806 5.71819 27.5345 5.62427 27.4434 5.57762C27.3506 5.53044 27.248 5.50718 27.1445 5.5099C27.0913 5.52049 27.0419 5.54571 27.0017 5.58286C26.9615 5.62001 26.9319 5.66768 26.9161 5.72075C26.6589 6.65282 26.2742 7.54297 25.7735 8.36472C25.7274 8.458 25.6818 8.52829 25.6818 8.59857C25.6818 8.7155 25.7049 8.80943 25.796 8.85415C25.8859 8.93056 25.9993 8.97197 26.1161 8.97108C26.1786 8.97334 26.2406 8.95955 26.2965 8.93098C26.3524 8.90241 26.4004 8.85996 26.4362 8.80751C26.4362 8.78387 26.4587 8.78387 26.4587 8.76023V10.9601C25.2937 10.9128 24.0825 10.7493 23.2825 10.4451C23.3379 10.4179 23.3913 10.3865 23.4423 10.3512C23.9683 10.0004 24.3783 9.64837 24.6996 9.25158C24.9047 8.94744 25.0189 8.69016 25.0422 8.47973C25.0422 8.26888 24.9736 8.12895 24.8138 8.03246C24.7221 7.98582 24.5642 7.96218 24.334 7.93918H22.8969V7.03059H25.25C25.3642 7.03059 25.4559 7.00759 25.5246 6.91367C25.5742 6.84673 25.5986 6.76368 25.5932 6.67981C25.5932 6.53924 25.5701 6.44596 25.5015 6.42423C25.4326 6.36224 25.3435 6.32896 25.2519 6.33094L22.8507 6.35331V5.76739C22.8534 5.7185 22.8444 5.66968 22.8245 5.62515C22.8046 5.58062 22.7744 5.54172 22.7365 5.51181C22.691 5.46517 22.5999 5.44153 22.4626 5.44153C22.3253 5.44153 22.213 5.46517 22.1656 5.51181C22.0969 5.60574 22.0514 5.67602 22.0514 5.76739V6.35331H19.8118C19.6976 6.35331 19.6059 6.37631 19.5622 6.44659C19.5055 6.51935 19.4735 6.60909 19.4711 6.70217C19.4711 6.84274 19.4936 6.91239 19.5622 6.95775C19.6333 7.01585 19.7209 7.04861 19.8118 7.05104H22.0514V7.96346H20.0177C19.9357 7.95808 19.8544 7.98302 19.7887 8.03374C19.7561 8.06685 19.731 8.10693 19.7153 8.15111C19.6995 8.19529 19.6935 8.24248 19.6976 8.28932C19.6931 8.37986 19.7172 8.46948 19.7663 8.5449C19.7887 8.61519 19.8805 8.63819 20.0159 8.63819H20.3129C20.2802 8.67124 20.255 8.71129 20.2391 8.75547C20.2233 8.79965 20.2171 8.84688 20.2212 8.89377C20.2212 9.01069 20.3129 9.14935 20.4957 9.34103C20.9069 9.80874 21.2951 10.1832 21.6813 10.4407C21.1097 10.6509 20.4015 10.8879 19.5335 11.1192C19.4418 11.1659 19.3962 11.2828 19.3962 11.447C19.3963 11.4866 19.4045 11.5257 19.4202 11.5619C19.4358 11.5981 19.4587 11.6306 19.4873 11.6572C19.5231 11.6946 19.5658 11.7243 19.613 11.7444C19.6602 11.7645 19.7108 11.7746 19.7619 11.7741C20.0578 11.7431 20.35 11.6823 20.6343 11.5927C21.3207 11.3588 21.9141 11.1454 22.417 10.9141C24.7932 12.084 29.7977 11.7569 30.0486 11.7569C30.2592 11.748 30.4641 11.6835 30.6432 11.5697C30.7067 11.5202 30.7583 11.4565 30.7939 11.3833C30.8295 11.3102 30.8482 11.2297 30.8485 11.148V7.52194H31.3739C31.5112 7.52194 31.603 7.49894 31.671 7.40502C31.7039 7.32415 31.7196 7.23702 31.7171 7.14944C31.7396 6.98395 31.7171 6.86447 31.6485 6.84402ZM22.4645 10.0726C22.4414 10.049 22.3958 10.049 22.3727 10.026C21.8473 9.67456 21.413 9.30078 21.0704 8.85607C21.0045 8.79052 20.9434 8.72004 20.8876 8.64522L20.8645 8.62221H23.9933C24.0619 8.62221 24.1074 8.64522 24.1074 8.66886C24.085 8.80943 23.9246 9.01964 23.6738 9.2535C23.3294 9.56356 22.9449 9.82351 22.5312 10.026C22.5081 10.049 22.485 10.0726 22.4645 10.0726Z" fill="white"/>
<path d="M28.7918 10.0023C28.839 10.035 28.8952 10.0514 28.9522 10.049C29.0016 10.0534 29.0515 10.0475 29.0986 10.0314C29.1457 10.0154 29.1891 9.98959 29.2261 9.95569C29.2505 9.93173 29.2693 9.90248 29.2812 9.87008C29.2931 9.83767 29.2977 9.80296 29.2947 9.76848C29.2947 9.55763 29.2261 9.32122 29.0888 9.01963C28.8392 8.52828 28.652 8.2005 28.5179 8.06121C28.4261 8.01393 28.3581 7.96729 28.2683 7.96729C28.1996 7.96729 28.131 7.99093 28.0854 7.99093C28.0227 8.02516 27.9682 8.07316 27.9257 8.13149C27.9069 8.17548 27.8989 8.22355 27.9026 8.27142C27.9071 8.33606 27.9225 8.3994 27.9482 8.45864C28.2914 9.1142 28.5428 9.58191 28.7026 9.90969C28.7202 9.95077 28.7519 9.98376 28.7918 10.0023Z" fill="white"/>
</g>
<defs>
<clipPath id="clip0_3603_606">
<rect width="34.7556" height="18.1334" fill="white" transform="translate(0.000366211 0.666687)"/>
</clipPath>
</defs>
</svg>
