<svg width="40" height="17" viewBox="0 0 40 17" fill="none" xmlns="http://www.w3.org/2000/svg">
<g clip-path="url(#clip0_3603_714)">
<path fill-rule="evenodd" clip-rule="evenodd" d="M20.4237 12.534H18.9777V3.24146H22.6288C24.1821 3.24146 25.4432 4.52727 25.4432 6.1111C25.4432 7.69485 24.1821 8.98067 22.6288 8.98067H20.4229L20.4237 12.534V12.534ZM22.4063 7.58264V7.58233C22.417 7.58256 22.4278 7.58264 22.4386 7.58264C23.2572 7.58264 23.9219 6.91409 23.9219 6.09048C23.9219 5.26695 23.2572 4.59832 22.4386 4.59832C22.4278 4.59832 22.417 4.59848 22.4063 4.59871V4.59832H20.4229V7.58264H22.4063ZM32.1577 12.5519H30.686C30.686 12.5519 30.6917 12.0185 30.6917 11.5823C30.4809 11.903 30.0071 12.5837 28.714 12.5837C27.0406 12.5837 25.7612 11.1997 25.7612 9.36315C25.7612 7.98574 26.6603 6.16222 29.0183 6.16222C31.3763 6.16222 32.1577 7.98574 32.1577 9.36315V12.5518V12.5519ZM28.9954 7.47333C29.94 7.47333 30.686 8.19822 30.686 9.36308C30.686 10.4189 29.9108 11.312 28.9663 11.312C28.0217 11.312 27.2631 10.6339 27.2631 9.36308C27.2631 8.30729 28.0508 7.47333 28.9954 7.47333ZM32.7911 6.26777L34.4548 6.26624L36.0597 10.2654L37.6619 6.26731L39.211 6.26616L35.4078 15.1024H33.9625L35.3286 11.9517L32.7911 6.26777Z" fill="#222222"/>
<path fill-rule="evenodd" clip-rule="evenodd" d="M0.936522 12.892C0.734861 12.7899 0.565324 12.6334 0.446851 12.4399C0.328377 12.2463 0.265632 12.0234 0.265625 11.796L0.265625 4.65955C0.265625 4.19681 0.524095 3.77347 0.933935 3.56482C2.96406 2.53159 4.99417 1.49831 7.02426 0.464997C7.19305 0.37911 7.37937 0.334027 7.56845 0.333321C7.75754 0.332616 7.94418 0.376309 8.11359 0.460934L14.2885 3.54612C14.492 3.64781 14.6633 3.80488 14.7828 3.99955C14.9024 4.19423 14.9655 4.41873 14.965 4.64767L14.9489 11.7984C14.9484 12.0252 14.8855 12.2474 14.7672 12.4404C14.6488 12.6333 14.4797 12.7894 14.2786 12.8913L8.15786 15.9926C7.98833 16.0785 7.80121 16.1233 7.61145 16.1233C7.42168 16.1234 7.23454 16.0787 7.06496 15.9929L0.936522 12.892Z" fill="#FF0211"/>
<path fill-rule="evenodd" clip-rule="evenodd" d="M2.31933 10.7939L1.65894 10.4647V8.49092C1.65894 8.24272 1.81761 7.33449 2.69966 7.50205C3.50086 7.67988 3.79835 8.27262 3.86186 8.45558C4.24074 8.13442 4.65986 8.17397 5.20145 8.50794C6.04007 9.03146 6.12275 9.87423 6.12275 10.1817C6.12275 10.3334 6.1283 12.7303 6.1283 12.7303L5.45817 12.3894C5.45817 12.3894 5.43801 10.1446 5.43801 10.1038C5.43801 10.063 5.38446 9.40367 4.83185 9.16452C4.19594 8.88935 4.1694 9.46423 4.1694 9.4965L4.16932 11.7327L3.5001 11.4003C3.5001 11.4003 3.5055 9.30487 3.5055 9.23535C3.5055 9.1659 3.45522 8.53706 2.92375 8.28396C2.33166 8.00212 2.31933 8.67641 2.31933 8.72639V10.7939Z" fill="white"/>
<path d="M12.6642 8.03779C14.4707 8.03779 15.9351 6.5646 15.9351 4.74732C15.9351 2.93004 14.4707 1.45685 12.6642 1.45685C10.8578 1.45685 9.39343 2.93004 9.39343 4.74732C9.39343 6.5646 10.8578 8.03779 12.6642 8.03779Z" fill="#4DC9FF"/>
</g>
<defs>
<clipPath id="clip0_3603_714">
<rect width="38.9455" height="15.8667" fill="white" transform="translate(0.265625 0.333313)"/>
</clipPath>
</defs>
</svg>
