<svg width="50" height="15" viewBox="0 0 50 15" fill="none" xmlns="http://www.w3.org/2000/svg">
<g clip-path="url(#clip0_3603_594)">
<path d="M31.7687 14.1808C27.9964 15.7278 23.6693 13.923 22.116 10.166C20.5627 6.40898 22.3749 2.09948 26.1472 0.552482C28.5141 -0.405185 31.2509 -0.0736851 33.322 1.43648L32.6563 2.87298C30.1414 0.847148 26.4431 1.17865 24.409 3.68332C22.3749 6.18798 22.7078 9.87132 25.2226 11.8971C27.0718 13.4073 29.6606 13.6283 31.7687 12.4865V14.1808Z" fill="#B7B9BB"/>
<path d="M1.51631 8.28751V12.2655H0V2.46783H1.70123C2.62581 2.46783 3.51341 2.50467 4.43799 2.652C4.88179 2.7625 5.25163 2.9835 5.58448 3.315C6.13923 3.8675 6.47208 4.60417 6.43509 5.4145C6.47208 6.22484 6.13923 6.99834 5.51051 7.55084C4.80783 8.10334 3.92023 8.39801 2.99565 8.32434L1.51631 8.28751ZM1.51631 6.92467H2.8847C4.29006 6.92467 4.99274 6.409 4.99274 5.34084C4.99274 4.27267 4.25308 3.79384 2.84771 3.83067H1.51631V6.92467Z" fill="#444148"/>
<path d="M11.5758 6.07749H13.0551V12.2655H11.5758V11.6025C10.4663 12.7075 8.65411 12.7075 7.54461 11.6025L7.47065 11.492C6.9159 10.829 6.58305 9.98182 6.62003 9.13466C6.58305 8.28749 6.87892 7.44032 7.47065 6.81416C8.0254 6.18799 8.80205 5.85649 9.61568 5.85649C10.3553 5.81966 11.058 6.11432 11.6128 6.59316V6.07749H11.5758ZM7.95143 9.17149C7.91445 9.68716 8.09936 10.2028 8.43221 10.608C8.72808 10.9763 9.20886 11.1973 9.68964 11.1605C10.1704 11.1973 10.6512 10.9763 10.9841 10.608C11.3539 10.2028 11.5018 9.68716 11.5018 9.13466C11.5018 8.61899 11.3539 8.10332 10.9841 7.69816C10.6512 7.32982 10.1704 7.14566 9.68964 7.14566C9.20886 7.14566 8.76506 7.32982 8.43221 7.69816C8.13635 8.14016 7.95143 8.65582 7.95143 9.17149Z" fill="#444148"/>
<path d="M16.3466 11.6393L13.7948 6.07745H15.459L17.1233 10.166L19.2313 6.07745H20.8956L16.3097 14.7333H14.6454L16.3466 11.6393Z" fill="#444148"/>
<path d="M32.4344 3.31499L31.7687 4.71465C31.029 4.05165 30.0674 3.68332 29.0689 3.68332C28.1073 3.68332 27.1458 4.05165 26.4801 4.75149C25.7774 5.45132 25.4075 6.40899 25.4075 7.40349C25.3706 9.39249 26.9978 11.0132 28.9949 11.05H29.0689C29.5497 11.05 29.9935 10.9763 30.4373 10.7922C30.6592 10.6817 30.8811 10.5712 31.103 10.4607C31.3619 10.3133 31.5838 10.1292 31.8057 9.94499V11.7498C30.955 12.2287 30.0305 12.4497 29.0689 12.4497C27.7005 12.4865 26.3691 11.934 25.4075 10.9763C24.409 10.0555 23.8912 8.76632 23.8912 7.40349C23.8912 6.18799 24.335 4.97249 25.1487 4.05165C26.1472 2.87299 27.6265 2.20999 29.1798 2.24682C30.3263 2.32049 31.4358 2.68882 32.4344 3.31499Z" fill="#444148"/>
<path d="M37.7229 2.46783L42.2349 12.2655H40.5706L39.5351 9.87134H35.2081L34.0986 12.2655H32.4713L37.1312 2.46783H37.7229ZM38.9064 8.50851L37.4271 5.15667L35.8738 8.50851H38.9064Z" fill="#444148"/>
<path d="M48.596 3.94117L47.3756 4.64101C47.2276 4.34634 47.0057 4.08851 46.7099 3.86751C46.1181 3.53601 45.3785 3.60967 44.8237 4.01484C44.5648 4.23584 44.4169 4.53051 44.4169 4.86201C44.4169 5.34084 44.7867 5.70917 45.5264 6.00384L46.5249 6.40901C47.2276 6.63001 47.8194 7.03517 48.3001 7.58767C48.67 8.06651 48.8919 8.65584 48.8549 9.28201C48.8919 10.1292 48.522 10.9395 47.9303 11.5288C47.3016 12.1182 46.488 12.4497 45.6373 12.4128C44.8607 12.4497 44.0841 12.155 43.4923 11.6393C42.9006 11.0868 42.5308 10.3133 42.4568 9.50301L43.9731 9.17151C43.9731 9.57667 44.121 10.0187 44.3429 10.3502C44.6388 10.7553 45.1566 11.0132 45.6743 10.9763C46.1181 10.9763 46.5249 10.829 46.8578 10.4975C47.1906 10.2028 47.3386 9.76084 47.3386 9.31884C47.3386 9.13467 47.3016 8.95051 47.2646 8.80317C47.1906 8.65584 47.1167 8.50851 47.0057 8.39801C46.8948 8.25067 46.7468 8.14017 46.5619 8.02967C46.34 7.88234 46.1551 7.77184 45.8962 7.69817L44.9347 7.29301C43.5663 6.74051 42.8636 5.93017 42.8636 4.78834C42.8636 4.08851 43.1595 3.38867 43.7142 2.94667C44.3059 2.43101 45.0826 2.17317 45.8592 2.21001C47.0427 2.28367 48.0782 2.90984 48.596 3.94117Z" fill="#444148"/>
</g>
<defs>
<clipPath id="clip0_3603_594">
<rect width="49.5576" height="14.7333" fill="white"/>
</clipPath>
</defs>
</svg>
