<svg width="46" height="12" viewBox="0 0 46 12" fill="none" xmlns="http://www.w3.org/2000/svg">
<g clip-path="url(#clip0_3596_494)">
<path d="M10.0679 0.137268C10.9747 0.137268 11.7163 0.876538 11.7163 1.78053V9.60476C11.7163 10.5088 10.9747 11.248 10.0679 11.248H2.21923C1.31238 11.248 0.570801 10.5088 0.570801 9.60476V3.61402L0.574745 1.69231C0.621952 0.829479 1.34189 0.137268 2.21923 0.137268H10.0679Z" fill="white"/>
<path d="M32.2291 2.21393H30.2541C30.0733 2.21393 29.9276 2.35904 29.9276 2.53944V8.73997H31.3183V6.52214H32.2291C33.5747 6.52214 34.7942 5.68481 34.7942 4.26704C34.7942 2.84927 33.5747 2.21393 32.2291 2.21393ZM31.3183 5.85541V2.88063C31.3183 2.88063 31.7471 2.8826 32.2291 2.8826C32.9118 2.8826 33.6632 3.39834 33.6632 4.28272C33.6632 5.16713 32.9097 5.85541 32.2291 5.85541H31.3183ZM37.1627 3.85329C36.1103 3.85329 35.5692 4.11016 35.5692 4.11016L35.6972 4.49844C35.6972 4.49844 36.0944 4.31607 36.8694 4.31607C37.7331 4.31607 37.9081 4.73374 37.9081 5.30438L37.8962 5.55931C37.7114 5.50441 37.2787 5.43381 36.836 5.43381C36.1771 5.43381 35.0913 5.83777 35.0913 7.15945C35.0913 8.41643 36.0491 8.82626 36.7278 8.82626C37.2883 8.82626 37.6307 8.65369 37.9061 8.4831V8.74194H39.295V5.30438C39.3008 4.21802 38.2171 3.85329 37.1627 3.85329ZM37.2216 8.21249C36.6178 8.21249 36.1849 7.76931 36.1849 7.11239C36.1849 6.45547 36.7652 6.07112 37.2924 6.07112C37.5579 6.07112 37.8117 6.14367 37.9101 6.22801V7.90853C37.7409 8.05757 37.5422 8.21249 37.2216 8.21249ZM42.5484 9.33219C42.1256 10.2636 41.4313 10.3833 41.1203 10.4205C40.7939 10.4578 40.4437 10.4421 40.4437 10.4421V9.68125C41.0634 9.68125 41.3997 9.73027 41.7656 9.00668L42.0134 8.37917L39.7296 3.85132H41.1873L42.6842 6.86139L44.0081 3.85132H44.9563C44.9583 3.85329 42.9714 8.40269 42.5484 9.33219ZM16.3252 2.21393H14.3502C14.1692 2.21393 14.0237 2.35904 14.0237 2.53944V8.73997H15.4144V6.52214H16.3252C17.6707 6.52214 18.8903 5.68481 18.8903 4.26704C18.8922 2.84927 17.6726 2.21393 16.3252 2.21393ZM15.4164 5.85541V2.88063C15.4164 2.88063 15.8452 2.8826 16.3271 2.8826C17.0097 2.8826 17.7612 3.39834 17.7612 4.28272C17.7612 5.16713 17.0078 5.85541 16.3271 5.85541H15.4164ZM21.2606 3.85329C20.2082 3.85329 19.6673 4.11016 19.6673 4.11016L19.7951 4.49844C19.7951 4.49844 20.1905 4.31607 20.9675 4.31607C21.8311 4.31607 22.0062 4.73374 22.0062 5.30438L21.9943 5.55931C21.8094 5.50441 21.3767 5.43381 20.9341 5.43381C20.2771 5.43381 19.1893 5.83777 19.1893 7.15945C19.1893 8.41643 20.1472 8.82626 20.8259 8.82626C21.3865 8.82626 21.7268 8.65369 22.0042 8.4831V8.74194H23.3929V5.30438C23.3969 4.21802 22.313 3.85329 21.2606 3.85329ZM21.3196 8.21249C20.7157 8.21249 20.283 7.76931 20.283 7.11239C20.283 6.45547 20.8633 6.07112 21.3904 6.07112C21.656 6.07112 21.9098 6.14367 22.0081 6.22801V7.90853C21.837 8.05757 21.6383 8.21249 21.3196 8.21249ZM26.6446 9.33219C26.2216 10.2636 25.5272 10.3833 25.2164 10.4205C24.8899 10.4578 24.5398 10.4421 24.5398 10.4421V9.68125C25.1594 9.68125 25.4958 9.73027 25.8616 9.00668L26.1096 8.37917L23.8257 3.85132H25.2833L26.7802 6.86139L28.1041 3.85132H29.0523C29.0543 3.85329 27.0674 8.40269 26.6446 9.33219Z" fill="#3F3A39"/>
<path d="M2.74051 11.248H2.21923C1.31238 11.248 0.570801 10.5088 0.570801 9.60477V3.61403C2.05005 3.46501 3.42899 3.46894 4.63875 3.58464L2.74051 11.248ZM9.44434 6.06916C9.70596 5.00828 7.98871 4.02585 5.24069 3.65521L4.24337 7.79283C6.54683 7.90265 9.16304 7.21044 9.44434 6.06916ZM10.0679 0.137268H2.21923C1.34189 0.137268 0.621952 0.829479 0.574745 1.69231C7.14679 1.50798 10.3433 3.78661 9.84169 6.05935C9.38927 8.10463 7.30414 8.88902 3.91681 9.14786L3.40932 11.25H10.0679C10.9747 11.25 11.7163 10.5107 11.7163 9.60674V1.78053C11.7163 0.876539 10.9747 0.137268 10.0679 0.137268Z" fill="#FF0033"/>
</g>
<defs>
<clipPath id="clip0_3596_494">
<rect width="45.3333" height="11.3333" fill="white"/>
</clipPath>
</defs>
</svg>
