<svg width="41" height="16" viewBox="0 0 41 16" fill="none" xmlns="http://www.w3.org/2000/svg">
<g clip-path="url(#clip0_3603_712)">
<path fill-rule="evenodd" clip-rule="evenodd" d="M33.0901 3.75478L34.4397 3.75486L36.8645 10.7556L39.1579 3.75486L40.5147 3.75478C40.5147 3.75478 37.3378 13.2533 37.2449 13.5391C36.9417 14.4718 36.1999 15.1776 35.1597 15.1776C34.3461 15.1776 33.8651 14.8481 33.5121 14.5318C33.6011 14.3939 34.0474 13.7174 34.1197 13.6033C34.3805 13.8147 34.6286 13.9862 35.118 13.9757C35.8211 13.9504 35.9566 13.3282 36.2532 12.5464L33.0902 3.75478H33.0901ZM31.9053 12.7592H30.7527C30.7527 12.7592 30.5598 11.8639 30.5408 11.7742C29.895 12.5355 29.0978 12.9923 27.9646 12.9923C25.4272 12.9923 23.9365 10.828 23.9365 8.30002C23.9365 5.21185 25.8142 3.54238 27.9646 3.54238C29.2939 3.54146 29.96 4.00279 30.5634 4.60502C30.6203 4.35141 30.7497 3.75478 30.7497 3.75478H31.9053V12.7592ZM27.9939 4.74353C29.6398 4.74353 30.6411 6.35184 30.6411 8.30002C30.6411 10.2482 29.5554 11.7917 27.995 11.7917C26.4347 11.7917 25.3325 10.2482 25.3325 8.30002C25.3325 6.35184 26.3481 4.74353 27.9939 4.74353ZM17.4164 12.7661H16.1106V1.51493H19.9223C22.0185 1.51493 23.3897 2.99141 23.3897 4.95394C23.3535 7.22571 21.5564 8.27508 19.9935 8.27508H17.4163L17.4164 12.7661ZM19.8445 7.08644C20.9065 7.08644 22.0046 6.32422 22.0046 4.91388C22.0046 3.69585 21.1673 2.72429 19.8445 2.72429H17.4235L17.4164 7.08644H19.8445ZM0.734741 14.011H14.7868L2.72615 15.6667L0.734741 14.011ZM5.00488 12.7661H2.74161L2.72607 0.93335H6.46104C8.7954 0.93335 10.6264 2.77502 10.6264 5.04073C10.6264 7.07224 9.15256 8.16151 8.89042 8.33478C9.06632 8.56077 12.2716 12.7611 12.2754 12.7661H9.41782L6.63026 9.0894H5.00495L5.00488 12.7661ZM6.53882 6.83835C7.31693 6.83827 8.35665 6.22814 8.35665 5.00397C8.35665 3.84932 7.39478 3.16837 6.53882 3.16837H5.0156V6.83835H6.53882Z" fill="#C83333"/>
</g>
<defs>
<clipPath id="clip0_3603_712">
<rect width="39.78" height="14.7333" fill="white" transform="translate(0.734741 0.93335)"/>
</clipPath>
</defs>
</svg>
