<svg width="40" height="19" viewBox="0 0 40 19" fill="none" xmlns="http://www.w3.org/2000/svg">
<g clip-path="url(#clip0_3603_656)">
<path d="M5.20055 0H11.8318C12.7625 0 13.3276 0.816001 13.1116 1.83147L10.0369 16.3019C9.82085 17.3174 8.89014 18.1334 7.95944 18.1334H1.32815C0.397442 18.1334 -0.167631 17.3174 0.0484263 16.3019L3.1397 1.83147C3.35576 0.816001 4.26985 0 5.20055 0Z" fill="#ED171F"/>
<path d="M11.2849 0H18.9134C19.8441 0 19.4286 0.816001 19.2125 1.83147L16.1046 16.3019C15.8886 17.3174 15.9551 18.1334 15.0244 18.1334H7.4125C6.48179 18.1334 5.91672 17.3174 6.13278 16.3019L9.22406 1.83147C9.44011 0.816001 10.3542 0 11.2849 0Z" fill="#082F67"/>
<path d="M18.6143 0H25.2455C26.1762 0 26.7413 0.816001 26.5253 1.83147L23.434 16.3019C23.2179 17.3174 22.2872 18.1334 21.3565 18.1334H14.7418C13.8111 18.1334 13.2461 17.3174 13.4621 16.3019L16.5534 1.83147C16.7528 0.816001 17.6835 0 18.6143 0Z" fill="#006A65"/>
<path fill-rule="evenodd" clip-rule="evenodd" d="M17.5007 13.6H18.1323L18.3151 12.9472H17.6835L17.5007 13.6ZM17.9993 11.8048L17.7833 12.5846C17.7833 12.5846 18.0159 12.4576 18.1489 12.4032C18.2819 12.367 18.4647 12.3488 18.4647 12.3488L18.6143 11.8048H17.9993ZM18.3151 10.6806L18.099 11.424C18.099 11.424 18.3317 11.3152 18.4647 11.279C18.5976 11.2427 18.7805 11.2246 18.7805 11.2246L18.93 10.6806H18.3151ZM19.6945 10.6806L18.8802 13.6H19.0962L18.93 14.1984H18.714L18.6641 14.3798H17.8996L17.9495 14.1984H16.3872L16.5368 13.6363H16.703L17.5174 10.6806L17.6835 10.0822H18.4647L18.3816 10.3904C18.3816 10.3904 18.5976 10.2272 18.7805 10.1728C18.9799 10.1184 20.11 10.1003 20.11 10.1003L19.9438 10.6987H19.6945V10.6806Z" fill="white"/>
<path d="M20.0435 10.0822H20.8744L20.8911 10.4267C20.8911 10.4811 20.9243 10.5174 21.024 10.5174H21.1902L21.0406 11.0795H20.5919C20.193 11.1158 20.0435 10.9344 20.0601 10.7168L20.0435 10.0822Z" fill="white"/>
<path d="M20.1432 12.7478H19.3455L19.4784 12.24H20.3925L20.5255 11.7867H19.628L19.7776 11.2245H22.2872L22.1376 11.7867H21.29L21.157 12.24H22.0046L21.8717 12.7478H20.9576L20.7914 12.9653H21.157L21.2401 13.6C21.2567 13.6544 21.2567 13.7088 21.2734 13.727C21.29 13.7451 21.4063 13.7632 21.4728 13.7632H21.5891L21.4229 14.3798H21.1404C21.0905 14.3798 21.0241 14.3798 20.941 14.3616C20.8579 14.3616 20.7914 14.3072 20.7415 14.271C20.6917 14.2347 20.6086 14.1803 20.5919 14.0534L20.5088 13.4187L20.0934 14.0352C19.9604 14.2347 19.7776 14.3798 19.4784 14.3798H18.8967L19.0463 13.8358H19.2624C19.3288 13.8358 19.3787 13.8176 19.4286 13.7814C19.4784 13.7632 19.5117 13.7451 19.5449 13.6726L20.1432 12.7478Z" fill="white"/>
<path d="M11.4012 11.3878H13.5119L13.3624 11.9318H12.5148L12.3818 12.4032H13.246L13.0964 12.9654H12.2322L12.0162 13.727C11.9995 13.8176 12.2156 13.8176 12.2987 13.8176L12.7308 13.7451L12.5646 14.3798H11.584C11.5009 14.3798 11.4511 14.3616 11.368 14.3435C11.2849 14.3254 11.2517 14.2891 11.2184 14.2166C11.1852 14.1622 11.1353 14.1078 11.1686 13.9808L11.4511 12.9654H10.9691L11.1353 12.3851H11.6173L11.7502 11.9136H11.2683L11.4012 11.3878Z" fill="white"/>
<path d="M12.8305 10.3904H13.6948L13.5286 10.9707H12.3486L12.2156 11.0976C12.1657 11.152 12.1491 11.1339 12.066 11.1702C11.9995 11.2064 11.8666 11.279 11.6838 11.279H11.3015L11.4511 10.7168H11.5674C11.6671 10.7168 11.7336 10.6987 11.7669 10.6806C11.8001 10.6624 11.85 10.5899 11.8998 10.4992L12.1159 10.064H12.9801L12.8305 10.3904Z" fill="white"/>
<path fill-rule="evenodd" clip-rule="evenodd" d="M14.4924 11.3334C14.4924 11.3334 14.7251 11.0976 15.1406 11.0251C15.2403 11.007 15.8054 11.007 15.8054 11.007L15.8885 10.6987H14.6753L14.4924 11.3334ZM15.6392 11.5872H14.426L14.3595 11.8592H15.4065C15.5229 11.8411 15.5561 11.8592 15.5727 11.8592L15.6392 11.5872ZM14.077 10.0822H14.8082L14.7085 10.4811C14.7085 10.4811 14.9412 10.2816 15.1074 10.2091C15.2736 10.1366 15.6392 10.0822 15.6392 10.0822H16.8358L16.437 11.5691C16.3705 11.823 16.2874 11.9862 16.2375 12.0587C16.1877 12.1312 16.1378 12.2038 16.0381 12.2582C15.9384 12.3126 15.8386 12.3488 15.7556 12.367C15.6725 12.367 15.5561 12.3851 15.3899 12.3851H14.2431L13.9108 13.5638C13.8775 13.6726 13.8609 13.727 13.8941 13.7632C13.9108 13.7814 13.944 13.8176 14.0105 13.8176L14.5257 13.7632L14.3595 14.3979H13.7944C13.6116 14.3979 13.4786 14.3979 13.3955 14.3798C13.3124 14.3798 13.2127 14.3798 13.1629 14.3254C13.113 14.271 13.0299 14.2166 13.0299 14.144C13.0299 14.0896 13.0631 13.9808 13.0964 13.8358L14.077 10.0822Z" fill="white"/>
<path d="M16.221 12.4758L16.1545 12.8384C16.1213 12.9472 16.1047 13.0379 16.0216 13.1104C15.9385 13.183 15.8388 13.2555 15.6227 13.2555L15.2072 13.2736V13.6726C15.2072 13.7814 15.2238 13.7814 15.2404 13.7995C15.2571 13.8176 15.2737 13.8358 15.2903 13.8358H15.4233L15.8221 13.8176L15.6559 14.3979H15.2072C14.8914 14.3979 14.6588 14.3979 14.5757 14.3254C14.4926 14.271 14.4926 14.1984 14.4926 14.0896L14.5258 12.5302H15.2404L15.2238 12.8566H15.39C15.4399 12.8566 15.4897 12.8566 15.5064 12.8384C15.523 12.8203 15.5396 12.8022 15.5562 12.7478L15.6227 12.4939H16.221V12.4758Z" fill="white"/>
<path d="M5.98314 4.62403C5.96652 4.75096 5.50116 7.07203 5.50116 7.07203C5.40144 7.5435 5.33496 7.8699 5.08567 8.0875C4.95271 8.21443 4.78651 8.26883 4.6037 8.26883C4.30454 8.26883 4.12172 8.10563 4.08848 7.79737V7.68857C4.08848 7.68857 4.17158 7.0539 4.1882 7.0539C4.1882 7.0539 4.67017 4.95043 4.75327 4.6603C4.75327 4.64216 4.75327 4.64216 4.75327 4.62403C3.80595 4.64216 3.63975 4.62403 3.63975 4.6059C3.63975 4.62403 3.60651 4.75096 3.60651 4.75096L3.10792 7.12643L3.05806 7.3259L2.99158 8.01497C2.99158 8.21443 3.02482 8.37763 3.0913 8.50457C3.32397 8.93977 3.95552 8.99417 4.32116 8.99417C4.78651 8.99417 5.23525 8.88537 5.51778 8.6859C6.033 8.3595 6.16595 7.83363 6.28229 7.3803L6.33215 7.14457C6.33215 7.14457 6.83074 4.95043 6.91384 4.6603C6.91384 4.64216 6.91384 4.64216 6.91384 4.62403C6.24905 4.64216 6.04962 4.64216 5.98314 4.62403Z" fill="white"/>
<path d="M8.74206 8.976C8.40967 8.976 8.29333 8.976 7.89446 8.99414L7.87784 8.95787C7.91108 8.79467 7.94432 8.63147 7.97756 8.46827L8.02741 8.25067C8.09389 7.90614 8.17699 7.5072 8.17699 7.38027C8.17699 7.30774 8.21023 7.1264 8.01079 7.1264C7.9277 7.1264 7.8446 7.16267 7.7615 7.21707C7.71164 7.3984 7.61192 7.92427 7.57868 8.14187C7.47896 8.63147 7.47896 8.68587 7.4291 8.93974L7.39586 8.976C7.04685 8.976 6.93051 8.976 6.53163 8.99414L6.51501 8.95787C6.58149 8.66774 6.64797 8.35947 6.71445 8.06934C6.88065 7.27147 6.91389 6.9632 6.96375 6.56427L6.99699 6.54613C7.37924 6.49173 7.47896 6.4736 7.89446 6.38293L7.9277 6.4192L7.86122 6.67307C7.9277 6.61867 7.99417 6.5824 8.07727 6.54613C8.27671 6.43733 8.49277 6.4192 8.60911 6.4192C8.79192 6.4192 8.99136 6.4736 9.07446 6.70933C9.15756 6.9088 9.1077 7.16267 8.99136 7.6704L8.9415 7.92427C8.84178 8.4864 8.82516 8.57707 8.75868 8.95787L8.74206 8.976Z" fill="white"/>
<path d="M10.0883 8.97602C9.88884 8.97602 9.75589 8.97602 9.63955 8.97602C9.50659 8.97602 9.39025 8.99415 9.20743 8.99415L9.19081 8.97602L9.17419 8.95788C9.22405 8.74028 9.25729 8.66775 9.27391 8.59522C9.29053 8.52268 9.32377 8.45015 9.37363 8.23255C9.44011 7.96055 9.47335 7.76108 9.48997 7.57975C9.52321 7.41655 9.53983 7.27148 9.55645 7.10828L9.57307 7.09015L9.58969 7.07201C9.78913 7.03575 9.92208 7.01761 10.055 6.99948C10.188 6.98135 10.321 6.94508 10.5204 6.90881V6.92695V6.94508C10.4872 7.12641 10.4373 7.28961 10.4041 7.47095C10.3708 7.65228 10.321 7.81548 10.2877 7.99681C10.2212 8.35948 10.188 8.50455 10.1714 8.59522C10.1548 8.68588 10.1548 8.74028 10.1215 8.92162L10.1049 8.93975L10.0883 8.97602Z" fill="white"/>
<path d="M12.2156 7.68852C12.199 7.77919 12.1159 8.14186 12.0161 8.28693C11.9497 8.39573 11.8666 8.46826 11.7669 8.46826C11.7336 8.46826 11.5674 8.46826 11.5674 8.19626C11.5674 8.06932 11.584 7.92426 11.6173 7.77919C11.7004 7.36212 11.8167 6.99946 12.066 6.99946C12.2987 6.99946 12.3153 7.25332 12.2156 7.68852ZM13.0964 7.72479C13.2128 7.16266 13.1297 6.90879 13.0133 6.74559C12.8471 6.50986 12.5314 6.41919 12.2156 6.41919C12.0161 6.41919 11.5674 6.43732 11.2184 6.79999C10.9691 7.05386 10.8528 7.41652 10.7697 7.74292C10.7032 8.08746 10.6201 8.70399 11.1353 8.92159C11.3015 8.99413 11.5342 9.01226 11.6838 9.01226C12.066 9.01226 12.4483 8.90346 12.7474 8.55893C12.9469 8.30506 13.0632 7.88799 13.0964 7.72479Z" fill="white"/>
<path d="M21.2401 9.01225C20.8413 9.01225 20.7249 9.01225 20.3427 9.03039L20.326 8.99412C20.4258 8.57705 20.5255 8.15999 20.6252 7.74292C20.7415 7.19892 20.7748 6.96318 20.808 6.63678L20.8413 6.60052C21.2401 6.54612 21.3565 6.52798 21.772 6.43732L21.7886 6.47358C21.7055 6.81812 21.639 7.16265 21.5559 7.50719C21.4063 8.23252 21.3399 8.59519 21.29 8.97599L21.2401 9.01225Z" fill="white"/>
<path d="M20.6418 7.72481C20.6252 7.81547 20.5421 8.17814 20.4424 8.32321C20.3759 8.43201 20.2097 8.48641 20.11 8.48641C20.0768 8.48641 19.9272 8.48641 19.9106 8.21441C19.9106 8.08748 19.9272 7.94241 19.9604 7.79734C20.0435 7.38027 20.1599 7.03574 20.4258 7.03574C20.6418 7.05387 20.7249 7.30774 20.6418 7.72481ZM21.4396 7.76107C21.5559 7.19894 21.0906 7.70667 21.0075 7.52534C20.8911 7.23521 20.9576 6.65494 20.5089 6.45547C20.3261 6.38294 19.9106 6.47361 19.5449 6.83627C19.2956 7.09014 19.1793 7.43467 19.0962 7.77921C19.0297 8.12374 18.9466 8.74028 19.4618 8.95788C19.628 9.03041 19.7776 9.04854 19.9272 9.04854C20.4424 9.01228 20.8413 8.16001 21.1404 7.81547C21.3565 7.56161 21.4064 7.94241 21.4396 7.76107Z" fill="white"/>
<path d="M15.3733 8.976C15.0409 8.976 14.9246 8.976 14.5257 8.99414L14.5091 8.95787C14.5423 8.79467 14.5755 8.63147 14.6088 8.46827L14.6586 8.25067C14.7251 7.90614 14.8082 7.5072 14.8082 7.38027C14.8082 7.30774 14.8415 7.1264 14.642 7.1264C14.5589 7.1264 14.4758 7.16267 14.3927 7.21707C14.3429 7.3984 14.2431 7.92427 14.2099 8.14187C14.1102 8.63147 14.1102 8.68587 14.0603 8.93974L14.0271 8.976C13.6781 8.976 13.5617 8.976 13.1629 8.99414L13.1462 8.95787C13.2127 8.66774 13.2792 8.35947 13.3457 8.06934C13.5119 7.27147 13.5451 6.9632 13.595 6.56427L13.6282 6.54613C14.0105 6.49173 14.1102 6.4736 14.5257 6.38293L14.5589 6.4192L14.4924 6.67307C14.5589 6.61867 14.6254 6.5824 14.7085 6.54613C14.9079 6.43733 15.124 6.4192 15.2403 6.4192C15.4231 6.4192 15.6226 6.4736 15.7057 6.70933C15.7888 6.9088 15.7389 7.16267 15.6226 7.6704L15.5727 7.92427C15.4564 8.4864 15.4398 8.57707 15.3899 8.95787L15.3733 8.976Z" fill="white"/>
<path d="M18.2651 4.62403H17.9826C17.268 4.62403 16.9688 4.62403 16.8525 4.6059C16.8358 4.6603 16.8192 4.7691 16.8192 4.7691L16.5699 6.0747C16.5699 6.0747 15.955 8.8491 15.9218 8.97604C16.5533 8.97604 16.8026 8.97604 16.9189 8.97604C16.9356 8.8491 17.0851 8.06937 17.0851 8.06937C17.0851 8.06937 17.2181 7.50724 17.2181 7.47097C17.2181 7.47097 17.2513 7.41657 17.3012 7.39843H17.3677C17.9161 7.39843 18.5311 7.39843 18.9964 7.01763C19.3288 6.74563 19.5449 6.36483 19.6446 5.89337C19.6612 5.78456 19.6944 5.6395 19.6944 5.49443C19.6944 5.3131 19.6612 5.13176 19.5615 4.9867C19.3122 4.62403 18.8302 4.62403 18.2651 4.62403ZM18.6142 5.98403C18.5477 6.27417 18.3815 6.5099 18.1654 6.63683C17.9826 6.74563 17.7665 6.74563 17.5339 6.74563H17.3843L17.4009 6.6731C17.4009 6.6731 17.6834 5.3675 17.6668 5.3675V5.29496V5.24056L17.7832 5.2587C17.7832 5.2587 18.3482 5.3131 18.3649 5.3131C18.5975 5.40376 18.6806 5.65763 18.6142 5.98403Z" fill="white"/>
<path d="M24.5475 6.43733L24.5143 6.40106C24.0988 6.49173 24.0323 6.50986 23.65 6.56426L23.6168 6.60053V6.61866C23.3343 7.32586 23.3509 7.1808 23.1182 7.74293C23.1182 7.7248 23.1182 7.70666 23.1182 7.6704L23.0683 6.45546L23.0351 6.4192C22.603 6.50986 22.5864 6.528 22.1875 6.5824L22.1543 6.61866C22.1543 6.6368 22.1543 6.65493 22.1543 6.67306C22.2041 6.94506 22.1875 6.89066 22.2374 7.32586C22.254 7.54346 22.2872 7.76106 22.3205 7.97866C22.3537 8.34133 22.3869 8.50453 22.4368 9.04853C22.1709 9.53813 22.1044 9.71947 21.8551 10.1365L21.8717 10.1728C22.254 10.1547 22.3537 10.1547 22.6362 10.1547L22.7027 10.0821C22.8855 9.53813 24.5475 6.43733 24.5475 6.43733Z" fill="white"/>
<path d="M10.4538 6.74561C10.6699 6.58241 10.7031 6.34667 10.5203 6.21974C10.3375 6.09281 10.0051 6.12907 9.77243 6.31041C9.55637 6.47361 9.52313 6.70934 9.70595 6.83627C9.90539 6.94507 10.2378 6.90881 10.4538 6.74561Z" fill="white"/>
<path d="M22.6362 10.1003L22.3038 10.6987C22.2041 10.8981 22.0047 11.0613 21.7055 11.0613H21.1903L21.3399 10.5173H21.4396C21.4895 10.5173 21.5227 10.5173 21.5559 10.4992C21.5892 10.4992 21.6058 10.4629 21.6224 10.4267L21.8052 10.1003H22.6362Z" fill="white"/>
<path d="M39.0565 12.8565H38.7407V9.77385C38.7407 9.66505 38.7241 9.41118 38.5579 9.41118H35.5996V9.06665H38.5579C38.7906 9.06665 39.0565 9.24798 39.0565 9.77385V12.8565Z" fill="#231815"/>
<path d="M31.0624 12.8565H30.7466V9.77385C30.7466 9.24798 31.0125 9.06665 31.2452 9.06665H34.2035V9.41118H31.2452C31.079 9.41118 31.0624 9.66505 31.0624 9.77385V12.8565Z" fill="#231815"/>
<path d="M34.2035 18.1333H31.2452C31.0125 18.1333 30.7466 17.952 30.7466 17.4261V14.3434H31.0624V17.4261C31.0624 17.5349 31.079 17.7888 31.2452 17.7888H34.2035V18.1333Z" fill="#231815"/>
<path d="M38.5412 18.1333H35.5829V17.7888H38.5412C38.7074 17.7888 38.724 17.5349 38.724 17.4261V14.3434H39.0398V17.4261C39.0564 17.952 38.7739 18.1333 38.5412 18.1333Z" fill="#231815"/>
<path d="M35.0511 13.7814H32.043V13.4187H34.7354V10.4811H35.0511V13.7814Z" fill="#231815"/>
<path d="M37.7436 13.4187H35.5996V13.7632H37.7436V13.4187Z" fill="#231815"/>
<path d="M35.0511 14.3435H34.7354V16.719H35.0511V14.3435Z" fill="#231815"/>
<path d="M34.2202 12.8565H32.043V10.4811H34.2202V12.8565ZM32.3587 12.512H33.9044V10.8256H32.3587V12.512Z" fill="#231815"/>
<path d="M37.7602 12.8565H35.583V10.4811H37.7602V12.8565ZM35.8988 12.512H37.4444V10.8256H35.8988V12.512Z" fill="#231815"/>
<path d="M34.2202 16.719H32.043V14.3435H34.2202V16.719ZM32.3587 16.3744H33.9044V14.688H32.3587V16.3744Z" fill="#231815"/>
<path d="M35.8988 14.3435H35.583V15.9574H35.8988V14.3435Z" fill="#231815"/>
<path d="M37.7602 16.719H35.583V16.3744H37.4444V14.3435H37.7602V16.719Z" fill="#231815"/>
<path d="M36.8294 14.3435H36.5137V15.4496H36.8294V14.3435Z" fill="#231815"/>
</g>
<defs>
<clipPath id="clip0_3603_656">
<rect width="39.0565" height="18.1334" fill="white"/>
</clipPath>
</defs>
</svg>
