<svg width="41" height="13" viewBox="0 0 41 13" fill="none" xmlns="http://www.w3.org/2000/svg">
<g clip-path="url(#clip0_3603_622)">
<path d="M38.5207 9.14265L39.0217 10.5664C39.0739 10.7259 39.1306 10.915 39.1682 11.0591H39.1777C39.2204 10.915 39.2675 10.7307 39.3242 10.5564L39.7781 9.14265H40.218L39.5935 10.8606C39.2955 11.6877 39.0924 12.1107 38.808 12.3695C38.6849 12.4861 38.5403 12.5748 38.3832 12.63C38.349 12.5656 38.193 12.2844 38.193 12.2844C38.3262 12.2382 38.4498 12.1656 38.5571 12.0706C38.7083 11.9388 38.8282 11.7717 38.9073 11.5826C38.9241 11.5501 38.9353 11.5147 38.9404 11.478C38.9366 11.4385 38.9269 11.3998 38.9118 11.3634L38.0651 9.14265H38.5207ZM28.9368 9.08771C29.6364 9.08771 29.807 9.59046 29.807 10.0737V10.9753C29.8039 11.1686 29.8165 11.3619 29.8446 11.553H29.4664L29.4333 11.2494H29.4199C29.3387 11.3633 29.2328 11.4553 29.1112 11.5177C28.9895 11.58 28.8555 11.611 28.7202 11.608C28.2567 11.608 28.0205 11.2641 28.0205 10.9156C28.0205 10.3331 28.512 10.0146 29.3969 10.0194V9.96974C29.3969 9.77065 29.3447 9.41205 28.8767 9.41205C28.6851 9.41309 28.4967 9.46424 28.3286 9.56093L28.1855 9.30216C28.4121 9.15857 28.6723 9.0845 28.9368 9.0883V9.08771ZM36.7241 9.08771C37.4238 9.08771 37.5943 9.59046 37.5943 10.0737V10.9753C37.5912 11.1686 37.6038 11.3619 37.6319 11.553H37.2537L37.2206 11.2494H37.2066C37.1254 11.3633 37.0196 11.4553 36.8979 11.5177C36.7762 11.58 36.6422 11.611 36.5069 11.608C36.0435 11.608 35.8073 11.2641 35.8073 10.9156C35.8073 10.3331 36.2993 10.0146 37.1836 10.0194V9.96974C37.1836 9.77065 37.1314 9.41205 36.6635 9.41205C36.4719 9.41306 36.2835 9.46422 36.1153 9.56093L35.9733 9.30216C36.1998 9.15868 36.4598 9.08461 36.7241 9.0883V9.08771ZM24.0385 8.14246C24.4357 8.14246 24.6865 8.23226 24.7948 8.29193C24.7948 8.29193 24.6692 8.52233 24.6175 8.60977C24.4368 8.5391 24.2453 8.50405 24.0525 8.50638C23.3052 8.50638 22.8086 9.00913 22.8086 9.89058C22.8086 10.7124 23.2575 11.2399 24.0334 11.2399C24.2335 11.2411 24.4324 11.2066 24.6215 11.1377C24.6591 11.2068 24.7898 11.4443 24.7898 11.4443C24.6383 11.5241 24.3359 11.6038 23.9482 11.6038C23.0504 11.6038 22.3732 11.0066 22.3732 9.90594C22.3737 8.85553 23.0499 8.14187 24.0385 8.14187V8.14246ZM20.9463 9.08771C21.6937 9.08771 21.8923 9.7801 21.8923 10.2232C21.8917 10.2916 21.887 10.3598 21.8783 10.4276H20.2702C20.2798 11.0184 20.6389 11.2641 21.0558 11.2641C21.2423 11.2692 21.4281 11.239 21.6045 11.1749C21.6427 11.2411 21.7605 11.4532 21.7605 11.4532C21.5195 11.559 21.2601 11.6099 20.9991 11.6027C20.2944 11.6027 19.8735 11.1147 19.8735 10.3874C19.8735 9.66018 20.2792 9.0883 20.9475 9.0883L20.9463 9.08771ZM31.102 8.45026V9.14265H31.6979V9.47644H31.1031V10.7762C31.1031 11.0751 31.1834 11.2441 31.4151 11.2441C31.4493 11.2441 31.4802 11.2441 31.5088 11.2399C31.5576 11.3268 31.6771 11.5424 31.6771 11.5424C31.5587 11.5858 31.4338 11.6058 31.3085 11.6015C31.1143 11.6015 30.9584 11.5365 30.8596 11.4172C30.7412 11.2878 30.6986 11.0739 30.6986 10.7898V9.47644H30.344V9.14265H30.6986V8.45085L31.102 8.45026ZM34.2559 8.17141C34.6627 8.17141 34.9606 8.27125 35.1497 8.45026C35.3247 8.60977 35.4302 8.85376 35.4302 9.1521C35.4302 9.45045 35.3449 9.69503 35.1845 9.86931C34.9668 10.1133 34.6122 10.238 34.2104 10.238C34.0993 10.2416 33.9882 10.2315 33.8794 10.2078V11.5524H33.4681V8.23639C33.7285 8.19204 33.992 8.1705 34.2559 8.172V8.17141ZM16.213 8.19622L16.5912 9.89412C16.686 10.3124 16.7707 10.7307 16.8274 11.0544H16.837C16.8891 10.7206 16.9884 10.3224 17.0973 9.8894L17.5248 8.19681H17.9552L18.3429 9.89944C18.4327 10.2976 18.518 10.6958 18.5673 11.0497H18.5769C18.6431 10.681 18.7329 10.3077 18.8322 9.8894L19.253 8.19622H19.6738L18.7705 11.5524H18.3401L17.9384 9.80492C17.8499 9.44413 17.7804 9.07847 17.7302 8.70961H17.7207C17.6554 9.07921 17.5713 9.44484 17.4687 9.80492L17.0199 11.5524H16.5895L15.781 8.19622H16.213ZM25.8491 8.01899V9.52252H25.8587C25.9291 9.39265 26.0322 9.28574 26.1566 9.21355C26.2857 9.13349 26.4326 9.09051 26.5825 9.08889C26.8899 9.08889 27.3814 9.28798 27.3814 10.1198V11.5536H26.9651V10.1688C26.9651 9.7807 26.8282 9.45163 26.4354 9.45163C26.3106 9.45409 26.1895 9.4977 26.0894 9.57633C25.9893 9.65495 25.915 9.76465 25.8772 9.88999C25.8544 9.95699 25.8447 10.0281 25.8486 10.0991V11.553H25.4322V8.0178L25.8491 8.01899ZM28.4352 10.8642C28.4352 11.1478 28.6147 11.2825 28.8279 11.2825C28.9489 11.2858 29.0677 11.2485 29.1672 11.176C29.2667 11.1034 29.3416 10.9994 29.3812 10.879C29.3958 10.8341 29.4038 10.787 29.4047 10.7395V10.3213C28.9508 10.313 28.4352 10.3975 28.4352 10.8642ZM36.2225 10.8642C36.2225 11.1478 36.402 11.2825 36.6152 11.2825C36.7362 11.2858 36.855 11.2485 36.9545 11.176C37.054 11.1034 37.1289 10.9994 37.1685 10.879C37.1831 10.8341 37.1911 10.787 37.192 10.7395V10.3213C36.7381 10.313 36.2225 10.3975 36.2225 10.8642ZM20.9132 9.40201C20.4924 9.40201 20.3078 9.81023 20.2747 10.1139H21.49C21.4945 9.83505 21.3812 9.40201 20.9132 9.40201ZM34.2671 8.51583C34.137 8.51205 34.007 8.52374 33.8794 8.55069V9.85513C33.9911 9.88155 34.1055 9.89326 34.22 9.88999C34.7165 9.88999 35.0189 9.63595 35.0189 9.17278C35.0173 8.7297 34.7193 8.51524 34.2654 8.51524L34.2671 8.51583ZM31.465 0.949695V1.83114H33.9417V2.289H31.465V3.24606H33.4642C33.4642 3.24606 33.2078 4.6214 31.7097 5.77933C32.3156 6.11549 33.1124 6.35357 34.0875 6.51427C34.0875 6.51427 33.9299 6.80966 33.7952 7.03711C32.7291 6.84215 31.8982 6.50068 31.2462 6.10013C30.5892 6.51072 29.7397 6.86814 28.6411 7.06901C28.5648 6.95085 28.356 6.56094 28.356 6.56094C29.352 6.3967 30.1717 6.13144 30.7844 5.78524C29.2785 4.64799 28.989 3.24488 28.989 3.24488H30.9825V2.28781H28.4099V1.83114H30.9825V0.949695H31.465ZM16.7954 2.6346L17.1815 2.85024C16.998 3.30928 16.8274 3.6218 16.7803 3.71987V7.0507H16.3466V4.43944C16.0974 4.79391 15.9538 4.97528 15.8786 5.06213L15.6334 4.6149C16.098 4.09561 16.5098 3.38253 16.7954 2.6346ZM35.9346 0.968009L36.4396 1.08617L36.4239 1.12988C36.2185 1.69526 36.0261 2.17675 35.8522 2.56076V7.0507H35.3674V3.52787C35.1908 3.82939 34.9985 4.12031 34.7911 4.39927L34.5257 3.90774C35.0947 3.09246 35.5733 2.10231 35.9217 1.00228L35.9346 0.968009ZM23.2339 0.968009L23.6912 1.08617C23.6912 1.08617 23.4 2.05209 23.1772 2.56312V7.05306H22.6941V3.54559C22.5006 3.9296 22.3709 4.18186 22.2071 4.40754L21.9456 3.93078C22.6229 3.03043 23.2322 0.966828 23.2322 0.966828L23.2339 0.968009ZM20.1586 0.943787L20.5934 1.03536L20.5833 1.07671C20.4935 1.43886 20.3942 1.79451 20.2882 2.1348H21.5893V2.56785H21.2757C21.1949 3.79726 20.9879 4.7496 20.6613 5.39946C20.9205 5.93116 21.4199 6.4286 21.5591 6.5633C21.5276 6.62651 21.3099 7.01879 21.3099 7.01879C21.3099 7.01879 20.5867 6.23896 20.4229 5.86145C20.2388 6.18697 19.8994 6.60879 19.4393 7.04302L19.2081 6.61056C19.2081 6.61056 19.8376 6.06055 20.1945 5.39651C19.969 4.78422 19.8216 4.14315 19.7563 3.49005C19.68 3.63125 19.6385 3.70746 19.5616 3.82857C19.5616 3.82857 19.3585 3.45697 19.317 3.38726C19.6822 2.71081 19.956 1.91385 20.1513 0.982189L20.1586 0.943787ZM39.4667 0.995776V2.43728H40.3049V2.92054H39.4633V6.05877C39.4632 6.29867 39.3727 6.52873 39.2118 6.69859C39.0509 6.86844 38.8327 6.96425 38.6048 6.96503H38.0438V6.43333H38.6048C38.6997 6.43317 38.7907 6.39341 38.8578 6.32276C38.9249 6.25211 38.9627 6.15633 38.9628 6.05641V2.91936H36.2791V2.4361H38.9623V0.994595L39.4667 0.995776ZM27.437 4.83054V6.93904H24.0334V4.82936L27.437 4.83054ZM19.0768 4.57886V5.7433C19.1582 5.67063 19.4073 5.44022 19.4909 5.36165L19.6912 5.72675L18.7733 6.54262C18.7733 6.54262 18.5791 6.18815 18.5398 6.12258C18.596 6.05936 18.6661 5.9288 18.6661 5.67949V5.01014H17.8318C17.8318 6.00619 17.7936 6.36893 17.1629 6.88587C17.1629 6.88587 17.0109 6.60347 16.943 6.48532C17.485 6.03455 17.4205 5.41837 17.4205 4.57768L19.0768 4.57886ZM26.9775 5.2878H24.5165V6.5054H26.9763L26.9775 5.2878ZM32.7864 3.69801H29.678C29.8558 4.08793 30.2952 4.84058 31.249 5.49517C32.1939 4.83054 32.6214 4.0702 32.7864 3.69801ZM37.2566 3.6667L38.1341 5.13361L37.6768 5.39651L36.8554 3.91955L37.2566 3.6667ZM20.8633 2.56666H20.1474C20.1401 2.59738 20.0727 2.7758 20.0576 2.81066C20.1468 3.71219 20.2787 4.40577 20.4503 4.86717C20.663 4.32956 20.8021 3.55681 20.8633 2.56666ZM27.4841 3.82148V4.25453H23.9857V3.82148H27.4841ZM19.2923 3.59462V4.02767H17.3285V3.59758L19.2923 3.59462ZM27.4841 2.81361V3.24665H23.9857V2.81361H27.4841ZM18.5494 1.05072V2.63815H18.9938V1.50385H19.3809V3.0452H17.2836V1.52984H17.6932V2.63815H18.137V1.05072H18.5494ZM16.8162 0.945559L17.1955 1.20728C16.8868 1.88671 16.4595 2.49896 15.9358 3.01211L15.7069 2.59325C16.1221 2.17143 16.5149 1.57651 16.8168 0.944969L16.8162 0.945559ZM25.7318 0.967419L26.073 1.78152H27.818V2.23878H23.6749V1.78092H25.5893L25.3408 1.14583L25.7318 0.967419Z" fill="#4D4D4D"/>
<path d="M5.01258 8.08724C4.90963 8.1414 4.79087 8.15185 4.68081 8.11645C4.57076 8.08105 4.47782 8.0025 4.42119 7.89701L4.39202 7.82966L3.17109 5.00573C3.15749 4.97457 3.15022 4.94077 3.14977 4.90648C3.15041 4.86309 3.16238 4.82073 3.18437 4.78403C3.20636 4.74734 3.23752 4.71772 3.27444 4.69844C3.31136 4.67916 3.3526 4.67095 3.39366 4.67472C3.43471 4.67848 3.47399 4.69408 3.50718 4.71979L4.94861 5.80033C5.03565 5.86062 5.1349 5.89855 5.2384 5.91106C5.3419 5.92358 5.44674 5.91034 5.54449 5.87241L12.323 2.69341C11.1077 1.18574 9.10682 0.200317 6.84228 0.200317C3.13911 0.200317 0.132812 2.83638 0.132812 6.08804C0.132812 7.86038 1.03672 9.45904 2.45122 10.5384C2.50926 10.5822 2.55653 10.6399 2.58913 10.7068C2.62172 10.7737 2.63869 10.8478 2.63862 10.923C2.63732 10.9739 2.62939 11.0244 2.61506 11.0731L2.31263 12.2605C2.29377 12.316 2.2817 12.3738 2.27672 12.4324C2.27672 12.4951 2.30037 12.5552 2.34246 12.5995C2.38455 12.6439 2.44163 12.6687 2.50116 12.6687C2.54715 12.6668 2.59178 12.6517 2.63021 12.625L4.09913 11.7324C4.20653 11.6632 4.32956 11.6257 4.45542 11.6237C4.52218 11.6238 4.58855 11.6343 4.65236 11.655C5.36393 11.8694 6.10047 11.9779 6.84059 11.9775C10.5438 11.9775 13.5506 9.34147 13.5506 6.08981C13.5475 5.12246 13.283 4.176 12.7881 3.361L5.06251 8.0577L5.01258 8.08724Z" fill="#1AAD19"/>
</g>
<defs>
<clipPath id="clip0_3603_622">
<rect width="40.1704" height="12.4667" fill="white" transform="translate(0.132812 0.200012)"/>
</clipPath>
</defs>
</svg>
