<svg width="27" height="19" viewBox="0 0 27 19" fill="none" xmlns="http://www.w3.org/2000/svg">
<g clip-path="url(#clip0_3603_796)">
<path d="M26.0625 16.7983C26.0618 17.1499 25.9253 17.487 25.6829 17.7356C25.4404 17.9843 25.1118 18.1243 24.7689 18.125H1.47975C1.13712 18.1239 0.80883 17.9838 0.566672 17.7352C0.324515 17.4865 0.188188 17.1497 0.1875 16.7983L0.1875 2.20172C0.190222 1.85094 0.327203 1.51531 0.568923 1.26714C0.810642 1.01898 1.13775 0.878146 1.47975 0.875L24.7689 0.875C25.1112 0.877797 25.4386 1.01847 25.6806 1.26668C25.9226 1.51488 26.0598 1.85072 26.0625 2.20172V16.7983Z" fill="#EAC900"/>
<path d="M9.89046 16.0359H6.65527V18.125H9.89046V16.0359Z" fill="#D0A200"/>
<path d="M13.1244 16.0359H9.8905V18.125H13.1244V16.0359Z" fill="#F1BB00"/>
<path d="M0.1875 16.0359V16.7983C0.187498 17.1502 0.323521 17.4877 0.565753 17.7369C0.807985 17.9861 1.13667 18.1266 1.47975 18.1277H3.42139V16.0359H0.1875Z" fill="#D0A200"/>
<path d="M6.65527 16.0359H3.42139V18.125H6.65527V16.0359Z" fill="#F1BB00"/>
<path d="M19.5935 16.0359H16.3583V18.125H19.5935V16.0359Z" fill="#F1BB00"/>
<path d="M22.8273 16.0359V18.1277H24.7689C25.1118 18.127 25.4404 17.987 25.6828 17.7383C25.9253 17.4896 26.0618 17.1526 26.0625 16.801V16.0386L22.8273 16.0359Z" fill="#F1BB00"/>
<path d="M22.8273 16.0359H19.5934V18.125H22.8273V16.0359Z" fill="#D0A200"/>
<path d="M16.3583 16.0359H13.1244V18.125H16.3583V16.0359Z" fill="#D0A200"/>
<path d="M3.76562 5.32191C3.76562 5.0574 3.8421 4.79882 3.98539 4.57889C4.12867 4.35895 4.33233 4.18753 4.5706 4.0863C4.80887 3.98508 5.07106 3.95859 5.32401 4.0102C5.57695 4.0618 5.8093 4.18918 5.99167 4.37622C6.17403 4.56326 6.29823 4.80156 6.34854 5.061C6.39886 5.32043 6.37303 5.58934 6.27434 5.83372C6.17564 6.0781 6.00851 6.28698 5.79407 6.43394C5.57963 6.58089 5.32752 6.65933 5.06961 6.65933C4.72377 6.65933 4.3921 6.51843 4.14755 6.26761C3.90301 6.0168 3.76563 5.67662 3.76562 5.32191Z" fill="black"/>
<path d="M6.19503 13.1431C6.60178 13.2198 7.00045 13.3363 7.38556 13.4909L7.25517 13.8453C5.8539 13.2849 4.29851 13.2849 2.89724 13.8453L2.76685 13.4909C3.15202 13.3364 3.55067 13.22 3.95739 13.1431V8.19469C3.55085 8.11766 3.15226 8.00169 2.76685 7.8483L2.89724 7.49121C3.23864 7.62796 3.59184 7.7314 3.95217 7.80015C4.32221 7.87305 4.6981 7.91021 5.0749 7.91116C5.45372 7.89419 5.83031 7.84272 6.20024 7.75736V13.1431H6.19503Z" fill="black"/>
<path d="M15.868 4.72004C12.2442 5.82341 9.86314 4.68126 9.83706 4.67056L9.68188 5.02096C10.1725 5.24335 10.6907 5.39502 11.2219 5.47167V13.0455C10.6907 13.1221 10.1725 13.2738 9.68188 13.4962L9.83706 13.8386C9.85792 13.8279 12.239 12.6817 15.8628 13.7891C18.3051 14.5327 20.6875 14.2799 22.2262 13.099C23.3868 12.2096 23.9997 10.8788 23.9997 9.25389C23.9997 7.62892 23.3868 6.29953 22.2262 5.41149C20.6862 4.22787 18.3051 3.97644 15.8628 4.72004M20.6693 5.4048C20.8179 5.55219 20.9492 5.71692 21.0605 5.89563C21.173 6.08034 21.2682 6.27559 21.3447 6.47875C21.6264 7.20496 21.6981 8.0141 21.7216 8.78846C21.7216 8.9436 21.7216 9.09875 21.7216 9.25389C21.7216 9.40903 21.7216 9.56417 21.7216 9.71931C21.6981 10.495 21.6264 11.3028 21.3447 12.0304C21.2682 12.2335 21.173 12.4288 21.0605 12.6135C20.9492 12.7918 20.8179 12.9561 20.6693 13.103C20.1829 13.5858 19.5544 13.7851 18.8906 13.8131C18.6572 13.8252 18.4212 13.8238 18.1878 13.8131C17.9544 13.8024 17.704 13.7797 17.4628 13.7476C17.2215 13.7155 16.966 13.67 16.7208 13.6139C16.4757 13.5577 16.2162 13.4935 15.9684 13.4173C15.1543 13.1663 14.3162 13.0058 13.4687 12.9385V5.56797C14.3162 5.50066 15.1543 5.34014 15.9684 5.08917C16.2162 5.01294 16.4678 4.9474 16.7208 4.89257C16.9738 4.83774 17.2137 4.79494 17.4628 4.75883C17.7118 4.72272 17.9452 4.70399 18.1878 4.6933C18.4303 4.6826 18.6572 4.6826 18.8906 4.6933C19.5544 4.72272 20.1829 4.92199 20.6693 5.40346" fill="black"/>
</g>
<defs>
<clipPath id="clip0_3603_796">
<rect width="25.875" height="17.25" fill="white" transform="translate(0.1875 0.875)"/>
</clipPath>
</defs>
</svg>
