<svg width="30" height="19" viewBox="0 0 30 19" fill="none" xmlns="http://www.w3.org/2000/svg">
<g clip-path="url(#clip0_3603_755)">
<path d="M28.9112 17.1268C28.9062 17.6453 28.4684 18.062 27.9237 18.0669H1.58144C1.03678 18.062 0.599012 17.6453 0.593922 17.1268V1.89258C0.583741 1.36926 1.0266 0.938012 1.58144 0.933167H27.9237C28.4684 0.938012 28.9062 1.35473 28.9112 1.87319V17.1268Z" fill="white"/>
<mask id="mask0_3603_755" style="mask-type:luminance" maskUnits="userSpaceOnUse" x="0" y="0" width="29" height="19">
<path d="M28.9112 17.1268C28.9062 17.6453 28.4684 18.062 27.9237 18.0669H1.58144C1.03678 18.062 0.599012 17.6453 0.593922 17.1268V1.89258C0.583741 1.36926 1.0266 0.938012 1.58144 0.933167H27.9237C28.4684 0.938012 28.9062 1.35473 28.9112 1.87319V17.1268Z" fill="white"/>
</mask>
<g mask="url(#mask0_3603_755)">
<path d="M29.0486 10.3867H0.390259V11.947H29.0486V10.3867Z" fill="#EFA5AA"/>
<path d="M29.0486 8.82648H0.390259V10.3867H29.0486V8.82648Z" fill="#F3C6DA"/>
<path d="M29.0486 7.242H0.390259V8.80226H29.0486V7.242Z" fill="#FACD89"/>
<path d="M29.0486 5.68176H0.390259V7.24202H29.0486V5.68176Z" fill="#FAF1A0"/>
<path d="M29.0486 4.11664H0.390259V5.67689H29.0486V4.11664Z" fill="#CDE18D"/>
<path d="M29.0486 2.53705H0.390259V4.12153H29.0486V2.53705Z" fill="#8CC8E6"/>
<path d="M29.0486 0.933167H0.390259V2.53703H29.0486V0.933167Z" fill="#BBB3D8"/>
</g>
<path d="M26.3916 12.9355H25.8317C25.5212 12.9355 25.2717 13.1729 25.2717 13.4685V16.526C25.2717 16.8216 25.5212 17.059 25.8317 17.059H26.3916C26.7021 17.059 26.9515 16.8216 26.9515 16.526V13.4685C26.9515 13.1729 26.7021 12.9355 26.3916 12.9355ZM26.3 16.526H25.8978C25.8622 16.526 25.8317 16.4969 25.8317 16.463V13.5315C25.8317 13.4976 25.8622 13.4685 25.8978 13.4685H26.3C26.3305 13.4636 26.3611 13.4879 26.3661 13.5169C26.3661 13.5218 26.3661 13.5266 26.3661 13.5315V16.463C26.3916 16.5066 26.3458 16.526 26.3 16.526Z" fill="#421E14"/>
<path d="M24.1009 15.993H23.7039C23.658 15.993 23.6377 16.0366 23.6122 16.056V16.4388C23.6122 16.4727 23.5817 16.5018 23.5461 16.5018H23.1439C23.1083 16.5018 23.0778 16.4727 23.0778 16.4388V13.5315C23.0778 13.4976 23.1083 13.4685 23.1439 13.4685H23.5461C23.5766 13.4637 23.6071 13.4879 23.6122 13.517C23.6122 13.5218 23.6122 13.5267 23.6122 13.5315V13.9143C23.6122 13.9579 23.658 13.9773 23.7039 13.9773H24.106C24.1518 13.9724 24.1925 13.9385 24.1976 13.8901V13.4637C24.1976 13.1681 23.9482 12.9307 23.6377 12.9307H23.0778C22.7672 12.9307 22.5178 13.1681 22.5178 13.4637V16.526C22.5178 16.8216 22.7672 17.059 23.0778 17.059H23.6377C23.9482 17.059 24.1976 16.8216 24.1976 16.526V16.0754C24.1925 16.0318 24.1569 15.993 24.106 15.9882L24.1009 15.993Z" fill="#421E14"/>
<path d="M20.8176 12.9355H19.8963C19.8505 12.9403 19.8097 12.9743 19.8047 13.0227V13.4055C19.8097 13.4491 19.8454 13.4879 19.8963 13.4927H20.8176V14.0548H20.2577C19.9472 14.0548 19.6978 14.2922 19.6978 14.5878V16.5793C19.6978 16.8749 19.9472 17.1123 20.2577 17.1123H21.3165C21.3623 17.1123 21.3826 17.0687 21.3826 17.0251V13.4636C21.3776 13.1729 21.1281 12.9355 20.8176 12.9355ZM20.7514 16.526H20.329C20.2933 16.526 20.2628 16.4969 20.2628 16.463V14.6217C20.2577 14.5926 20.2831 14.5636 20.3137 14.5587C20.3188 14.5587 20.3239 14.5587 20.329 14.5587H20.7311C20.7667 14.5587 20.7973 14.5878 20.7973 14.6217V16.463C20.8176 16.5066 20.7769 16.526 20.7514 16.526Z" fill="#421E14"/>
<path d="M17.9416 12.9355H16.9083C16.8625 12.9403 16.8217 12.9743 16.8167 13.0227V17.0009C16.8217 17.0445 16.8574 17.0832 16.9083 17.0881H17.3104C17.3511 17.0881 17.3868 17.059 17.402 17.0251V13.5363C17.402 13.5024 17.4326 13.4733 17.4682 13.4733H17.8703C17.906 13.4733 17.9365 13.5024 17.9365 13.5363V16.9815C17.9416 17.0251 17.9772 17.0639 18.0281 17.0687H18.4303C18.4761 17.0639 18.5168 17.0299 18.5219 16.9815V13.4733C18.5117 13.1681 18.2521 12.9355 17.9416 12.9355Z" fill="#421E14"/>
<path d="M15.0656 12.9355H14.1494C14.1087 12.9355 14.073 12.9646 14.0578 12.9985V13.3813C14.0578 13.4201 14.0883 13.454 14.1239 13.4685H15.0453V14.0257H14.4853C14.1748 14.0257 13.9254 14.2632 13.9254 14.5588V16.5503C13.9254 16.8458 14.1748 17.0833 14.4853 17.0833H15.5441C15.5899 17.0833 15.6103 17.0397 15.6103 16.996V13.4637C15.6307 13.1875 15.4118 12.95 15.1267 12.9307C15.1064 12.9307 15.0911 12.9307 15.0707 12.9307H15.0656V12.9355ZM14.9995 16.526H14.5973C14.5617 16.526 14.5312 16.497 14.5312 16.463V14.6217C14.5312 14.5878 14.5617 14.5588 14.5973 14.5588H14.9995C15.0351 14.5588 15.0656 14.5878 15.0656 14.6217V16.463C15.0707 16.4921 15.0453 16.5212 15.0147 16.526C15.0096 16.526 15.0046 16.526 14.9995 16.526Z" fill="#421E14"/>
<path d="M12.1897 12.9355H11.1563C11.1105 12.9403 11.0698 12.9742 11.0647 13.0227V17.0008C11.0698 17.0445 11.1054 17.0832 11.1563 17.0881H11.5585C11.6043 17.0832 11.645 17.0493 11.6501 17.0008V13.5363C11.645 13.5072 11.6704 13.4782 11.701 13.4733C11.7061 13.4733 11.7112 13.4733 11.7163 13.4733H12.1184C12.154 13.4733 12.1846 13.5024 12.1846 13.5363V16.9815C12.1897 17.0251 12.2253 17.0638 12.2762 17.0687H12.6783C12.719 17.0687 12.7547 17.0396 12.7699 17.0057V13.4733C12.7649 13.168 12.5053 12.9258 12.1897 12.9355Z" fill="#421E14"/>
<path d="M28.9112 17.1268C28.9062 17.6453 28.4684 18.062 27.9237 18.0669H1.58144C1.03678 18.062 0.599012 17.6453 0.593922 17.1268V1.89258C0.583741 1.36926 1.0266 0.938012 1.58144 0.933167H27.9237C28.4684 0.938012 28.9062 1.35473 28.9112 1.87319V17.1268Z" stroke="#231815" stroke-width="0.3679"/>
</g>
<defs>
<clipPath id="clip0_3603_755">
<rect width="28.75" height="17.25" fill="white" transform="translate(0.375 0.875)"/>
</clipPath>
</defs>
</svg>
