<svg width="24" height="20" viewBox="0 0 24 20" fill="none" xmlns="http://www.w3.org/2000/svg">
<g clip-path="url(#clip0_3586_233)">
<path fill-rule="evenodd" clip-rule="evenodd" d="M20.2486 18.1825C20.1744 18.0479 20.7869 17.9459 20.9015 18.1442C21.0406 18.3738 21.3281 18.8095 21.3281 18.8095C21.3281 18.8095 22.447 18.2266 22.6894 18.0941C22.9317 17.9618 23.4534 18.0807 23.1655 18.2434C22.8777 18.406 21.0103 19.3292 20.7 19.4949C20.4581 19.6241 19.3993 19.5341 19.2858 19.4819C19.2319 19.457 19.3334 19.2203 19.4342 19.2569C19.6279 19.3109 20.2364 19.3408 20.3774 19.2887C20.496 19.2379 20.8623 19.0392 20.8623 19.0392C20.8623 19.0392 20.3379 18.3136 20.2486 18.1825ZM17.951 18.0289C18.3725 18.0289 18.6613 18.1299 18.7475 18.1299C18.8338 18.1299 18.9693 18.1013 19.0506 18.0728C19.1319 18.0443 19.518 18.0333 19.4451 18.1557C19.3604 18.2979 19.0001 18.8631 18.8719 19.0513C18.7727 19.1714 18.3472 19.15 18.3216 19.0153C18.2146 19.0018 18.1246 19.1211 17.3344 19.1154C16.719 19.1154 16.4905 18.9743 16.5856 18.8312C16.6997 18.6597 16.8821 18.3512 16.9871 18.242C17.0921 18.1329 17.5295 18.0289 17.9511 18.0289H17.951ZM17.4542 18.8824C17.1674 18.8824 17.3033 18.7054 17.3033 18.7054L17.5059 18.4216C17.5059 18.4216 17.5964 18.294 17.844 18.2962H18.4244C18.59 18.2962 18.7253 18.321 18.6303 18.446C18.5352 18.5711 18.4716 18.6847 18.4075 18.778C18.3434 18.8714 18.1929 18.8767 18.0332 18.8835C17.8735 18.8903 17.7275 18.8824 17.4542 18.8824ZM14.6995 17.7398C14.8877 17.6734 15.3603 17.6353 15.7019 17.6413C16.0434 17.6472 16.3826 17.6844 16.4148 17.8477C16.447 18.031 16.1526 18.355 16.0184 18.4316C15.884 18.5082 15.5879 18.5774 15.38 18.5774C15.1722 18.5774 14.2255 18.5798 14.2255 18.5798C14.2255 18.5798 13.9951 18.9238 13.9068 19.0517C13.8548 19.1449 13.177 19.214 13.3741 18.8929C13.5578 18.5935 13.9271 18.0237 14.1007 17.7842C14.293 17.5207 14.6548 17.6646 14.6995 17.7398ZM15.2644 18.3575C15.4649 18.3575 15.5594 18.2496 15.5594 18.2496C15.5594 18.2496 15.7045 18.0475 15.7335 17.9942C15.7626 17.9408 15.6916 17.8853 15.5594 17.8853H14.9063C14.8214 17.8853 14.6798 17.8995 14.599 18.0064C14.5182 18.1134 14.4534 18.1839 14.4534 18.1839C14.4534 18.1839 14.307 18.3575 14.4882 18.3575H15.2644Z" fill="#014099"/>
<path fill-rule="evenodd" clip-rule="evenodd" d="M10.7663 17.9256C10.9071 17.7723 11.0691 17.7191 11.3412 17.6877C11.6135 17.6563 12.4032 17.6459 12.5685 17.6546C12.7337 17.6634 12.9776 17.6623 12.9788 17.7625C12.9816 17.8989 12.8032 17.8964 12.7227 17.898C12.6421 17.8997 11.7317 17.898 11.6122 17.898C11.4926 17.898 11.3988 17.9747 11.3413 18.0638C11.2837 18.1529 10.9851 18.6217 10.9085 18.7412C10.8318 18.8608 10.9002 18.8649 11.0625 18.8671C11.2248 18.8693 12.2566 18.8245 12.4065 18.8153C12.5954 18.802 12.6035 18.9782 12.3935 19.0415C12.2138 19.1041 11.2633 19.1069 10.7413 19.0946C10.3269 19.0755 10.0785 19.0117 10.2457 18.7441C10.4336 18.4406 10.6516 18.0916 10.7664 17.9256H10.7663ZM8.21894 18.9187C8.21894 18.9187 8.84358 17.9705 8.99322 17.7513C9.1367 17.5404 9.7347 17.6145 9.59436 17.8437C9.45398 18.0729 8.84506 19.0226 8.84506 19.0226C8.7253 19.1873 8.07241 19.1136 8.21894 18.9187Z" fill="#D70C19"/>
<path fill-rule="evenodd" clip-rule="evenodd" d="M5.63529 18.8787H6.03977C6.20778 18.8787 6.37399 18.8209 6.42722 18.7425C6.48041 18.664 6.89935 18.0182 7.04207 17.7898C7.20877 17.5229 7.79662 17.6253 7.68095 17.8191C7.53971 18.045 6.9445 18.9501 6.9445 18.9501C6.9445 18.9501 6.87455 19.1175 6.63916 19.1175C6.28154 19.13 6.36815 18.9903 6.30777 19.0165C6.19996 19.096 5.50516 19.1175 5.1859 19.1175C4.46921 19.1225 4.15494 19.0226 4.31711 18.7754C4.47932 18.5282 4.67388 18.1637 4.92378 17.8225C5.14812 17.5163 5.73722 17.6056 5.57213 17.835C5.40705 18.0643 5.07427 18.5977 4.99839 18.7223C4.91627 18.8572 5.00818 18.8705 5.09605 18.8787H5.63529ZM2.17501 19.1142H0.78189C0.226476 19.1142 0.162417 18.9397 0.334063 18.6719C0.494884 18.421 0.653368 18.1495 0.781935 17.9562C0.961622 17.6859 1.16512 17.6277 1.65836 17.6277H2.93895C3.63995 17.6277 3.63223 17.8525 3.52293 18.0395C3.41359 18.2263 3.03472 18.7934 2.91527 18.9524C2.91314 18.9552 2.91095 18.958 2.90872 18.9607C2.95912 18.978 2.99631 18.989 3.01356 18.9908C3.11307 19.0013 3.29527 19.0849 3.26571 19.1655C3.23615 19.2461 2.85782 19.2195 2.85782 19.2195L2.47931 19.1078C2.3838 19.1139 2.28044 19.1142 2.17501 19.1142ZM2.37918 18.7587C2.39818 18.7396 2.41673 18.7179 2.43501 18.6933C2.52688 18.57 2.75504 18.2043 2.83096 18.0818C2.90692 17.9592 2.92987 17.888 2.73383 17.888H1.74744C1.51708 17.888 1.41893 18.0414 1.41893 18.0414C1.41893 18.0414 1.06 18.5905 0.961622 18.722C0.892892 18.8076 0.915802 18.8776 1.12312 18.8776C1.36354 18.8785 1.70229 18.8835 1.92192 18.8821C1.84622 18.8369 1.77376 18.7908 1.74744 18.7662C1.68428 18.707 1.59003 18.6153 1.63222 18.5625C1.67444 18.5097 1.88117 18.5715 2.01603 18.6174C2.06814 18.6351 2.214 18.6933 2.37918 18.7587Z" fill="#014099"/>
<path fill-rule="evenodd" clip-rule="evenodd" d="M19.4206 15.2489L21.4204 11.7768L21.6728 11.9228L19.673 15.395L19.4206 15.2489ZM17.322 14.0416L19.3208 10.5713L20.0034 10.9663L18.0046 14.4367L17.322 14.0416ZM15.1833 12.8038L17.1821 9.33356L18.2701 9.96321L16.2713 13.4335L15.1833 12.8038Z" fill="#D70C19"/>
<path fill-rule="evenodd" clip-rule="evenodd" d="M15.8059 13.1642C14.5349 14.3658 12.822 15.1028 10.9387 15.1028C7.02185 15.1028 3.84192 11.9152 3.84192 7.9889C3.84192 4.06259 7.02185 0.875 10.9387 0.875C14.8556 0.875 18.0355 4.06259 18.0355 7.98886C18.0355 8.58109 17.9632 9.15649 17.8269 9.70667L16.2625 8.80138L14.2637 12.2717L15.8059 13.1642ZM14.7911 7.94982C14.7991 7.84324 14.8031 7.7364 14.8031 7.62952C14.8031 5.29318 12.9109 3.39637 10.5802 3.39637C8.24947 3.39637 6.35723 5.29318 6.35723 7.62952C6.35723 9.96582 8.24947 11.8626 10.5802 11.8626C11.3254 11.8626 12.0258 11.6687 12.6339 11.3285L8.99298 9.22124L10.9917 5.75091L14.7912 7.94982H14.7911Z" fill="#014099"/>
</g>
<defs>
<clipPath id="clip0_3586_233">
<rect width="23" height="18.6875" fill="white" transform="translate(0.25 0.875)"/>
</clipPath>
</defs>
</svg>
