<svg width="15" height="23" viewBox="0 0 15 23" fill="none" xmlns="http://www.w3.org/2000/svg">
<g clip-path="url(#clip0_3594_482)">
<path d="M13.9136 16.9449L12.2325 21.9921C12.1607 22.2376 12.025 22.4585 11.84 22.6312C11.655 22.8038 11.4276 22.9217 11.1822 22.9722C10.9367 23.0227 10.6825 23.0039 10.4467 22.9179C10.2109 22.8318 10.0024 22.6817 9.84354 22.4836L10.516 21.7569C10.5543 21.8128 10.6052 21.8585 10.6643 21.8901C10.7235 21.9218 10.7892 21.9384 10.8559 21.9385C10.934 21.9353 11.0087 21.9052 11.068 21.8532C11.1273 21.8011 11.1677 21.7301 11.1828 21.6517L11.2127 21.5522L9.56897 16.9449H10.7308L11.7375 19.9533L12.7518 16.9449H13.9136Z" fill="#0E0046"/>
<path d="M7.61153 21.2864C7.47497 21.463 7.30042 21.6049 7.10149 21.7011C6.90256 21.7973 6.68463 21.8452 6.46467 21.841C5.29539 21.841 4.34839 20.7107 4.34839 19.3318C4.34839 17.9529 5.32528 16.8302 6.52444 16.8302C6.73578 16.8255 6.94508 16.8733 7.13442 16.9696C7.32375 17.0658 7.48746 17.2077 7.61153 17.3829V15.3614H8.72103V21.7186H7.75909L7.61153 21.2864ZM5.45789 19.3318C5.45789 20.135 5.9398 20.7796 6.53938 20.7796C7.13896 20.7796 7.61153 20.1809 7.61153 19.3394C7.61153 18.4979 7.15951 17.8917 6.53751 17.8917C5.93233 17.8917 5.45789 18.5285 5.45789 19.3318Z" fill="#0E0046"/>
<path d="M1.1095 16.8168V18.0676H3.28555V19.1252H1.1095V20.6553H3.56013V21.7148H0V15.7554H3.56013V16.8168H1.1095Z" fill="#0E0046"/>
<path d="M2.68967 14.8488L0.745239 13.1792H14.375L2.68967 14.8488Z" fill="#BF0000"/>
<path d="M4.9031 11.9265V8.22385H6.46837L9.17862 11.9265H11.9543L8.6743 7.45884C9.36751 6.95381 9.88607 6.23632 10.1552 5.40992C10.4242 4.58352 10.4299 3.69094 10.1714 2.86102C9.91284 2.0311 9.40345 1.30675 8.71672 0.792516C8.03 0.278282 7.20146 0.000758852 6.35069 0L2.6897 0V11.9265H4.9031ZM4.9031 2.26443H6.35069C6.59265 2.25646 6.8337 2.29837 7.05953 2.38768C7.28535 2.47698 7.49134 2.61186 7.66525 2.78429C7.83916 2.95672 7.97744 3.16319 8.07188 3.39143C8.16632 3.61966 8.21498 3.86501 8.21498 4.11288C8.21498 4.36075 8.16632 4.6061 8.07188 4.83433C7.97744 5.06257 7.83916 5.26904 7.66525 5.44147C7.49134 5.6139 7.28535 5.74878 7.05953 5.83808C6.8337 5.92739 6.59265 5.9693 6.35069 5.96133H4.9031V2.26443Z" fill="#BF0000"/>
</g>
<defs>
<clipPath id="clip0_3594_482">
<rect width="14.375" height="23" fill="white"/>
</clipPath>
</defs>
</svg>
