<svg width="28" height="19" viewBox="0 0 28 19" fill="none" xmlns="http://www.w3.org/2000/svg">
<g clip-path="url(#clip0_3603_784)">
<path d="M13.6562 0.875C18.1681 0.875 22.68 0.875 27.1919 0.875C27.3125 0.875 27.3125 0.9095 27.3125 1.013C27.3125 6.671 27.3125 12.329 27.3125 18.0042C27.3125 18.1077 27.2953 18.1423 27.1919 18.1423C18.1681 18.1423 9.16157 18.1423 0.137768 18.1423C0.017221 18.125 0 18.0905 0 17.987C0 12.329 0 6.65375 0 0.99575C0 0.9095 0.017221 0.875 0.120547 0.875C4.63245 0.875 9.14435 0.875 13.6562 0.875ZM13.639 17.3143C17.8582 17.3143 22.0773 17.3143 26.2965 17.3143C26.5203 17.3143 26.5031 17.3315 26.5031 17.1245C26.5031 12.0357 26.5031 6.96425 26.5031 1.8755C26.5031 1.68575 26.5031 1.68575 26.3137 1.68575C17.8582 1.68575 9.41988 1.68575 0.964376 1.68575C0.774945 1.68575 0.774945 1.68575 0.774945 1.8755C0.774945 6.96425 0.774945 12.0357 0.774945 17.1245C0.774945 17.3487 0.757724 17.3315 0.981597 17.3315C5.20074 17.3143 9.41988 17.3143 13.639 17.3143Z" fill="#E4E5E6"/>
<path d="M13.639 17.3143C9.4199 17.3143 5.20076 17.3143 0.981616 17.3143C0.757743 17.3143 0.774964 17.3315 0.774964 17.1073C0.774964 12.0185 0.774964 6.94702 0.774964 1.85827C0.774964 1.66852 0.774964 1.66852 0.964395 1.66852C9.4199 1.66852 17.8582 1.66852 26.3137 1.66852C26.5031 1.66852 26.5031 1.66852 26.5031 1.85827C26.5031 6.94702 26.5031 12.0185 26.5031 17.1073C26.5031 17.3315 26.5204 17.297 26.2965 17.297C22.0946 17.3143 17.8754 17.3143 13.639 17.3143ZM13.6218 10.4143C13.243 10.4315 12.7608 10.4488 12.2614 10.466C10.832 10.5178 9.4199 10.6385 8.025 10.8973C7.31894 11.0353 6.61288 11.2078 5.94126 11.501C5.61406 11.6563 5.30409 11.8288 5.09743 12.1048C4.83912 12.4325 4.87356 12.7775 5.16632 13.088C5.44185 13.364 5.76905 13.5365 6.13069 13.6745C7.12951 14.0885 8.17999 14.2955 9.24769 14.4508C10.7631 14.675 12.2958 14.7613 13.8285 14.7613C15.2923 14.7613 16.7388 14.675 18.1854 14.468C19.1153 14.33 20.0453 14.1575 20.9408 13.847C21.4057 13.6918 21.8707 13.502 22.2495 13.1743C22.6456 12.8293 22.6629 12.398 22.3012 12.0185C22.0257 11.7425 21.6813 11.57 21.3196 11.4148C20.4758 11.0698 19.5975 10.8973 18.702 10.7765C17.0316 10.5178 15.3784 10.4488 13.6218 10.4143ZM4.15028 6.32602C4.15028 6.65377 4.15028 6.96427 4.15028 7.29202C4.15028 7.99927 4.52914 8.62027 5.1491 8.86177C5.83794 9.13777 6.49234 9.05152 7.04341 8.53402C7.14673 8.43052 7.18118 8.46502 7.26728 8.53402C7.74947 8.99977 8.33498 9.10327 8.97216 8.93077C9.59211 8.75827 9.97098 8.32702 10.126 7.70602C10.1604 7.56802 10.1776 7.44727 10.1776 7.30927C10.1776 6.63652 10.1776 5.96377 10.1776 5.29102C10.1776 5.04952 10.126 4.98052 9.86765 4.98052C9.79877 4.98052 9.72988 4.98052 9.661 4.98052C9.4199 4.98052 9.36824 5.03227 9.36824 5.27377C9.36824 5.96377 9.36824 6.63652 9.36824 7.32652C9.36824 7.60252 9.28214 7.84402 9.07548 8.03377C8.78273 8.29252 8.45553 8.34427 8.11111 8.18902C7.74947 8.03377 7.57726 7.72327 7.57726 7.34377C7.57726 6.75727 7.57726 6.18802 7.57726 5.60152C7.57726 5.56702 7.57726 5.51527 7.57726 5.48077C7.56004 5.32552 7.50837 5.25652 7.33616 5.25652C7.25006 5.25652 7.16395 5.25652 7.07785 5.25652C6.81953 5.25652 6.76787 5.30827 6.76787 5.56702C6.76787 6.17077 6.78509 6.79177 6.75065 7.39552C6.73343 7.91302 6.32013 8.27527 5.83794 8.25802C5.33853 8.24077 4.95967 7.84402 4.95967 7.32652C4.95967 6.65377 4.95967 5.99827 4.95967 5.32552C4.95967 5.29102 4.95967 5.23927 4.95967 5.20477C4.94245 5.04952 4.89078 4.98052 4.71857 4.98052C4.61525 4.98052 4.51192 4.98052 4.40859 4.98052C4.21916 4.98052 4.15028 5.04952 4.15028 5.23927C4.15028 5.60152 4.15028 5.96377 4.15028 6.32602ZM14.7068 7.53352C14.7068 7.20577 14.7068 6.86077 14.7068 6.53302C14.7068 6.25702 14.6379 5.99827 14.5173 5.75677C14.1729 5.11852 13.5357 4.80802 12.7608 4.89427C11.9858 4.98052 11.3314 5.65327 11.3142 6.44677C11.297 7.18852 11.3142 7.93027 11.3142 8.68927C11.3142 8.82727 11.3831 8.89627 11.5209 8.91352C11.6414 8.91352 11.7447 8.91352 11.8653 8.91352C12.0375 8.91352 12.1064 8.84452 12.1064 8.65477C12.1064 8.43052 12.1064 8.20627 12.1064 7.96477C12.1064 7.79227 12.1753 7.70602 12.3647 7.70602C12.7952 7.70602 13.2257 7.70602 13.6563 7.70602C13.8457 7.70602 13.8974 7.77502 13.9146 7.96477C13.9146 8.18902 13.9146 8.41327 13.9146 8.65477C13.9146 8.84452 13.9835 8.89627 14.1729 8.91352C14.259 8.91352 14.3451 8.91352 14.4484 8.91352C14.6723 8.91352 14.724 8.86177 14.724 8.63752C14.7067 8.25802 14.7068 7.89577 14.7068 7.53352ZM19.012 6.94702C19.012 6.84352 19.012 6.74002 19.012 6.61927C19.012 5.63602 18.392 4.96327 17.4104 4.87702C16.6011 4.80802 15.8433 5.32552 15.6539 6.11902C15.5334 6.61927 15.5506 7.11952 15.6195 7.61977C15.74 8.43052 16.36 8.93077 17.1866 8.98252C17.9787 9.03427 18.6504 8.60302 18.9087 7.87852C19.0292 7.58527 19.012 7.25752 19.012 6.94702ZM19.9764 7.53352C19.9764 7.89577 19.9764 8.27527 19.9764 8.63752C19.9764 8.82727 20.0453 8.89627 20.2347 8.89627C20.2691 8.89627 20.3208 8.89627 20.3552 8.89627C20.7685 8.89627 20.7685 8.89627 20.7685 8.48227C20.7685 7.80952 20.7685 7.13677 20.7858 6.46402C20.803 6.01552 21.1646 5.65327 21.6124 5.63602C22.0773 5.60152 22.4562 5.89477 22.5595 6.36052C22.594 6.53302 22.5767 6.72277 22.5767 6.89527C22.5767 7.48177 22.5767 8.08552 22.5767 8.67202C22.5767 8.84452 22.6456 8.91352 22.8178 8.91352C22.9212 8.91352 23.0073 8.91352 23.1106 8.91352C23.3 8.91352 23.3689 8.84452 23.3689 8.63752C23.3689 7.93027 23.3689 7.24027 23.3689 6.53302C23.3689 6.32602 23.3345 6.11902 23.2484 5.92927C22.9901 5.29102 22.3701 4.87702 21.6124 4.89427C20.6997 4.91152 19.9592 5.63602 19.9592 6.55027C19.9764 6.86077 19.9764 7.20577 19.9764 7.53352Z" fill="#8ACCEC"/>
<path d="M13.6218 10.4142C15.3955 10.4487 17.0315 10.5177 18.6847 10.7592C19.5802 10.8972 20.4585 11.0697 21.3023 11.3975C21.664 11.5355 22.0084 11.708 22.2839 12.0012C22.6628 12.3807 22.6456 12.812 22.2323 13.157C21.8534 13.4847 21.3884 13.6745 20.9235 13.8297C20.028 14.1402 19.1153 14.3127 18.1681 14.4507C16.7215 14.6577 15.275 14.744 13.8112 14.744C12.2785 14.744 10.7458 14.6577 9.2304 14.4335C8.1627 14.2782 7.11222 14.0712 6.1134 13.6572C5.76898 13.5192 5.42456 13.3467 5.14903 13.0707C4.85627 12.7775 4.83905 12.4325 5.08014 12.0875C5.30401 11.7942 5.61399 11.6217 5.92397 11.4837C6.59559 11.1732 7.30165 11.0007 8.00771 10.88C9.40261 10.6212 10.832 10.5005 12.2441 10.4487C12.7435 10.4487 13.2429 10.4315 13.6218 10.4142ZM13.7079 13.571C14.7411 13.571 15.7916 13.5365 16.8249 13.433C17.7376 13.3467 18.6675 13.2432 19.563 13.019C20.028 12.9155 20.4929 12.7947 20.9062 12.536C21.3195 12.2772 21.3195 12.0012 20.9062 11.7597C20.5618 11.5527 20.1657 11.4492 19.7869 11.3457C18.7708 11.087 17.7376 10.949 16.7043 10.8627C15.4472 10.742 14.19 10.673 12.9329 10.7247C11.4691 10.7765 10.0053 10.8972 8.55878 11.1732C7.99049 11.2767 7.4222 11.3975 6.88835 11.6217C6.69891 11.6907 6.5267 11.777 6.37172 11.9322C6.23395 12.0702 6.23395 12.2082 6.3545 12.3635C6.42338 12.4325 6.49226 12.5015 6.57837 12.5532C6.73336 12.6567 6.92279 12.7257 7.095 12.7947C7.95605 13.1052 8.85154 13.2432 9.76425 13.3467C11.0558 13.502 12.3818 13.571 13.7079 13.571Z" fill="#E7350D"/>
<path d="M4.15027 6.32603C4.15027 5.96378 4.15027 5.60153 4.15027 5.23928C4.15027 5.04953 4.21915 4.98053 4.40858 4.98053C4.51191 4.98053 4.61524 4.98053 4.71856 4.98053C4.87355 4.98053 4.94243 5.04953 4.95966 5.20478C4.95966 5.23928 4.95966 5.29103 4.95966 5.32553C4.95966 5.99828 4.95966 6.65378 4.95966 7.32653C4.95966 7.84403 5.33852 8.24078 5.83793 8.25803C6.33734 8.27528 6.73342 7.91303 6.75064 7.39553C6.76786 6.79178 6.76786 6.17078 6.76786 5.56703C6.76786 5.30828 6.81952 5.25653 7.07784 5.25653C7.16394 5.25653 7.25005 5.25653 7.33615 5.25653C7.49114 5.25653 7.56003 5.32553 7.57725 5.48078C7.57725 5.51528 7.57725 5.56703 7.57725 5.60153C7.57725 6.18803 7.57725 6.75728 7.57725 7.34378C7.57725 7.72328 7.74946 8.03378 8.1111 8.18903C8.45552 8.34428 8.79994 8.29253 9.07547 8.03378C9.28212 7.84403 9.36823 7.60253 9.36823 7.32653C9.36823 6.63653 9.36823 5.96378 9.36823 5.27378C9.36823 5.04953 9.41989 4.98053 9.66099 4.98053C9.72987 4.98053 9.79875 4.98053 9.86764 4.98053C10.126 4.98053 10.1776 5.03228 10.1776 5.29103C10.1776 5.96378 10.1776 6.63653 10.1776 7.30928C10.1776 7.44728 10.1604 7.56803 10.126 7.70603C9.97096 8.32703 9.5921 8.75828 8.97215 8.93078C8.33497 9.10328 7.76668 8.99978 7.26727 8.53403C7.18116 8.44778 7.14672 8.43053 7.0434 8.53403C6.49232 9.05153 5.83793 9.13778 5.14909 8.86178C4.51191 8.62028 4.15027 8.01653 4.15027 7.29203C4.15027 6.96428 4.15027 6.65378 4.15027 6.32603Z" fill="#E7350D"/>
<path d="M14.7067 7.53351C14.7067 7.89576 14.7067 8.25801 14.7067 8.62026C14.7067 8.84451 14.6551 8.89626 14.4312 8.89626C14.3451 8.89626 14.259 8.89626 14.1556 8.89626C13.9834 8.89626 13.8973 8.82726 13.8973 8.63751C13.8973 8.41326 13.8973 8.18901 13.8973 7.94751C13.8973 7.75776 13.8284 7.68876 13.639 7.68876C13.2085 7.68876 12.778 7.68876 12.3474 7.68876C12.1752 7.68876 12.0891 7.75776 12.0891 7.94751C12.0891 8.17176 12.0891 8.39601 12.0891 8.63751C12.0891 8.81001 12.0202 8.87901 11.848 8.89626C11.7275 8.89626 11.6242 8.89626 11.5036 8.89626C11.3658 8.89626 11.297 8.81001 11.297 8.67201C11.297 7.93026 11.2797 7.18851 11.297 6.42951C11.3142 5.65326 11.9686 4.98051 12.7435 4.87701C13.5185 4.79076 14.1556 5.10126 14.5001 5.73951C14.6378 5.98101 14.6895 6.23976 14.6895 6.51576C14.7067 6.87801 14.7067 7.20576 14.7067 7.53351ZM13.0018 7.03326C13.2257 7.03326 13.4324 7.03326 13.6562 7.03326C13.8457 7.03326 13.8973 6.96426 13.8973 6.77451C13.8973 6.67101 13.8973 6.56751 13.8973 6.46401C13.8801 6.11901 13.639 5.79126 13.3118 5.67051C12.9674 5.54976 12.5885 5.63601 12.3474 5.89476C12.1236 6.13626 12.0891 6.44676 12.1063 6.75726C12.1063 6.94701 12.1752 7.01601 12.3819 7.01601C12.5885 7.03326 12.7952 7.03326 13.0018 7.03326Z" fill="#E7350D"/>
<path d="M19.0119 6.947C19.0119 7.2575 19.0292 7.58525 18.9086 7.8785C18.6503 8.603 17.9787 9.03425 17.1865 8.9825C16.3599 8.93075 15.7572 8.41325 15.6194 7.61975C15.5333 7.1195 15.5333 6.61925 15.6539 6.119C15.8433 5.3255 16.601 4.808 17.4104 4.877C18.392 4.96325 19.0119 5.636 19.0119 6.61925C19.0119 6.74 19.0119 6.8435 19.0119 6.947ZM18.2026 6.9815C18.2026 6.809 18.2026 6.671 18.2026 6.533C18.1853 6.257 18.0992 6.0155 17.8754 5.843C17.5826 5.6015 17.2554 5.567 16.9282 5.705C16.5838 5.86025 16.4116 6.1535 16.3944 6.51575C16.3771 6.809 16.3771 7.085 16.3944 7.37825C16.4116 7.8785 16.7732 8.24075 17.2382 8.27525C17.7031 8.30975 18.0992 7.982 18.1853 7.48175C18.2198 7.30925 18.2026 7.1195 18.2026 6.9815Z" fill="#E7350D"/>
<path d="M19.9763 7.53351C19.9763 7.20576 19.9763 6.87801 19.9763 6.55026C19.9763 5.63601 20.6996 4.91151 21.6295 4.89426C22.3873 4.87701 23.0244 5.29101 23.2655 5.92926C23.3344 6.11901 23.3861 6.32601 23.3861 6.53301C23.3861 7.24026 23.3861 7.93026 23.3861 8.63751C23.3861 8.84451 23.3172 8.89626 23.1278 8.91351C23.0244 8.91351 22.9383 8.91351 22.835 8.91351C22.6628 8.91351 22.5939 8.84451 22.5939 8.67201C22.5939 8.08551 22.5939 7.48176 22.5939 6.89526C22.5939 6.72276 22.6111 6.53301 22.5767 6.36051C22.4734 5.91201 22.0945 5.61876 21.6295 5.63601C21.199 5.67051 20.8201 6.01551 20.8029 6.46401C20.7857 7.13676 20.7857 7.80951 20.7857 8.48226C20.7857 8.89626 20.7857 8.89626 20.3724 8.89626C20.338 8.89626 20.2863 8.89626 20.2519 8.89626C20.0624 8.89626 19.9935 8.82726 19.9935 8.63751C19.9763 8.27526 19.9763 7.89576 19.9763 7.53351Z" fill="#E7350D"/>
<path d="M13.7079 13.571C12.3818 13.571 11.0558 13.502 9.74702 13.3468C8.85153 13.2433 7.93882 13.1053 7.07777 12.7948C6.90556 12.7258 6.71613 12.6568 6.56114 12.5533C6.47503 12.5015 6.40615 12.4325 6.33727 12.3635C6.21672 12.2083 6.21672 12.0703 6.35449 11.9323C6.49226 11.777 6.68169 11.6908 6.87112 11.6218C7.40497 11.3975 7.97326 11.2768 8.54155 11.1733C9.98812 10.9145 11.4519 10.7938 12.9157 10.7248C14.1728 10.673 15.43 10.7593 16.6871 10.8628C17.7203 10.949 18.7536 11.087 19.7696 11.3458C20.1657 11.4493 20.5446 11.5528 20.889 11.7598C21.3023 12.0013 21.3195 12.2773 20.889 12.536C20.4757 12.7948 20.0107 12.9155 19.5458 13.019C18.6503 13.226 17.7376 13.3468 16.8076 13.433C15.7916 13.5365 14.7583 13.571 13.7079 13.571Z" fill="#8ACCEC"/>
<path d="M13.0019 7.03323C12.7952 7.03323 12.5886 7.03323 12.3647 7.03323C12.158 7.03323 12.1064 6.96423 12.0891 6.77448C12.0719 6.46398 12.1064 6.15348 12.3302 5.91198C12.5713 5.65323 12.9502 5.54973 13.2946 5.68773C13.6218 5.80848 13.8629 6.13623 13.8801 6.48123C13.8801 6.58473 13.8801 6.68823 13.8801 6.79173C13.8801 6.98148 13.8112 7.05048 13.639 7.05048C13.4324 7.03323 13.2257 7.03323 13.0019 7.03323Z" fill="#8ACCEC"/>
<path d="M18.2026 6.98152C18.2026 7.11952 18.2198 7.30927 18.1854 7.48177C18.0993 7.98202 17.7032 8.29252 17.2382 8.27527C16.756 8.24077 16.4116 7.87852 16.3944 7.37827C16.3772 7.08502 16.3772 6.80902 16.3944 6.51577C16.4116 6.15352 16.5838 5.86027 16.9282 5.70502C17.2727 5.54977 17.5999 5.60152 17.8754 5.84302C18.082 6.01552 18.1854 6.25702 18.2026 6.53302C18.2198 6.67102 18.2026 6.80902 18.2026 6.98152Z" fill="#8ACCEC"/>
</g>
<defs>
<clipPath id="clip0_3603_784">
<rect width="27.3125" height="17.25" fill="white" transform="translate(0 0.875)"/>
</clipPath>
</defs>
</svg>
